%TF.GenerationSoftware,KiCad,Pcbnew,7.99.0-3134-gf47cc39208*%
%TF.CreationDate,2023-10-18T21:54:17+01:00*%
%TF.ProjectId,hh2024,68683230-3234-42e6-9b69-6361645f7063,rev?*%
%TF.SameCoordinates,Original*%
%TF.FileFunction,Legend,Bot*%
%TF.FilePolarity,Positive*%
%FSLAX46Y46*%
G04 Gerber Fmt 4.6, Leading zero omitted, Abs format (unit mm)*
G04 Created by KiCad (PCBNEW 7.99.0-3134-gf47cc39208) date 2023-10-18 21:54:17*
%MOMM*%
%LPD*%
G01*
G04 APERTURE LIST*
%ADD10C,0.300000*%
%ADD11C,0.150000*%
%ADD12C,0.254000*%
%ADD13C,0.250000*%
%ADD14C,0.120000*%
%ADD15C,0.127000*%
%ADD16C,0.100000*%
G04 APERTURE END LIST*
D10*
X133945489Y-91800828D02*
X133945489Y-90300828D01*
X133945489Y-90300828D02*
X133374060Y-90300828D01*
X133374060Y-90300828D02*
X133231203Y-90372257D01*
X133231203Y-90372257D02*
X133159774Y-90443685D01*
X133159774Y-90443685D02*
X133088346Y-90586542D01*
X133088346Y-90586542D02*
X133088346Y-90800828D01*
X133088346Y-90800828D02*
X133159774Y-90943685D01*
X133159774Y-90943685D02*
X133231203Y-91015114D01*
X133231203Y-91015114D02*
X133374060Y-91086542D01*
X133374060Y-91086542D02*
X133945489Y-91086542D01*
X132231203Y-91800828D02*
X132374060Y-91729400D01*
X132374060Y-91729400D02*
X132445489Y-91657971D01*
X132445489Y-91657971D02*
X132516917Y-91515114D01*
X132516917Y-91515114D02*
X132516917Y-91086542D01*
X132516917Y-91086542D02*
X132445489Y-90943685D01*
X132445489Y-90943685D02*
X132374060Y-90872257D01*
X132374060Y-90872257D02*
X132231203Y-90800828D01*
X132231203Y-90800828D02*
X132016917Y-90800828D01*
X132016917Y-90800828D02*
X131874060Y-90872257D01*
X131874060Y-90872257D02*
X131802632Y-90943685D01*
X131802632Y-90943685D02*
X131731203Y-91086542D01*
X131731203Y-91086542D02*
X131731203Y-91515114D01*
X131731203Y-91515114D02*
X131802632Y-91657971D01*
X131802632Y-91657971D02*
X131874060Y-91729400D01*
X131874060Y-91729400D02*
X132016917Y-91800828D01*
X132016917Y-91800828D02*
X132231203Y-91800828D01*
X131231203Y-90800828D02*
X130945489Y-91800828D01*
X130945489Y-91800828D02*
X130659774Y-91086542D01*
X130659774Y-91086542D02*
X130374060Y-91800828D01*
X130374060Y-91800828D02*
X130088346Y-90800828D01*
X128945488Y-91729400D02*
X129088345Y-91800828D01*
X129088345Y-91800828D02*
X129374060Y-91800828D01*
X129374060Y-91800828D02*
X129516917Y-91729400D01*
X129516917Y-91729400D02*
X129588345Y-91586542D01*
X129588345Y-91586542D02*
X129588345Y-91015114D01*
X129588345Y-91015114D02*
X129516917Y-90872257D01*
X129516917Y-90872257D02*
X129374060Y-90800828D01*
X129374060Y-90800828D02*
X129088345Y-90800828D01*
X129088345Y-90800828D02*
X128945488Y-90872257D01*
X128945488Y-90872257D02*
X128874060Y-91015114D01*
X128874060Y-91015114D02*
X128874060Y-91157971D01*
X128874060Y-91157971D02*
X129588345Y-91300828D01*
X128231203Y-91800828D02*
X128231203Y-90800828D01*
X128231203Y-91086542D02*
X128159774Y-90943685D01*
X128159774Y-90943685D02*
X128088346Y-90872257D01*
X128088346Y-90872257D02*
X127945488Y-90800828D01*
X127945488Y-90800828D02*
X127802631Y-90800828D01*
X126231203Y-91729400D02*
X126016918Y-91800828D01*
X126016918Y-91800828D02*
X125659775Y-91800828D01*
X125659775Y-91800828D02*
X125516918Y-91729400D01*
X125516918Y-91729400D02*
X125445489Y-91657971D01*
X125445489Y-91657971D02*
X125374060Y-91515114D01*
X125374060Y-91515114D02*
X125374060Y-91372257D01*
X125374060Y-91372257D02*
X125445489Y-91229400D01*
X125445489Y-91229400D02*
X125516918Y-91157971D01*
X125516918Y-91157971D02*
X125659775Y-91086542D01*
X125659775Y-91086542D02*
X125945489Y-91015114D01*
X125945489Y-91015114D02*
X126088346Y-90943685D01*
X126088346Y-90943685D02*
X126159775Y-90872257D01*
X126159775Y-90872257D02*
X126231203Y-90729400D01*
X126231203Y-90729400D02*
X126231203Y-90586542D01*
X126231203Y-90586542D02*
X126159775Y-90443685D01*
X126159775Y-90443685D02*
X126088346Y-90372257D01*
X126088346Y-90372257D02*
X125945489Y-90300828D01*
X125945489Y-90300828D02*
X125588346Y-90300828D01*
X125588346Y-90300828D02*
X125374060Y-90372257D01*
X124874061Y-90800828D02*
X124588347Y-91800828D01*
X124588347Y-91800828D02*
X124302632Y-91086542D01*
X124302632Y-91086542D02*
X124016918Y-91800828D01*
X124016918Y-91800828D02*
X123731204Y-90800828D01*
X123159775Y-91800828D02*
X123159775Y-90800828D01*
X123159775Y-90300828D02*
X123231203Y-90372257D01*
X123231203Y-90372257D02*
X123159775Y-90443685D01*
X123159775Y-90443685D02*
X123088346Y-90372257D01*
X123088346Y-90372257D02*
X123159775Y-90300828D01*
X123159775Y-90300828D02*
X123159775Y-90443685D01*
X122659774Y-90800828D02*
X122088346Y-90800828D01*
X122445489Y-90300828D02*
X122445489Y-91586542D01*
X122445489Y-91586542D02*
X122374060Y-91729400D01*
X122374060Y-91729400D02*
X122231203Y-91800828D01*
X122231203Y-91800828D02*
X122088346Y-91800828D01*
X120945489Y-91729400D02*
X121088346Y-91800828D01*
X121088346Y-91800828D02*
X121374060Y-91800828D01*
X121374060Y-91800828D02*
X121516917Y-91729400D01*
X121516917Y-91729400D02*
X121588346Y-91657971D01*
X121588346Y-91657971D02*
X121659774Y-91515114D01*
X121659774Y-91515114D02*
X121659774Y-91086542D01*
X121659774Y-91086542D02*
X121588346Y-90943685D01*
X121588346Y-90943685D02*
X121516917Y-90872257D01*
X121516917Y-90872257D02*
X121374060Y-90800828D01*
X121374060Y-90800828D02*
X121088346Y-90800828D01*
X121088346Y-90800828D02*
X120945489Y-90872257D01*
X120302632Y-91800828D02*
X120302632Y-90300828D01*
X119659775Y-91800828D02*
X119659775Y-91015114D01*
X119659775Y-91015114D02*
X119731203Y-90872257D01*
X119731203Y-90872257D02*
X119874060Y-90800828D01*
X119874060Y-90800828D02*
X120088346Y-90800828D01*
X120088346Y-90800828D02*
X120231203Y-90872257D01*
X120231203Y-90872257D02*
X120302632Y-90943685D01*
X170387489Y-80318828D02*
X170387489Y-78818828D01*
X170387489Y-78818828D02*
X170030346Y-78818828D01*
X170030346Y-78818828D02*
X169816060Y-78890257D01*
X169816060Y-78890257D02*
X169673203Y-79033114D01*
X169673203Y-79033114D02*
X169601774Y-79175971D01*
X169601774Y-79175971D02*
X169530346Y-79461685D01*
X169530346Y-79461685D02*
X169530346Y-79675971D01*
X169530346Y-79675971D02*
X169601774Y-79961685D01*
X169601774Y-79961685D02*
X169673203Y-80104542D01*
X169673203Y-80104542D02*
X169816060Y-80247400D01*
X169816060Y-80247400D02*
X170030346Y-80318828D01*
X170030346Y-80318828D02*
X170387489Y-80318828D01*
X168887489Y-80318828D02*
X168887489Y-79318828D01*
X168887489Y-78818828D02*
X168958917Y-78890257D01*
X168958917Y-78890257D02*
X168887489Y-78961685D01*
X168887489Y-78961685D02*
X168816060Y-78890257D01*
X168816060Y-78890257D02*
X168887489Y-78818828D01*
X168887489Y-78818828D02*
X168887489Y-78961685D01*
X168244631Y-80247400D02*
X168101774Y-80318828D01*
X168101774Y-80318828D02*
X167816060Y-80318828D01*
X167816060Y-80318828D02*
X167673203Y-80247400D01*
X167673203Y-80247400D02*
X167601774Y-80104542D01*
X167601774Y-80104542D02*
X167601774Y-80033114D01*
X167601774Y-80033114D02*
X167673203Y-79890257D01*
X167673203Y-79890257D02*
X167816060Y-79818828D01*
X167816060Y-79818828D02*
X168030346Y-79818828D01*
X168030346Y-79818828D02*
X168173203Y-79747400D01*
X168173203Y-79747400D02*
X168244631Y-79604542D01*
X168244631Y-79604542D02*
X168244631Y-79533114D01*
X168244631Y-79533114D02*
X168173203Y-79390257D01*
X168173203Y-79390257D02*
X168030346Y-79318828D01*
X168030346Y-79318828D02*
X167816060Y-79318828D01*
X167816060Y-79318828D02*
X167673203Y-79390257D01*
X166958917Y-79318828D02*
X166958917Y-80818828D01*
X166958917Y-79390257D02*
X166816060Y-79318828D01*
X166816060Y-79318828D02*
X166530345Y-79318828D01*
X166530345Y-79318828D02*
X166387488Y-79390257D01*
X166387488Y-79390257D02*
X166316060Y-79461685D01*
X166316060Y-79461685D02*
X166244631Y-79604542D01*
X166244631Y-79604542D02*
X166244631Y-80033114D01*
X166244631Y-80033114D02*
X166316060Y-80175971D01*
X166316060Y-80175971D02*
X166387488Y-80247400D01*
X166387488Y-80247400D02*
X166530345Y-80318828D01*
X166530345Y-80318828D02*
X166816060Y-80318828D01*
X166816060Y-80318828D02*
X166958917Y-80247400D01*
X165387488Y-80318828D02*
X165530345Y-80247400D01*
X165530345Y-80247400D02*
X165601774Y-80104542D01*
X165601774Y-80104542D02*
X165601774Y-78818828D01*
X164173203Y-80318828D02*
X164173203Y-79533114D01*
X164173203Y-79533114D02*
X164244631Y-79390257D01*
X164244631Y-79390257D02*
X164387488Y-79318828D01*
X164387488Y-79318828D02*
X164673203Y-79318828D01*
X164673203Y-79318828D02*
X164816060Y-79390257D01*
X164173203Y-80247400D02*
X164316060Y-80318828D01*
X164316060Y-80318828D02*
X164673203Y-80318828D01*
X164673203Y-80318828D02*
X164816060Y-80247400D01*
X164816060Y-80247400D02*
X164887488Y-80104542D01*
X164887488Y-80104542D02*
X164887488Y-79961685D01*
X164887488Y-79961685D02*
X164816060Y-79818828D01*
X164816060Y-79818828D02*
X164673203Y-79747400D01*
X164673203Y-79747400D02*
X164316060Y-79747400D01*
X164316060Y-79747400D02*
X164173203Y-79675971D01*
X163601774Y-79318828D02*
X163244631Y-80318828D01*
X162887488Y-79318828D02*
X163244631Y-80318828D01*
X163244631Y-80318828D02*
X163387488Y-80675971D01*
X163387488Y-80675971D02*
X163458917Y-80747400D01*
X163458917Y-80747400D02*
X163601774Y-80818828D01*
X153088346Y-92113228D02*
X152159774Y-92113228D01*
X152159774Y-92113228D02*
X152659774Y-92684657D01*
X152659774Y-92684657D02*
X152445489Y-92684657D01*
X152445489Y-92684657D02*
X152302632Y-92756085D01*
X152302632Y-92756085D02*
X152231203Y-92827514D01*
X152231203Y-92827514D02*
X152159774Y-92970371D01*
X152159774Y-92970371D02*
X152159774Y-93327514D01*
X152159774Y-93327514D02*
X152231203Y-93470371D01*
X152231203Y-93470371D02*
X152302632Y-93541800D01*
X152302632Y-93541800D02*
X152445489Y-93613228D01*
X152445489Y-93613228D02*
X152874060Y-93613228D01*
X152874060Y-93613228D02*
X153016917Y-93541800D01*
X153016917Y-93541800D02*
X153088346Y-93470371D01*
X151516918Y-93470371D02*
X151445489Y-93541800D01*
X151445489Y-93541800D02*
X151516918Y-93613228D01*
X151516918Y-93613228D02*
X151588346Y-93541800D01*
X151588346Y-93541800D02*
X151516918Y-93470371D01*
X151516918Y-93470371D02*
X151516918Y-93613228D01*
X150945489Y-92113228D02*
X150016917Y-92113228D01*
X150016917Y-92113228D02*
X150516917Y-92684657D01*
X150516917Y-92684657D02*
X150302632Y-92684657D01*
X150302632Y-92684657D02*
X150159775Y-92756085D01*
X150159775Y-92756085D02*
X150088346Y-92827514D01*
X150088346Y-92827514D02*
X150016917Y-92970371D01*
X150016917Y-92970371D02*
X150016917Y-93327514D01*
X150016917Y-93327514D02*
X150088346Y-93470371D01*
X150088346Y-93470371D02*
X150159775Y-93541800D01*
X150159775Y-93541800D02*
X150302632Y-93613228D01*
X150302632Y-93613228D02*
X150731203Y-93613228D01*
X150731203Y-93613228D02*
X150874060Y-93541800D01*
X150874060Y-93541800D02*
X150945489Y-93470371D01*
X149588346Y-92113228D02*
X149088346Y-93613228D01*
X149088346Y-93613228D02*
X148588346Y-92113228D01*
X146088347Y-93613228D02*
X146588347Y-92898942D01*
X146945490Y-93613228D02*
X146945490Y-92113228D01*
X146945490Y-92113228D02*
X146374061Y-92113228D01*
X146374061Y-92113228D02*
X146231204Y-92184657D01*
X146231204Y-92184657D02*
X146159775Y-92256085D01*
X146159775Y-92256085D02*
X146088347Y-92398942D01*
X146088347Y-92398942D02*
X146088347Y-92613228D01*
X146088347Y-92613228D02*
X146159775Y-92756085D01*
X146159775Y-92756085D02*
X146231204Y-92827514D01*
X146231204Y-92827514D02*
X146374061Y-92898942D01*
X146374061Y-92898942D02*
X146945490Y-92898942D01*
X144874061Y-93541800D02*
X145016918Y-93613228D01*
X145016918Y-93613228D02*
X145302633Y-93613228D01*
X145302633Y-93613228D02*
X145445490Y-93541800D01*
X145445490Y-93541800D02*
X145516918Y-93398942D01*
X145516918Y-93398942D02*
X145516918Y-92827514D01*
X145516918Y-92827514D02*
X145445490Y-92684657D01*
X145445490Y-92684657D02*
X145302633Y-92613228D01*
X145302633Y-92613228D02*
X145016918Y-92613228D01*
X145016918Y-92613228D02*
X144874061Y-92684657D01*
X144874061Y-92684657D02*
X144802633Y-92827514D01*
X144802633Y-92827514D02*
X144802633Y-92970371D01*
X144802633Y-92970371D02*
X145516918Y-93113228D01*
X143516919Y-92613228D02*
X143516919Y-93827514D01*
X143516919Y-93827514D02*
X143588347Y-93970371D01*
X143588347Y-93970371D02*
X143659776Y-94041800D01*
X143659776Y-94041800D02*
X143802633Y-94113228D01*
X143802633Y-94113228D02*
X144016919Y-94113228D01*
X144016919Y-94113228D02*
X144159776Y-94041800D01*
X143516919Y-93541800D02*
X143659776Y-93613228D01*
X143659776Y-93613228D02*
X143945490Y-93613228D01*
X143945490Y-93613228D02*
X144088347Y-93541800D01*
X144088347Y-93541800D02*
X144159776Y-93470371D01*
X144159776Y-93470371D02*
X144231204Y-93327514D01*
X144231204Y-93327514D02*
X144231204Y-92898942D01*
X144231204Y-92898942D02*
X144159776Y-92756085D01*
X144159776Y-92756085D02*
X144088347Y-92684657D01*
X144088347Y-92684657D02*
X143945490Y-92613228D01*
X143945490Y-92613228D02*
X143659776Y-92613228D01*
X143659776Y-92613228D02*
X143516919Y-92684657D01*
X142159776Y-92613228D02*
X142159776Y-93613228D01*
X142802633Y-92613228D02*
X142802633Y-93398942D01*
X142802633Y-93398942D02*
X142731204Y-93541800D01*
X142731204Y-93541800D02*
X142588347Y-93613228D01*
X142588347Y-93613228D02*
X142374061Y-93613228D01*
X142374061Y-93613228D02*
X142231204Y-93541800D01*
X142231204Y-93541800D02*
X142159776Y-93470371D01*
X141231204Y-93613228D02*
X141374061Y-93541800D01*
X141374061Y-93541800D02*
X141445490Y-93398942D01*
X141445490Y-93398942D02*
X141445490Y-92113228D01*
X140016919Y-93613228D02*
X140016919Y-92827514D01*
X140016919Y-92827514D02*
X140088347Y-92684657D01*
X140088347Y-92684657D02*
X140231204Y-92613228D01*
X140231204Y-92613228D02*
X140516919Y-92613228D01*
X140516919Y-92613228D02*
X140659776Y-92684657D01*
X140016919Y-93541800D02*
X140159776Y-93613228D01*
X140159776Y-93613228D02*
X140516919Y-93613228D01*
X140516919Y-93613228D02*
X140659776Y-93541800D01*
X140659776Y-93541800D02*
X140731204Y-93398942D01*
X140731204Y-93398942D02*
X140731204Y-93256085D01*
X140731204Y-93256085D02*
X140659776Y-93113228D01*
X140659776Y-93113228D02*
X140516919Y-93041800D01*
X140516919Y-93041800D02*
X140159776Y-93041800D01*
X140159776Y-93041800D02*
X140016919Y-92970371D01*
X139516918Y-92613228D02*
X138945490Y-92613228D01*
X139302633Y-92113228D02*
X139302633Y-93398942D01*
X139302633Y-93398942D02*
X139231204Y-93541800D01*
X139231204Y-93541800D02*
X139088347Y-93613228D01*
X139088347Y-93613228D02*
X138945490Y-93613228D01*
X138231204Y-93613228D02*
X138374061Y-93541800D01*
X138374061Y-93541800D02*
X138445490Y-93470371D01*
X138445490Y-93470371D02*
X138516918Y-93327514D01*
X138516918Y-93327514D02*
X138516918Y-92898942D01*
X138516918Y-92898942D02*
X138445490Y-92756085D01*
X138445490Y-92756085D02*
X138374061Y-92684657D01*
X138374061Y-92684657D02*
X138231204Y-92613228D01*
X138231204Y-92613228D02*
X138016918Y-92613228D01*
X138016918Y-92613228D02*
X137874061Y-92684657D01*
X137874061Y-92684657D02*
X137802633Y-92756085D01*
X137802633Y-92756085D02*
X137731204Y-92898942D01*
X137731204Y-92898942D02*
X137731204Y-93327514D01*
X137731204Y-93327514D02*
X137802633Y-93470371D01*
X137802633Y-93470371D02*
X137874061Y-93541800D01*
X137874061Y-93541800D02*
X138016918Y-93613228D01*
X138016918Y-93613228D02*
X138231204Y-93613228D01*
X137088347Y-93613228D02*
X137088347Y-92613228D01*
X137088347Y-92898942D02*
X137016918Y-92756085D01*
X137016918Y-92756085D02*
X136945490Y-92684657D01*
X136945490Y-92684657D02*
X136802632Y-92613228D01*
X136802632Y-92613228D02*
X136659775Y-92613228D01*
X114945489Y-107015114D02*
X114731203Y-107086542D01*
X114731203Y-107086542D02*
X114659774Y-107157971D01*
X114659774Y-107157971D02*
X114588346Y-107300828D01*
X114588346Y-107300828D02*
X114588346Y-107515114D01*
X114588346Y-107515114D02*
X114659774Y-107657971D01*
X114659774Y-107657971D02*
X114731203Y-107729400D01*
X114731203Y-107729400D02*
X114874060Y-107800828D01*
X114874060Y-107800828D02*
X115445489Y-107800828D01*
X115445489Y-107800828D02*
X115445489Y-106300828D01*
X115445489Y-106300828D02*
X114945489Y-106300828D01*
X114945489Y-106300828D02*
X114802632Y-106372257D01*
X114802632Y-106372257D02*
X114731203Y-106443685D01*
X114731203Y-106443685D02*
X114659774Y-106586542D01*
X114659774Y-106586542D02*
X114659774Y-106729400D01*
X114659774Y-106729400D02*
X114731203Y-106872257D01*
X114731203Y-106872257D02*
X114802632Y-106943685D01*
X114802632Y-106943685D02*
X114945489Y-107015114D01*
X114945489Y-107015114D02*
X115445489Y-107015114D01*
X113302632Y-107800828D02*
X113302632Y-107015114D01*
X113302632Y-107015114D02*
X113374060Y-106872257D01*
X113374060Y-106872257D02*
X113516917Y-106800828D01*
X113516917Y-106800828D02*
X113802632Y-106800828D01*
X113802632Y-106800828D02*
X113945489Y-106872257D01*
X113302632Y-107729400D02*
X113445489Y-107800828D01*
X113445489Y-107800828D02*
X113802632Y-107800828D01*
X113802632Y-107800828D02*
X113945489Y-107729400D01*
X113945489Y-107729400D02*
X114016917Y-107586542D01*
X114016917Y-107586542D02*
X114016917Y-107443685D01*
X114016917Y-107443685D02*
X113945489Y-107300828D01*
X113945489Y-107300828D02*
X113802632Y-107229400D01*
X113802632Y-107229400D02*
X113445489Y-107229400D01*
X113445489Y-107229400D02*
X113302632Y-107157971D01*
X112802631Y-106800828D02*
X112231203Y-106800828D01*
X112588346Y-106300828D02*
X112588346Y-107586542D01*
X112588346Y-107586542D02*
X112516917Y-107729400D01*
X112516917Y-107729400D02*
X112374060Y-107800828D01*
X112374060Y-107800828D02*
X112231203Y-107800828D01*
X111945488Y-106800828D02*
X111374060Y-106800828D01*
X111731203Y-106300828D02*
X111731203Y-107586542D01*
X111731203Y-107586542D02*
X111659774Y-107729400D01*
X111659774Y-107729400D02*
X111516917Y-107800828D01*
X111516917Y-107800828D02*
X111374060Y-107800828D01*
X110302631Y-107729400D02*
X110445488Y-107800828D01*
X110445488Y-107800828D02*
X110731203Y-107800828D01*
X110731203Y-107800828D02*
X110874060Y-107729400D01*
X110874060Y-107729400D02*
X110945488Y-107586542D01*
X110945488Y-107586542D02*
X110945488Y-107015114D01*
X110945488Y-107015114D02*
X110874060Y-106872257D01*
X110874060Y-106872257D02*
X110731203Y-106800828D01*
X110731203Y-106800828D02*
X110445488Y-106800828D01*
X110445488Y-106800828D02*
X110302631Y-106872257D01*
X110302631Y-106872257D02*
X110231203Y-107015114D01*
X110231203Y-107015114D02*
X110231203Y-107157971D01*
X110231203Y-107157971D02*
X110945488Y-107300828D01*
X109588346Y-107800828D02*
X109588346Y-106800828D01*
X109588346Y-107086542D02*
X109516917Y-106943685D01*
X109516917Y-106943685D02*
X109445489Y-106872257D01*
X109445489Y-106872257D02*
X109302631Y-106800828D01*
X109302631Y-106800828D02*
X109159774Y-106800828D01*
X108802632Y-106800828D02*
X108445489Y-107800828D01*
X108088346Y-106800828D02*
X108445489Y-107800828D01*
X108445489Y-107800828D02*
X108588346Y-108157971D01*
X108588346Y-108157971D02*
X108659775Y-108229400D01*
X108659775Y-108229400D02*
X108802632Y-108300828D01*
X106445489Y-106229400D02*
X107731203Y-108157971D01*
X105088346Y-107657971D02*
X105159774Y-107729400D01*
X105159774Y-107729400D02*
X105374060Y-107800828D01*
X105374060Y-107800828D02*
X105516917Y-107800828D01*
X105516917Y-107800828D02*
X105731203Y-107729400D01*
X105731203Y-107729400D02*
X105874060Y-107586542D01*
X105874060Y-107586542D02*
X105945489Y-107443685D01*
X105945489Y-107443685D02*
X106016917Y-107157971D01*
X106016917Y-107157971D02*
X106016917Y-106943685D01*
X106016917Y-106943685D02*
X105945489Y-106657971D01*
X105945489Y-106657971D02*
X105874060Y-106515114D01*
X105874060Y-106515114D02*
X105731203Y-106372257D01*
X105731203Y-106372257D02*
X105516917Y-106300828D01*
X105516917Y-106300828D02*
X105374060Y-106300828D01*
X105374060Y-106300828D02*
X105159774Y-106372257D01*
X105159774Y-106372257D02*
X105088346Y-106443685D01*
X104445489Y-107800828D02*
X104445489Y-106300828D01*
X103802632Y-107800828D02*
X103802632Y-107015114D01*
X103802632Y-107015114D02*
X103874060Y-106872257D01*
X103874060Y-106872257D02*
X104016917Y-106800828D01*
X104016917Y-106800828D02*
X104231203Y-106800828D01*
X104231203Y-106800828D02*
X104374060Y-106872257D01*
X104374060Y-106872257D02*
X104445489Y-106943685D01*
X102445489Y-107800828D02*
X102445489Y-107015114D01*
X102445489Y-107015114D02*
X102516917Y-106872257D01*
X102516917Y-106872257D02*
X102659774Y-106800828D01*
X102659774Y-106800828D02*
X102945489Y-106800828D01*
X102945489Y-106800828D02*
X103088346Y-106872257D01*
X102445489Y-107729400D02*
X102588346Y-107800828D01*
X102588346Y-107800828D02*
X102945489Y-107800828D01*
X102945489Y-107800828D02*
X103088346Y-107729400D01*
X103088346Y-107729400D02*
X103159774Y-107586542D01*
X103159774Y-107586542D02*
X103159774Y-107443685D01*
X103159774Y-107443685D02*
X103088346Y-107300828D01*
X103088346Y-107300828D02*
X102945489Y-107229400D01*
X102945489Y-107229400D02*
X102588346Y-107229400D01*
X102588346Y-107229400D02*
X102445489Y-107157971D01*
X101731203Y-107800828D02*
X101731203Y-106800828D01*
X101731203Y-107086542D02*
X101659774Y-106943685D01*
X101659774Y-106943685D02*
X101588346Y-106872257D01*
X101588346Y-106872257D02*
X101445488Y-106800828D01*
X101445488Y-106800828D02*
X101302631Y-106800828D01*
X100159775Y-106800828D02*
X100159775Y-108015114D01*
X100159775Y-108015114D02*
X100231203Y-108157971D01*
X100231203Y-108157971D02*
X100302632Y-108229400D01*
X100302632Y-108229400D02*
X100445489Y-108300828D01*
X100445489Y-108300828D02*
X100659775Y-108300828D01*
X100659775Y-108300828D02*
X100802632Y-108229400D01*
X100159775Y-107729400D02*
X100302632Y-107800828D01*
X100302632Y-107800828D02*
X100588346Y-107800828D01*
X100588346Y-107800828D02*
X100731203Y-107729400D01*
X100731203Y-107729400D02*
X100802632Y-107657971D01*
X100802632Y-107657971D02*
X100874060Y-107515114D01*
X100874060Y-107515114D02*
X100874060Y-107086542D01*
X100874060Y-107086542D02*
X100802632Y-106943685D01*
X100802632Y-106943685D02*
X100731203Y-106872257D01*
X100731203Y-106872257D02*
X100588346Y-106800828D01*
X100588346Y-106800828D02*
X100302632Y-106800828D01*
X100302632Y-106800828D02*
X100159775Y-106872257D01*
X98874060Y-107729400D02*
X99016917Y-107800828D01*
X99016917Y-107800828D02*
X99302632Y-107800828D01*
X99302632Y-107800828D02*
X99445489Y-107729400D01*
X99445489Y-107729400D02*
X99516917Y-107586542D01*
X99516917Y-107586542D02*
X99516917Y-107015114D01*
X99516917Y-107015114D02*
X99445489Y-106872257D01*
X99445489Y-106872257D02*
X99302632Y-106800828D01*
X99302632Y-106800828D02*
X99016917Y-106800828D01*
X99016917Y-106800828D02*
X98874060Y-106872257D01*
X98874060Y-106872257D02*
X98802632Y-107015114D01*
X98802632Y-107015114D02*
X98802632Y-107157971D01*
X98802632Y-107157971D02*
X99516917Y-107300828D01*
X98159775Y-107800828D02*
X98159775Y-106800828D01*
X98159775Y-107086542D02*
X98088346Y-106943685D01*
X98088346Y-106943685D02*
X98016918Y-106872257D01*
X98016918Y-106872257D02*
X97874060Y-106800828D01*
X97874060Y-106800828D02*
X97731203Y-106800828D01*
D11*
X161333332Y-148407200D02*
X161190475Y-148454819D01*
X161190475Y-148454819D02*
X160952380Y-148454819D01*
X160952380Y-148454819D02*
X160857142Y-148407200D01*
X160857142Y-148407200D02*
X160809523Y-148359580D01*
X160809523Y-148359580D02*
X160761904Y-148264342D01*
X160761904Y-148264342D02*
X160761904Y-148169104D01*
X160761904Y-148169104D02*
X160809523Y-148073866D01*
X160809523Y-148073866D02*
X160857142Y-148026247D01*
X160857142Y-148026247D02*
X160952380Y-147978628D01*
X160952380Y-147978628D02*
X161142856Y-147931009D01*
X161142856Y-147931009D02*
X161238094Y-147883390D01*
X161238094Y-147883390D02*
X161285713Y-147835771D01*
X161285713Y-147835771D02*
X161333332Y-147740533D01*
X161333332Y-147740533D02*
X161333332Y-147645295D01*
X161333332Y-147645295D02*
X161285713Y-147550057D01*
X161285713Y-147550057D02*
X161238094Y-147502438D01*
X161238094Y-147502438D02*
X161142856Y-147454819D01*
X161142856Y-147454819D02*
X160904761Y-147454819D01*
X160904761Y-147454819D02*
X160761904Y-147502438D01*
X160428570Y-147454819D02*
X160190475Y-148454819D01*
X160190475Y-148454819D02*
X159999999Y-147740533D01*
X159999999Y-147740533D02*
X159809523Y-148454819D01*
X159809523Y-148454819D02*
X159571428Y-147454819D01*
X158714285Y-147454819D02*
X159190475Y-147454819D01*
X159190475Y-147454819D02*
X159238094Y-147931009D01*
X159238094Y-147931009D02*
X159190475Y-147883390D01*
X159190475Y-147883390D02*
X159095237Y-147835771D01*
X159095237Y-147835771D02*
X158857142Y-147835771D01*
X158857142Y-147835771D02*
X158761904Y-147883390D01*
X158761904Y-147883390D02*
X158714285Y-147931009D01*
X158714285Y-147931009D02*
X158666666Y-148026247D01*
X158666666Y-148026247D02*
X158666666Y-148264342D01*
X158666666Y-148264342D02*
X158714285Y-148359580D01*
X158714285Y-148359580D02*
X158761904Y-148407200D01*
X158761904Y-148407200D02*
X158857142Y-148454819D01*
X158857142Y-148454819D02*
X159095237Y-148454819D01*
X159095237Y-148454819D02*
X159190475Y-148407200D01*
X159190475Y-148407200D02*
X159238094Y-148359580D01*
X147466332Y-148407200D02*
X147323475Y-148454819D01*
X147323475Y-148454819D02*
X147085380Y-148454819D01*
X147085380Y-148454819D02*
X146990142Y-148407200D01*
X146990142Y-148407200D02*
X146942523Y-148359580D01*
X146942523Y-148359580D02*
X146894904Y-148264342D01*
X146894904Y-148264342D02*
X146894904Y-148169104D01*
X146894904Y-148169104D02*
X146942523Y-148073866D01*
X146942523Y-148073866D02*
X146990142Y-148026247D01*
X146990142Y-148026247D02*
X147085380Y-147978628D01*
X147085380Y-147978628D02*
X147275856Y-147931009D01*
X147275856Y-147931009D02*
X147371094Y-147883390D01*
X147371094Y-147883390D02*
X147418713Y-147835771D01*
X147418713Y-147835771D02*
X147466332Y-147740533D01*
X147466332Y-147740533D02*
X147466332Y-147645295D01*
X147466332Y-147645295D02*
X147418713Y-147550057D01*
X147418713Y-147550057D02*
X147371094Y-147502438D01*
X147371094Y-147502438D02*
X147275856Y-147454819D01*
X147275856Y-147454819D02*
X147037761Y-147454819D01*
X147037761Y-147454819D02*
X146894904Y-147502438D01*
X146561570Y-147454819D02*
X146323475Y-148454819D01*
X146323475Y-148454819D02*
X146132999Y-147740533D01*
X146132999Y-147740533D02*
X145942523Y-148454819D01*
X145942523Y-148454819D02*
X145704428Y-147454819D01*
X144894904Y-147788152D02*
X144894904Y-148454819D01*
X145132999Y-147407200D02*
X145371094Y-148121485D01*
X145371094Y-148121485D02*
X144752047Y-148121485D01*
X133454332Y-148907200D02*
X133311475Y-148954819D01*
X133311475Y-148954819D02*
X133073380Y-148954819D01*
X133073380Y-148954819D02*
X132978142Y-148907200D01*
X132978142Y-148907200D02*
X132930523Y-148859580D01*
X132930523Y-148859580D02*
X132882904Y-148764342D01*
X132882904Y-148764342D02*
X132882904Y-148669104D01*
X132882904Y-148669104D02*
X132930523Y-148573866D01*
X132930523Y-148573866D02*
X132978142Y-148526247D01*
X132978142Y-148526247D02*
X133073380Y-148478628D01*
X133073380Y-148478628D02*
X133263856Y-148431009D01*
X133263856Y-148431009D02*
X133359094Y-148383390D01*
X133359094Y-148383390D02*
X133406713Y-148335771D01*
X133406713Y-148335771D02*
X133454332Y-148240533D01*
X133454332Y-148240533D02*
X133454332Y-148145295D01*
X133454332Y-148145295D02*
X133406713Y-148050057D01*
X133406713Y-148050057D02*
X133359094Y-148002438D01*
X133359094Y-148002438D02*
X133263856Y-147954819D01*
X133263856Y-147954819D02*
X133025761Y-147954819D01*
X133025761Y-147954819D02*
X132882904Y-148002438D01*
X132549570Y-147954819D02*
X132311475Y-148954819D01*
X132311475Y-148954819D02*
X132120999Y-148240533D01*
X132120999Y-148240533D02*
X131930523Y-148954819D01*
X131930523Y-148954819D02*
X131692428Y-147954819D01*
X131406713Y-147954819D02*
X130787666Y-147954819D01*
X130787666Y-147954819D02*
X131120999Y-148335771D01*
X131120999Y-148335771D02*
X130978142Y-148335771D01*
X130978142Y-148335771D02*
X130882904Y-148383390D01*
X130882904Y-148383390D02*
X130835285Y-148431009D01*
X130835285Y-148431009D02*
X130787666Y-148526247D01*
X130787666Y-148526247D02*
X130787666Y-148764342D01*
X130787666Y-148764342D02*
X130835285Y-148859580D01*
X130835285Y-148859580D02*
X130882904Y-148907200D01*
X130882904Y-148907200D02*
X130978142Y-148954819D01*
X130978142Y-148954819D02*
X131263856Y-148954819D01*
X131263856Y-148954819D02*
X131359094Y-148907200D01*
X131359094Y-148907200D02*
X131406713Y-148859580D01*
X119454332Y-148907200D02*
X119311475Y-148954819D01*
X119311475Y-148954819D02*
X119073380Y-148954819D01*
X119073380Y-148954819D02*
X118978142Y-148907200D01*
X118978142Y-148907200D02*
X118930523Y-148859580D01*
X118930523Y-148859580D02*
X118882904Y-148764342D01*
X118882904Y-148764342D02*
X118882904Y-148669104D01*
X118882904Y-148669104D02*
X118930523Y-148573866D01*
X118930523Y-148573866D02*
X118978142Y-148526247D01*
X118978142Y-148526247D02*
X119073380Y-148478628D01*
X119073380Y-148478628D02*
X119263856Y-148431009D01*
X119263856Y-148431009D02*
X119359094Y-148383390D01*
X119359094Y-148383390D02*
X119406713Y-148335771D01*
X119406713Y-148335771D02*
X119454332Y-148240533D01*
X119454332Y-148240533D02*
X119454332Y-148145295D01*
X119454332Y-148145295D02*
X119406713Y-148050057D01*
X119406713Y-148050057D02*
X119359094Y-148002438D01*
X119359094Y-148002438D02*
X119263856Y-147954819D01*
X119263856Y-147954819D02*
X119025761Y-147954819D01*
X119025761Y-147954819D02*
X118882904Y-148002438D01*
X118549570Y-147954819D02*
X118311475Y-148954819D01*
X118311475Y-148954819D02*
X118120999Y-148240533D01*
X118120999Y-148240533D02*
X117930523Y-148954819D01*
X117930523Y-148954819D02*
X117692428Y-147954819D01*
X117359094Y-148050057D02*
X117311475Y-148002438D01*
X117311475Y-148002438D02*
X117216237Y-147954819D01*
X117216237Y-147954819D02*
X116978142Y-147954819D01*
X116978142Y-147954819D02*
X116882904Y-148002438D01*
X116882904Y-148002438D02*
X116835285Y-148050057D01*
X116835285Y-148050057D02*
X116787666Y-148145295D01*
X116787666Y-148145295D02*
X116787666Y-148240533D01*
X116787666Y-148240533D02*
X116835285Y-148383390D01*
X116835285Y-148383390D02*
X117406713Y-148954819D01*
X117406713Y-148954819D02*
X116787666Y-148954819D01*
X105454332Y-148907200D02*
X105311475Y-148954819D01*
X105311475Y-148954819D02*
X105073380Y-148954819D01*
X105073380Y-148954819D02*
X104978142Y-148907200D01*
X104978142Y-148907200D02*
X104930523Y-148859580D01*
X104930523Y-148859580D02*
X104882904Y-148764342D01*
X104882904Y-148764342D02*
X104882904Y-148669104D01*
X104882904Y-148669104D02*
X104930523Y-148573866D01*
X104930523Y-148573866D02*
X104978142Y-148526247D01*
X104978142Y-148526247D02*
X105073380Y-148478628D01*
X105073380Y-148478628D02*
X105263856Y-148431009D01*
X105263856Y-148431009D02*
X105359094Y-148383390D01*
X105359094Y-148383390D02*
X105406713Y-148335771D01*
X105406713Y-148335771D02*
X105454332Y-148240533D01*
X105454332Y-148240533D02*
X105454332Y-148145295D01*
X105454332Y-148145295D02*
X105406713Y-148050057D01*
X105406713Y-148050057D02*
X105359094Y-148002438D01*
X105359094Y-148002438D02*
X105263856Y-147954819D01*
X105263856Y-147954819D02*
X105025761Y-147954819D01*
X105025761Y-147954819D02*
X104882904Y-148002438D01*
X104549570Y-147954819D02*
X104311475Y-148954819D01*
X104311475Y-148954819D02*
X104120999Y-148240533D01*
X104120999Y-148240533D02*
X103930523Y-148954819D01*
X103930523Y-148954819D02*
X103692428Y-147954819D01*
X102787666Y-148954819D02*
X103359094Y-148954819D01*
X103073380Y-148954819D02*
X103073380Y-147954819D01*
X103073380Y-147954819D02*
X103168618Y-148097676D01*
X103168618Y-148097676D02*
X103263856Y-148192914D01*
X103263856Y-148192914D02*
X103359094Y-148240533D01*
X111940180Y-74779094D02*
X112940180Y-74779094D01*
X111940180Y-74207666D02*
X112511609Y-74636237D01*
X112940180Y-74207666D02*
X112368752Y-74779094D01*
X111940180Y-73255285D02*
X111940180Y-73826713D01*
X111940180Y-73540999D02*
X112940180Y-73540999D01*
X112940180Y-73540999D02*
X112797323Y-73636237D01*
X112797323Y-73636237D02*
X112702085Y-73731475D01*
X112702085Y-73731475D02*
X112654466Y-73826713D01*
X136638094Y-101704819D02*
X136638094Y-100704819D01*
X136638094Y-100704819D02*
X136399999Y-100704819D01*
X136399999Y-100704819D02*
X136257142Y-100752438D01*
X136257142Y-100752438D02*
X136161904Y-100847676D01*
X136161904Y-100847676D02*
X136114285Y-100942914D01*
X136114285Y-100942914D02*
X136066666Y-101133390D01*
X136066666Y-101133390D02*
X136066666Y-101276247D01*
X136066666Y-101276247D02*
X136114285Y-101466723D01*
X136114285Y-101466723D02*
X136161904Y-101561961D01*
X136161904Y-101561961D02*
X136257142Y-101657200D01*
X136257142Y-101657200D02*
X136399999Y-101704819D01*
X136399999Y-101704819D02*
X136638094Y-101704819D01*
X135495237Y-101133390D02*
X135590475Y-101085771D01*
X135590475Y-101085771D02*
X135638094Y-101038152D01*
X135638094Y-101038152D02*
X135685713Y-100942914D01*
X135685713Y-100942914D02*
X135685713Y-100895295D01*
X135685713Y-100895295D02*
X135638094Y-100800057D01*
X135638094Y-100800057D02*
X135590475Y-100752438D01*
X135590475Y-100752438D02*
X135495237Y-100704819D01*
X135495237Y-100704819D02*
X135304761Y-100704819D01*
X135304761Y-100704819D02*
X135209523Y-100752438D01*
X135209523Y-100752438D02*
X135161904Y-100800057D01*
X135161904Y-100800057D02*
X135114285Y-100895295D01*
X135114285Y-100895295D02*
X135114285Y-100942914D01*
X135114285Y-100942914D02*
X135161904Y-101038152D01*
X135161904Y-101038152D02*
X135209523Y-101085771D01*
X135209523Y-101085771D02*
X135304761Y-101133390D01*
X135304761Y-101133390D02*
X135495237Y-101133390D01*
X135495237Y-101133390D02*
X135590475Y-101181009D01*
X135590475Y-101181009D02*
X135638094Y-101228628D01*
X135638094Y-101228628D02*
X135685713Y-101323866D01*
X135685713Y-101323866D02*
X135685713Y-101514342D01*
X135685713Y-101514342D02*
X135638094Y-101609580D01*
X135638094Y-101609580D02*
X135590475Y-101657200D01*
X135590475Y-101657200D02*
X135495237Y-101704819D01*
X135495237Y-101704819D02*
X135304761Y-101704819D01*
X135304761Y-101704819D02*
X135209523Y-101657200D01*
X135209523Y-101657200D02*
X135161904Y-101609580D01*
X135161904Y-101609580D02*
X135114285Y-101514342D01*
X135114285Y-101514342D02*
X135114285Y-101323866D01*
X135114285Y-101323866D02*
X135161904Y-101228628D01*
X135161904Y-101228628D02*
X135209523Y-101181009D01*
X135209523Y-101181009D02*
X135304761Y-101133390D01*
X147962857Y-124914819D02*
X148296190Y-124438628D01*
X148534285Y-124914819D02*
X148534285Y-123914819D01*
X148534285Y-123914819D02*
X148153333Y-123914819D01*
X148153333Y-123914819D02*
X148058095Y-123962438D01*
X148058095Y-123962438D02*
X148010476Y-124010057D01*
X148010476Y-124010057D02*
X147962857Y-124105295D01*
X147962857Y-124105295D02*
X147962857Y-124248152D01*
X147962857Y-124248152D02*
X148010476Y-124343390D01*
X148010476Y-124343390D02*
X148058095Y-124391009D01*
X148058095Y-124391009D02*
X148153333Y-124438628D01*
X148153333Y-124438628D02*
X148534285Y-124438628D01*
X147581904Y-124010057D02*
X147534285Y-123962438D01*
X147534285Y-123962438D02*
X147439047Y-123914819D01*
X147439047Y-123914819D02*
X147200952Y-123914819D01*
X147200952Y-123914819D02*
X147105714Y-123962438D01*
X147105714Y-123962438D02*
X147058095Y-124010057D01*
X147058095Y-124010057D02*
X147010476Y-124105295D01*
X147010476Y-124105295D02*
X147010476Y-124200533D01*
X147010476Y-124200533D02*
X147058095Y-124343390D01*
X147058095Y-124343390D02*
X147629523Y-124914819D01*
X147629523Y-124914819D02*
X147010476Y-124914819D01*
X146677142Y-123914819D02*
X146058095Y-123914819D01*
X146058095Y-123914819D02*
X146391428Y-124295771D01*
X146391428Y-124295771D02*
X146248571Y-124295771D01*
X146248571Y-124295771D02*
X146153333Y-124343390D01*
X146153333Y-124343390D02*
X146105714Y-124391009D01*
X146105714Y-124391009D02*
X146058095Y-124486247D01*
X146058095Y-124486247D02*
X146058095Y-124724342D01*
X146058095Y-124724342D02*
X146105714Y-124819580D01*
X146105714Y-124819580D02*
X146153333Y-124867200D01*
X146153333Y-124867200D02*
X146248571Y-124914819D01*
X146248571Y-124914819D02*
X146534285Y-124914819D01*
X146534285Y-124914819D02*
X146629523Y-124867200D01*
X146629523Y-124867200D02*
X146677142Y-124819580D01*
X147722475Y-78467295D02*
X147722475Y-77667295D01*
X147722475Y-77667295D02*
X147531999Y-77667295D01*
X147531999Y-77667295D02*
X147417713Y-77705390D01*
X147417713Y-77705390D02*
X147341523Y-77781580D01*
X147341523Y-77781580D02*
X147303428Y-77857771D01*
X147303428Y-77857771D02*
X147265332Y-78010152D01*
X147265332Y-78010152D02*
X147265332Y-78124438D01*
X147265332Y-78124438D02*
X147303428Y-78276819D01*
X147303428Y-78276819D02*
X147341523Y-78353009D01*
X147341523Y-78353009D02*
X147417713Y-78429200D01*
X147417713Y-78429200D02*
X147531999Y-78467295D01*
X147531999Y-78467295D02*
X147722475Y-78467295D01*
X146960571Y-77743485D02*
X146922475Y-77705390D01*
X146922475Y-77705390D02*
X146846285Y-77667295D01*
X146846285Y-77667295D02*
X146655809Y-77667295D01*
X146655809Y-77667295D02*
X146579618Y-77705390D01*
X146579618Y-77705390D02*
X146541523Y-77743485D01*
X146541523Y-77743485D02*
X146503428Y-77819676D01*
X146503428Y-77819676D02*
X146503428Y-77895866D01*
X146503428Y-77895866D02*
X146541523Y-78010152D01*
X146541523Y-78010152D02*
X146998666Y-78467295D01*
X146998666Y-78467295D02*
X146503428Y-78467295D01*
X146724666Y-67002819D02*
X147057999Y-66526628D01*
X147296094Y-67002819D02*
X147296094Y-66002819D01*
X147296094Y-66002819D02*
X146915142Y-66002819D01*
X146915142Y-66002819D02*
X146819904Y-66050438D01*
X146819904Y-66050438D02*
X146772285Y-66098057D01*
X146772285Y-66098057D02*
X146724666Y-66193295D01*
X146724666Y-66193295D02*
X146724666Y-66336152D01*
X146724666Y-66336152D02*
X146772285Y-66431390D01*
X146772285Y-66431390D02*
X146819904Y-66479009D01*
X146819904Y-66479009D02*
X146915142Y-66526628D01*
X146915142Y-66526628D02*
X147296094Y-66526628D01*
X146391332Y-66002819D02*
X145724666Y-66002819D01*
X145724666Y-66002819D02*
X146153237Y-67002819D01*
X128814285Y-101704819D02*
X128814285Y-100704819D01*
X128814285Y-100704819D02*
X128576190Y-100704819D01*
X128576190Y-100704819D02*
X128433333Y-100752438D01*
X128433333Y-100752438D02*
X128338095Y-100847676D01*
X128338095Y-100847676D02*
X128290476Y-100942914D01*
X128290476Y-100942914D02*
X128242857Y-101133390D01*
X128242857Y-101133390D02*
X128242857Y-101276247D01*
X128242857Y-101276247D02*
X128290476Y-101466723D01*
X128290476Y-101466723D02*
X128338095Y-101561961D01*
X128338095Y-101561961D02*
X128433333Y-101657200D01*
X128433333Y-101657200D02*
X128576190Y-101704819D01*
X128576190Y-101704819D02*
X128814285Y-101704819D01*
X127290476Y-101704819D02*
X127861904Y-101704819D01*
X127576190Y-101704819D02*
X127576190Y-100704819D01*
X127576190Y-100704819D02*
X127671428Y-100847676D01*
X127671428Y-100847676D02*
X127766666Y-100942914D01*
X127766666Y-100942914D02*
X127861904Y-100990533D01*
X126909523Y-100800057D02*
X126861904Y-100752438D01*
X126861904Y-100752438D02*
X126766666Y-100704819D01*
X126766666Y-100704819D02*
X126528571Y-100704819D01*
X126528571Y-100704819D02*
X126433333Y-100752438D01*
X126433333Y-100752438D02*
X126385714Y-100800057D01*
X126385714Y-100800057D02*
X126338095Y-100895295D01*
X126338095Y-100895295D02*
X126338095Y-100990533D01*
X126338095Y-100990533D02*
X126385714Y-101133390D01*
X126385714Y-101133390D02*
X126957142Y-101704819D01*
X126957142Y-101704819D02*
X126338095Y-101704819D01*
X105195666Y-89132580D02*
X105243285Y-89180200D01*
X105243285Y-89180200D02*
X105386142Y-89227819D01*
X105386142Y-89227819D02*
X105481380Y-89227819D01*
X105481380Y-89227819D02*
X105624237Y-89180200D01*
X105624237Y-89180200D02*
X105719475Y-89084961D01*
X105719475Y-89084961D02*
X105767094Y-88989723D01*
X105767094Y-88989723D02*
X105814713Y-88799247D01*
X105814713Y-88799247D02*
X105814713Y-88656390D01*
X105814713Y-88656390D02*
X105767094Y-88465914D01*
X105767094Y-88465914D02*
X105719475Y-88370676D01*
X105719475Y-88370676D02*
X105624237Y-88275438D01*
X105624237Y-88275438D02*
X105481380Y-88227819D01*
X105481380Y-88227819D02*
X105386142Y-88227819D01*
X105386142Y-88227819D02*
X105243285Y-88275438D01*
X105243285Y-88275438D02*
X105195666Y-88323057D01*
X104862332Y-88227819D02*
X104195666Y-88227819D01*
X104195666Y-88227819D02*
X104624237Y-89227819D01*
X156217857Y-58779580D02*
X156265476Y-58827200D01*
X156265476Y-58827200D02*
X156408333Y-58874819D01*
X156408333Y-58874819D02*
X156503571Y-58874819D01*
X156503571Y-58874819D02*
X156646428Y-58827200D01*
X156646428Y-58827200D02*
X156741666Y-58731961D01*
X156741666Y-58731961D02*
X156789285Y-58636723D01*
X156789285Y-58636723D02*
X156836904Y-58446247D01*
X156836904Y-58446247D02*
X156836904Y-58303390D01*
X156836904Y-58303390D02*
X156789285Y-58112914D01*
X156789285Y-58112914D02*
X156741666Y-58017676D01*
X156741666Y-58017676D02*
X156646428Y-57922438D01*
X156646428Y-57922438D02*
X156503571Y-57874819D01*
X156503571Y-57874819D02*
X156408333Y-57874819D01*
X156408333Y-57874819D02*
X156265476Y-57922438D01*
X156265476Y-57922438D02*
X156217857Y-57970057D01*
X155836904Y-57970057D02*
X155789285Y-57922438D01*
X155789285Y-57922438D02*
X155694047Y-57874819D01*
X155694047Y-57874819D02*
X155455952Y-57874819D01*
X155455952Y-57874819D02*
X155360714Y-57922438D01*
X155360714Y-57922438D02*
X155313095Y-57970057D01*
X155313095Y-57970057D02*
X155265476Y-58065295D01*
X155265476Y-58065295D02*
X155265476Y-58160533D01*
X155265476Y-58160533D02*
X155313095Y-58303390D01*
X155313095Y-58303390D02*
X155884523Y-58874819D01*
X155884523Y-58874819D02*
X155265476Y-58874819D01*
X154313095Y-58874819D02*
X154884523Y-58874819D01*
X154598809Y-58874819D02*
X154598809Y-57874819D01*
X154598809Y-57874819D02*
X154694047Y-58017676D01*
X154694047Y-58017676D02*
X154789285Y-58112914D01*
X154789285Y-58112914D02*
X154884523Y-58160533D01*
X156217857Y-56239580D02*
X156265476Y-56287200D01*
X156265476Y-56287200D02*
X156408333Y-56334819D01*
X156408333Y-56334819D02*
X156503571Y-56334819D01*
X156503571Y-56334819D02*
X156646428Y-56287200D01*
X156646428Y-56287200D02*
X156741666Y-56191961D01*
X156741666Y-56191961D02*
X156789285Y-56096723D01*
X156789285Y-56096723D02*
X156836904Y-55906247D01*
X156836904Y-55906247D02*
X156836904Y-55763390D01*
X156836904Y-55763390D02*
X156789285Y-55572914D01*
X156789285Y-55572914D02*
X156741666Y-55477676D01*
X156741666Y-55477676D02*
X156646428Y-55382438D01*
X156646428Y-55382438D02*
X156503571Y-55334819D01*
X156503571Y-55334819D02*
X156408333Y-55334819D01*
X156408333Y-55334819D02*
X156265476Y-55382438D01*
X156265476Y-55382438D02*
X156217857Y-55430057D01*
X155265476Y-56334819D02*
X155836904Y-56334819D01*
X155551190Y-56334819D02*
X155551190Y-55334819D01*
X155551190Y-55334819D02*
X155646428Y-55477676D01*
X155646428Y-55477676D02*
X155741666Y-55572914D01*
X155741666Y-55572914D02*
X155836904Y-55620533D01*
X154408333Y-55334819D02*
X154598809Y-55334819D01*
X154598809Y-55334819D02*
X154694047Y-55382438D01*
X154694047Y-55382438D02*
X154741666Y-55430057D01*
X154741666Y-55430057D02*
X154836904Y-55572914D01*
X154836904Y-55572914D02*
X154884523Y-55763390D01*
X154884523Y-55763390D02*
X154884523Y-56144342D01*
X154884523Y-56144342D02*
X154836904Y-56239580D01*
X154836904Y-56239580D02*
X154789285Y-56287200D01*
X154789285Y-56287200D02*
X154694047Y-56334819D01*
X154694047Y-56334819D02*
X154503571Y-56334819D01*
X154503571Y-56334819D02*
X154408333Y-56287200D01*
X154408333Y-56287200D02*
X154360714Y-56239580D01*
X154360714Y-56239580D02*
X154313095Y-56144342D01*
X154313095Y-56144342D02*
X154313095Y-55906247D01*
X154313095Y-55906247D02*
X154360714Y-55811009D01*
X154360714Y-55811009D02*
X154408333Y-55763390D01*
X154408333Y-55763390D02*
X154503571Y-55715771D01*
X154503571Y-55715771D02*
X154694047Y-55715771D01*
X154694047Y-55715771D02*
X154789285Y-55763390D01*
X154789285Y-55763390D02*
X154836904Y-55811009D01*
X154836904Y-55811009D02*
X154884523Y-55906247D01*
X105417857Y-97355819D02*
X105751190Y-96879628D01*
X105989285Y-97355819D02*
X105989285Y-96355819D01*
X105989285Y-96355819D02*
X105608333Y-96355819D01*
X105608333Y-96355819D02*
X105513095Y-96403438D01*
X105513095Y-96403438D02*
X105465476Y-96451057D01*
X105465476Y-96451057D02*
X105417857Y-96546295D01*
X105417857Y-96546295D02*
X105417857Y-96689152D01*
X105417857Y-96689152D02*
X105465476Y-96784390D01*
X105465476Y-96784390D02*
X105513095Y-96832009D01*
X105513095Y-96832009D02*
X105608333Y-96879628D01*
X105608333Y-96879628D02*
X105989285Y-96879628D01*
X104465476Y-97355819D02*
X105036904Y-97355819D01*
X104751190Y-97355819D02*
X104751190Y-96355819D01*
X104751190Y-96355819D02*
X104846428Y-96498676D01*
X104846428Y-96498676D02*
X104941666Y-96593914D01*
X104941666Y-96593914D02*
X105036904Y-96641533D01*
X103894047Y-96784390D02*
X103989285Y-96736771D01*
X103989285Y-96736771D02*
X104036904Y-96689152D01*
X104036904Y-96689152D02*
X104084523Y-96593914D01*
X104084523Y-96593914D02*
X104084523Y-96546295D01*
X104084523Y-96546295D02*
X104036904Y-96451057D01*
X104036904Y-96451057D02*
X103989285Y-96403438D01*
X103989285Y-96403438D02*
X103894047Y-96355819D01*
X103894047Y-96355819D02*
X103703571Y-96355819D01*
X103703571Y-96355819D02*
X103608333Y-96403438D01*
X103608333Y-96403438D02*
X103560714Y-96451057D01*
X103560714Y-96451057D02*
X103513095Y-96546295D01*
X103513095Y-96546295D02*
X103513095Y-96593914D01*
X103513095Y-96593914D02*
X103560714Y-96689152D01*
X103560714Y-96689152D02*
X103608333Y-96736771D01*
X103608333Y-96736771D02*
X103703571Y-96784390D01*
X103703571Y-96784390D02*
X103894047Y-96784390D01*
X103894047Y-96784390D02*
X103989285Y-96832009D01*
X103989285Y-96832009D02*
X104036904Y-96879628D01*
X104036904Y-96879628D02*
X104084523Y-96974866D01*
X104084523Y-96974866D02*
X104084523Y-97165342D01*
X104084523Y-97165342D02*
X104036904Y-97260580D01*
X104036904Y-97260580D02*
X103989285Y-97308200D01*
X103989285Y-97308200D02*
X103894047Y-97355819D01*
X103894047Y-97355819D02*
X103703571Y-97355819D01*
X103703571Y-97355819D02*
X103608333Y-97308200D01*
X103608333Y-97308200D02*
X103560714Y-97260580D01*
X103560714Y-97260580D02*
X103513095Y-97165342D01*
X103513095Y-97165342D02*
X103513095Y-96974866D01*
X103513095Y-96974866D02*
X103560714Y-96879628D01*
X103560714Y-96879628D02*
X103608333Y-96832009D01*
X103608333Y-96832009D02*
X103703571Y-96784390D01*
X156217857Y-53699580D02*
X156265476Y-53747200D01*
X156265476Y-53747200D02*
X156408333Y-53794819D01*
X156408333Y-53794819D02*
X156503571Y-53794819D01*
X156503571Y-53794819D02*
X156646428Y-53747200D01*
X156646428Y-53747200D02*
X156741666Y-53651961D01*
X156741666Y-53651961D02*
X156789285Y-53556723D01*
X156789285Y-53556723D02*
X156836904Y-53366247D01*
X156836904Y-53366247D02*
X156836904Y-53223390D01*
X156836904Y-53223390D02*
X156789285Y-53032914D01*
X156789285Y-53032914D02*
X156741666Y-52937676D01*
X156741666Y-52937676D02*
X156646428Y-52842438D01*
X156646428Y-52842438D02*
X156503571Y-52794819D01*
X156503571Y-52794819D02*
X156408333Y-52794819D01*
X156408333Y-52794819D02*
X156265476Y-52842438D01*
X156265476Y-52842438D02*
X156217857Y-52890057D01*
X155836904Y-52890057D02*
X155789285Y-52842438D01*
X155789285Y-52842438D02*
X155694047Y-52794819D01*
X155694047Y-52794819D02*
X155455952Y-52794819D01*
X155455952Y-52794819D02*
X155360714Y-52842438D01*
X155360714Y-52842438D02*
X155313095Y-52890057D01*
X155313095Y-52890057D02*
X155265476Y-52985295D01*
X155265476Y-52985295D02*
X155265476Y-53080533D01*
X155265476Y-53080533D02*
X155313095Y-53223390D01*
X155313095Y-53223390D02*
X155884523Y-53794819D01*
X155884523Y-53794819D02*
X155265476Y-53794819D01*
X154884523Y-52890057D02*
X154836904Y-52842438D01*
X154836904Y-52842438D02*
X154741666Y-52794819D01*
X154741666Y-52794819D02*
X154503571Y-52794819D01*
X154503571Y-52794819D02*
X154408333Y-52842438D01*
X154408333Y-52842438D02*
X154360714Y-52890057D01*
X154360714Y-52890057D02*
X154313095Y-52985295D01*
X154313095Y-52985295D02*
X154313095Y-53080533D01*
X154313095Y-53080533D02*
X154360714Y-53223390D01*
X154360714Y-53223390D02*
X154932142Y-53794819D01*
X154932142Y-53794819D02*
X154313095Y-53794819D01*
X120914285Y-129304819D02*
X120914285Y-128304819D01*
X120914285Y-128304819D02*
X120676190Y-128304819D01*
X120676190Y-128304819D02*
X120533333Y-128352438D01*
X120533333Y-128352438D02*
X120438095Y-128447676D01*
X120438095Y-128447676D02*
X120390476Y-128542914D01*
X120390476Y-128542914D02*
X120342857Y-128733390D01*
X120342857Y-128733390D02*
X120342857Y-128876247D01*
X120342857Y-128876247D02*
X120390476Y-129066723D01*
X120390476Y-129066723D02*
X120438095Y-129161961D01*
X120438095Y-129161961D02*
X120533333Y-129257200D01*
X120533333Y-129257200D02*
X120676190Y-129304819D01*
X120676190Y-129304819D02*
X120914285Y-129304819D01*
X119961904Y-128400057D02*
X119914285Y-128352438D01*
X119914285Y-128352438D02*
X119819047Y-128304819D01*
X119819047Y-128304819D02*
X119580952Y-128304819D01*
X119580952Y-128304819D02*
X119485714Y-128352438D01*
X119485714Y-128352438D02*
X119438095Y-128400057D01*
X119438095Y-128400057D02*
X119390476Y-128495295D01*
X119390476Y-128495295D02*
X119390476Y-128590533D01*
X119390476Y-128590533D02*
X119438095Y-128733390D01*
X119438095Y-128733390D02*
X120009523Y-129304819D01*
X120009523Y-129304819D02*
X119390476Y-129304819D01*
X119009523Y-128400057D02*
X118961904Y-128352438D01*
X118961904Y-128352438D02*
X118866666Y-128304819D01*
X118866666Y-128304819D02*
X118628571Y-128304819D01*
X118628571Y-128304819D02*
X118533333Y-128352438D01*
X118533333Y-128352438D02*
X118485714Y-128400057D01*
X118485714Y-128400057D02*
X118438095Y-128495295D01*
X118438095Y-128495295D02*
X118438095Y-128590533D01*
X118438095Y-128590533D02*
X118485714Y-128733390D01*
X118485714Y-128733390D02*
X119057142Y-129304819D01*
X119057142Y-129304819D02*
X118438095Y-129304819D01*
X147962857Y-122374819D02*
X148296190Y-121898628D01*
X148534285Y-122374819D02*
X148534285Y-121374819D01*
X148534285Y-121374819D02*
X148153333Y-121374819D01*
X148153333Y-121374819D02*
X148058095Y-121422438D01*
X148058095Y-121422438D02*
X148010476Y-121470057D01*
X148010476Y-121470057D02*
X147962857Y-121565295D01*
X147962857Y-121565295D02*
X147962857Y-121708152D01*
X147962857Y-121708152D02*
X148010476Y-121803390D01*
X148010476Y-121803390D02*
X148058095Y-121851009D01*
X148058095Y-121851009D02*
X148153333Y-121898628D01*
X148153333Y-121898628D02*
X148534285Y-121898628D01*
X147581904Y-121470057D02*
X147534285Y-121422438D01*
X147534285Y-121422438D02*
X147439047Y-121374819D01*
X147439047Y-121374819D02*
X147200952Y-121374819D01*
X147200952Y-121374819D02*
X147105714Y-121422438D01*
X147105714Y-121422438D02*
X147058095Y-121470057D01*
X147058095Y-121470057D02*
X147010476Y-121565295D01*
X147010476Y-121565295D02*
X147010476Y-121660533D01*
X147010476Y-121660533D02*
X147058095Y-121803390D01*
X147058095Y-121803390D02*
X147629523Y-122374819D01*
X147629523Y-122374819D02*
X147010476Y-122374819D01*
X146677142Y-121374819D02*
X146010476Y-121374819D01*
X146010476Y-121374819D02*
X146439047Y-122374819D01*
X121855657Y-80419919D02*
X122188990Y-79943728D01*
X122427085Y-80419919D02*
X122427085Y-79419919D01*
X122427085Y-79419919D02*
X122046133Y-79419919D01*
X122046133Y-79419919D02*
X121950895Y-79467538D01*
X121950895Y-79467538D02*
X121903276Y-79515157D01*
X121903276Y-79515157D02*
X121855657Y-79610395D01*
X121855657Y-79610395D02*
X121855657Y-79753252D01*
X121855657Y-79753252D02*
X121903276Y-79848490D01*
X121903276Y-79848490D02*
X121950895Y-79896109D01*
X121950895Y-79896109D02*
X122046133Y-79943728D01*
X122046133Y-79943728D02*
X122427085Y-79943728D01*
X120903276Y-80419919D02*
X121474704Y-80419919D01*
X121188990Y-80419919D02*
X121188990Y-79419919D01*
X121188990Y-79419919D02*
X121284228Y-79562776D01*
X121284228Y-79562776D02*
X121379466Y-79658014D01*
X121379466Y-79658014D02*
X121474704Y-79705633D01*
X119998514Y-79419919D02*
X120474704Y-79419919D01*
X120474704Y-79419919D02*
X120522323Y-79896109D01*
X120522323Y-79896109D02*
X120474704Y-79848490D01*
X120474704Y-79848490D02*
X120379466Y-79800871D01*
X120379466Y-79800871D02*
X120141371Y-79800871D01*
X120141371Y-79800871D02*
X120046133Y-79848490D01*
X120046133Y-79848490D02*
X119998514Y-79896109D01*
X119998514Y-79896109D02*
X119950895Y-79991347D01*
X119950895Y-79991347D02*
X119950895Y-80229442D01*
X119950895Y-80229442D02*
X119998514Y-80324680D01*
X119998514Y-80324680D02*
X120046133Y-80372300D01*
X120046133Y-80372300D02*
X120141371Y-80419919D01*
X120141371Y-80419919D02*
X120379466Y-80419919D01*
X120379466Y-80419919D02*
X120474704Y-80372300D01*
X120474704Y-80372300D02*
X120522323Y-80324680D01*
X139987257Y-87663219D02*
X140320590Y-87187028D01*
X140558685Y-87663219D02*
X140558685Y-86663219D01*
X140558685Y-86663219D02*
X140177733Y-86663219D01*
X140177733Y-86663219D02*
X140082495Y-86710838D01*
X140082495Y-86710838D02*
X140034876Y-86758457D01*
X140034876Y-86758457D02*
X139987257Y-86853695D01*
X139987257Y-86853695D02*
X139987257Y-86996552D01*
X139987257Y-86996552D02*
X140034876Y-87091790D01*
X140034876Y-87091790D02*
X140082495Y-87139409D01*
X140082495Y-87139409D02*
X140177733Y-87187028D01*
X140177733Y-87187028D02*
X140558685Y-87187028D01*
X139034876Y-87663219D02*
X139606304Y-87663219D01*
X139320590Y-87663219D02*
X139320590Y-86663219D01*
X139320590Y-86663219D02*
X139415828Y-86806076D01*
X139415828Y-86806076D02*
X139511066Y-86901314D01*
X139511066Y-86901314D02*
X139606304Y-86948933D01*
X138653923Y-86758457D02*
X138606304Y-86710838D01*
X138606304Y-86710838D02*
X138511066Y-86663219D01*
X138511066Y-86663219D02*
X138272971Y-86663219D01*
X138272971Y-86663219D02*
X138177733Y-86710838D01*
X138177733Y-86710838D02*
X138130114Y-86758457D01*
X138130114Y-86758457D02*
X138082495Y-86853695D01*
X138082495Y-86853695D02*
X138082495Y-86948933D01*
X138082495Y-86948933D02*
X138130114Y-87091790D01*
X138130114Y-87091790D02*
X138701542Y-87663219D01*
X138701542Y-87663219D02*
X138082495Y-87663219D01*
X147962857Y-127454819D02*
X148296190Y-126978628D01*
X148534285Y-127454819D02*
X148534285Y-126454819D01*
X148534285Y-126454819D02*
X148153333Y-126454819D01*
X148153333Y-126454819D02*
X148058095Y-126502438D01*
X148058095Y-126502438D02*
X148010476Y-126550057D01*
X148010476Y-126550057D02*
X147962857Y-126645295D01*
X147962857Y-126645295D02*
X147962857Y-126788152D01*
X147962857Y-126788152D02*
X148010476Y-126883390D01*
X148010476Y-126883390D02*
X148058095Y-126931009D01*
X148058095Y-126931009D02*
X148153333Y-126978628D01*
X148153333Y-126978628D02*
X148534285Y-126978628D01*
X147581904Y-126550057D02*
X147534285Y-126502438D01*
X147534285Y-126502438D02*
X147439047Y-126454819D01*
X147439047Y-126454819D02*
X147200952Y-126454819D01*
X147200952Y-126454819D02*
X147105714Y-126502438D01*
X147105714Y-126502438D02*
X147058095Y-126550057D01*
X147058095Y-126550057D02*
X147010476Y-126645295D01*
X147010476Y-126645295D02*
X147010476Y-126740533D01*
X147010476Y-126740533D02*
X147058095Y-126883390D01*
X147058095Y-126883390D02*
X147629523Y-127454819D01*
X147629523Y-127454819D02*
X147010476Y-127454819D01*
X146105714Y-126454819D02*
X146581904Y-126454819D01*
X146581904Y-126454819D02*
X146629523Y-126931009D01*
X146629523Y-126931009D02*
X146581904Y-126883390D01*
X146581904Y-126883390D02*
X146486666Y-126835771D01*
X146486666Y-126835771D02*
X146248571Y-126835771D01*
X146248571Y-126835771D02*
X146153333Y-126883390D01*
X146153333Y-126883390D02*
X146105714Y-126931009D01*
X146105714Y-126931009D02*
X146058095Y-127026247D01*
X146058095Y-127026247D02*
X146058095Y-127264342D01*
X146058095Y-127264342D02*
X146105714Y-127359580D01*
X146105714Y-127359580D02*
X146153333Y-127407200D01*
X146153333Y-127407200D02*
X146248571Y-127454819D01*
X146248571Y-127454819D02*
X146486666Y-127454819D01*
X146486666Y-127454819D02*
X146581904Y-127407200D01*
X146581904Y-127407200D02*
X146629523Y-127359580D01*
X118911905Y-111745180D02*
X118911905Y-112745180D01*
X118911905Y-112745180D02*
X119150000Y-112745180D01*
X119150000Y-112745180D02*
X119292857Y-112697561D01*
X119292857Y-112697561D02*
X119388095Y-112602323D01*
X119388095Y-112602323D02*
X119435714Y-112507085D01*
X119435714Y-112507085D02*
X119483333Y-112316609D01*
X119483333Y-112316609D02*
X119483333Y-112173752D01*
X119483333Y-112173752D02*
X119435714Y-111983276D01*
X119435714Y-111983276D02*
X119388095Y-111888038D01*
X119388095Y-111888038D02*
X119292857Y-111792800D01*
X119292857Y-111792800D02*
X119150000Y-111745180D01*
X119150000Y-111745180D02*
X118911905Y-111745180D01*
X119959524Y-111745180D02*
X120150000Y-111745180D01*
X120150000Y-111745180D02*
X120245238Y-111792800D01*
X120245238Y-111792800D02*
X120292857Y-111840419D01*
X120292857Y-111840419D02*
X120388095Y-111983276D01*
X120388095Y-111983276D02*
X120435714Y-112173752D01*
X120435714Y-112173752D02*
X120435714Y-112554704D01*
X120435714Y-112554704D02*
X120388095Y-112649942D01*
X120388095Y-112649942D02*
X120340476Y-112697561D01*
X120340476Y-112697561D02*
X120245238Y-112745180D01*
X120245238Y-112745180D02*
X120054762Y-112745180D01*
X120054762Y-112745180D02*
X119959524Y-112697561D01*
X119959524Y-112697561D02*
X119911905Y-112649942D01*
X119911905Y-112649942D02*
X119864286Y-112554704D01*
X119864286Y-112554704D02*
X119864286Y-112316609D01*
X119864286Y-112316609D02*
X119911905Y-112221371D01*
X119911905Y-112221371D02*
X119959524Y-112173752D01*
X119959524Y-112173752D02*
X120054762Y-112126133D01*
X120054762Y-112126133D02*
X120245238Y-112126133D01*
X120245238Y-112126133D02*
X120340476Y-112173752D01*
X120340476Y-112173752D02*
X120388095Y-112221371D01*
X120388095Y-112221371D02*
X120435714Y-112316609D01*
X124764523Y-48379295D02*
X124764523Y-49026914D01*
X124764523Y-49026914D02*
X124726428Y-49103104D01*
X124726428Y-49103104D02*
X124688333Y-49141200D01*
X124688333Y-49141200D02*
X124612142Y-49179295D01*
X124612142Y-49179295D02*
X124459761Y-49179295D01*
X124459761Y-49179295D02*
X124383571Y-49141200D01*
X124383571Y-49141200D02*
X124345476Y-49103104D01*
X124345476Y-49103104D02*
X124307380Y-49026914D01*
X124307380Y-49026914D02*
X124307380Y-48379295D01*
X123507381Y-49179295D02*
X123964524Y-49179295D01*
X123735952Y-49179295D02*
X123735952Y-48379295D01*
X123735952Y-48379295D02*
X123812143Y-48493580D01*
X123812143Y-48493580D02*
X123888333Y-48569771D01*
X123888333Y-48569771D02*
X123964524Y-48607866D01*
X133734990Y-85635985D02*
X133811180Y-85597890D01*
X133811180Y-85597890D02*
X133887371Y-85521700D01*
X133887371Y-85521700D02*
X134001657Y-85407414D01*
X134001657Y-85407414D02*
X134077847Y-85369319D01*
X134077847Y-85369319D02*
X134154038Y-85369319D01*
X134115942Y-85559795D02*
X134192133Y-85521700D01*
X134192133Y-85521700D02*
X134268323Y-85445509D01*
X134268323Y-85445509D02*
X134306419Y-85293128D01*
X134306419Y-85293128D02*
X134306419Y-85026461D01*
X134306419Y-85026461D02*
X134268323Y-84874080D01*
X134268323Y-84874080D02*
X134192133Y-84797890D01*
X134192133Y-84797890D02*
X134115942Y-84759795D01*
X134115942Y-84759795D02*
X133963561Y-84759795D01*
X133963561Y-84759795D02*
X133887371Y-84797890D01*
X133887371Y-84797890D02*
X133811180Y-84874080D01*
X133811180Y-84874080D02*
X133773085Y-85026461D01*
X133773085Y-85026461D02*
X133773085Y-85293128D01*
X133773085Y-85293128D02*
X133811180Y-85445509D01*
X133811180Y-85445509D02*
X133887371Y-85521700D01*
X133887371Y-85521700D02*
X133963561Y-85559795D01*
X133963561Y-85559795D02*
X134115942Y-85559795D01*
X133011181Y-85559795D02*
X133468324Y-85559795D01*
X133239752Y-85559795D02*
X133239752Y-84759795D01*
X133239752Y-84759795D02*
X133315943Y-84874080D01*
X133315943Y-84874080D02*
X133392133Y-84950271D01*
X133392133Y-84950271D02*
X133468324Y-84988366D01*
X121488190Y-77146485D02*
X121564380Y-77108390D01*
X121564380Y-77108390D02*
X121640571Y-77032200D01*
X121640571Y-77032200D02*
X121754857Y-76917914D01*
X121754857Y-76917914D02*
X121831047Y-76879819D01*
X121831047Y-76879819D02*
X121907238Y-76879819D01*
X121869142Y-77070295D02*
X121945333Y-77032200D01*
X121945333Y-77032200D02*
X122021523Y-76956009D01*
X122021523Y-76956009D02*
X122059619Y-76803628D01*
X122059619Y-76803628D02*
X122059619Y-76536961D01*
X122059619Y-76536961D02*
X122021523Y-76384580D01*
X122021523Y-76384580D02*
X121945333Y-76308390D01*
X121945333Y-76308390D02*
X121869142Y-76270295D01*
X121869142Y-76270295D02*
X121716761Y-76270295D01*
X121716761Y-76270295D02*
X121640571Y-76308390D01*
X121640571Y-76308390D02*
X121564380Y-76384580D01*
X121564380Y-76384580D02*
X121526285Y-76536961D01*
X121526285Y-76536961D02*
X121526285Y-76803628D01*
X121526285Y-76803628D02*
X121564380Y-76956009D01*
X121564380Y-76956009D02*
X121640571Y-77032200D01*
X121640571Y-77032200D02*
X121716761Y-77070295D01*
X121716761Y-77070295D02*
X121869142Y-77070295D01*
X121259619Y-76270295D02*
X120764381Y-76270295D01*
X120764381Y-76270295D02*
X121031047Y-76575057D01*
X121031047Y-76575057D02*
X120916762Y-76575057D01*
X120916762Y-76575057D02*
X120840571Y-76613152D01*
X120840571Y-76613152D02*
X120802476Y-76651247D01*
X120802476Y-76651247D02*
X120764381Y-76727438D01*
X120764381Y-76727438D02*
X120764381Y-76917914D01*
X120764381Y-76917914D02*
X120802476Y-76994104D01*
X120802476Y-76994104D02*
X120840571Y-77032200D01*
X120840571Y-77032200D02*
X120916762Y-77070295D01*
X120916762Y-77070295D02*
X121145333Y-77070295D01*
X121145333Y-77070295D02*
X121221524Y-77032200D01*
X121221524Y-77032200D02*
X121259619Y-76994104D01*
X111379666Y-104719295D02*
X111379666Y-105290723D01*
X111379666Y-105290723D02*
X111417761Y-105405009D01*
X111417761Y-105405009D02*
X111493952Y-105481200D01*
X111493952Y-105481200D02*
X111608237Y-105519295D01*
X111608237Y-105519295D02*
X111684428Y-105519295D01*
X110617761Y-104719295D02*
X110998713Y-104719295D01*
X110998713Y-104719295D02*
X111036809Y-105100247D01*
X111036809Y-105100247D02*
X110998713Y-105062152D01*
X110998713Y-105062152D02*
X110922523Y-105024057D01*
X110922523Y-105024057D02*
X110732047Y-105024057D01*
X110732047Y-105024057D02*
X110655856Y-105062152D01*
X110655856Y-105062152D02*
X110617761Y-105100247D01*
X110617761Y-105100247D02*
X110579666Y-105176438D01*
X110579666Y-105176438D02*
X110579666Y-105366914D01*
X110579666Y-105366914D02*
X110617761Y-105443104D01*
X110617761Y-105443104D02*
X110655856Y-105481200D01*
X110655856Y-105481200D02*
X110732047Y-105519295D01*
X110732047Y-105519295D02*
X110922523Y-105519295D01*
X110922523Y-105519295D02*
X110998713Y-105481200D01*
X110998713Y-105481200D02*
X111036809Y-105443104D01*
X117514666Y-72590819D02*
X117847999Y-72114628D01*
X118086094Y-72590819D02*
X118086094Y-71590819D01*
X118086094Y-71590819D02*
X117705142Y-71590819D01*
X117705142Y-71590819D02*
X117609904Y-71638438D01*
X117609904Y-71638438D02*
X117562285Y-71686057D01*
X117562285Y-71686057D02*
X117514666Y-71781295D01*
X117514666Y-71781295D02*
X117514666Y-71924152D01*
X117514666Y-71924152D02*
X117562285Y-72019390D01*
X117562285Y-72019390D02*
X117609904Y-72067009D01*
X117609904Y-72067009D02*
X117705142Y-72114628D01*
X117705142Y-72114628D02*
X118086094Y-72114628D01*
X116943237Y-72019390D02*
X117038475Y-71971771D01*
X117038475Y-71971771D02*
X117086094Y-71924152D01*
X117086094Y-71924152D02*
X117133713Y-71828914D01*
X117133713Y-71828914D02*
X117133713Y-71781295D01*
X117133713Y-71781295D02*
X117086094Y-71686057D01*
X117086094Y-71686057D02*
X117038475Y-71638438D01*
X117038475Y-71638438D02*
X116943237Y-71590819D01*
X116943237Y-71590819D02*
X116752761Y-71590819D01*
X116752761Y-71590819D02*
X116657523Y-71638438D01*
X116657523Y-71638438D02*
X116609904Y-71686057D01*
X116609904Y-71686057D02*
X116562285Y-71781295D01*
X116562285Y-71781295D02*
X116562285Y-71828914D01*
X116562285Y-71828914D02*
X116609904Y-71924152D01*
X116609904Y-71924152D02*
X116657523Y-71971771D01*
X116657523Y-71971771D02*
X116752761Y-72019390D01*
X116752761Y-72019390D02*
X116943237Y-72019390D01*
X116943237Y-72019390D02*
X117038475Y-72067009D01*
X117038475Y-72067009D02*
X117086094Y-72114628D01*
X117086094Y-72114628D02*
X117133713Y-72209866D01*
X117133713Y-72209866D02*
X117133713Y-72400342D01*
X117133713Y-72400342D02*
X117086094Y-72495580D01*
X117086094Y-72495580D02*
X117038475Y-72543200D01*
X117038475Y-72543200D02*
X116943237Y-72590819D01*
X116943237Y-72590819D02*
X116752761Y-72590819D01*
X116752761Y-72590819D02*
X116657523Y-72543200D01*
X116657523Y-72543200D02*
X116609904Y-72495580D01*
X116609904Y-72495580D02*
X116562285Y-72400342D01*
X116562285Y-72400342D02*
X116562285Y-72209866D01*
X116562285Y-72209866D02*
X116609904Y-72114628D01*
X116609904Y-72114628D02*
X116657523Y-72067009D01*
X116657523Y-72067009D02*
X116752761Y-72019390D01*
X105229857Y-93215330D02*
X105277476Y-93262950D01*
X105277476Y-93262950D02*
X105420333Y-93310569D01*
X105420333Y-93310569D02*
X105515571Y-93310569D01*
X105515571Y-93310569D02*
X105658428Y-93262950D01*
X105658428Y-93262950D02*
X105753666Y-93167711D01*
X105753666Y-93167711D02*
X105801285Y-93072473D01*
X105801285Y-93072473D02*
X105848904Y-92881997D01*
X105848904Y-92881997D02*
X105848904Y-92739140D01*
X105848904Y-92739140D02*
X105801285Y-92548664D01*
X105801285Y-92548664D02*
X105753666Y-92453426D01*
X105753666Y-92453426D02*
X105658428Y-92358188D01*
X105658428Y-92358188D02*
X105515571Y-92310569D01*
X105515571Y-92310569D02*
X105420333Y-92310569D01*
X105420333Y-92310569D02*
X105277476Y-92358188D01*
X105277476Y-92358188D02*
X105229857Y-92405807D01*
X104277476Y-93310569D02*
X104848904Y-93310569D01*
X104563190Y-93310569D02*
X104563190Y-92310569D01*
X104563190Y-92310569D02*
X104658428Y-92453426D01*
X104658428Y-92453426D02*
X104753666Y-92548664D01*
X104753666Y-92548664D02*
X104848904Y-92596283D01*
X103944142Y-92310569D02*
X103325095Y-92310569D01*
X103325095Y-92310569D02*
X103658428Y-92691521D01*
X103658428Y-92691521D02*
X103515571Y-92691521D01*
X103515571Y-92691521D02*
X103420333Y-92739140D01*
X103420333Y-92739140D02*
X103372714Y-92786759D01*
X103372714Y-92786759D02*
X103325095Y-92881997D01*
X103325095Y-92881997D02*
X103325095Y-93120092D01*
X103325095Y-93120092D02*
X103372714Y-93215330D01*
X103372714Y-93215330D02*
X103420333Y-93262950D01*
X103420333Y-93262950D02*
X103515571Y-93310569D01*
X103515571Y-93310569D02*
X103801285Y-93310569D01*
X103801285Y-93310569D02*
X103896523Y-93262950D01*
X103896523Y-93262950D02*
X103944142Y-93215330D01*
X121779457Y-82477319D02*
X122112790Y-82001128D01*
X122350885Y-82477319D02*
X122350885Y-81477319D01*
X122350885Y-81477319D02*
X121969933Y-81477319D01*
X121969933Y-81477319D02*
X121874695Y-81524938D01*
X121874695Y-81524938D02*
X121827076Y-81572557D01*
X121827076Y-81572557D02*
X121779457Y-81667795D01*
X121779457Y-81667795D02*
X121779457Y-81810652D01*
X121779457Y-81810652D02*
X121827076Y-81905890D01*
X121827076Y-81905890D02*
X121874695Y-81953509D01*
X121874695Y-81953509D02*
X121969933Y-82001128D01*
X121969933Y-82001128D02*
X122350885Y-82001128D01*
X121398504Y-81572557D02*
X121350885Y-81524938D01*
X121350885Y-81524938D02*
X121255647Y-81477319D01*
X121255647Y-81477319D02*
X121017552Y-81477319D01*
X121017552Y-81477319D02*
X120922314Y-81524938D01*
X120922314Y-81524938D02*
X120874695Y-81572557D01*
X120874695Y-81572557D02*
X120827076Y-81667795D01*
X120827076Y-81667795D02*
X120827076Y-81763033D01*
X120827076Y-81763033D02*
X120874695Y-81905890D01*
X120874695Y-81905890D02*
X121446123Y-82477319D01*
X121446123Y-82477319D02*
X120827076Y-82477319D01*
X120208028Y-81477319D02*
X120112790Y-81477319D01*
X120112790Y-81477319D02*
X120017552Y-81524938D01*
X120017552Y-81524938D02*
X119969933Y-81572557D01*
X119969933Y-81572557D02*
X119922314Y-81667795D01*
X119922314Y-81667795D02*
X119874695Y-81858271D01*
X119874695Y-81858271D02*
X119874695Y-82096366D01*
X119874695Y-82096366D02*
X119922314Y-82286842D01*
X119922314Y-82286842D02*
X119969933Y-82382080D01*
X119969933Y-82382080D02*
X120017552Y-82429700D01*
X120017552Y-82429700D02*
X120112790Y-82477319D01*
X120112790Y-82477319D02*
X120208028Y-82477319D01*
X120208028Y-82477319D02*
X120303266Y-82429700D01*
X120303266Y-82429700D02*
X120350885Y-82382080D01*
X120350885Y-82382080D02*
X120398504Y-82286842D01*
X120398504Y-82286842D02*
X120446123Y-82096366D01*
X120446123Y-82096366D02*
X120446123Y-81858271D01*
X120446123Y-81858271D02*
X120398504Y-81667795D01*
X120398504Y-81667795D02*
X120350885Y-81572557D01*
X120350885Y-81572557D02*
X120303266Y-81524938D01*
X120303266Y-81524938D02*
X120208028Y-81477319D01*
X143270266Y-54912419D02*
X143603599Y-54436228D01*
X143841694Y-54912419D02*
X143841694Y-53912419D01*
X143841694Y-53912419D02*
X143460742Y-53912419D01*
X143460742Y-53912419D02*
X143365504Y-53960038D01*
X143365504Y-53960038D02*
X143317885Y-54007657D01*
X143317885Y-54007657D02*
X143270266Y-54102895D01*
X143270266Y-54102895D02*
X143270266Y-54245752D01*
X143270266Y-54245752D02*
X143317885Y-54340990D01*
X143317885Y-54340990D02*
X143365504Y-54388609D01*
X143365504Y-54388609D02*
X143460742Y-54436228D01*
X143460742Y-54436228D02*
X143841694Y-54436228D01*
X142413123Y-53912419D02*
X142603599Y-53912419D01*
X142603599Y-53912419D02*
X142698837Y-53960038D01*
X142698837Y-53960038D02*
X142746456Y-54007657D01*
X142746456Y-54007657D02*
X142841694Y-54150514D01*
X142841694Y-54150514D02*
X142889313Y-54340990D01*
X142889313Y-54340990D02*
X142889313Y-54721942D01*
X142889313Y-54721942D02*
X142841694Y-54817180D01*
X142841694Y-54817180D02*
X142794075Y-54864800D01*
X142794075Y-54864800D02*
X142698837Y-54912419D01*
X142698837Y-54912419D02*
X142508361Y-54912419D01*
X142508361Y-54912419D02*
X142413123Y-54864800D01*
X142413123Y-54864800D02*
X142365504Y-54817180D01*
X142365504Y-54817180D02*
X142317885Y-54721942D01*
X142317885Y-54721942D02*
X142317885Y-54483847D01*
X142317885Y-54483847D02*
X142365504Y-54388609D01*
X142365504Y-54388609D02*
X142413123Y-54340990D01*
X142413123Y-54340990D02*
X142508361Y-54293371D01*
X142508361Y-54293371D02*
X142698837Y-54293371D01*
X142698837Y-54293371D02*
X142794075Y-54340990D01*
X142794075Y-54340990D02*
X142841694Y-54388609D01*
X142841694Y-54388609D02*
X142889313Y-54483847D01*
X148909066Y-88583980D02*
X148956685Y-88631600D01*
X148956685Y-88631600D02*
X149099542Y-88679219D01*
X149099542Y-88679219D02*
X149194780Y-88679219D01*
X149194780Y-88679219D02*
X149337637Y-88631600D01*
X149337637Y-88631600D02*
X149432875Y-88536361D01*
X149432875Y-88536361D02*
X149480494Y-88441123D01*
X149480494Y-88441123D02*
X149528113Y-88250647D01*
X149528113Y-88250647D02*
X149528113Y-88107790D01*
X149528113Y-88107790D02*
X149480494Y-87917314D01*
X149480494Y-87917314D02*
X149432875Y-87822076D01*
X149432875Y-87822076D02*
X149337637Y-87726838D01*
X149337637Y-87726838D02*
X149194780Y-87679219D01*
X149194780Y-87679219D02*
X149099542Y-87679219D01*
X149099542Y-87679219D02*
X148956685Y-87726838D01*
X148956685Y-87726838D02*
X148909066Y-87774457D01*
X148004304Y-87679219D02*
X148480494Y-87679219D01*
X148480494Y-87679219D02*
X148528113Y-88155409D01*
X148528113Y-88155409D02*
X148480494Y-88107790D01*
X148480494Y-88107790D02*
X148385256Y-88060171D01*
X148385256Y-88060171D02*
X148147161Y-88060171D01*
X148147161Y-88060171D02*
X148051923Y-88107790D01*
X148051923Y-88107790D02*
X148004304Y-88155409D01*
X148004304Y-88155409D02*
X147956685Y-88250647D01*
X147956685Y-88250647D02*
X147956685Y-88488742D01*
X147956685Y-88488742D02*
X148004304Y-88583980D01*
X148004304Y-88583980D02*
X148051923Y-88631600D01*
X148051923Y-88631600D02*
X148147161Y-88679219D01*
X148147161Y-88679219D02*
X148385256Y-88679219D01*
X148385256Y-88679219D02*
X148480494Y-88631600D01*
X148480494Y-88631600D02*
X148528113Y-88583980D01*
X149351923Y-84738695D02*
X149351923Y-85386314D01*
X149351923Y-85386314D02*
X149313828Y-85462504D01*
X149313828Y-85462504D02*
X149275733Y-85500600D01*
X149275733Y-85500600D02*
X149199542Y-85538695D01*
X149199542Y-85538695D02*
X149047161Y-85538695D01*
X149047161Y-85538695D02*
X148970971Y-85500600D01*
X148970971Y-85500600D02*
X148932876Y-85462504D01*
X148932876Y-85462504D02*
X148894780Y-85386314D01*
X148894780Y-85386314D02*
X148894780Y-84738695D01*
X148551924Y-84814885D02*
X148513828Y-84776790D01*
X148513828Y-84776790D02*
X148437638Y-84738695D01*
X148437638Y-84738695D02*
X148247162Y-84738695D01*
X148247162Y-84738695D02*
X148170971Y-84776790D01*
X148170971Y-84776790D02*
X148132876Y-84814885D01*
X148132876Y-84814885D02*
X148094781Y-84891076D01*
X148094781Y-84891076D02*
X148094781Y-84967266D01*
X148094781Y-84967266D02*
X148132876Y-85081552D01*
X148132876Y-85081552D02*
X148590019Y-85538695D01*
X148590019Y-85538695D02*
X148094781Y-85538695D01*
X140114257Y-83249980D02*
X140161876Y-83297600D01*
X140161876Y-83297600D02*
X140304733Y-83345219D01*
X140304733Y-83345219D02*
X140399971Y-83345219D01*
X140399971Y-83345219D02*
X140542828Y-83297600D01*
X140542828Y-83297600D02*
X140638066Y-83202361D01*
X140638066Y-83202361D02*
X140685685Y-83107123D01*
X140685685Y-83107123D02*
X140733304Y-82916647D01*
X140733304Y-82916647D02*
X140733304Y-82773790D01*
X140733304Y-82773790D02*
X140685685Y-82583314D01*
X140685685Y-82583314D02*
X140638066Y-82488076D01*
X140638066Y-82488076D02*
X140542828Y-82392838D01*
X140542828Y-82392838D02*
X140399971Y-82345219D01*
X140399971Y-82345219D02*
X140304733Y-82345219D01*
X140304733Y-82345219D02*
X140161876Y-82392838D01*
X140161876Y-82392838D02*
X140114257Y-82440457D01*
X139161876Y-83345219D02*
X139733304Y-83345219D01*
X139447590Y-83345219D02*
X139447590Y-82345219D01*
X139447590Y-82345219D02*
X139542828Y-82488076D01*
X139542828Y-82488076D02*
X139638066Y-82583314D01*
X139638066Y-82583314D02*
X139733304Y-82630933D01*
X138542828Y-82345219D02*
X138447590Y-82345219D01*
X138447590Y-82345219D02*
X138352352Y-82392838D01*
X138352352Y-82392838D02*
X138304733Y-82440457D01*
X138304733Y-82440457D02*
X138257114Y-82535695D01*
X138257114Y-82535695D02*
X138209495Y-82726171D01*
X138209495Y-82726171D02*
X138209495Y-82964266D01*
X138209495Y-82964266D02*
X138257114Y-83154742D01*
X138257114Y-83154742D02*
X138304733Y-83249980D01*
X138304733Y-83249980D02*
X138352352Y-83297600D01*
X138352352Y-83297600D02*
X138447590Y-83345219D01*
X138447590Y-83345219D02*
X138542828Y-83345219D01*
X138542828Y-83345219D02*
X138638066Y-83297600D01*
X138638066Y-83297600D02*
X138685685Y-83249980D01*
X138685685Y-83249980D02*
X138733304Y-83154742D01*
X138733304Y-83154742D02*
X138780923Y-82964266D01*
X138780923Y-82964266D02*
X138780923Y-82726171D01*
X138780923Y-82726171D02*
X138733304Y-82535695D01*
X138733304Y-82535695D02*
X138685685Y-82440457D01*
X138685685Y-82440457D02*
X138638066Y-82392838D01*
X138638066Y-82392838D02*
X138542828Y-82345219D01*
X154820857Y-64716819D02*
X155154190Y-64240628D01*
X155392285Y-64716819D02*
X155392285Y-63716819D01*
X155392285Y-63716819D02*
X155011333Y-63716819D01*
X155011333Y-63716819D02*
X154916095Y-63764438D01*
X154916095Y-63764438D02*
X154868476Y-63812057D01*
X154868476Y-63812057D02*
X154820857Y-63907295D01*
X154820857Y-63907295D02*
X154820857Y-64050152D01*
X154820857Y-64050152D02*
X154868476Y-64145390D01*
X154868476Y-64145390D02*
X154916095Y-64193009D01*
X154916095Y-64193009D02*
X155011333Y-64240628D01*
X155011333Y-64240628D02*
X155392285Y-64240628D01*
X154439904Y-63812057D02*
X154392285Y-63764438D01*
X154392285Y-63764438D02*
X154297047Y-63716819D01*
X154297047Y-63716819D02*
X154058952Y-63716819D01*
X154058952Y-63716819D02*
X153963714Y-63764438D01*
X153963714Y-63764438D02*
X153916095Y-63812057D01*
X153916095Y-63812057D02*
X153868476Y-63907295D01*
X153868476Y-63907295D02*
X153868476Y-64002533D01*
X153868476Y-64002533D02*
X153916095Y-64145390D01*
X153916095Y-64145390D02*
X154487523Y-64716819D01*
X154487523Y-64716819D02*
X153868476Y-64716819D01*
X153487523Y-63812057D02*
X153439904Y-63764438D01*
X153439904Y-63764438D02*
X153344666Y-63716819D01*
X153344666Y-63716819D02*
X153106571Y-63716819D01*
X153106571Y-63716819D02*
X153011333Y-63764438D01*
X153011333Y-63764438D02*
X152963714Y-63812057D01*
X152963714Y-63812057D02*
X152916095Y-63907295D01*
X152916095Y-63907295D02*
X152916095Y-64002533D01*
X152916095Y-64002533D02*
X152963714Y-64145390D01*
X152963714Y-64145390D02*
X153535142Y-64716819D01*
X153535142Y-64716819D02*
X152916095Y-64716819D01*
X144814285Y-129104819D02*
X144814285Y-128104819D01*
X144814285Y-128104819D02*
X144576190Y-128104819D01*
X144576190Y-128104819D02*
X144433333Y-128152438D01*
X144433333Y-128152438D02*
X144338095Y-128247676D01*
X144338095Y-128247676D02*
X144290476Y-128342914D01*
X144290476Y-128342914D02*
X144242857Y-128533390D01*
X144242857Y-128533390D02*
X144242857Y-128676247D01*
X144242857Y-128676247D02*
X144290476Y-128866723D01*
X144290476Y-128866723D02*
X144338095Y-128961961D01*
X144338095Y-128961961D02*
X144433333Y-129057200D01*
X144433333Y-129057200D02*
X144576190Y-129104819D01*
X144576190Y-129104819D02*
X144814285Y-129104819D01*
X143290476Y-129104819D02*
X143861904Y-129104819D01*
X143576190Y-129104819D02*
X143576190Y-128104819D01*
X143576190Y-128104819D02*
X143671428Y-128247676D01*
X143671428Y-128247676D02*
X143766666Y-128342914D01*
X143766666Y-128342914D02*
X143861904Y-128390533D01*
X142957142Y-128104819D02*
X142290476Y-128104819D01*
X142290476Y-128104819D02*
X142719047Y-129104819D01*
X128408857Y-88192319D02*
X128742190Y-87716128D01*
X128980285Y-88192319D02*
X128980285Y-87192319D01*
X128980285Y-87192319D02*
X128599333Y-87192319D01*
X128599333Y-87192319D02*
X128504095Y-87239938D01*
X128504095Y-87239938D02*
X128456476Y-87287557D01*
X128456476Y-87287557D02*
X128408857Y-87382795D01*
X128408857Y-87382795D02*
X128408857Y-87525652D01*
X128408857Y-87525652D02*
X128456476Y-87620890D01*
X128456476Y-87620890D02*
X128504095Y-87668509D01*
X128504095Y-87668509D02*
X128599333Y-87716128D01*
X128599333Y-87716128D02*
X128980285Y-87716128D01*
X127456476Y-88192319D02*
X128027904Y-88192319D01*
X127742190Y-88192319D02*
X127742190Y-87192319D01*
X127742190Y-87192319D02*
X127837428Y-87335176D01*
X127837428Y-87335176D02*
X127932666Y-87430414D01*
X127932666Y-87430414D02*
X128027904Y-87478033D01*
X126599333Y-87192319D02*
X126789809Y-87192319D01*
X126789809Y-87192319D02*
X126885047Y-87239938D01*
X126885047Y-87239938D02*
X126932666Y-87287557D01*
X126932666Y-87287557D02*
X127027904Y-87430414D01*
X127027904Y-87430414D02*
X127075523Y-87620890D01*
X127075523Y-87620890D02*
X127075523Y-88001842D01*
X127075523Y-88001842D02*
X127027904Y-88097080D01*
X127027904Y-88097080D02*
X126980285Y-88144700D01*
X126980285Y-88144700D02*
X126885047Y-88192319D01*
X126885047Y-88192319D02*
X126694571Y-88192319D01*
X126694571Y-88192319D02*
X126599333Y-88144700D01*
X126599333Y-88144700D02*
X126551714Y-88097080D01*
X126551714Y-88097080D02*
X126504095Y-88001842D01*
X126504095Y-88001842D02*
X126504095Y-87763747D01*
X126504095Y-87763747D02*
X126551714Y-87668509D01*
X126551714Y-87668509D02*
X126599333Y-87620890D01*
X126599333Y-87620890D02*
X126694571Y-87573271D01*
X126694571Y-87573271D02*
X126885047Y-87573271D01*
X126885047Y-87573271D02*
X126980285Y-87620890D01*
X126980285Y-87620890D02*
X127027904Y-87668509D01*
X127027904Y-87668509D02*
X127075523Y-87763747D01*
X105229857Y-95342569D02*
X105563190Y-94866378D01*
X105801285Y-95342569D02*
X105801285Y-94342569D01*
X105801285Y-94342569D02*
X105420333Y-94342569D01*
X105420333Y-94342569D02*
X105325095Y-94390188D01*
X105325095Y-94390188D02*
X105277476Y-94437807D01*
X105277476Y-94437807D02*
X105229857Y-94533045D01*
X105229857Y-94533045D02*
X105229857Y-94675902D01*
X105229857Y-94675902D02*
X105277476Y-94771140D01*
X105277476Y-94771140D02*
X105325095Y-94818759D01*
X105325095Y-94818759D02*
X105420333Y-94866378D01*
X105420333Y-94866378D02*
X105801285Y-94866378D01*
X104277476Y-95342569D02*
X104848904Y-95342569D01*
X104563190Y-95342569D02*
X104563190Y-94342569D01*
X104563190Y-94342569D02*
X104658428Y-94485426D01*
X104658428Y-94485426D02*
X104753666Y-94580664D01*
X104753666Y-94580664D02*
X104848904Y-94628283D01*
X103801285Y-95342569D02*
X103610809Y-95342569D01*
X103610809Y-95342569D02*
X103515571Y-95294950D01*
X103515571Y-95294950D02*
X103467952Y-95247330D01*
X103467952Y-95247330D02*
X103372714Y-95104473D01*
X103372714Y-95104473D02*
X103325095Y-94913997D01*
X103325095Y-94913997D02*
X103325095Y-94533045D01*
X103325095Y-94533045D02*
X103372714Y-94437807D01*
X103372714Y-94437807D02*
X103420333Y-94390188D01*
X103420333Y-94390188D02*
X103515571Y-94342569D01*
X103515571Y-94342569D02*
X103706047Y-94342569D01*
X103706047Y-94342569D02*
X103801285Y-94390188D01*
X103801285Y-94390188D02*
X103848904Y-94437807D01*
X103848904Y-94437807D02*
X103896523Y-94533045D01*
X103896523Y-94533045D02*
X103896523Y-94771140D01*
X103896523Y-94771140D02*
X103848904Y-94866378D01*
X103848904Y-94866378D02*
X103801285Y-94913997D01*
X103801285Y-94913997D02*
X103706047Y-94961616D01*
X103706047Y-94961616D02*
X103515571Y-94961616D01*
X103515571Y-94961616D02*
X103420333Y-94913997D01*
X103420333Y-94913997D02*
X103372714Y-94866378D01*
X103372714Y-94866378D02*
X103325095Y-94771140D01*
X148637295Y-70529524D02*
X147837295Y-70529524D01*
X147837295Y-70529524D02*
X147837295Y-70720000D01*
X147837295Y-70720000D02*
X147875390Y-70834286D01*
X147875390Y-70834286D02*
X147951580Y-70910476D01*
X147951580Y-70910476D02*
X148027771Y-70948571D01*
X148027771Y-70948571D02*
X148180152Y-70986667D01*
X148180152Y-70986667D02*
X148294438Y-70986667D01*
X148294438Y-70986667D02*
X148446819Y-70948571D01*
X148446819Y-70948571D02*
X148523009Y-70910476D01*
X148523009Y-70910476D02*
X148599200Y-70834286D01*
X148599200Y-70834286D02*
X148637295Y-70720000D01*
X148637295Y-70720000D02*
X148637295Y-70529524D01*
X147837295Y-71253333D02*
X147837295Y-71748571D01*
X147837295Y-71748571D02*
X148142057Y-71481905D01*
X148142057Y-71481905D02*
X148142057Y-71596190D01*
X148142057Y-71596190D02*
X148180152Y-71672381D01*
X148180152Y-71672381D02*
X148218247Y-71710476D01*
X148218247Y-71710476D02*
X148294438Y-71748571D01*
X148294438Y-71748571D02*
X148484914Y-71748571D01*
X148484914Y-71748571D02*
X148561104Y-71710476D01*
X148561104Y-71710476D02*
X148599200Y-71672381D01*
X148599200Y-71672381D02*
X148637295Y-71596190D01*
X148637295Y-71596190D02*
X148637295Y-71367619D01*
X148637295Y-71367619D02*
X148599200Y-71291428D01*
X148599200Y-71291428D02*
X148561104Y-71253333D01*
X166422857Y-118192819D02*
X166756190Y-117716628D01*
X166994285Y-118192819D02*
X166994285Y-117192819D01*
X166994285Y-117192819D02*
X166613333Y-117192819D01*
X166613333Y-117192819D02*
X166518095Y-117240438D01*
X166518095Y-117240438D02*
X166470476Y-117288057D01*
X166470476Y-117288057D02*
X166422857Y-117383295D01*
X166422857Y-117383295D02*
X166422857Y-117526152D01*
X166422857Y-117526152D02*
X166470476Y-117621390D01*
X166470476Y-117621390D02*
X166518095Y-117669009D01*
X166518095Y-117669009D02*
X166613333Y-117716628D01*
X166613333Y-117716628D02*
X166994285Y-117716628D01*
X166089523Y-117192819D02*
X165470476Y-117192819D01*
X165470476Y-117192819D02*
X165803809Y-117573771D01*
X165803809Y-117573771D02*
X165660952Y-117573771D01*
X165660952Y-117573771D02*
X165565714Y-117621390D01*
X165565714Y-117621390D02*
X165518095Y-117669009D01*
X165518095Y-117669009D02*
X165470476Y-117764247D01*
X165470476Y-117764247D02*
X165470476Y-118002342D01*
X165470476Y-118002342D02*
X165518095Y-118097580D01*
X165518095Y-118097580D02*
X165565714Y-118145200D01*
X165565714Y-118145200D02*
X165660952Y-118192819D01*
X165660952Y-118192819D02*
X165946666Y-118192819D01*
X165946666Y-118192819D02*
X166041904Y-118145200D01*
X166041904Y-118145200D02*
X166089523Y-118097580D01*
X164851428Y-117192819D02*
X164756190Y-117192819D01*
X164756190Y-117192819D02*
X164660952Y-117240438D01*
X164660952Y-117240438D02*
X164613333Y-117288057D01*
X164613333Y-117288057D02*
X164565714Y-117383295D01*
X164565714Y-117383295D02*
X164518095Y-117573771D01*
X164518095Y-117573771D02*
X164518095Y-117811866D01*
X164518095Y-117811866D02*
X164565714Y-118002342D01*
X164565714Y-118002342D02*
X164613333Y-118097580D01*
X164613333Y-118097580D02*
X164660952Y-118145200D01*
X164660952Y-118145200D02*
X164756190Y-118192819D01*
X164756190Y-118192819D02*
X164851428Y-118192819D01*
X164851428Y-118192819D02*
X164946666Y-118145200D01*
X164946666Y-118145200D02*
X164994285Y-118097580D01*
X164994285Y-118097580D02*
X165041904Y-118002342D01*
X165041904Y-118002342D02*
X165089523Y-117811866D01*
X165089523Y-117811866D02*
X165089523Y-117573771D01*
X165089523Y-117573771D02*
X165041904Y-117383295D01*
X165041904Y-117383295D02*
X164994285Y-117288057D01*
X164994285Y-117288057D02*
X164946666Y-117240438D01*
X164946666Y-117240438D02*
X164851428Y-117192819D01*
X132914285Y-144954819D02*
X132914285Y-143954819D01*
X132914285Y-143954819D02*
X132676190Y-143954819D01*
X132676190Y-143954819D02*
X132533333Y-144002438D01*
X132533333Y-144002438D02*
X132438095Y-144097676D01*
X132438095Y-144097676D02*
X132390476Y-144192914D01*
X132390476Y-144192914D02*
X132342857Y-144383390D01*
X132342857Y-144383390D02*
X132342857Y-144526247D01*
X132342857Y-144526247D02*
X132390476Y-144716723D01*
X132390476Y-144716723D02*
X132438095Y-144811961D01*
X132438095Y-144811961D02*
X132533333Y-144907200D01*
X132533333Y-144907200D02*
X132676190Y-144954819D01*
X132676190Y-144954819D02*
X132914285Y-144954819D01*
X131390476Y-144954819D02*
X131961904Y-144954819D01*
X131676190Y-144954819D02*
X131676190Y-143954819D01*
X131676190Y-143954819D02*
X131771428Y-144097676D01*
X131771428Y-144097676D02*
X131866666Y-144192914D01*
X131866666Y-144192914D02*
X131961904Y-144240533D01*
X130485714Y-143954819D02*
X130961904Y-143954819D01*
X130961904Y-143954819D02*
X131009523Y-144431009D01*
X131009523Y-144431009D02*
X130961904Y-144383390D01*
X130961904Y-144383390D02*
X130866666Y-144335771D01*
X130866666Y-144335771D02*
X130628571Y-144335771D01*
X130628571Y-144335771D02*
X130533333Y-144383390D01*
X130533333Y-144383390D02*
X130485714Y-144431009D01*
X130485714Y-144431009D02*
X130438095Y-144526247D01*
X130438095Y-144526247D02*
X130438095Y-144764342D01*
X130438095Y-144764342D02*
X130485714Y-144859580D01*
X130485714Y-144859580D02*
X130533333Y-144907200D01*
X130533333Y-144907200D02*
X130628571Y-144954819D01*
X130628571Y-144954819D02*
X130866666Y-144954819D01*
X130866666Y-144954819D02*
X130961904Y-144907200D01*
X130961904Y-144907200D02*
X131009523Y-144859580D01*
X166422857Y-120248319D02*
X166756190Y-119772128D01*
X166994285Y-120248319D02*
X166994285Y-119248319D01*
X166994285Y-119248319D02*
X166613333Y-119248319D01*
X166613333Y-119248319D02*
X166518095Y-119295938D01*
X166518095Y-119295938D02*
X166470476Y-119343557D01*
X166470476Y-119343557D02*
X166422857Y-119438795D01*
X166422857Y-119438795D02*
X166422857Y-119581652D01*
X166422857Y-119581652D02*
X166470476Y-119676890D01*
X166470476Y-119676890D02*
X166518095Y-119724509D01*
X166518095Y-119724509D02*
X166613333Y-119772128D01*
X166613333Y-119772128D02*
X166994285Y-119772128D01*
X166041904Y-119343557D02*
X165994285Y-119295938D01*
X165994285Y-119295938D02*
X165899047Y-119248319D01*
X165899047Y-119248319D02*
X165660952Y-119248319D01*
X165660952Y-119248319D02*
X165565714Y-119295938D01*
X165565714Y-119295938D02*
X165518095Y-119343557D01*
X165518095Y-119343557D02*
X165470476Y-119438795D01*
X165470476Y-119438795D02*
X165470476Y-119534033D01*
X165470476Y-119534033D02*
X165518095Y-119676890D01*
X165518095Y-119676890D02*
X166089523Y-120248319D01*
X166089523Y-120248319D02*
X165470476Y-120248319D01*
X164994285Y-120248319D02*
X164803809Y-120248319D01*
X164803809Y-120248319D02*
X164708571Y-120200700D01*
X164708571Y-120200700D02*
X164660952Y-120153080D01*
X164660952Y-120153080D02*
X164565714Y-120010223D01*
X164565714Y-120010223D02*
X164518095Y-119819747D01*
X164518095Y-119819747D02*
X164518095Y-119438795D01*
X164518095Y-119438795D02*
X164565714Y-119343557D01*
X164565714Y-119343557D02*
X164613333Y-119295938D01*
X164613333Y-119295938D02*
X164708571Y-119248319D01*
X164708571Y-119248319D02*
X164899047Y-119248319D01*
X164899047Y-119248319D02*
X164994285Y-119295938D01*
X164994285Y-119295938D02*
X165041904Y-119343557D01*
X165041904Y-119343557D02*
X165089523Y-119438795D01*
X165089523Y-119438795D02*
X165089523Y-119676890D01*
X165089523Y-119676890D02*
X165041904Y-119772128D01*
X165041904Y-119772128D02*
X164994285Y-119819747D01*
X164994285Y-119819747D02*
X164899047Y-119867366D01*
X164899047Y-119867366D02*
X164708571Y-119867366D01*
X164708571Y-119867366D02*
X164613333Y-119819747D01*
X164613333Y-119819747D02*
X164565714Y-119772128D01*
X164565714Y-119772128D02*
X164518095Y-119676890D01*
X136914285Y-128854819D02*
X136914285Y-127854819D01*
X136914285Y-127854819D02*
X136676190Y-127854819D01*
X136676190Y-127854819D02*
X136533333Y-127902438D01*
X136533333Y-127902438D02*
X136438095Y-127997676D01*
X136438095Y-127997676D02*
X136390476Y-128092914D01*
X136390476Y-128092914D02*
X136342857Y-128283390D01*
X136342857Y-128283390D02*
X136342857Y-128426247D01*
X136342857Y-128426247D02*
X136390476Y-128616723D01*
X136390476Y-128616723D02*
X136438095Y-128711961D01*
X136438095Y-128711961D02*
X136533333Y-128807200D01*
X136533333Y-128807200D02*
X136676190Y-128854819D01*
X136676190Y-128854819D02*
X136914285Y-128854819D01*
X135961904Y-127950057D02*
X135914285Y-127902438D01*
X135914285Y-127902438D02*
X135819047Y-127854819D01*
X135819047Y-127854819D02*
X135580952Y-127854819D01*
X135580952Y-127854819D02*
X135485714Y-127902438D01*
X135485714Y-127902438D02*
X135438095Y-127950057D01*
X135438095Y-127950057D02*
X135390476Y-128045295D01*
X135390476Y-128045295D02*
X135390476Y-128140533D01*
X135390476Y-128140533D02*
X135438095Y-128283390D01*
X135438095Y-128283390D02*
X136009523Y-128854819D01*
X136009523Y-128854819D02*
X135390476Y-128854819D01*
X134771428Y-127854819D02*
X134676190Y-127854819D01*
X134676190Y-127854819D02*
X134580952Y-127902438D01*
X134580952Y-127902438D02*
X134533333Y-127950057D01*
X134533333Y-127950057D02*
X134485714Y-128045295D01*
X134485714Y-128045295D02*
X134438095Y-128235771D01*
X134438095Y-128235771D02*
X134438095Y-128473866D01*
X134438095Y-128473866D02*
X134485714Y-128664342D01*
X134485714Y-128664342D02*
X134533333Y-128759580D01*
X134533333Y-128759580D02*
X134580952Y-128807200D01*
X134580952Y-128807200D02*
X134676190Y-128854819D01*
X134676190Y-128854819D02*
X134771428Y-128854819D01*
X134771428Y-128854819D02*
X134866666Y-128807200D01*
X134866666Y-128807200D02*
X134914285Y-128759580D01*
X134914285Y-128759580D02*
X134961904Y-128664342D01*
X134961904Y-128664342D02*
X135009523Y-128473866D01*
X135009523Y-128473866D02*
X135009523Y-128235771D01*
X135009523Y-128235771D02*
X134961904Y-128045295D01*
X134961904Y-128045295D02*
X134914285Y-127950057D01*
X134914285Y-127950057D02*
X134866666Y-127902438D01*
X134866666Y-127902438D02*
X134771428Y-127854819D01*
X166422857Y-122256819D02*
X166756190Y-121780628D01*
X166994285Y-122256819D02*
X166994285Y-121256819D01*
X166994285Y-121256819D02*
X166613333Y-121256819D01*
X166613333Y-121256819D02*
X166518095Y-121304438D01*
X166518095Y-121304438D02*
X166470476Y-121352057D01*
X166470476Y-121352057D02*
X166422857Y-121447295D01*
X166422857Y-121447295D02*
X166422857Y-121590152D01*
X166422857Y-121590152D02*
X166470476Y-121685390D01*
X166470476Y-121685390D02*
X166518095Y-121733009D01*
X166518095Y-121733009D02*
X166613333Y-121780628D01*
X166613333Y-121780628D02*
X166994285Y-121780628D01*
X166041904Y-121352057D02*
X165994285Y-121304438D01*
X165994285Y-121304438D02*
X165899047Y-121256819D01*
X165899047Y-121256819D02*
X165660952Y-121256819D01*
X165660952Y-121256819D02*
X165565714Y-121304438D01*
X165565714Y-121304438D02*
X165518095Y-121352057D01*
X165518095Y-121352057D02*
X165470476Y-121447295D01*
X165470476Y-121447295D02*
X165470476Y-121542533D01*
X165470476Y-121542533D02*
X165518095Y-121685390D01*
X165518095Y-121685390D02*
X166089523Y-122256819D01*
X166089523Y-122256819D02*
X165470476Y-122256819D01*
X164899047Y-121685390D02*
X164994285Y-121637771D01*
X164994285Y-121637771D02*
X165041904Y-121590152D01*
X165041904Y-121590152D02*
X165089523Y-121494914D01*
X165089523Y-121494914D02*
X165089523Y-121447295D01*
X165089523Y-121447295D02*
X165041904Y-121352057D01*
X165041904Y-121352057D02*
X164994285Y-121304438D01*
X164994285Y-121304438D02*
X164899047Y-121256819D01*
X164899047Y-121256819D02*
X164708571Y-121256819D01*
X164708571Y-121256819D02*
X164613333Y-121304438D01*
X164613333Y-121304438D02*
X164565714Y-121352057D01*
X164565714Y-121352057D02*
X164518095Y-121447295D01*
X164518095Y-121447295D02*
X164518095Y-121494914D01*
X164518095Y-121494914D02*
X164565714Y-121590152D01*
X164565714Y-121590152D02*
X164613333Y-121637771D01*
X164613333Y-121637771D02*
X164708571Y-121685390D01*
X164708571Y-121685390D02*
X164899047Y-121685390D01*
X164899047Y-121685390D02*
X164994285Y-121733009D01*
X164994285Y-121733009D02*
X165041904Y-121780628D01*
X165041904Y-121780628D02*
X165089523Y-121875866D01*
X165089523Y-121875866D02*
X165089523Y-122066342D01*
X165089523Y-122066342D02*
X165041904Y-122161580D01*
X165041904Y-122161580D02*
X164994285Y-122209200D01*
X164994285Y-122209200D02*
X164899047Y-122256819D01*
X164899047Y-122256819D02*
X164708571Y-122256819D01*
X164708571Y-122256819D02*
X164613333Y-122209200D01*
X164613333Y-122209200D02*
X164565714Y-122161580D01*
X164565714Y-122161580D02*
X164518095Y-122066342D01*
X164518095Y-122066342D02*
X164518095Y-121875866D01*
X164518095Y-121875866D02*
X164565714Y-121780628D01*
X164565714Y-121780628D02*
X164613333Y-121733009D01*
X164613333Y-121733009D02*
X164708571Y-121685390D01*
X147962857Y-117294819D02*
X148296190Y-116818628D01*
X148534285Y-117294819D02*
X148534285Y-116294819D01*
X148534285Y-116294819D02*
X148153333Y-116294819D01*
X148153333Y-116294819D02*
X148058095Y-116342438D01*
X148058095Y-116342438D02*
X148010476Y-116390057D01*
X148010476Y-116390057D02*
X147962857Y-116485295D01*
X147962857Y-116485295D02*
X147962857Y-116628152D01*
X147962857Y-116628152D02*
X148010476Y-116723390D01*
X148010476Y-116723390D02*
X148058095Y-116771009D01*
X148058095Y-116771009D02*
X148153333Y-116818628D01*
X148153333Y-116818628D02*
X148534285Y-116818628D01*
X147581904Y-116390057D02*
X147534285Y-116342438D01*
X147534285Y-116342438D02*
X147439047Y-116294819D01*
X147439047Y-116294819D02*
X147200952Y-116294819D01*
X147200952Y-116294819D02*
X147105714Y-116342438D01*
X147105714Y-116342438D02*
X147058095Y-116390057D01*
X147058095Y-116390057D02*
X147010476Y-116485295D01*
X147010476Y-116485295D02*
X147010476Y-116580533D01*
X147010476Y-116580533D02*
X147058095Y-116723390D01*
X147058095Y-116723390D02*
X147629523Y-117294819D01*
X147629523Y-117294819D02*
X147010476Y-117294819D01*
X146153333Y-116628152D02*
X146153333Y-117294819D01*
X146391428Y-116247200D02*
X146629523Y-116961485D01*
X146629523Y-116961485D02*
X146010476Y-116961485D01*
X128588094Y-112854819D02*
X128588094Y-111854819D01*
X128588094Y-111854819D02*
X128349999Y-111854819D01*
X128349999Y-111854819D02*
X128207142Y-111902438D01*
X128207142Y-111902438D02*
X128111904Y-111997676D01*
X128111904Y-111997676D02*
X128064285Y-112092914D01*
X128064285Y-112092914D02*
X128016666Y-112283390D01*
X128016666Y-112283390D02*
X128016666Y-112426247D01*
X128016666Y-112426247D02*
X128064285Y-112616723D01*
X128064285Y-112616723D02*
X128111904Y-112711961D01*
X128111904Y-112711961D02*
X128207142Y-112807200D01*
X128207142Y-112807200D02*
X128349999Y-112854819D01*
X128349999Y-112854819D02*
X128588094Y-112854819D01*
X127111904Y-111854819D02*
X127588094Y-111854819D01*
X127588094Y-111854819D02*
X127635713Y-112331009D01*
X127635713Y-112331009D02*
X127588094Y-112283390D01*
X127588094Y-112283390D02*
X127492856Y-112235771D01*
X127492856Y-112235771D02*
X127254761Y-112235771D01*
X127254761Y-112235771D02*
X127159523Y-112283390D01*
X127159523Y-112283390D02*
X127111904Y-112331009D01*
X127111904Y-112331009D02*
X127064285Y-112426247D01*
X127064285Y-112426247D02*
X127064285Y-112664342D01*
X127064285Y-112664342D02*
X127111904Y-112759580D01*
X127111904Y-112759580D02*
X127159523Y-112807200D01*
X127159523Y-112807200D02*
X127254761Y-112854819D01*
X127254761Y-112854819D02*
X127492856Y-112854819D01*
X127492856Y-112854819D02*
X127588094Y-112807200D01*
X127588094Y-112807200D02*
X127635713Y-112759580D01*
X157172857Y-70209580D02*
X157220476Y-70257200D01*
X157220476Y-70257200D02*
X157363333Y-70304819D01*
X157363333Y-70304819D02*
X157458571Y-70304819D01*
X157458571Y-70304819D02*
X157601428Y-70257200D01*
X157601428Y-70257200D02*
X157696666Y-70161961D01*
X157696666Y-70161961D02*
X157744285Y-70066723D01*
X157744285Y-70066723D02*
X157791904Y-69876247D01*
X157791904Y-69876247D02*
X157791904Y-69733390D01*
X157791904Y-69733390D02*
X157744285Y-69542914D01*
X157744285Y-69542914D02*
X157696666Y-69447676D01*
X157696666Y-69447676D02*
X157601428Y-69352438D01*
X157601428Y-69352438D02*
X157458571Y-69304819D01*
X157458571Y-69304819D02*
X157363333Y-69304819D01*
X157363333Y-69304819D02*
X157220476Y-69352438D01*
X157220476Y-69352438D02*
X157172857Y-69400057D01*
X156220476Y-70304819D02*
X156791904Y-70304819D01*
X156506190Y-70304819D02*
X156506190Y-69304819D01*
X156506190Y-69304819D02*
X156601428Y-69447676D01*
X156601428Y-69447676D02*
X156696666Y-69542914D01*
X156696666Y-69542914D02*
X156791904Y-69590533D01*
X155744285Y-70304819D02*
X155553809Y-70304819D01*
X155553809Y-70304819D02*
X155458571Y-70257200D01*
X155458571Y-70257200D02*
X155410952Y-70209580D01*
X155410952Y-70209580D02*
X155315714Y-70066723D01*
X155315714Y-70066723D02*
X155268095Y-69876247D01*
X155268095Y-69876247D02*
X155268095Y-69495295D01*
X155268095Y-69495295D02*
X155315714Y-69400057D01*
X155315714Y-69400057D02*
X155363333Y-69352438D01*
X155363333Y-69352438D02*
X155458571Y-69304819D01*
X155458571Y-69304819D02*
X155649047Y-69304819D01*
X155649047Y-69304819D02*
X155744285Y-69352438D01*
X155744285Y-69352438D02*
X155791904Y-69400057D01*
X155791904Y-69400057D02*
X155839523Y-69495295D01*
X155839523Y-69495295D02*
X155839523Y-69733390D01*
X155839523Y-69733390D02*
X155791904Y-69828628D01*
X155791904Y-69828628D02*
X155744285Y-69876247D01*
X155744285Y-69876247D02*
X155649047Y-69923866D01*
X155649047Y-69923866D02*
X155458571Y-69923866D01*
X155458571Y-69923866D02*
X155363333Y-69876247D01*
X155363333Y-69876247D02*
X155315714Y-69828628D01*
X155315714Y-69828628D02*
X155268095Y-69733390D01*
X157603485Y-75488809D02*
X157565390Y-75412619D01*
X157565390Y-75412619D02*
X157489200Y-75336428D01*
X157489200Y-75336428D02*
X157374914Y-75222142D01*
X157374914Y-75222142D02*
X157336819Y-75145952D01*
X157336819Y-75145952D02*
X157336819Y-75069761D01*
X157527295Y-75107857D02*
X157489200Y-75031666D01*
X157489200Y-75031666D02*
X157413009Y-74955476D01*
X157413009Y-74955476D02*
X157260628Y-74917380D01*
X157260628Y-74917380D02*
X156993961Y-74917380D01*
X156993961Y-74917380D02*
X156841580Y-74955476D01*
X156841580Y-74955476D02*
X156765390Y-75031666D01*
X156765390Y-75031666D02*
X156727295Y-75107857D01*
X156727295Y-75107857D02*
X156727295Y-75260238D01*
X156727295Y-75260238D02*
X156765390Y-75336428D01*
X156765390Y-75336428D02*
X156841580Y-75412619D01*
X156841580Y-75412619D02*
X156993961Y-75450714D01*
X156993961Y-75450714D02*
X157260628Y-75450714D01*
X157260628Y-75450714D02*
X157413009Y-75412619D01*
X157413009Y-75412619D02*
X157489200Y-75336428D01*
X157489200Y-75336428D02*
X157527295Y-75260238D01*
X157527295Y-75260238D02*
X157527295Y-75107857D01*
X156803485Y-75755475D02*
X156765390Y-75793571D01*
X156765390Y-75793571D02*
X156727295Y-75869761D01*
X156727295Y-75869761D02*
X156727295Y-76060237D01*
X156727295Y-76060237D02*
X156765390Y-76136428D01*
X156765390Y-76136428D02*
X156803485Y-76174523D01*
X156803485Y-76174523D02*
X156879676Y-76212618D01*
X156879676Y-76212618D02*
X156955866Y-76212618D01*
X156955866Y-76212618D02*
X157070152Y-76174523D01*
X157070152Y-76174523D02*
X157527295Y-75717380D01*
X157527295Y-75717380D02*
X157527295Y-76212618D01*
X120173675Y-84639495D02*
X120173675Y-83839495D01*
X120173675Y-83839495D02*
X119983199Y-83839495D01*
X119983199Y-83839495D02*
X119868913Y-83877590D01*
X119868913Y-83877590D02*
X119792723Y-83953780D01*
X119792723Y-83953780D02*
X119754628Y-84029971D01*
X119754628Y-84029971D02*
X119716532Y-84182352D01*
X119716532Y-84182352D02*
X119716532Y-84296638D01*
X119716532Y-84296638D02*
X119754628Y-84449019D01*
X119754628Y-84449019D02*
X119792723Y-84525209D01*
X119792723Y-84525209D02*
X119868913Y-84601400D01*
X119868913Y-84601400D02*
X119983199Y-84639495D01*
X119983199Y-84639495D02*
X120173675Y-84639495D01*
X118954628Y-84639495D02*
X119411771Y-84639495D01*
X119183199Y-84639495D02*
X119183199Y-83839495D01*
X119183199Y-83839495D02*
X119259390Y-83953780D01*
X119259390Y-83953780D02*
X119335580Y-84029971D01*
X119335580Y-84029971D02*
X119411771Y-84068066D01*
X165068094Y-87529200D02*
X164925237Y-87576819D01*
X164925237Y-87576819D02*
X164687142Y-87576819D01*
X164687142Y-87576819D02*
X164591904Y-87529200D01*
X164591904Y-87529200D02*
X164544285Y-87481580D01*
X164544285Y-87481580D02*
X164496666Y-87386342D01*
X164496666Y-87386342D02*
X164496666Y-87291104D01*
X164496666Y-87291104D02*
X164544285Y-87195866D01*
X164544285Y-87195866D02*
X164591904Y-87148247D01*
X164591904Y-87148247D02*
X164687142Y-87100628D01*
X164687142Y-87100628D02*
X164877618Y-87053009D01*
X164877618Y-87053009D02*
X164972856Y-87005390D01*
X164972856Y-87005390D02*
X165020475Y-86957771D01*
X165020475Y-86957771D02*
X165068094Y-86862533D01*
X165068094Y-86862533D02*
X165068094Y-86767295D01*
X165068094Y-86767295D02*
X165020475Y-86672057D01*
X165020475Y-86672057D02*
X164972856Y-86624438D01*
X164972856Y-86624438D02*
X164877618Y-86576819D01*
X164877618Y-86576819D02*
X164639523Y-86576819D01*
X164639523Y-86576819D02*
X164496666Y-86624438D01*
X164115713Y-87291104D02*
X163639523Y-87291104D01*
X164210951Y-87576819D02*
X163877618Y-86576819D01*
X163877618Y-86576819D02*
X163544285Y-87576819D01*
X163020475Y-86576819D02*
X162829999Y-86576819D01*
X162829999Y-86576819D02*
X162734761Y-86624438D01*
X162734761Y-86624438D02*
X162639523Y-86719676D01*
X162639523Y-86719676D02*
X162591904Y-86910152D01*
X162591904Y-86910152D02*
X162591904Y-87243485D01*
X162591904Y-87243485D02*
X162639523Y-87433961D01*
X162639523Y-87433961D02*
X162734761Y-87529200D01*
X162734761Y-87529200D02*
X162829999Y-87576819D01*
X162829999Y-87576819D02*
X163020475Y-87576819D01*
X163020475Y-87576819D02*
X163115713Y-87529200D01*
X163115713Y-87529200D02*
X163210951Y-87433961D01*
X163210951Y-87433961D02*
X163258570Y-87243485D01*
X163258570Y-87243485D02*
X163258570Y-86910152D01*
X163258570Y-86910152D02*
X163210951Y-86719676D01*
X163210951Y-86719676D02*
X163115713Y-86624438D01*
X163115713Y-86624438D02*
X163020475Y-86576819D01*
X152447295Y-70529524D02*
X151647295Y-70529524D01*
X151647295Y-70529524D02*
X151647295Y-70720000D01*
X151647295Y-70720000D02*
X151685390Y-70834286D01*
X151685390Y-70834286D02*
X151761580Y-70910476D01*
X151761580Y-70910476D02*
X151837771Y-70948571D01*
X151837771Y-70948571D02*
X151990152Y-70986667D01*
X151990152Y-70986667D02*
X152104438Y-70986667D01*
X152104438Y-70986667D02*
X152256819Y-70948571D01*
X152256819Y-70948571D02*
X152333009Y-70910476D01*
X152333009Y-70910476D02*
X152409200Y-70834286D01*
X152409200Y-70834286D02*
X152447295Y-70720000D01*
X152447295Y-70720000D02*
X152447295Y-70529524D01*
X151913961Y-71672381D02*
X152447295Y-71672381D01*
X151609200Y-71481905D02*
X152180628Y-71291428D01*
X152180628Y-71291428D02*
X152180628Y-71786667D01*
X147708857Y-73098819D02*
X148042190Y-72622628D01*
X148280285Y-73098819D02*
X148280285Y-72098819D01*
X148280285Y-72098819D02*
X147899333Y-72098819D01*
X147899333Y-72098819D02*
X147804095Y-72146438D01*
X147804095Y-72146438D02*
X147756476Y-72194057D01*
X147756476Y-72194057D02*
X147708857Y-72289295D01*
X147708857Y-72289295D02*
X147708857Y-72432152D01*
X147708857Y-72432152D02*
X147756476Y-72527390D01*
X147756476Y-72527390D02*
X147804095Y-72575009D01*
X147804095Y-72575009D02*
X147899333Y-72622628D01*
X147899333Y-72622628D02*
X148280285Y-72622628D01*
X146756476Y-73098819D02*
X147327904Y-73098819D01*
X147042190Y-73098819D02*
X147042190Y-72098819D01*
X147042190Y-72098819D02*
X147137428Y-72241676D01*
X147137428Y-72241676D02*
X147232666Y-72336914D01*
X147232666Y-72336914D02*
X147327904Y-72384533D01*
X146137428Y-72098819D02*
X146042190Y-72098819D01*
X146042190Y-72098819D02*
X145946952Y-72146438D01*
X145946952Y-72146438D02*
X145899333Y-72194057D01*
X145899333Y-72194057D02*
X145851714Y-72289295D01*
X145851714Y-72289295D02*
X145804095Y-72479771D01*
X145804095Y-72479771D02*
X145804095Y-72717866D01*
X145804095Y-72717866D02*
X145851714Y-72908342D01*
X145851714Y-72908342D02*
X145899333Y-73003580D01*
X145899333Y-73003580D02*
X145946952Y-73051200D01*
X145946952Y-73051200D02*
X146042190Y-73098819D01*
X146042190Y-73098819D02*
X146137428Y-73098819D01*
X146137428Y-73098819D02*
X146232666Y-73051200D01*
X146232666Y-73051200D02*
X146280285Y-73003580D01*
X146280285Y-73003580D02*
X146327904Y-72908342D01*
X146327904Y-72908342D02*
X146375523Y-72717866D01*
X146375523Y-72717866D02*
X146375523Y-72479771D01*
X146375523Y-72479771D02*
X146327904Y-72289295D01*
X146327904Y-72289295D02*
X146280285Y-72194057D01*
X146280285Y-72194057D02*
X146232666Y-72146438D01*
X146232666Y-72146438D02*
X146137428Y-72098819D01*
X147962857Y-119834819D02*
X148296190Y-119358628D01*
X148534285Y-119834819D02*
X148534285Y-118834819D01*
X148534285Y-118834819D02*
X148153333Y-118834819D01*
X148153333Y-118834819D02*
X148058095Y-118882438D01*
X148058095Y-118882438D02*
X148010476Y-118930057D01*
X148010476Y-118930057D02*
X147962857Y-119025295D01*
X147962857Y-119025295D02*
X147962857Y-119168152D01*
X147962857Y-119168152D02*
X148010476Y-119263390D01*
X148010476Y-119263390D02*
X148058095Y-119311009D01*
X148058095Y-119311009D02*
X148153333Y-119358628D01*
X148153333Y-119358628D02*
X148534285Y-119358628D01*
X147581904Y-118930057D02*
X147534285Y-118882438D01*
X147534285Y-118882438D02*
X147439047Y-118834819D01*
X147439047Y-118834819D02*
X147200952Y-118834819D01*
X147200952Y-118834819D02*
X147105714Y-118882438D01*
X147105714Y-118882438D02*
X147058095Y-118930057D01*
X147058095Y-118930057D02*
X147010476Y-119025295D01*
X147010476Y-119025295D02*
X147010476Y-119120533D01*
X147010476Y-119120533D02*
X147058095Y-119263390D01*
X147058095Y-119263390D02*
X147629523Y-119834819D01*
X147629523Y-119834819D02*
X147010476Y-119834819D01*
X146153333Y-118834819D02*
X146343809Y-118834819D01*
X146343809Y-118834819D02*
X146439047Y-118882438D01*
X146439047Y-118882438D02*
X146486666Y-118930057D01*
X146486666Y-118930057D02*
X146581904Y-119072914D01*
X146581904Y-119072914D02*
X146629523Y-119263390D01*
X146629523Y-119263390D02*
X146629523Y-119644342D01*
X146629523Y-119644342D02*
X146581904Y-119739580D01*
X146581904Y-119739580D02*
X146534285Y-119787200D01*
X146534285Y-119787200D02*
X146439047Y-119834819D01*
X146439047Y-119834819D02*
X146248571Y-119834819D01*
X146248571Y-119834819D02*
X146153333Y-119787200D01*
X146153333Y-119787200D02*
X146105714Y-119739580D01*
X146105714Y-119739580D02*
X146058095Y-119644342D01*
X146058095Y-119644342D02*
X146058095Y-119406247D01*
X146058095Y-119406247D02*
X146105714Y-119311009D01*
X146105714Y-119311009D02*
X146153333Y-119263390D01*
X146153333Y-119263390D02*
X146248571Y-119215771D01*
X146248571Y-119215771D02*
X146439047Y-119215771D01*
X146439047Y-119215771D02*
X146534285Y-119263390D01*
X146534285Y-119263390D02*
X146581904Y-119311009D01*
X146581904Y-119311009D02*
X146629523Y-119406247D01*
X132964285Y-107604819D02*
X132964285Y-106604819D01*
X132964285Y-106604819D02*
X132726190Y-106604819D01*
X132726190Y-106604819D02*
X132583333Y-106652438D01*
X132583333Y-106652438D02*
X132488095Y-106747676D01*
X132488095Y-106747676D02*
X132440476Y-106842914D01*
X132440476Y-106842914D02*
X132392857Y-107033390D01*
X132392857Y-107033390D02*
X132392857Y-107176247D01*
X132392857Y-107176247D02*
X132440476Y-107366723D01*
X132440476Y-107366723D02*
X132488095Y-107461961D01*
X132488095Y-107461961D02*
X132583333Y-107557200D01*
X132583333Y-107557200D02*
X132726190Y-107604819D01*
X132726190Y-107604819D02*
X132964285Y-107604819D01*
X131440476Y-107604819D02*
X132011904Y-107604819D01*
X131726190Y-107604819D02*
X131726190Y-106604819D01*
X131726190Y-106604819D02*
X131821428Y-106747676D01*
X131821428Y-106747676D02*
X131916666Y-106842914D01*
X131916666Y-106842914D02*
X132011904Y-106890533D01*
X130583333Y-106938152D02*
X130583333Y-107604819D01*
X130821428Y-106557200D02*
X131059523Y-107271485D01*
X131059523Y-107271485D02*
X130440476Y-107271485D01*
X141014285Y-107304819D02*
X141014285Y-106304819D01*
X141014285Y-106304819D02*
X140776190Y-106304819D01*
X140776190Y-106304819D02*
X140633333Y-106352438D01*
X140633333Y-106352438D02*
X140538095Y-106447676D01*
X140538095Y-106447676D02*
X140490476Y-106542914D01*
X140490476Y-106542914D02*
X140442857Y-106733390D01*
X140442857Y-106733390D02*
X140442857Y-106876247D01*
X140442857Y-106876247D02*
X140490476Y-107066723D01*
X140490476Y-107066723D02*
X140538095Y-107161961D01*
X140538095Y-107161961D02*
X140633333Y-107257200D01*
X140633333Y-107257200D02*
X140776190Y-107304819D01*
X140776190Y-107304819D02*
X141014285Y-107304819D01*
X139490476Y-107304819D02*
X140061904Y-107304819D01*
X139776190Y-107304819D02*
X139776190Y-106304819D01*
X139776190Y-106304819D02*
X139871428Y-106447676D01*
X139871428Y-106447676D02*
X139966666Y-106542914D01*
X139966666Y-106542914D02*
X140061904Y-106590533D01*
X139157142Y-106304819D02*
X138538095Y-106304819D01*
X138538095Y-106304819D02*
X138871428Y-106685771D01*
X138871428Y-106685771D02*
X138728571Y-106685771D01*
X138728571Y-106685771D02*
X138633333Y-106733390D01*
X138633333Y-106733390D02*
X138585714Y-106781009D01*
X138585714Y-106781009D02*
X138538095Y-106876247D01*
X138538095Y-106876247D02*
X138538095Y-107114342D01*
X138538095Y-107114342D02*
X138585714Y-107209580D01*
X138585714Y-107209580D02*
X138633333Y-107257200D01*
X138633333Y-107257200D02*
X138728571Y-107304819D01*
X138728571Y-107304819D02*
X139014285Y-107304819D01*
X139014285Y-107304819D02*
X139109523Y-107257200D01*
X139109523Y-107257200D02*
X139157142Y-107209580D01*
X96375466Y-95637295D02*
X96375466Y-96208723D01*
X96375466Y-96208723D02*
X96413561Y-96323009D01*
X96413561Y-96323009D02*
X96489752Y-96399200D01*
X96489752Y-96399200D02*
X96604037Y-96437295D01*
X96604037Y-96437295D02*
X96680228Y-96437295D01*
X95651656Y-95903961D02*
X95651656Y-96437295D01*
X95842132Y-95599200D02*
X96032609Y-96170628D01*
X96032609Y-96170628D02*
X95537370Y-96170628D01*
X102244466Y-91195819D02*
X102577799Y-90719628D01*
X102815894Y-91195819D02*
X102815894Y-90195819D01*
X102815894Y-90195819D02*
X102434942Y-90195819D01*
X102434942Y-90195819D02*
X102339704Y-90243438D01*
X102339704Y-90243438D02*
X102292085Y-90291057D01*
X102292085Y-90291057D02*
X102244466Y-90386295D01*
X102244466Y-90386295D02*
X102244466Y-90529152D01*
X102244466Y-90529152D02*
X102292085Y-90624390D01*
X102292085Y-90624390D02*
X102339704Y-90672009D01*
X102339704Y-90672009D02*
X102434942Y-90719628D01*
X102434942Y-90719628D02*
X102815894Y-90719628D01*
X101387323Y-90529152D02*
X101387323Y-91195819D01*
X101625418Y-90148200D02*
X101863513Y-90862485D01*
X101863513Y-90862485D02*
X101244466Y-90862485D01*
X147732733Y-82363695D02*
X148113685Y-82363695D01*
X148113685Y-82363695D02*
X148113685Y-81563695D01*
X147047019Y-82363695D02*
X147504162Y-82363695D01*
X147275590Y-82363695D02*
X147275590Y-81563695D01*
X147275590Y-81563695D02*
X147351781Y-81677980D01*
X147351781Y-81677980D02*
X147427971Y-81754171D01*
X147427971Y-81754171D02*
X147504162Y-81792266D01*
X167266666Y-55562295D02*
X167266666Y-56133723D01*
X167266666Y-56133723D02*
X167304761Y-56248009D01*
X167304761Y-56248009D02*
X167380952Y-56324200D01*
X167380952Y-56324200D02*
X167495237Y-56362295D01*
X167495237Y-56362295D02*
X167571428Y-56362295D01*
X166542856Y-55562295D02*
X166695237Y-55562295D01*
X166695237Y-55562295D02*
X166771428Y-55600390D01*
X166771428Y-55600390D02*
X166809523Y-55638485D01*
X166809523Y-55638485D02*
X166885713Y-55752771D01*
X166885713Y-55752771D02*
X166923809Y-55905152D01*
X166923809Y-55905152D02*
X166923809Y-56209914D01*
X166923809Y-56209914D02*
X166885713Y-56286104D01*
X166885713Y-56286104D02*
X166847618Y-56324200D01*
X166847618Y-56324200D02*
X166771428Y-56362295D01*
X166771428Y-56362295D02*
X166619047Y-56362295D01*
X166619047Y-56362295D02*
X166542856Y-56324200D01*
X166542856Y-56324200D02*
X166504761Y-56286104D01*
X166504761Y-56286104D02*
X166466666Y-56209914D01*
X166466666Y-56209914D02*
X166466666Y-56019438D01*
X166466666Y-56019438D02*
X166504761Y-55943247D01*
X166504761Y-55943247D02*
X166542856Y-55905152D01*
X166542856Y-55905152D02*
X166619047Y-55867057D01*
X166619047Y-55867057D02*
X166771428Y-55867057D01*
X166771428Y-55867057D02*
X166847618Y-55905152D01*
X166847618Y-55905152D02*
X166885713Y-55943247D01*
X166885713Y-55943247D02*
X166923809Y-56019438D01*
X152962666Y-118759580D02*
X153010285Y-118807200D01*
X153010285Y-118807200D02*
X153153142Y-118854819D01*
X153153142Y-118854819D02*
X153248380Y-118854819D01*
X153248380Y-118854819D02*
X153391237Y-118807200D01*
X153391237Y-118807200D02*
X153486475Y-118711961D01*
X153486475Y-118711961D02*
X153534094Y-118616723D01*
X153534094Y-118616723D02*
X153581713Y-118426247D01*
X153581713Y-118426247D02*
X153581713Y-118283390D01*
X153581713Y-118283390D02*
X153534094Y-118092914D01*
X153534094Y-118092914D02*
X153486475Y-117997676D01*
X153486475Y-117997676D02*
X153391237Y-117902438D01*
X153391237Y-117902438D02*
X153248380Y-117854819D01*
X153248380Y-117854819D02*
X153153142Y-117854819D01*
X153153142Y-117854819D02*
X153010285Y-117902438D01*
X153010285Y-117902438D02*
X152962666Y-117950057D01*
X152581713Y-117950057D02*
X152534094Y-117902438D01*
X152534094Y-117902438D02*
X152438856Y-117854819D01*
X152438856Y-117854819D02*
X152200761Y-117854819D01*
X152200761Y-117854819D02*
X152105523Y-117902438D01*
X152105523Y-117902438D02*
X152057904Y-117950057D01*
X152057904Y-117950057D02*
X152010285Y-118045295D01*
X152010285Y-118045295D02*
X152010285Y-118140533D01*
X152010285Y-118140533D02*
X152057904Y-118283390D01*
X152057904Y-118283390D02*
X152629332Y-118854819D01*
X152629332Y-118854819D02*
X152010285Y-118854819D01*
X115069857Y-90751819D02*
X115403190Y-90275628D01*
X115641285Y-90751819D02*
X115641285Y-89751819D01*
X115641285Y-89751819D02*
X115260333Y-89751819D01*
X115260333Y-89751819D02*
X115165095Y-89799438D01*
X115165095Y-89799438D02*
X115117476Y-89847057D01*
X115117476Y-89847057D02*
X115069857Y-89942295D01*
X115069857Y-89942295D02*
X115069857Y-90085152D01*
X115069857Y-90085152D02*
X115117476Y-90180390D01*
X115117476Y-90180390D02*
X115165095Y-90228009D01*
X115165095Y-90228009D02*
X115260333Y-90275628D01*
X115260333Y-90275628D02*
X115641285Y-90275628D01*
X114117476Y-90751819D02*
X114688904Y-90751819D01*
X114403190Y-90751819D02*
X114403190Y-89751819D01*
X114403190Y-89751819D02*
X114498428Y-89894676D01*
X114498428Y-89894676D02*
X114593666Y-89989914D01*
X114593666Y-89989914D02*
X114688904Y-90037533D01*
X113784142Y-89751819D02*
X113165095Y-89751819D01*
X113165095Y-89751819D02*
X113498428Y-90132771D01*
X113498428Y-90132771D02*
X113355571Y-90132771D01*
X113355571Y-90132771D02*
X113260333Y-90180390D01*
X113260333Y-90180390D02*
X113212714Y-90228009D01*
X113212714Y-90228009D02*
X113165095Y-90323247D01*
X113165095Y-90323247D02*
X113165095Y-90561342D01*
X113165095Y-90561342D02*
X113212714Y-90656580D01*
X113212714Y-90656580D02*
X113260333Y-90704200D01*
X113260333Y-90704200D02*
X113355571Y-90751819D01*
X113355571Y-90751819D02*
X113641285Y-90751819D01*
X113641285Y-90751819D02*
X113736523Y-90704200D01*
X113736523Y-90704200D02*
X113784142Y-90656580D01*
X140864285Y-134004819D02*
X140864285Y-133004819D01*
X140864285Y-133004819D02*
X140626190Y-133004819D01*
X140626190Y-133004819D02*
X140483333Y-133052438D01*
X140483333Y-133052438D02*
X140388095Y-133147676D01*
X140388095Y-133147676D02*
X140340476Y-133242914D01*
X140340476Y-133242914D02*
X140292857Y-133433390D01*
X140292857Y-133433390D02*
X140292857Y-133576247D01*
X140292857Y-133576247D02*
X140340476Y-133766723D01*
X140340476Y-133766723D02*
X140388095Y-133861961D01*
X140388095Y-133861961D02*
X140483333Y-133957200D01*
X140483333Y-133957200D02*
X140626190Y-134004819D01*
X140626190Y-134004819D02*
X140864285Y-134004819D01*
X139340476Y-134004819D02*
X139911904Y-134004819D01*
X139626190Y-134004819D02*
X139626190Y-133004819D01*
X139626190Y-133004819D02*
X139721428Y-133147676D01*
X139721428Y-133147676D02*
X139816666Y-133242914D01*
X139816666Y-133242914D02*
X139911904Y-133290533D01*
X138483333Y-133004819D02*
X138673809Y-133004819D01*
X138673809Y-133004819D02*
X138769047Y-133052438D01*
X138769047Y-133052438D02*
X138816666Y-133100057D01*
X138816666Y-133100057D02*
X138911904Y-133242914D01*
X138911904Y-133242914D02*
X138959523Y-133433390D01*
X138959523Y-133433390D02*
X138959523Y-133814342D01*
X138959523Y-133814342D02*
X138911904Y-133909580D01*
X138911904Y-133909580D02*
X138864285Y-133957200D01*
X138864285Y-133957200D02*
X138769047Y-134004819D01*
X138769047Y-134004819D02*
X138578571Y-134004819D01*
X138578571Y-134004819D02*
X138483333Y-133957200D01*
X138483333Y-133957200D02*
X138435714Y-133909580D01*
X138435714Y-133909580D02*
X138388095Y-133814342D01*
X138388095Y-133814342D02*
X138388095Y-133576247D01*
X138388095Y-133576247D02*
X138435714Y-133481009D01*
X138435714Y-133481009D02*
X138483333Y-133433390D01*
X138483333Y-133433390D02*
X138578571Y-133385771D01*
X138578571Y-133385771D02*
X138769047Y-133385771D01*
X138769047Y-133385771D02*
X138864285Y-133433390D01*
X138864285Y-133433390D02*
X138911904Y-133481009D01*
X138911904Y-133481009D02*
X138959523Y-133576247D01*
X114528523Y-92653295D02*
X114528523Y-93300914D01*
X114528523Y-93300914D02*
X114490428Y-93377104D01*
X114490428Y-93377104D02*
X114452333Y-93415200D01*
X114452333Y-93415200D02*
X114376142Y-93453295D01*
X114376142Y-93453295D02*
X114223761Y-93453295D01*
X114223761Y-93453295D02*
X114147571Y-93415200D01*
X114147571Y-93415200D02*
X114109476Y-93377104D01*
X114109476Y-93377104D02*
X114071380Y-93300914D01*
X114071380Y-93300914D02*
X114071380Y-92653295D01*
X113766619Y-92653295D02*
X113271381Y-92653295D01*
X113271381Y-92653295D02*
X113538047Y-92958057D01*
X113538047Y-92958057D02*
X113423762Y-92958057D01*
X113423762Y-92958057D02*
X113347571Y-92996152D01*
X113347571Y-92996152D02*
X113309476Y-93034247D01*
X113309476Y-93034247D02*
X113271381Y-93110438D01*
X113271381Y-93110438D02*
X113271381Y-93300914D01*
X113271381Y-93300914D02*
X113309476Y-93377104D01*
X113309476Y-93377104D02*
X113347571Y-93415200D01*
X113347571Y-93415200D02*
X113423762Y-93453295D01*
X113423762Y-93453295D02*
X113652333Y-93453295D01*
X113652333Y-93453295D02*
X113728524Y-93415200D01*
X113728524Y-93415200D02*
X113766619Y-93377104D01*
X166422857Y-124288819D02*
X166756190Y-123812628D01*
X166994285Y-124288819D02*
X166994285Y-123288819D01*
X166994285Y-123288819D02*
X166613333Y-123288819D01*
X166613333Y-123288819D02*
X166518095Y-123336438D01*
X166518095Y-123336438D02*
X166470476Y-123384057D01*
X166470476Y-123384057D02*
X166422857Y-123479295D01*
X166422857Y-123479295D02*
X166422857Y-123622152D01*
X166422857Y-123622152D02*
X166470476Y-123717390D01*
X166470476Y-123717390D02*
X166518095Y-123765009D01*
X166518095Y-123765009D02*
X166613333Y-123812628D01*
X166613333Y-123812628D02*
X166994285Y-123812628D01*
X165565714Y-123622152D02*
X165565714Y-124288819D01*
X165803809Y-123241200D02*
X166041904Y-123955485D01*
X166041904Y-123955485D02*
X165422857Y-123955485D01*
X165137142Y-123288819D02*
X164518095Y-123288819D01*
X164518095Y-123288819D02*
X164851428Y-123669771D01*
X164851428Y-123669771D02*
X164708571Y-123669771D01*
X164708571Y-123669771D02*
X164613333Y-123717390D01*
X164613333Y-123717390D02*
X164565714Y-123765009D01*
X164565714Y-123765009D02*
X164518095Y-123860247D01*
X164518095Y-123860247D02*
X164518095Y-124098342D01*
X164518095Y-124098342D02*
X164565714Y-124193580D01*
X164565714Y-124193580D02*
X164613333Y-124241200D01*
X164613333Y-124241200D02*
X164708571Y-124288819D01*
X164708571Y-124288819D02*
X164994285Y-124288819D01*
X164994285Y-124288819D02*
X165089523Y-124241200D01*
X165089523Y-124241200D02*
X165137142Y-124193580D01*
X157172857Y-72749580D02*
X157220476Y-72797200D01*
X157220476Y-72797200D02*
X157363333Y-72844819D01*
X157363333Y-72844819D02*
X157458571Y-72844819D01*
X157458571Y-72844819D02*
X157601428Y-72797200D01*
X157601428Y-72797200D02*
X157696666Y-72701961D01*
X157696666Y-72701961D02*
X157744285Y-72606723D01*
X157744285Y-72606723D02*
X157791904Y-72416247D01*
X157791904Y-72416247D02*
X157791904Y-72273390D01*
X157791904Y-72273390D02*
X157744285Y-72082914D01*
X157744285Y-72082914D02*
X157696666Y-71987676D01*
X157696666Y-71987676D02*
X157601428Y-71892438D01*
X157601428Y-71892438D02*
X157458571Y-71844819D01*
X157458571Y-71844819D02*
X157363333Y-71844819D01*
X157363333Y-71844819D02*
X157220476Y-71892438D01*
X157220476Y-71892438D02*
X157172857Y-71940057D01*
X156220476Y-72844819D02*
X156791904Y-72844819D01*
X156506190Y-72844819D02*
X156506190Y-71844819D01*
X156506190Y-71844819D02*
X156601428Y-71987676D01*
X156601428Y-71987676D02*
X156696666Y-72082914D01*
X156696666Y-72082914D02*
X156791904Y-72130533D01*
X155649047Y-72273390D02*
X155744285Y-72225771D01*
X155744285Y-72225771D02*
X155791904Y-72178152D01*
X155791904Y-72178152D02*
X155839523Y-72082914D01*
X155839523Y-72082914D02*
X155839523Y-72035295D01*
X155839523Y-72035295D02*
X155791904Y-71940057D01*
X155791904Y-71940057D02*
X155744285Y-71892438D01*
X155744285Y-71892438D02*
X155649047Y-71844819D01*
X155649047Y-71844819D02*
X155458571Y-71844819D01*
X155458571Y-71844819D02*
X155363333Y-71892438D01*
X155363333Y-71892438D02*
X155315714Y-71940057D01*
X155315714Y-71940057D02*
X155268095Y-72035295D01*
X155268095Y-72035295D02*
X155268095Y-72082914D01*
X155268095Y-72082914D02*
X155315714Y-72178152D01*
X155315714Y-72178152D02*
X155363333Y-72225771D01*
X155363333Y-72225771D02*
X155458571Y-72273390D01*
X155458571Y-72273390D02*
X155649047Y-72273390D01*
X155649047Y-72273390D02*
X155744285Y-72321009D01*
X155744285Y-72321009D02*
X155791904Y-72368628D01*
X155791904Y-72368628D02*
X155839523Y-72463866D01*
X155839523Y-72463866D02*
X155839523Y-72654342D01*
X155839523Y-72654342D02*
X155791904Y-72749580D01*
X155791904Y-72749580D02*
X155744285Y-72797200D01*
X155744285Y-72797200D02*
X155649047Y-72844819D01*
X155649047Y-72844819D02*
X155458571Y-72844819D01*
X155458571Y-72844819D02*
X155363333Y-72797200D01*
X155363333Y-72797200D02*
X155315714Y-72749580D01*
X155315714Y-72749580D02*
X155268095Y-72654342D01*
X155268095Y-72654342D02*
X155268095Y-72463866D01*
X155268095Y-72463866D02*
X155315714Y-72368628D01*
X155315714Y-72368628D02*
X155363333Y-72321009D01*
X155363333Y-72321009D02*
X155458571Y-72273390D01*
X136864285Y-112904819D02*
X136864285Y-111904819D01*
X136864285Y-111904819D02*
X136626190Y-111904819D01*
X136626190Y-111904819D02*
X136483333Y-111952438D01*
X136483333Y-111952438D02*
X136388095Y-112047676D01*
X136388095Y-112047676D02*
X136340476Y-112142914D01*
X136340476Y-112142914D02*
X136292857Y-112333390D01*
X136292857Y-112333390D02*
X136292857Y-112476247D01*
X136292857Y-112476247D02*
X136340476Y-112666723D01*
X136340476Y-112666723D02*
X136388095Y-112761961D01*
X136388095Y-112761961D02*
X136483333Y-112857200D01*
X136483333Y-112857200D02*
X136626190Y-112904819D01*
X136626190Y-112904819D02*
X136864285Y-112904819D01*
X135340476Y-112904819D02*
X135911904Y-112904819D01*
X135626190Y-112904819D02*
X135626190Y-111904819D01*
X135626190Y-111904819D02*
X135721428Y-112047676D01*
X135721428Y-112047676D02*
X135816666Y-112142914D01*
X135816666Y-112142914D02*
X135911904Y-112190533D01*
X134721428Y-111904819D02*
X134626190Y-111904819D01*
X134626190Y-111904819D02*
X134530952Y-111952438D01*
X134530952Y-111952438D02*
X134483333Y-112000057D01*
X134483333Y-112000057D02*
X134435714Y-112095295D01*
X134435714Y-112095295D02*
X134388095Y-112285771D01*
X134388095Y-112285771D02*
X134388095Y-112523866D01*
X134388095Y-112523866D02*
X134435714Y-112714342D01*
X134435714Y-112714342D02*
X134483333Y-112809580D01*
X134483333Y-112809580D02*
X134530952Y-112857200D01*
X134530952Y-112857200D02*
X134626190Y-112904819D01*
X134626190Y-112904819D02*
X134721428Y-112904819D01*
X134721428Y-112904819D02*
X134816666Y-112857200D01*
X134816666Y-112857200D02*
X134864285Y-112809580D01*
X134864285Y-112809580D02*
X134911904Y-112714342D01*
X134911904Y-112714342D02*
X134959523Y-112523866D01*
X134959523Y-112523866D02*
X134959523Y-112285771D01*
X134959523Y-112285771D02*
X134911904Y-112095295D01*
X134911904Y-112095295D02*
X134864285Y-112000057D01*
X134864285Y-112000057D02*
X134816666Y-111952438D01*
X134816666Y-111952438D02*
X134721428Y-111904819D01*
X140114257Y-81217980D02*
X140161876Y-81265600D01*
X140161876Y-81265600D02*
X140304733Y-81313219D01*
X140304733Y-81313219D02*
X140399971Y-81313219D01*
X140399971Y-81313219D02*
X140542828Y-81265600D01*
X140542828Y-81265600D02*
X140638066Y-81170361D01*
X140638066Y-81170361D02*
X140685685Y-81075123D01*
X140685685Y-81075123D02*
X140733304Y-80884647D01*
X140733304Y-80884647D02*
X140733304Y-80741790D01*
X140733304Y-80741790D02*
X140685685Y-80551314D01*
X140685685Y-80551314D02*
X140638066Y-80456076D01*
X140638066Y-80456076D02*
X140542828Y-80360838D01*
X140542828Y-80360838D02*
X140399971Y-80313219D01*
X140399971Y-80313219D02*
X140304733Y-80313219D01*
X140304733Y-80313219D02*
X140161876Y-80360838D01*
X140161876Y-80360838D02*
X140114257Y-80408457D01*
X139161876Y-81313219D02*
X139733304Y-81313219D01*
X139447590Y-81313219D02*
X139447590Y-80313219D01*
X139447590Y-80313219D02*
X139542828Y-80456076D01*
X139542828Y-80456076D02*
X139638066Y-80551314D01*
X139638066Y-80551314D02*
X139733304Y-80598933D01*
X138209495Y-81313219D02*
X138780923Y-81313219D01*
X138495209Y-81313219D02*
X138495209Y-80313219D01*
X138495209Y-80313219D02*
X138590447Y-80456076D01*
X138590447Y-80456076D02*
X138685685Y-80551314D01*
X138685685Y-80551314D02*
X138780923Y-80598933D01*
X145759466Y-54817180D02*
X145807085Y-54864800D01*
X145807085Y-54864800D02*
X145949942Y-54912419D01*
X145949942Y-54912419D02*
X146045180Y-54912419D01*
X146045180Y-54912419D02*
X146188037Y-54864800D01*
X146188037Y-54864800D02*
X146283275Y-54769561D01*
X146283275Y-54769561D02*
X146330894Y-54674323D01*
X146330894Y-54674323D02*
X146378513Y-54483847D01*
X146378513Y-54483847D02*
X146378513Y-54340990D01*
X146378513Y-54340990D02*
X146330894Y-54150514D01*
X146330894Y-54150514D02*
X146283275Y-54055276D01*
X146283275Y-54055276D02*
X146188037Y-53960038D01*
X146188037Y-53960038D02*
X146045180Y-53912419D01*
X146045180Y-53912419D02*
X145949942Y-53912419D01*
X145949942Y-53912419D02*
X145807085Y-53960038D01*
X145807085Y-53960038D02*
X145759466Y-54007657D01*
X144807085Y-54912419D02*
X145378513Y-54912419D01*
X145092799Y-54912419D02*
X145092799Y-53912419D01*
X145092799Y-53912419D02*
X145188037Y-54055276D01*
X145188037Y-54055276D02*
X145283275Y-54150514D01*
X145283275Y-54150514D02*
X145378513Y-54198133D01*
X118625857Y-95323819D02*
X118959190Y-94847628D01*
X119197285Y-95323819D02*
X119197285Y-94323819D01*
X119197285Y-94323819D02*
X118816333Y-94323819D01*
X118816333Y-94323819D02*
X118721095Y-94371438D01*
X118721095Y-94371438D02*
X118673476Y-94419057D01*
X118673476Y-94419057D02*
X118625857Y-94514295D01*
X118625857Y-94514295D02*
X118625857Y-94657152D01*
X118625857Y-94657152D02*
X118673476Y-94752390D01*
X118673476Y-94752390D02*
X118721095Y-94800009D01*
X118721095Y-94800009D02*
X118816333Y-94847628D01*
X118816333Y-94847628D02*
X119197285Y-94847628D01*
X117673476Y-95323819D02*
X118244904Y-95323819D01*
X117959190Y-95323819D02*
X117959190Y-94323819D01*
X117959190Y-94323819D02*
X118054428Y-94466676D01*
X118054428Y-94466676D02*
X118149666Y-94561914D01*
X118149666Y-94561914D02*
X118244904Y-94609533D01*
X116816333Y-94657152D02*
X116816333Y-95323819D01*
X117054428Y-94276200D02*
X117292523Y-94990485D01*
X117292523Y-94990485D02*
X116673476Y-94990485D01*
X125114285Y-134404819D02*
X125114285Y-133404819D01*
X125114285Y-133404819D02*
X124876190Y-133404819D01*
X124876190Y-133404819D02*
X124733333Y-133452438D01*
X124733333Y-133452438D02*
X124638095Y-133547676D01*
X124638095Y-133547676D02*
X124590476Y-133642914D01*
X124590476Y-133642914D02*
X124542857Y-133833390D01*
X124542857Y-133833390D02*
X124542857Y-133976247D01*
X124542857Y-133976247D02*
X124590476Y-134166723D01*
X124590476Y-134166723D02*
X124638095Y-134261961D01*
X124638095Y-134261961D02*
X124733333Y-134357200D01*
X124733333Y-134357200D02*
X124876190Y-134404819D01*
X124876190Y-134404819D02*
X125114285Y-134404819D01*
X124161904Y-133500057D02*
X124114285Y-133452438D01*
X124114285Y-133452438D02*
X124019047Y-133404819D01*
X124019047Y-133404819D02*
X123780952Y-133404819D01*
X123780952Y-133404819D02*
X123685714Y-133452438D01*
X123685714Y-133452438D02*
X123638095Y-133500057D01*
X123638095Y-133500057D02*
X123590476Y-133595295D01*
X123590476Y-133595295D02*
X123590476Y-133690533D01*
X123590476Y-133690533D02*
X123638095Y-133833390D01*
X123638095Y-133833390D02*
X124209523Y-134404819D01*
X124209523Y-134404819D02*
X123590476Y-134404819D01*
X122733333Y-133738152D02*
X122733333Y-134404819D01*
X122971428Y-133357200D02*
X123209523Y-134071485D01*
X123209523Y-134071485D02*
X122590476Y-134071485D01*
X129014285Y-139304819D02*
X129014285Y-138304819D01*
X129014285Y-138304819D02*
X128776190Y-138304819D01*
X128776190Y-138304819D02*
X128633333Y-138352438D01*
X128633333Y-138352438D02*
X128538095Y-138447676D01*
X128538095Y-138447676D02*
X128490476Y-138542914D01*
X128490476Y-138542914D02*
X128442857Y-138733390D01*
X128442857Y-138733390D02*
X128442857Y-138876247D01*
X128442857Y-138876247D02*
X128490476Y-139066723D01*
X128490476Y-139066723D02*
X128538095Y-139161961D01*
X128538095Y-139161961D02*
X128633333Y-139257200D01*
X128633333Y-139257200D02*
X128776190Y-139304819D01*
X128776190Y-139304819D02*
X129014285Y-139304819D01*
X128061904Y-138400057D02*
X128014285Y-138352438D01*
X128014285Y-138352438D02*
X127919047Y-138304819D01*
X127919047Y-138304819D02*
X127680952Y-138304819D01*
X127680952Y-138304819D02*
X127585714Y-138352438D01*
X127585714Y-138352438D02*
X127538095Y-138400057D01*
X127538095Y-138400057D02*
X127490476Y-138495295D01*
X127490476Y-138495295D02*
X127490476Y-138590533D01*
X127490476Y-138590533D02*
X127538095Y-138733390D01*
X127538095Y-138733390D02*
X128109523Y-139304819D01*
X128109523Y-139304819D02*
X127490476Y-139304819D01*
X127157142Y-138304819D02*
X126538095Y-138304819D01*
X126538095Y-138304819D02*
X126871428Y-138685771D01*
X126871428Y-138685771D02*
X126728571Y-138685771D01*
X126728571Y-138685771D02*
X126633333Y-138733390D01*
X126633333Y-138733390D02*
X126585714Y-138781009D01*
X126585714Y-138781009D02*
X126538095Y-138876247D01*
X126538095Y-138876247D02*
X126538095Y-139114342D01*
X126538095Y-139114342D02*
X126585714Y-139209580D01*
X126585714Y-139209580D02*
X126633333Y-139257200D01*
X126633333Y-139257200D02*
X126728571Y-139304819D01*
X126728571Y-139304819D02*
X127014285Y-139304819D01*
X127014285Y-139304819D02*
X127109523Y-139257200D01*
X127109523Y-139257200D02*
X127157142Y-139209580D01*
X140019066Y-85281980D02*
X140066685Y-85329600D01*
X140066685Y-85329600D02*
X140209542Y-85377219D01*
X140209542Y-85377219D02*
X140304780Y-85377219D01*
X140304780Y-85377219D02*
X140447637Y-85329600D01*
X140447637Y-85329600D02*
X140542875Y-85234361D01*
X140542875Y-85234361D02*
X140590494Y-85139123D01*
X140590494Y-85139123D02*
X140638113Y-84948647D01*
X140638113Y-84948647D02*
X140638113Y-84805790D01*
X140638113Y-84805790D02*
X140590494Y-84615314D01*
X140590494Y-84615314D02*
X140542875Y-84520076D01*
X140542875Y-84520076D02*
X140447637Y-84424838D01*
X140447637Y-84424838D02*
X140304780Y-84377219D01*
X140304780Y-84377219D02*
X140209542Y-84377219D01*
X140209542Y-84377219D02*
X140066685Y-84424838D01*
X140066685Y-84424838D02*
X140019066Y-84472457D01*
X139447637Y-84805790D02*
X139542875Y-84758171D01*
X139542875Y-84758171D02*
X139590494Y-84710552D01*
X139590494Y-84710552D02*
X139638113Y-84615314D01*
X139638113Y-84615314D02*
X139638113Y-84567695D01*
X139638113Y-84567695D02*
X139590494Y-84472457D01*
X139590494Y-84472457D02*
X139542875Y-84424838D01*
X139542875Y-84424838D02*
X139447637Y-84377219D01*
X139447637Y-84377219D02*
X139257161Y-84377219D01*
X139257161Y-84377219D02*
X139161923Y-84424838D01*
X139161923Y-84424838D02*
X139114304Y-84472457D01*
X139114304Y-84472457D02*
X139066685Y-84567695D01*
X139066685Y-84567695D02*
X139066685Y-84615314D01*
X139066685Y-84615314D02*
X139114304Y-84710552D01*
X139114304Y-84710552D02*
X139161923Y-84758171D01*
X139161923Y-84758171D02*
X139257161Y-84805790D01*
X139257161Y-84805790D02*
X139447637Y-84805790D01*
X139447637Y-84805790D02*
X139542875Y-84853409D01*
X139542875Y-84853409D02*
X139590494Y-84901028D01*
X139590494Y-84901028D02*
X139638113Y-84996266D01*
X139638113Y-84996266D02*
X139638113Y-85186742D01*
X139638113Y-85186742D02*
X139590494Y-85281980D01*
X139590494Y-85281980D02*
X139542875Y-85329600D01*
X139542875Y-85329600D02*
X139447637Y-85377219D01*
X139447637Y-85377219D02*
X139257161Y-85377219D01*
X139257161Y-85377219D02*
X139161923Y-85329600D01*
X139161923Y-85329600D02*
X139114304Y-85281980D01*
X139114304Y-85281980D02*
X139066685Y-85186742D01*
X139066685Y-85186742D02*
X139066685Y-84996266D01*
X139066685Y-84996266D02*
X139114304Y-84901028D01*
X139114304Y-84901028D02*
X139161923Y-84853409D01*
X139161923Y-84853409D02*
X139257161Y-84805790D01*
X157527295Y-79746666D02*
X157527295Y-79365714D01*
X157527295Y-79365714D02*
X156727295Y-79365714D01*
X156803485Y-79975237D02*
X156765390Y-80013333D01*
X156765390Y-80013333D02*
X156727295Y-80089523D01*
X156727295Y-80089523D02*
X156727295Y-80279999D01*
X156727295Y-80279999D02*
X156765390Y-80356190D01*
X156765390Y-80356190D02*
X156803485Y-80394285D01*
X156803485Y-80394285D02*
X156879676Y-80432380D01*
X156879676Y-80432380D02*
X156955866Y-80432380D01*
X156955866Y-80432380D02*
X157070152Y-80394285D01*
X157070152Y-80394285D02*
X157527295Y-79937142D01*
X157527295Y-79937142D02*
X157527295Y-80432380D01*
X157666666Y-95454819D02*
X157999999Y-94978628D01*
X158238094Y-95454819D02*
X158238094Y-94454819D01*
X158238094Y-94454819D02*
X157857142Y-94454819D01*
X157857142Y-94454819D02*
X157761904Y-94502438D01*
X157761904Y-94502438D02*
X157714285Y-94550057D01*
X157714285Y-94550057D02*
X157666666Y-94645295D01*
X157666666Y-94645295D02*
X157666666Y-94788152D01*
X157666666Y-94788152D02*
X157714285Y-94883390D01*
X157714285Y-94883390D02*
X157761904Y-94931009D01*
X157761904Y-94931009D02*
X157857142Y-94978628D01*
X157857142Y-94978628D02*
X158238094Y-94978628D01*
X157333332Y-94454819D02*
X156714285Y-94454819D01*
X156714285Y-94454819D02*
X157047618Y-94835771D01*
X157047618Y-94835771D02*
X156904761Y-94835771D01*
X156904761Y-94835771D02*
X156809523Y-94883390D01*
X156809523Y-94883390D02*
X156761904Y-94931009D01*
X156761904Y-94931009D02*
X156714285Y-95026247D01*
X156714285Y-95026247D02*
X156714285Y-95264342D01*
X156714285Y-95264342D02*
X156761904Y-95359580D01*
X156761904Y-95359580D02*
X156809523Y-95407200D01*
X156809523Y-95407200D02*
X156904761Y-95454819D01*
X156904761Y-95454819D02*
X157190475Y-95454819D01*
X157190475Y-95454819D02*
X157285713Y-95407200D01*
X157285713Y-95407200D02*
X157333332Y-95359580D01*
X152087857Y-77416819D02*
X152421190Y-76940628D01*
X152659285Y-77416819D02*
X152659285Y-76416819D01*
X152659285Y-76416819D02*
X152278333Y-76416819D01*
X152278333Y-76416819D02*
X152183095Y-76464438D01*
X152183095Y-76464438D02*
X152135476Y-76512057D01*
X152135476Y-76512057D02*
X152087857Y-76607295D01*
X152087857Y-76607295D02*
X152087857Y-76750152D01*
X152087857Y-76750152D02*
X152135476Y-76845390D01*
X152135476Y-76845390D02*
X152183095Y-76893009D01*
X152183095Y-76893009D02*
X152278333Y-76940628D01*
X152278333Y-76940628D02*
X152659285Y-76940628D01*
X151706904Y-76512057D02*
X151659285Y-76464438D01*
X151659285Y-76464438D02*
X151564047Y-76416819D01*
X151564047Y-76416819D02*
X151325952Y-76416819D01*
X151325952Y-76416819D02*
X151230714Y-76464438D01*
X151230714Y-76464438D02*
X151183095Y-76512057D01*
X151183095Y-76512057D02*
X151135476Y-76607295D01*
X151135476Y-76607295D02*
X151135476Y-76702533D01*
X151135476Y-76702533D02*
X151183095Y-76845390D01*
X151183095Y-76845390D02*
X151754523Y-77416819D01*
X151754523Y-77416819D02*
X151135476Y-77416819D01*
X150183095Y-77416819D02*
X150754523Y-77416819D01*
X150468809Y-77416819D02*
X150468809Y-76416819D01*
X150468809Y-76416819D02*
X150564047Y-76559676D01*
X150564047Y-76559676D02*
X150659285Y-76654914D01*
X150659285Y-76654914D02*
X150754523Y-76702533D01*
X156598857Y-61827580D02*
X156646476Y-61875200D01*
X156646476Y-61875200D02*
X156789333Y-61922819D01*
X156789333Y-61922819D02*
X156884571Y-61922819D01*
X156884571Y-61922819D02*
X157027428Y-61875200D01*
X157027428Y-61875200D02*
X157122666Y-61779961D01*
X157122666Y-61779961D02*
X157170285Y-61684723D01*
X157170285Y-61684723D02*
X157217904Y-61494247D01*
X157217904Y-61494247D02*
X157217904Y-61351390D01*
X157217904Y-61351390D02*
X157170285Y-61160914D01*
X157170285Y-61160914D02*
X157122666Y-61065676D01*
X157122666Y-61065676D02*
X157027428Y-60970438D01*
X157027428Y-60970438D02*
X156884571Y-60922819D01*
X156884571Y-60922819D02*
X156789333Y-60922819D01*
X156789333Y-60922819D02*
X156646476Y-60970438D01*
X156646476Y-60970438D02*
X156598857Y-61018057D01*
X156217904Y-61018057D02*
X156170285Y-60970438D01*
X156170285Y-60970438D02*
X156075047Y-60922819D01*
X156075047Y-60922819D02*
X155836952Y-60922819D01*
X155836952Y-60922819D02*
X155741714Y-60970438D01*
X155741714Y-60970438D02*
X155694095Y-61018057D01*
X155694095Y-61018057D02*
X155646476Y-61113295D01*
X155646476Y-61113295D02*
X155646476Y-61208533D01*
X155646476Y-61208533D02*
X155694095Y-61351390D01*
X155694095Y-61351390D02*
X156265523Y-61922819D01*
X156265523Y-61922819D02*
X155646476Y-61922819D01*
X155027428Y-60922819D02*
X154932190Y-60922819D01*
X154932190Y-60922819D02*
X154836952Y-60970438D01*
X154836952Y-60970438D02*
X154789333Y-61018057D01*
X154789333Y-61018057D02*
X154741714Y-61113295D01*
X154741714Y-61113295D02*
X154694095Y-61303771D01*
X154694095Y-61303771D02*
X154694095Y-61541866D01*
X154694095Y-61541866D02*
X154741714Y-61732342D01*
X154741714Y-61732342D02*
X154789333Y-61827580D01*
X154789333Y-61827580D02*
X154836952Y-61875200D01*
X154836952Y-61875200D02*
X154932190Y-61922819D01*
X154932190Y-61922819D02*
X155027428Y-61922819D01*
X155027428Y-61922819D02*
X155122666Y-61875200D01*
X155122666Y-61875200D02*
X155170285Y-61827580D01*
X155170285Y-61827580D02*
X155217904Y-61732342D01*
X155217904Y-61732342D02*
X155265523Y-61541866D01*
X155265523Y-61541866D02*
X155265523Y-61303771D01*
X155265523Y-61303771D02*
X155217904Y-61113295D01*
X155217904Y-61113295D02*
X155170285Y-61018057D01*
X155170285Y-61018057D02*
X155122666Y-60970438D01*
X155122666Y-60970438D02*
X155027428Y-60922819D01*
X129164285Y-128954819D02*
X129164285Y-127954819D01*
X129164285Y-127954819D02*
X128926190Y-127954819D01*
X128926190Y-127954819D02*
X128783333Y-128002438D01*
X128783333Y-128002438D02*
X128688095Y-128097676D01*
X128688095Y-128097676D02*
X128640476Y-128192914D01*
X128640476Y-128192914D02*
X128592857Y-128383390D01*
X128592857Y-128383390D02*
X128592857Y-128526247D01*
X128592857Y-128526247D02*
X128640476Y-128716723D01*
X128640476Y-128716723D02*
X128688095Y-128811961D01*
X128688095Y-128811961D02*
X128783333Y-128907200D01*
X128783333Y-128907200D02*
X128926190Y-128954819D01*
X128926190Y-128954819D02*
X129164285Y-128954819D01*
X128211904Y-128050057D02*
X128164285Y-128002438D01*
X128164285Y-128002438D02*
X128069047Y-127954819D01*
X128069047Y-127954819D02*
X127830952Y-127954819D01*
X127830952Y-127954819D02*
X127735714Y-128002438D01*
X127735714Y-128002438D02*
X127688095Y-128050057D01*
X127688095Y-128050057D02*
X127640476Y-128145295D01*
X127640476Y-128145295D02*
X127640476Y-128240533D01*
X127640476Y-128240533D02*
X127688095Y-128383390D01*
X127688095Y-128383390D02*
X128259523Y-128954819D01*
X128259523Y-128954819D02*
X127640476Y-128954819D01*
X126688095Y-128954819D02*
X127259523Y-128954819D01*
X126973809Y-128954819D02*
X126973809Y-127954819D01*
X126973809Y-127954819D02*
X127069047Y-128097676D01*
X127069047Y-128097676D02*
X127164285Y-128192914D01*
X127164285Y-128192914D02*
X127259523Y-128240533D01*
X118573428Y-84690295D02*
X118573428Y-83890295D01*
X118573428Y-83890295D02*
X118382952Y-83890295D01*
X118382952Y-83890295D02*
X118268666Y-83928390D01*
X118268666Y-83928390D02*
X118192476Y-84004580D01*
X118192476Y-84004580D02*
X118154381Y-84080771D01*
X118154381Y-84080771D02*
X118116285Y-84233152D01*
X118116285Y-84233152D02*
X118116285Y-84347438D01*
X118116285Y-84347438D02*
X118154381Y-84499819D01*
X118154381Y-84499819D02*
X118192476Y-84576009D01*
X118192476Y-84576009D02*
X118268666Y-84652200D01*
X118268666Y-84652200D02*
X118382952Y-84690295D01*
X118382952Y-84690295D02*
X118573428Y-84690295D01*
X117811524Y-83966485D02*
X117773428Y-83928390D01*
X117773428Y-83928390D02*
X117697238Y-83890295D01*
X117697238Y-83890295D02*
X117506762Y-83890295D01*
X117506762Y-83890295D02*
X117430571Y-83928390D01*
X117430571Y-83928390D02*
X117392476Y-83966485D01*
X117392476Y-83966485D02*
X117354381Y-84042676D01*
X117354381Y-84042676D02*
X117354381Y-84118866D01*
X117354381Y-84118866D02*
X117392476Y-84233152D01*
X117392476Y-84233152D02*
X117849619Y-84690295D01*
X117849619Y-84690295D02*
X117354381Y-84690295D01*
X116630571Y-83890295D02*
X117011523Y-83890295D01*
X117011523Y-83890295D02*
X117049619Y-84271247D01*
X117049619Y-84271247D02*
X117011523Y-84233152D01*
X117011523Y-84233152D02*
X116935333Y-84195057D01*
X116935333Y-84195057D02*
X116744857Y-84195057D01*
X116744857Y-84195057D02*
X116668666Y-84233152D01*
X116668666Y-84233152D02*
X116630571Y-84271247D01*
X116630571Y-84271247D02*
X116592476Y-84347438D01*
X116592476Y-84347438D02*
X116592476Y-84537914D01*
X116592476Y-84537914D02*
X116630571Y-84614104D01*
X116630571Y-84614104D02*
X116668666Y-84652200D01*
X116668666Y-84652200D02*
X116744857Y-84690295D01*
X116744857Y-84690295D02*
X116935333Y-84690295D01*
X116935333Y-84690295D02*
X117011523Y-84652200D01*
X117011523Y-84652200D02*
X117049619Y-84614104D01*
X146666666Y-76654819D02*
X146999999Y-76178628D01*
X147238094Y-76654819D02*
X147238094Y-75654819D01*
X147238094Y-75654819D02*
X146857142Y-75654819D01*
X146857142Y-75654819D02*
X146761904Y-75702438D01*
X146761904Y-75702438D02*
X146714285Y-75750057D01*
X146714285Y-75750057D02*
X146666666Y-75845295D01*
X146666666Y-75845295D02*
X146666666Y-75988152D01*
X146666666Y-75988152D02*
X146714285Y-76083390D01*
X146714285Y-76083390D02*
X146761904Y-76131009D01*
X146761904Y-76131009D02*
X146857142Y-76178628D01*
X146857142Y-76178628D02*
X147238094Y-76178628D01*
X146190475Y-76654819D02*
X145999999Y-76654819D01*
X145999999Y-76654819D02*
X145904761Y-76607200D01*
X145904761Y-76607200D02*
X145857142Y-76559580D01*
X145857142Y-76559580D02*
X145761904Y-76416723D01*
X145761904Y-76416723D02*
X145714285Y-76226247D01*
X145714285Y-76226247D02*
X145714285Y-75845295D01*
X145714285Y-75845295D02*
X145761904Y-75750057D01*
X145761904Y-75750057D02*
X145809523Y-75702438D01*
X145809523Y-75702438D02*
X145904761Y-75654819D01*
X145904761Y-75654819D02*
X146095237Y-75654819D01*
X146095237Y-75654819D02*
X146190475Y-75702438D01*
X146190475Y-75702438D02*
X146238094Y-75750057D01*
X146238094Y-75750057D02*
X146285713Y-75845295D01*
X146285713Y-75845295D02*
X146285713Y-76083390D01*
X146285713Y-76083390D02*
X146238094Y-76178628D01*
X146238094Y-76178628D02*
X146190475Y-76226247D01*
X146190475Y-76226247D02*
X146095237Y-76273866D01*
X146095237Y-76273866D02*
X145904761Y-76273866D01*
X145904761Y-76273866D02*
X145809523Y-76226247D01*
X145809523Y-76226247D02*
X145761904Y-76178628D01*
X145761904Y-76178628D02*
X145714285Y-76083390D01*
X156217857Y-48619580D02*
X156265476Y-48667200D01*
X156265476Y-48667200D02*
X156408333Y-48714819D01*
X156408333Y-48714819D02*
X156503571Y-48714819D01*
X156503571Y-48714819D02*
X156646428Y-48667200D01*
X156646428Y-48667200D02*
X156741666Y-48571961D01*
X156741666Y-48571961D02*
X156789285Y-48476723D01*
X156789285Y-48476723D02*
X156836904Y-48286247D01*
X156836904Y-48286247D02*
X156836904Y-48143390D01*
X156836904Y-48143390D02*
X156789285Y-47952914D01*
X156789285Y-47952914D02*
X156741666Y-47857676D01*
X156741666Y-47857676D02*
X156646428Y-47762438D01*
X156646428Y-47762438D02*
X156503571Y-47714819D01*
X156503571Y-47714819D02*
X156408333Y-47714819D01*
X156408333Y-47714819D02*
X156265476Y-47762438D01*
X156265476Y-47762438D02*
X156217857Y-47810057D01*
X155836904Y-47810057D02*
X155789285Y-47762438D01*
X155789285Y-47762438D02*
X155694047Y-47714819D01*
X155694047Y-47714819D02*
X155455952Y-47714819D01*
X155455952Y-47714819D02*
X155360714Y-47762438D01*
X155360714Y-47762438D02*
X155313095Y-47810057D01*
X155313095Y-47810057D02*
X155265476Y-47905295D01*
X155265476Y-47905295D02*
X155265476Y-48000533D01*
X155265476Y-48000533D02*
X155313095Y-48143390D01*
X155313095Y-48143390D02*
X155884523Y-48714819D01*
X155884523Y-48714819D02*
X155265476Y-48714819D01*
X154932142Y-47714819D02*
X154313095Y-47714819D01*
X154313095Y-47714819D02*
X154646428Y-48095771D01*
X154646428Y-48095771D02*
X154503571Y-48095771D01*
X154503571Y-48095771D02*
X154408333Y-48143390D01*
X154408333Y-48143390D02*
X154360714Y-48191009D01*
X154360714Y-48191009D02*
X154313095Y-48286247D01*
X154313095Y-48286247D02*
X154313095Y-48524342D01*
X154313095Y-48524342D02*
X154360714Y-48619580D01*
X154360714Y-48619580D02*
X154408333Y-48667200D01*
X154408333Y-48667200D02*
X154503571Y-48714819D01*
X154503571Y-48714819D02*
X154789285Y-48714819D01*
X154789285Y-48714819D02*
X154884523Y-48667200D01*
X154884523Y-48667200D02*
X154932142Y-48619580D01*
X146724666Y-69447580D02*
X146772285Y-69495200D01*
X146772285Y-69495200D02*
X146915142Y-69542819D01*
X146915142Y-69542819D02*
X147010380Y-69542819D01*
X147010380Y-69542819D02*
X147153237Y-69495200D01*
X147153237Y-69495200D02*
X147248475Y-69399961D01*
X147248475Y-69399961D02*
X147296094Y-69304723D01*
X147296094Y-69304723D02*
X147343713Y-69114247D01*
X147343713Y-69114247D02*
X147343713Y-68971390D01*
X147343713Y-68971390D02*
X147296094Y-68780914D01*
X147296094Y-68780914D02*
X147248475Y-68685676D01*
X147248475Y-68685676D02*
X147153237Y-68590438D01*
X147153237Y-68590438D02*
X147010380Y-68542819D01*
X147010380Y-68542819D02*
X146915142Y-68542819D01*
X146915142Y-68542819D02*
X146772285Y-68590438D01*
X146772285Y-68590438D02*
X146724666Y-68638057D01*
X145867523Y-68876152D02*
X145867523Y-69542819D01*
X146105618Y-68495200D02*
X146343713Y-69209485D01*
X146343713Y-69209485D02*
X145724666Y-69209485D01*
X105195666Y-91164580D02*
X105243285Y-91212200D01*
X105243285Y-91212200D02*
X105386142Y-91259819D01*
X105386142Y-91259819D02*
X105481380Y-91259819D01*
X105481380Y-91259819D02*
X105624237Y-91212200D01*
X105624237Y-91212200D02*
X105719475Y-91116961D01*
X105719475Y-91116961D02*
X105767094Y-91021723D01*
X105767094Y-91021723D02*
X105814713Y-90831247D01*
X105814713Y-90831247D02*
X105814713Y-90688390D01*
X105814713Y-90688390D02*
X105767094Y-90497914D01*
X105767094Y-90497914D02*
X105719475Y-90402676D01*
X105719475Y-90402676D02*
X105624237Y-90307438D01*
X105624237Y-90307438D02*
X105481380Y-90259819D01*
X105481380Y-90259819D02*
X105386142Y-90259819D01*
X105386142Y-90259819D02*
X105243285Y-90307438D01*
X105243285Y-90307438D02*
X105195666Y-90355057D01*
X104719475Y-91259819D02*
X104528999Y-91259819D01*
X104528999Y-91259819D02*
X104433761Y-91212200D01*
X104433761Y-91212200D02*
X104386142Y-91164580D01*
X104386142Y-91164580D02*
X104290904Y-91021723D01*
X104290904Y-91021723D02*
X104243285Y-90831247D01*
X104243285Y-90831247D02*
X104243285Y-90450295D01*
X104243285Y-90450295D02*
X104290904Y-90355057D01*
X104290904Y-90355057D02*
X104338523Y-90307438D01*
X104338523Y-90307438D02*
X104433761Y-90259819D01*
X104433761Y-90259819D02*
X104624237Y-90259819D01*
X104624237Y-90259819D02*
X104719475Y-90307438D01*
X104719475Y-90307438D02*
X104767094Y-90355057D01*
X104767094Y-90355057D02*
X104814713Y-90450295D01*
X104814713Y-90450295D02*
X104814713Y-90688390D01*
X104814713Y-90688390D02*
X104767094Y-90783628D01*
X104767094Y-90783628D02*
X104719475Y-90831247D01*
X104719475Y-90831247D02*
X104624237Y-90878866D01*
X104624237Y-90878866D02*
X104433761Y-90878866D01*
X104433761Y-90878866D02*
X104338523Y-90831247D01*
X104338523Y-90831247D02*
X104290904Y-90783628D01*
X104290904Y-90783628D02*
X104243285Y-90688390D01*
X133014285Y-134004819D02*
X133014285Y-133004819D01*
X133014285Y-133004819D02*
X132776190Y-133004819D01*
X132776190Y-133004819D02*
X132633333Y-133052438D01*
X132633333Y-133052438D02*
X132538095Y-133147676D01*
X132538095Y-133147676D02*
X132490476Y-133242914D01*
X132490476Y-133242914D02*
X132442857Y-133433390D01*
X132442857Y-133433390D02*
X132442857Y-133576247D01*
X132442857Y-133576247D02*
X132490476Y-133766723D01*
X132490476Y-133766723D02*
X132538095Y-133861961D01*
X132538095Y-133861961D02*
X132633333Y-133957200D01*
X132633333Y-133957200D02*
X132776190Y-134004819D01*
X132776190Y-134004819D02*
X133014285Y-134004819D01*
X131490476Y-134004819D02*
X132061904Y-134004819D01*
X131776190Y-134004819D02*
X131776190Y-133004819D01*
X131776190Y-133004819D02*
X131871428Y-133147676D01*
X131871428Y-133147676D02*
X131966666Y-133242914D01*
X131966666Y-133242914D02*
X132061904Y-133290533D01*
X130919047Y-133433390D02*
X131014285Y-133385771D01*
X131014285Y-133385771D02*
X131061904Y-133338152D01*
X131061904Y-133338152D02*
X131109523Y-133242914D01*
X131109523Y-133242914D02*
X131109523Y-133195295D01*
X131109523Y-133195295D02*
X131061904Y-133100057D01*
X131061904Y-133100057D02*
X131014285Y-133052438D01*
X131014285Y-133052438D02*
X130919047Y-133004819D01*
X130919047Y-133004819D02*
X130728571Y-133004819D01*
X130728571Y-133004819D02*
X130633333Y-133052438D01*
X130633333Y-133052438D02*
X130585714Y-133100057D01*
X130585714Y-133100057D02*
X130538095Y-133195295D01*
X130538095Y-133195295D02*
X130538095Y-133242914D01*
X130538095Y-133242914D02*
X130585714Y-133338152D01*
X130585714Y-133338152D02*
X130633333Y-133385771D01*
X130633333Y-133385771D02*
X130728571Y-133433390D01*
X130728571Y-133433390D02*
X130919047Y-133433390D01*
X130919047Y-133433390D02*
X131014285Y-133481009D01*
X131014285Y-133481009D02*
X131061904Y-133528628D01*
X131061904Y-133528628D02*
X131109523Y-133623866D01*
X131109523Y-133623866D02*
X131109523Y-133814342D01*
X131109523Y-133814342D02*
X131061904Y-133909580D01*
X131061904Y-133909580D02*
X131014285Y-133957200D01*
X131014285Y-133957200D02*
X130919047Y-134004819D01*
X130919047Y-134004819D02*
X130728571Y-134004819D01*
X130728571Y-134004819D02*
X130633333Y-133957200D01*
X130633333Y-133957200D02*
X130585714Y-133909580D01*
X130585714Y-133909580D02*
X130538095Y-133814342D01*
X130538095Y-133814342D02*
X130538095Y-133623866D01*
X130538095Y-133623866D02*
X130585714Y-133528628D01*
X130585714Y-133528628D02*
X130633333Y-133481009D01*
X130633333Y-133481009D02*
X130728571Y-133433390D01*
X143111905Y-111795180D02*
X143111905Y-112795180D01*
X143111905Y-112795180D02*
X143350000Y-112795180D01*
X143350000Y-112795180D02*
X143492857Y-112747561D01*
X143492857Y-112747561D02*
X143588095Y-112652323D01*
X143588095Y-112652323D02*
X143635714Y-112557085D01*
X143635714Y-112557085D02*
X143683333Y-112366609D01*
X143683333Y-112366609D02*
X143683333Y-112223752D01*
X143683333Y-112223752D02*
X143635714Y-112033276D01*
X143635714Y-112033276D02*
X143588095Y-111938038D01*
X143588095Y-111938038D02*
X143492857Y-111842800D01*
X143492857Y-111842800D02*
X143350000Y-111795180D01*
X143350000Y-111795180D02*
X143111905Y-111795180D01*
X144540476Y-112795180D02*
X144350000Y-112795180D01*
X144350000Y-112795180D02*
X144254762Y-112747561D01*
X144254762Y-112747561D02*
X144207143Y-112699942D01*
X144207143Y-112699942D02*
X144111905Y-112557085D01*
X144111905Y-112557085D02*
X144064286Y-112366609D01*
X144064286Y-112366609D02*
X144064286Y-111985657D01*
X144064286Y-111985657D02*
X144111905Y-111890419D01*
X144111905Y-111890419D02*
X144159524Y-111842800D01*
X144159524Y-111842800D02*
X144254762Y-111795180D01*
X144254762Y-111795180D02*
X144445238Y-111795180D01*
X144445238Y-111795180D02*
X144540476Y-111842800D01*
X144540476Y-111842800D02*
X144588095Y-111890419D01*
X144588095Y-111890419D02*
X144635714Y-111985657D01*
X144635714Y-111985657D02*
X144635714Y-112223752D01*
X144635714Y-112223752D02*
X144588095Y-112318990D01*
X144588095Y-112318990D02*
X144540476Y-112366609D01*
X144540476Y-112366609D02*
X144445238Y-112414228D01*
X144445238Y-112414228D02*
X144254762Y-112414228D01*
X144254762Y-112414228D02*
X144159524Y-112366609D01*
X144159524Y-112366609D02*
X144111905Y-112318990D01*
X144111905Y-112318990D02*
X144064286Y-112223752D01*
X156217857Y-51159580D02*
X156265476Y-51207200D01*
X156265476Y-51207200D02*
X156408333Y-51254819D01*
X156408333Y-51254819D02*
X156503571Y-51254819D01*
X156503571Y-51254819D02*
X156646428Y-51207200D01*
X156646428Y-51207200D02*
X156741666Y-51111961D01*
X156741666Y-51111961D02*
X156789285Y-51016723D01*
X156789285Y-51016723D02*
X156836904Y-50826247D01*
X156836904Y-50826247D02*
X156836904Y-50683390D01*
X156836904Y-50683390D02*
X156789285Y-50492914D01*
X156789285Y-50492914D02*
X156741666Y-50397676D01*
X156741666Y-50397676D02*
X156646428Y-50302438D01*
X156646428Y-50302438D02*
X156503571Y-50254819D01*
X156503571Y-50254819D02*
X156408333Y-50254819D01*
X156408333Y-50254819D02*
X156265476Y-50302438D01*
X156265476Y-50302438D02*
X156217857Y-50350057D01*
X155265476Y-51254819D02*
X155836904Y-51254819D01*
X155551190Y-51254819D02*
X155551190Y-50254819D01*
X155551190Y-50254819D02*
X155646428Y-50397676D01*
X155646428Y-50397676D02*
X155741666Y-50492914D01*
X155741666Y-50492914D02*
X155836904Y-50540533D01*
X154360714Y-50254819D02*
X154836904Y-50254819D01*
X154836904Y-50254819D02*
X154884523Y-50731009D01*
X154884523Y-50731009D02*
X154836904Y-50683390D01*
X154836904Y-50683390D02*
X154741666Y-50635771D01*
X154741666Y-50635771D02*
X154503571Y-50635771D01*
X154503571Y-50635771D02*
X154408333Y-50683390D01*
X154408333Y-50683390D02*
X154360714Y-50731009D01*
X154360714Y-50731009D02*
X154313095Y-50826247D01*
X154313095Y-50826247D02*
X154313095Y-51064342D01*
X154313095Y-51064342D02*
X154360714Y-51159580D01*
X154360714Y-51159580D02*
X154408333Y-51207200D01*
X154408333Y-51207200D02*
X154503571Y-51254819D01*
X154503571Y-51254819D02*
X154741666Y-51254819D01*
X154741666Y-51254819D02*
X154836904Y-51207200D01*
X154836904Y-51207200D02*
X154884523Y-51159580D01*
X102408857Y-67530819D02*
X102742190Y-67054628D01*
X102980285Y-67530819D02*
X102980285Y-66530819D01*
X102980285Y-66530819D02*
X102599333Y-66530819D01*
X102599333Y-66530819D02*
X102504095Y-66578438D01*
X102504095Y-66578438D02*
X102456476Y-66626057D01*
X102456476Y-66626057D02*
X102408857Y-66721295D01*
X102408857Y-66721295D02*
X102408857Y-66864152D01*
X102408857Y-66864152D02*
X102456476Y-66959390D01*
X102456476Y-66959390D02*
X102504095Y-67007009D01*
X102504095Y-67007009D02*
X102599333Y-67054628D01*
X102599333Y-67054628D02*
X102980285Y-67054628D01*
X102075523Y-66530819D02*
X101456476Y-66530819D01*
X101456476Y-66530819D02*
X101789809Y-66911771D01*
X101789809Y-66911771D02*
X101646952Y-66911771D01*
X101646952Y-66911771D02*
X101551714Y-66959390D01*
X101551714Y-66959390D02*
X101504095Y-67007009D01*
X101504095Y-67007009D02*
X101456476Y-67102247D01*
X101456476Y-67102247D02*
X101456476Y-67340342D01*
X101456476Y-67340342D02*
X101504095Y-67435580D01*
X101504095Y-67435580D02*
X101551714Y-67483200D01*
X101551714Y-67483200D02*
X101646952Y-67530819D01*
X101646952Y-67530819D02*
X101932666Y-67530819D01*
X101932666Y-67530819D02*
X102027904Y-67483200D01*
X102027904Y-67483200D02*
X102075523Y-67435580D01*
X100504095Y-67530819D02*
X101075523Y-67530819D01*
X100789809Y-67530819D02*
X100789809Y-66530819D01*
X100789809Y-66530819D02*
X100885047Y-66673676D01*
X100885047Y-66673676D02*
X100980285Y-66768914D01*
X100980285Y-66768914D02*
X101075523Y-66816533D01*
X148909066Y-90615980D02*
X148956685Y-90663600D01*
X148956685Y-90663600D02*
X149099542Y-90711219D01*
X149099542Y-90711219D02*
X149194780Y-90711219D01*
X149194780Y-90711219D02*
X149337637Y-90663600D01*
X149337637Y-90663600D02*
X149432875Y-90568361D01*
X149432875Y-90568361D02*
X149480494Y-90473123D01*
X149480494Y-90473123D02*
X149528113Y-90282647D01*
X149528113Y-90282647D02*
X149528113Y-90139790D01*
X149528113Y-90139790D02*
X149480494Y-89949314D01*
X149480494Y-89949314D02*
X149432875Y-89854076D01*
X149432875Y-89854076D02*
X149337637Y-89758838D01*
X149337637Y-89758838D02*
X149194780Y-89711219D01*
X149194780Y-89711219D02*
X149099542Y-89711219D01*
X149099542Y-89711219D02*
X148956685Y-89758838D01*
X148956685Y-89758838D02*
X148909066Y-89806457D01*
X148051923Y-89711219D02*
X148242399Y-89711219D01*
X148242399Y-89711219D02*
X148337637Y-89758838D01*
X148337637Y-89758838D02*
X148385256Y-89806457D01*
X148385256Y-89806457D02*
X148480494Y-89949314D01*
X148480494Y-89949314D02*
X148528113Y-90139790D01*
X148528113Y-90139790D02*
X148528113Y-90520742D01*
X148528113Y-90520742D02*
X148480494Y-90615980D01*
X148480494Y-90615980D02*
X148432875Y-90663600D01*
X148432875Y-90663600D02*
X148337637Y-90711219D01*
X148337637Y-90711219D02*
X148147161Y-90711219D01*
X148147161Y-90711219D02*
X148051923Y-90663600D01*
X148051923Y-90663600D02*
X148004304Y-90615980D01*
X148004304Y-90615980D02*
X147956685Y-90520742D01*
X147956685Y-90520742D02*
X147956685Y-90282647D01*
X147956685Y-90282647D02*
X148004304Y-90187409D01*
X148004304Y-90187409D02*
X148051923Y-90139790D01*
X148051923Y-90139790D02*
X148147161Y-90092171D01*
X148147161Y-90092171D02*
X148337637Y-90092171D01*
X148337637Y-90092171D02*
X148432875Y-90139790D01*
X148432875Y-90139790D02*
X148480494Y-90187409D01*
X148480494Y-90187409D02*
X148528113Y-90282647D01*
X157666666Y-97486819D02*
X157999999Y-97010628D01*
X158238094Y-97486819D02*
X158238094Y-96486819D01*
X158238094Y-96486819D02*
X157857142Y-96486819D01*
X157857142Y-96486819D02*
X157761904Y-96534438D01*
X157761904Y-96534438D02*
X157714285Y-96582057D01*
X157714285Y-96582057D02*
X157666666Y-96677295D01*
X157666666Y-96677295D02*
X157666666Y-96820152D01*
X157666666Y-96820152D02*
X157714285Y-96915390D01*
X157714285Y-96915390D02*
X157761904Y-96963009D01*
X157761904Y-96963009D02*
X157857142Y-97010628D01*
X157857142Y-97010628D02*
X158238094Y-97010628D01*
X157285713Y-96582057D02*
X157238094Y-96534438D01*
X157238094Y-96534438D02*
X157142856Y-96486819D01*
X157142856Y-96486819D02*
X156904761Y-96486819D01*
X156904761Y-96486819D02*
X156809523Y-96534438D01*
X156809523Y-96534438D02*
X156761904Y-96582057D01*
X156761904Y-96582057D02*
X156714285Y-96677295D01*
X156714285Y-96677295D02*
X156714285Y-96772533D01*
X156714285Y-96772533D02*
X156761904Y-96915390D01*
X156761904Y-96915390D02*
X157333332Y-97486819D01*
X157333332Y-97486819D02*
X156714285Y-97486819D01*
X151518857Y-61827580D02*
X151566476Y-61875200D01*
X151566476Y-61875200D02*
X151709333Y-61922819D01*
X151709333Y-61922819D02*
X151804571Y-61922819D01*
X151804571Y-61922819D02*
X151947428Y-61875200D01*
X151947428Y-61875200D02*
X152042666Y-61779961D01*
X152042666Y-61779961D02*
X152090285Y-61684723D01*
X152090285Y-61684723D02*
X152137904Y-61494247D01*
X152137904Y-61494247D02*
X152137904Y-61351390D01*
X152137904Y-61351390D02*
X152090285Y-61160914D01*
X152090285Y-61160914D02*
X152042666Y-61065676D01*
X152042666Y-61065676D02*
X151947428Y-60970438D01*
X151947428Y-60970438D02*
X151804571Y-60922819D01*
X151804571Y-60922819D02*
X151709333Y-60922819D01*
X151709333Y-60922819D02*
X151566476Y-60970438D01*
X151566476Y-60970438D02*
X151518857Y-61018057D01*
X150566476Y-61922819D02*
X151137904Y-61922819D01*
X150852190Y-61922819D02*
X150852190Y-60922819D01*
X150852190Y-60922819D02*
X150947428Y-61065676D01*
X150947428Y-61065676D02*
X151042666Y-61160914D01*
X151042666Y-61160914D02*
X151137904Y-61208533D01*
X150233142Y-60922819D02*
X149566476Y-60922819D01*
X149566476Y-60922819D02*
X149995047Y-61922819D01*
X115069857Y-97260580D02*
X115117476Y-97308200D01*
X115117476Y-97308200D02*
X115260333Y-97355819D01*
X115260333Y-97355819D02*
X115355571Y-97355819D01*
X115355571Y-97355819D02*
X115498428Y-97308200D01*
X115498428Y-97308200D02*
X115593666Y-97212961D01*
X115593666Y-97212961D02*
X115641285Y-97117723D01*
X115641285Y-97117723D02*
X115688904Y-96927247D01*
X115688904Y-96927247D02*
X115688904Y-96784390D01*
X115688904Y-96784390D02*
X115641285Y-96593914D01*
X115641285Y-96593914D02*
X115593666Y-96498676D01*
X115593666Y-96498676D02*
X115498428Y-96403438D01*
X115498428Y-96403438D02*
X115355571Y-96355819D01*
X115355571Y-96355819D02*
X115260333Y-96355819D01*
X115260333Y-96355819D02*
X115117476Y-96403438D01*
X115117476Y-96403438D02*
X115069857Y-96451057D01*
X114117476Y-97355819D02*
X114688904Y-97355819D01*
X114403190Y-97355819D02*
X114403190Y-96355819D01*
X114403190Y-96355819D02*
X114498428Y-96498676D01*
X114498428Y-96498676D02*
X114593666Y-96593914D01*
X114593666Y-96593914D02*
X114688904Y-96641533D01*
X113736523Y-96451057D02*
X113688904Y-96403438D01*
X113688904Y-96403438D02*
X113593666Y-96355819D01*
X113593666Y-96355819D02*
X113355571Y-96355819D01*
X113355571Y-96355819D02*
X113260333Y-96403438D01*
X113260333Y-96403438D02*
X113212714Y-96451057D01*
X113212714Y-96451057D02*
X113165095Y-96546295D01*
X113165095Y-96546295D02*
X113165095Y-96641533D01*
X113165095Y-96641533D02*
X113212714Y-96784390D01*
X113212714Y-96784390D02*
X113784142Y-97355819D01*
X113784142Y-97355819D02*
X113165095Y-97355819D01*
X99289332Y-69515200D02*
X99146475Y-69562819D01*
X99146475Y-69562819D02*
X98908380Y-69562819D01*
X98908380Y-69562819D02*
X98813142Y-69515200D01*
X98813142Y-69515200D02*
X98765523Y-69467580D01*
X98765523Y-69467580D02*
X98717904Y-69372342D01*
X98717904Y-69372342D02*
X98717904Y-69277104D01*
X98717904Y-69277104D02*
X98765523Y-69181866D01*
X98765523Y-69181866D02*
X98813142Y-69134247D01*
X98813142Y-69134247D02*
X98908380Y-69086628D01*
X98908380Y-69086628D02*
X99098856Y-69039009D01*
X99098856Y-69039009D02*
X99194094Y-68991390D01*
X99194094Y-68991390D02*
X99241713Y-68943771D01*
X99241713Y-68943771D02*
X99289332Y-68848533D01*
X99289332Y-68848533D02*
X99289332Y-68753295D01*
X99289332Y-68753295D02*
X99241713Y-68658057D01*
X99241713Y-68658057D02*
X99194094Y-68610438D01*
X99194094Y-68610438D02*
X99098856Y-68562819D01*
X99098856Y-68562819D02*
X98860761Y-68562819D01*
X98860761Y-68562819D02*
X98717904Y-68610438D01*
X98384570Y-68562819D02*
X98146475Y-69562819D01*
X98146475Y-69562819D02*
X97955999Y-68848533D01*
X97955999Y-68848533D02*
X97765523Y-69562819D01*
X97765523Y-69562819D02*
X97527428Y-68562819D01*
X96717904Y-68562819D02*
X96908380Y-68562819D01*
X96908380Y-68562819D02*
X97003618Y-68610438D01*
X97003618Y-68610438D02*
X97051237Y-68658057D01*
X97051237Y-68658057D02*
X97146475Y-68800914D01*
X97146475Y-68800914D02*
X97194094Y-68991390D01*
X97194094Y-68991390D02*
X97194094Y-69372342D01*
X97194094Y-69372342D02*
X97146475Y-69467580D01*
X97146475Y-69467580D02*
X97098856Y-69515200D01*
X97098856Y-69515200D02*
X97003618Y-69562819D01*
X97003618Y-69562819D02*
X96813142Y-69562819D01*
X96813142Y-69562819D02*
X96717904Y-69515200D01*
X96717904Y-69515200D02*
X96670285Y-69467580D01*
X96670285Y-69467580D02*
X96622666Y-69372342D01*
X96622666Y-69372342D02*
X96622666Y-69134247D01*
X96622666Y-69134247D02*
X96670285Y-69039009D01*
X96670285Y-69039009D02*
X96717904Y-68991390D01*
X96717904Y-68991390D02*
X96813142Y-68943771D01*
X96813142Y-68943771D02*
X97003618Y-68943771D01*
X97003618Y-68943771D02*
X97098856Y-68991390D01*
X97098856Y-68991390D02*
X97146475Y-69039009D01*
X97146475Y-69039009D02*
X97194094Y-69134247D01*
X141511257Y-90203219D02*
X141844590Y-89727028D01*
X142082685Y-90203219D02*
X142082685Y-89203219D01*
X142082685Y-89203219D02*
X141701733Y-89203219D01*
X141701733Y-89203219D02*
X141606495Y-89250838D01*
X141606495Y-89250838D02*
X141558876Y-89298457D01*
X141558876Y-89298457D02*
X141511257Y-89393695D01*
X141511257Y-89393695D02*
X141511257Y-89536552D01*
X141511257Y-89536552D02*
X141558876Y-89631790D01*
X141558876Y-89631790D02*
X141606495Y-89679409D01*
X141606495Y-89679409D02*
X141701733Y-89727028D01*
X141701733Y-89727028D02*
X142082685Y-89727028D01*
X140558876Y-90203219D02*
X141130304Y-90203219D01*
X140844590Y-90203219D02*
X140844590Y-89203219D01*
X140844590Y-89203219D02*
X140939828Y-89346076D01*
X140939828Y-89346076D02*
X141035066Y-89441314D01*
X141035066Y-89441314D02*
X141130304Y-89488933D01*
X139606495Y-90203219D02*
X140177923Y-90203219D01*
X139892209Y-90203219D02*
X139892209Y-89203219D01*
X139892209Y-89203219D02*
X139987447Y-89346076D01*
X139987447Y-89346076D02*
X140082685Y-89441314D01*
X140082685Y-89441314D02*
X140177923Y-89488933D01*
X109894666Y-55064819D02*
X110227999Y-54588628D01*
X110466094Y-55064819D02*
X110466094Y-54064819D01*
X110466094Y-54064819D02*
X110085142Y-54064819D01*
X110085142Y-54064819D02*
X109989904Y-54112438D01*
X109989904Y-54112438D02*
X109942285Y-54160057D01*
X109942285Y-54160057D02*
X109894666Y-54255295D01*
X109894666Y-54255295D02*
X109894666Y-54398152D01*
X109894666Y-54398152D02*
X109942285Y-54493390D01*
X109942285Y-54493390D02*
X109989904Y-54541009D01*
X109989904Y-54541009D02*
X110085142Y-54588628D01*
X110085142Y-54588628D02*
X110466094Y-54588628D01*
X108942285Y-55064819D02*
X109513713Y-55064819D01*
X109227999Y-55064819D02*
X109227999Y-54064819D01*
X109227999Y-54064819D02*
X109323237Y-54207676D01*
X109323237Y-54207676D02*
X109418475Y-54302914D01*
X109418475Y-54302914D02*
X109513713Y-54350533D01*
X107454666Y-57474295D02*
X107454666Y-58045723D01*
X107454666Y-58045723D02*
X107492761Y-58160009D01*
X107492761Y-58160009D02*
X107568952Y-58236200D01*
X107568952Y-58236200D02*
X107683237Y-58274295D01*
X107683237Y-58274295D02*
X107759428Y-58274295D01*
X107149904Y-57474295D02*
X106654666Y-57474295D01*
X106654666Y-57474295D02*
X106921332Y-57779057D01*
X106921332Y-57779057D02*
X106807047Y-57779057D01*
X106807047Y-57779057D02*
X106730856Y-57817152D01*
X106730856Y-57817152D02*
X106692761Y-57855247D01*
X106692761Y-57855247D02*
X106654666Y-57931438D01*
X106654666Y-57931438D02*
X106654666Y-58121914D01*
X106654666Y-58121914D02*
X106692761Y-58198104D01*
X106692761Y-58198104D02*
X106730856Y-58236200D01*
X106730856Y-58236200D02*
X106807047Y-58274295D01*
X106807047Y-58274295D02*
X107035618Y-58274295D01*
X107035618Y-58274295D02*
X107111809Y-58236200D01*
X107111809Y-58236200D02*
X107149904Y-58198104D01*
X121652457Y-89081319D02*
X121985790Y-88605128D01*
X122223885Y-89081319D02*
X122223885Y-88081319D01*
X122223885Y-88081319D02*
X121842933Y-88081319D01*
X121842933Y-88081319D02*
X121747695Y-88128938D01*
X121747695Y-88128938D02*
X121700076Y-88176557D01*
X121700076Y-88176557D02*
X121652457Y-88271795D01*
X121652457Y-88271795D02*
X121652457Y-88414652D01*
X121652457Y-88414652D02*
X121700076Y-88509890D01*
X121700076Y-88509890D02*
X121747695Y-88557509D01*
X121747695Y-88557509D02*
X121842933Y-88605128D01*
X121842933Y-88605128D02*
X122223885Y-88605128D01*
X120700076Y-89081319D02*
X121271504Y-89081319D01*
X120985790Y-89081319D02*
X120985790Y-88081319D01*
X120985790Y-88081319D02*
X121081028Y-88224176D01*
X121081028Y-88224176D02*
X121176266Y-88319414D01*
X121176266Y-88319414D02*
X121271504Y-88367033D01*
X120366742Y-88081319D02*
X119700076Y-88081319D01*
X119700076Y-88081319D02*
X120128647Y-89081319D01*
X100488666Y-83043247D02*
X100755332Y-83043247D01*
X100755332Y-83462295D02*
X100755332Y-82662295D01*
X100755332Y-82662295D02*
X100374380Y-82662295D01*
X99650571Y-83462295D02*
X100107714Y-83462295D01*
X99879142Y-83462295D02*
X99879142Y-82662295D01*
X99879142Y-82662295D02*
X99955333Y-82776580D01*
X99955333Y-82776580D02*
X100031523Y-82852771D01*
X100031523Y-82852771D02*
X100107714Y-82890866D01*
X132688094Y-95154819D02*
X132688094Y-94154819D01*
X132688094Y-94154819D02*
X132449999Y-94154819D01*
X132449999Y-94154819D02*
X132307142Y-94202438D01*
X132307142Y-94202438D02*
X132211904Y-94297676D01*
X132211904Y-94297676D02*
X132164285Y-94392914D01*
X132164285Y-94392914D02*
X132116666Y-94583390D01*
X132116666Y-94583390D02*
X132116666Y-94726247D01*
X132116666Y-94726247D02*
X132164285Y-94916723D01*
X132164285Y-94916723D02*
X132211904Y-95011961D01*
X132211904Y-95011961D02*
X132307142Y-95107200D01*
X132307142Y-95107200D02*
X132449999Y-95154819D01*
X132449999Y-95154819D02*
X132688094Y-95154819D01*
X131783332Y-94154819D02*
X131116666Y-94154819D01*
X131116666Y-94154819D02*
X131545237Y-95154819D01*
X152153857Y-75482580D02*
X152201476Y-75530200D01*
X152201476Y-75530200D02*
X152344333Y-75577819D01*
X152344333Y-75577819D02*
X152439571Y-75577819D01*
X152439571Y-75577819D02*
X152582428Y-75530200D01*
X152582428Y-75530200D02*
X152677666Y-75434961D01*
X152677666Y-75434961D02*
X152725285Y-75339723D01*
X152725285Y-75339723D02*
X152772904Y-75149247D01*
X152772904Y-75149247D02*
X152772904Y-75006390D01*
X152772904Y-75006390D02*
X152725285Y-74815914D01*
X152725285Y-74815914D02*
X152677666Y-74720676D01*
X152677666Y-74720676D02*
X152582428Y-74625438D01*
X152582428Y-74625438D02*
X152439571Y-74577819D01*
X152439571Y-74577819D02*
X152344333Y-74577819D01*
X152344333Y-74577819D02*
X152201476Y-74625438D01*
X152201476Y-74625438D02*
X152153857Y-74673057D01*
X151201476Y-75577819D02*
X151772904Y-75577819D01*
X151487190Y-75577819D02*
X151487190Y-74577819D01*
X151487190Y-74577819D02*
X151582428Y-74720676D01*
X151582428Y-74720676D02*
X151677666Y-74815914D01*
X151677666Y-74815914D02*
X151772904Y-74863533D01*
X150344333Y-74911152D02*
X150344333Y-75577819D01*
X150582428Y-74530200D02*
X150820523Y-75244485D01*
X150820523Y-75244485D02*
X150201476Y-75244485D01*
X125064285Y-107204819D02*
X125064285Y-106204819D01*
X125064285Y-106204819D02*
X124826190Y-106204819D01*
X124826190Y-106204819D02*
X124683333Y-106252438D01*
X124683333Y-106252438D02*
X124588095Y-106347676D01*
X124588095Y-106347676D02*
X124540476Y-106442914D01*
X124540476Y-106442914D02*
X124492857Y-106633390D01*
X124492857Y-106633390D02*
X124492857Y-106776247D01*
X124492857Y-106776247D02*
X124540476Y-106966723D01*
X124540476Y-106966723D02*
X124588095Y-107061961D01*
X124588095Y-107061961D02*
X124683333Y-107157200D01*
X124683333Y-107157200D02*
X124826190Y-107204819D01*
X124826190Y-107204819D02*
X125064285Y-107204819D01*
X123540476Y-107204819D02*
X124111904Y-107204819D01*
X123826190Y-107204819D02*
X123826190Y-106204819D01*
X123826190Y-106204819D02*
X123921428Y-106347676D01*
X123921428Y-106347676D02*
X124016666Y-106442914D01*
X124016666Y-106442914D02*
X124111904Y-106490533D01*
X122588095Y-107204819D02*
X123159523Y-107204819D01*
X122873809Y-107204819D02*
X122873809Y-106204819D01*
X122873809Y-106204819D02*
X122969047Y-106347676D01*
X122969047Y-106347676D02*
X123064285Y-106442914D01*
X123064285Y-106442914D02*
X123159523Y-106490533D01*
X102117466Y-86115819D02*
X102450799Y-85639628D01*
X102688894Y-86115819D02*
X102688894Y-85115819D01*
X102688894Y-85115819D02*
X102307942Y-85115819D01*
X102307942Y-85115819D02*
X102212704Y-85163438D01*
X102212704Y-85163438D02*
X102165085Y-85211057D01*
X102165085Y-85211057D02*
X102117466Y-85306295D01*
X102117466Y-85306295D02*
X102117466Y-85449152D01*
X102117466Y-85449152D02*
X102165085Y-85544390D01*
X102165085Y-85544390D02*
X102212704Y-85592009D01*
X102212704Y-85592009D02*
X102307942Y-85639628D01*
X102307942Y-85639628D02*
X102688894Y-85639628D01*
X101212704Y-85115819D02*
X101688894Y-85115819D01*
X101688894Y-85115819D02*
X101736513Y-85592009D01*
X101736513Y-85592009D02*
X101688894Y-85544390D01*
X101688894Y-85544390D02*
X101593656Y-85496771D01*
X101593656Y-85496771D02*
X101355561Y-85496771D01*
X101355561Y-85496771D02*
X101260323Y-85544390D01*
X101260323Y-85544390D02*
X101212704Y-85592009D01*
X101212704Y-85592009D02*
X101165085Y-85687247D01*
X101165085Y-85687247D02*
X101165085Y-85925342D01*
X101165085Y-85925342D02*
X101212704Y-86020580D01*
X101212704Y-86020580D02*
X101260323Y-86068200D01*
X101260323Y-86068200D02*
X101355561Y-86115819D01*
X101355561Y-86115819D02*
X101593656Y-86115819D01*
X101593656Y-86115819D02*
X101688894Y-86068200D01*
X101688894Y-86068200D02*
X101736513Y-86020580D01*
X158851523Y-122244295D02*
X158851523Y-122891914D01*
X158851523Y-122891914D02*
X158813428Y-122968104D01*
X158813428Y-122968104D02*
X158775333Y-123006200D01*
X158775333Y-123006200D02*
X158699142Y-123044295D01*
X158699142Y-123044295D02*
X158546761Y-123044295D01*
X158546761Y-123044295D02*
X158470571Y-123006200D01*
X158470571Y-123006200D02*
X158432476Y-122968104D01*
X158432476Y-122968104D02*
X158394380Y-122891914D01*
X158394380Y-122891914D02*
X158394380Y-122244295D01*
X157632476Y-122244295D02*
X158013428Y-122244295D01*
X158013428Y-122244295D02*
X158051524Y-122625247D01*
X158051524Y-122625247D02*
X158013428Y-122587152D01*
X158013428Y-122587152D02*
X157937238Y-122549057D01*
X157937238Y-122549057D02*
X157746762Y-122549057D01*
X157746762Y-122549057D02*
X157670571Y-122587152D01*
X157670571Y-122587152D02*
X157632476Y-122625247D01*
X157632476Y-122625247D02*
X157594381Y-122701438D01*
X157594381Y-122701438D02*
X157594381Y-122891914D01*
X157594381Y-122891914D02*
X157632476Y-122968104D01*
X157632476Y-122968104D02*
X157670571Y-123006200D01*
X157670571Y-123006200D02*
X157746762Y-123044295D01*
X157746762Y-123044295D02*
X157937238Y-123044295D01*
X157937238Y-123044295D02*
X158013428Y-123006200D01*
X158013428Y-123006200D02*
X158051524Y-122968104D01*
X115546819Y-64436666D02*
X116261104Y-64436666D01*
X116261104Y-64436666D02*
X116403961Y-64389047D01*
X116403961Y-64389047D02*
X116499200Y-64293809D01*
X116499200Y-64293809D02*
X116546819Y-64150952D01*
X116546819Y-64150952D02*
X116546819Y-64055714D01*
X115642057Y-64865238D02*
X115594438Y-64912857D01*
X115594438Y-64912857D02*
X115546819Y-65008095D01*
X115546819Y-65008095D02*
X115546819Y-65246190D01*
X115546819Y-65246190D02*
X115594438Y-65341428D01*
X115594438Y-65341428D02*
X115642057Y-65389047D01*
X115642057Y-65389047D02*
X115737295Y-65436666D01*
X115737295Y-65436666D02*
X115832533Y-65436666D01*
X115832533Y-65436666D02*
X115975390Y-65389047D01*
X115975390Y-65389047D02*
X116546819Y-64817619D01*
X116546819Y-64817619D02*
X116546819Y-65436666D01*
X137064285Y-139304819D02*
X137064285Y-138304819D01*
X137064285Y-138304819D02*
X136826190Y-138304819D01*
X136826190Y-138304819D02*
X136683333Y-138352438D01*
X136683333Y-138352438D02*
X136588095Y-138447676D01*
X136588095Y-138447676D02*
X136540476Y-138542914D01*
X136540476Y-138542914D02*
X136492857Y-138733390D01*
X136492857Y-138733390D02*
X136492857Y-138876247D01*
X136492857Y-138876247D02*
X136540476Y-139066723D01*
X136540476Y-139066723D02*
X136588095Y-139161961D01*
X136588095Y-139161961D02*
X136683333Y-139257200D01*
X136683333Y-139257200D02*
X136826190Y-139304819D01*
X136826190Y-139304819D02*
X137064285Y-139304819D01*
X135540476Y-139304819D02*
X136111904Y-139304819D01*
X135826190Y-139304819D02*
X135826190Y-138304819D01*
X135826190Y-138304819D02*
X135921428Y-138447676D01*
X135921428Y-138447676D02*
X136016666Y-138542914D01*
X136016666Y-138542914D02*
X136111904Y-138590533D01*
X135064285Y-139304819D02*
X134873809Y-139304819D01*
X134873809Y-139304819D02*
X134778571Y-139257200D01*
X134778571Y-139257200D02*
X134730952Y-139209580D01*
X134730952Y-139209580D02*
X134635714Y-139066723D01*
X134635714Y-139066723D02*
X134588095Y-138876247D01*
X134588095Y-138876247D02*
X134588095Y-138495295D01*
X134588095Y-138495295D02*
X134635714Y-138400057D01*
X134635714Y-138400057D02*
X134683333Y-138352438D01*
X134683333Y-138352438D02*
X134778571Y-138304819D01*
X134778571Y-138304819D02*
X134969047Y-138304819D01*
X134969047Y-138304819D02*
X135064285Y-138352438D01*
X135064285Y-138352438D02*
X135111904Y-138400057D01*
X135111904Y-138400057D02*
X135159523Y-138495295D01*
X135159523Y-138495295D02*
X135159523Y-138733390D01*
X135159523Y-138733390D02*
X135111904Y-138828628D01*
X135111904Y-138828628D02*
X135064285Y-138876247D01*
X135064285Y-138876247D02*
X134969047Y-138923866D01*
X134969047Y-138923866D02*
X134778571Y-138923866D01*
X134778571Y-138923866D02*
X134683333Y-138876247D01*
X134683333Y-138876247D02*
X134635714Y-138828628D01*
X134635714Y-138828628D02*
X134588095Y-138733390D01*
X122000123Y-85973095D02*
X122000123Y-86620714D01*
X122000123Y-86620714D02*
X121962028Y-86696904D01*
X121962028Y-86696904D02*
X121923933Y-86735000D01*
X121923933Y-86735000D02*
X121847742Y-86773095D01*
X121847742Y-86773095D02*
X121695361Y-86773095D01*
X121695361Y-86773095D02*
X121619171Y-86735000D01*
X121619171Y-86735000D02*
X121581076Y-86696904D01*
X121581076Y-86696904D02*
X121542980Y-86620714D01*
X121542980Y-86620714D02*
X121542980Y-85973095D01*
X120819171Y-86239761D02*
X120819171Y-86773095D01*
X121009647Y-85935000D02*
X121200124Y-86506428D01*
X121200124Y-86506428D02*
X120704885Y-86506428D01*
D12*
%TO.C,SW5*%
X155183000Y-154448500D02*
X155183000Y-155708500D01*
X155433000Y-154228500D02*
X155403000Y-154228500D01*
X156433000Y-149479500D02*
X155433000Y-149479500D01*
X155586000Y-152908500D02*
X155866000Y-153199500D01*
X158433000Y-149479500D02*
X157833000Y-149479500D01*
X157963000Y-156088500D02*
X158043000Y-156088500D01*
X158023000Y-155018500D02*
X158093000Y-155018500D01*
X158173000Y-155958500D02*
X158613000Y-154738500D01*
X158373000Y-154738500D02*
X158613000Y-154738500D01*
D13*
X160858000Y-158943500D02*
X159357000Y-158943500D01*
X158731000Y-157562500D02*
X159358000Y-158944500D01*
D12*
X160433000Y-149479500D02*
X159833000Y-149479500D01*
D13*
X161526000Y-157558500D02*
X160858000Y-158943500D01*
D12*
X161843000Y-154738500D02*
X161603000Y-154738500D01*
X162043000Y-155958500D02*
X161603000Y-154738500D01*
X162433000Y-149479500D02*
X161833000Y-149479500D01*
X162193000Y-155018500D02*
X162123000Y-155018500D01*
X162253000Y-156088500D02*
X162173000Y-156088500D01*
X163220000Y-154371500D02*
X163212000Y-154379500D01*
X164833000Y-149479500D02*
X163833000Y-149479500D01*
X164674000Y-152908500D02*
X164392000Y-153192500D01*
X164783000Y-154228500D02*
X164813000Y-154228500D01*
X165033000Y-154448500D02*
X165033000Y-155708500D01*
D13*
X158688297Y-157559565D02*
G75*
G02*
X155183001Y-155708499I1314704J6734066D01*
G01*
D12*
X157962096Y-156088082D02*
G75*
G02*
X155402000Y-154228500I3035904J6871582D01*
G01*
X155183000Y-154448473D02*
G75*
G02*
X155403000Y-154228500I220000J-27D01*
G01*
X158022448Y-155018294D02*
G75*
G02*
X157004000Y-154379500I1438560J3424805D01*
G01*
X158173000Y-155958475D02*
G75*
G02*
X158043000Y-156088500I-130000J-25D01*
G01*
X158223000Y-154888525D02*
G75*
G02*
X158093000Y-155018500I-130000J25D01*
G01*
X158223000Y-154888526D02*
G75*
G02*
X158373000Y-154738500I150000J26D01*
G01*
D13*
X165033044Y-155707727D02*
G75*
G02*
X161528000Y-157559499I-4821044J4882227D01*
G01*
D12*
X161843000Y-154738500D02*
G75*
G02*
X161993000Y-154888500I0J-150000D01*
G01*
X162123000Y-155018500D02*
G75*
G02*
X161993000Y-154888500I0J130000D01*
G01*
X162173000Y-156088500D02*
G75*
G02*
X162043000Y-155958500I0J130000D01*
G01*
X163211539Y-154379509D02*
G75*
G02*
X162193000Y-155018500I-2457539J2786009D01*
G01*
X164813346Y-154228743D02*
G75*
G02*
X162253000Y-156088499I-5596349J5012247D01*
G01*
X164813000Y-154228500D02*
G75*
G02*
X165033000Y-154448500I0J-220000D01*
G01*
%TO.C,SW4*%
X141183000Y-154448500D02*
X141183000Y-155708500D01*
X141433000Y-154228500D02*
X141403000Y-154228500D01*
X142433000Y-149479500D02*
X141433000Y-149479500D01*
X141586000Y-152908500D02*
X141866000Y-153199500D01*
X144433000Y-149479500D02*
X143833000Y-149479500D01*
X143963000Y-156088500D02*
X144043000Y-156088500D01*
X144023000Y-155018500D02*
X144093000Y-155018500D01*
X144173000Y-155958500D02*
X144613000Y-154738500D01*
X144373000Y-154738500D02*
X144613000Y-154738500D01*
D13*
X146858000Y-158943500D02*
X145357000Y-158943500D01*
X144731000Y-157562500D02*
X145358000Y-158944500D01*
D12*
X146433000Y-149479500D02*
X145833000Y-149479500D01*
D13*
X147526000Y-157558500D02*
X146858000Y-158943500D01*
D12*
X147843000Y-154738500D02*
X147603000Y-154738500D01*
X148043000Y-155958500D02*
X147603000Y-154738500D01*
X148433000Y-149479500D02*
X147833000Y-149479500D01*
X148193000Y-155018500D02*
X148123000Y-155018500D01*
X148253000Y-156088500D02*
X148173000Y-156088500D01*
X149220000Y-154371500D02*
X149212000Y-154379500D01*
X150833000Y-149479500D02*
X149833000Y-149479500D01*
X150674000Y-152908500D02*
X150392000Y-153192500D01*
X150783000Y-154228500D02*
X150813000Y-154228500D01*
X151033000Y-154448500D02*
X151033000Y-155708500D01*
D13*
X144688297Y-157559565D02*
G75*
G02*
X141183001Y-155708499I1314704J6734066D01*
G01*
D12*
X143962096Y-156088082D02*
G75*
G02*
X141402000Y-154228500I3035904J6871582D01*
G01*
X141183000Y-154448473D02*
G75*
G02*
X141403000Y-154228500I220000J-27D01*
G01*
X144022448Y-155018294D02*
G75*
G02*
X143004000Y-154379500I1438560J3424805D01*
G01*
X144173000Y-155958475D02*
G75*
G02*
X144043000Y-156088500I-130000J-25D01*
G01*
X144223000Y-154888525D02*
G75*
G02*
X144093000Y-155018500I-130000J25D01*
G01*
X144223000Y-154888526D02*
G75*
G02*
X144373000Y-154738500I150000J26D01*
G01*
D13*
X151033044Y-155707727D02*
G75*
G02*
X147528000Y-157559499I-4821044J4882227D01*
G01*
D12*
X147843000Y-154738500D02*
G75*
G02*
X147993000Y-154888500I0J-150000D01*
G01*
X148123000Y-155018500D02*
G75*
G02*
X147993000Y-154888500I0J130000D01*
G01*
X148173000Y-156088500D02*
G75*
G02*
X148043000Y-155958500I0J130000D01*
G01*
X149211539Y-154379509D02*
G75*
G02*
X148193000Y-155018500I-2457539J2786009D01*
G01*
X150813346Y-154228743D02*
G75*
G02*
X148253000Y-156088499I-5596349J5012247D01*
G01*
X150813000Y-154228500D02*
G75*
G02*
X151033000Y-154448500I0J-220000D01*
G01*
%TO.C,SW3*%
X127171000Y-154882000D02*
X127171000Y-156142000D01*
X127421000Y-154662000D02*
X127391000Y-154662000D01*
X128421000Y-149913000D02*
X127421000Y-149913000D01*
X127574000Y-153342000D02*
X127854000Y-153633000D01*
X130421000Y-149913000D02*
X129821000Y-149913000D01*
X129951000Y-156522000D02*
X130031000Y-156522000D01*
X130011000Y-155452000D02*
X130081000Y-155452000D01*
X130161000Y-156392000D02*
X130601000Y-155172000D01*
X130361000Y-155172000D02*
X130601000Y-155172000D01*
D13*
X132846000Y-159377000D02*
X131345000Y-159377000D01*
X130719000Y-157996000D02*
X131346000Y-159378000D01*
D12*
X132421000Y-149913000D02*
X131821000Y-149913000D01*
D13*
X133514000Y-157992000D02*
X132846000Y-159377000D01*
D12*
X133831000Y-155172000D02*
X133591000Y-155172000D01*
X134031000Y-156392000D02*
X133591000Y-155172000D01*
X134421000Y-149913000D02*
X133821000Y-149913000D01*
X134181000Y-155452000D02*
X134111000Y-155452000D01*
X134241000Y-156522000D02*
X134161000Y-156522000D01*
X135208000Y-154805000D02*
X135200000Y-154813000D01*
X136821000Y-149913000D02*
X135821000Y-149913000D01*
X136662000Y-153342000D02*
X136380000Y-153626000D01*
X136771000Y-154662000D02*
X136801000Y-154662000D01*
X137021000Y-154882000D02*
X137021000Y-156142000D01*
D13*
X130676297Y-157993065D02*
G75*
G02*
X127171001Y-156141999I1314704J6734066D01*
G01*
D12*
X129950096Y-156521582D02*
G75*
G02*
X127390000Y-154662000I3035904J6871582D01*
G01*
X127171000Y-154881973D02*
G75*
G02*
X127391000Y-154662000I220000J-27D01*
G01*
X130010448Y-155451794D02*
G75*
G02*
X128992000Y-154813000I1438560J3424805D01*
G01*
X130161000Y-156391975D02*
G75*
G02*
X130031000Y-156522000I-130000J-25D01*
G01*
X130211000Y-155322025D02*
G75*
G02*
X130081000Y-155452000I-130000J25D01*
G01*
X130211000Y-155322026D02*
G75*
G02*
X130361000Y-155172000I150000J26D01*
G01*
D13*
X137021044Y-156141227D02*
G75*
G02*
X133516000Y-157992999I-4821044J4882227D01*
G01*
D12*
X133831000Y-155172000D02*
G75*
G02*
X133981000Y-155322000I0J-150000D01*
G01*
X134111000Y-155452000D02*
G75*
G02*
X133981000Y-155322000I0J130000D01*
G01*
X134161000Y-156522000D02*
G75*
G02*
X134031000Y-156392000I0J130000D01*
G01*
X135199539Y-154813009D02*
G75*
G02*
X134181000Y-155452000I-2457539J2786009D01*
G01*
X136801346Y-154662243D02*
G75*
G02*
X134241000Y-156521999I-5596349J5012247D01*
G01*
X136801000Y-154662000D02*
G75*
G02*
X137021000Y-154882000I0J-220000D01*
G01*
%TO.C,SW2*%
X113171000Y-154882000D02*
X113171000Y-156142000D01*
X113421000Y-154662000D02*
X113391000Y-154662000D01*
X114421000Y-149913000D02*
X113421000Y-149913000D01*
X113574000Y-153342000D02*
X113854000Y-153633000D01*
X116421000Y-149913000D02*
X115821000Y-149913000D01*
X115951000Y-156522000D02*
X116031000Y-156522000D01*
X116011000Y-155452000D02*
X116081000Y-155452000D01*
X116161000Y-156392000D02*
X116601000Y-155172000D01*
X116361000Y-155172000D02*
X116601000Y-155172000D01*
D13*
X118846000Y-159377000D02*
X117345000Y-159377000D01*
X116719000Y-157996000D02*
X117346000Y-159378000D01*
D12*
X118421000Y-149913000D02*
X117821000Y-149913000D01*
D13*
X119514000Y-157992000D02*
X118846000Y-159377000D01*
D12*
X119831000Y-155172000D02*
X119591000Y-155172000D01*
X120031000Y-156392000D02*
X119591000Y-155172000D01*
X120421000Y-149913000D02*
X119821000Y-149913000D01*
X120181000Y-155452000D02*
X120111000Y-155452000D01*
X120241000Y-156522000D02*
X120161000Y-156522000D01*
X121208000Y-154805000D02*
X121200000Y-154813000D01*
X122821000Y-149913000D02*
X121821000Y-149913000D01*
X122662000Y-153342000D02*
X122380000Y-153626000D01*
X122771000Y-154662000D02*
X122801000Y-154662000D01*
X123021000Y-154882000D02*
X123021000Y-156142000D01*
D13*
X116676297Y-157993065D02*
G75*
G02*
X113171001Y-156141999I1314704J6734066D01*
G01*
D12*
X115950096Y-156521582D02*
G75*
G02*
X113390000Y-154662000I3035904J6871582D01*
G01*
X113171000Y-154881973D02*
G75*
G02*
X113391000Y-154662000I220000J-27D01*
G01*
X116010448Y-155451794D02*
G75*
G02*
X114992000Y-154813000I1438560J3424805D01*
G01*
X116161000Y-156391975D02*
G75*
G02*
X116031000Y-156522000I-130000J-25D01*
G01*
X116211000Y-155322025D02*
G75*
G02*
X116081000Y-155452000I-130000J25D01*
G01*
X116211000Y-155322026D02*
G75*
G02*
X116361000Y-155172000I150000J26D01*
G01*
D13*
X123021044Y-156141227D02*
G75*
G02*
X119516000Y-157992999I-4821044J4882227D01*
G01*
D12*
X119831000Y-155172000D02*
G75*
G02*
X119981000Y-155322000I0J-150000D01*
G01*
X120111000Y-155452000D02*
G75*
G02*
X119981000Y-155322000I0J130000D01*
G01*
X120161000Y-156522000D02*
G75*
G02*
X120031000Y-156392000I0J130000D01*
G01*
X121199539Y-154813009D02*
G75*
G02*
X120181000Y-155452000I-2457539J2786009D01*
G01*
X122801346Y-154662243D02*
G75*
G02*
X120241000Y-156521999I-5596349J5012247D01*
G01*
X122801000Y-154662000D02*
G75*
G02*
X123021000Y-154882000I0J-220000D01*
G01*
%TO.C,SW1*%
X99171000Y-154882000D02*
X99171000Y-156142000D01*
X99421000Y-154662000D02*
X99391000Y-154662000D01*
X99574000Y-153342000D02*
X99854000Y-153633000D01*
X100421000Y-149913000D02*
X99421000Y-149913000D01*
X101951000Y-156522000D02*
X102031000Y-156522000D01*
X102011000Y-155452000D02*
X102081000Y-155452000D01*
X102161000Y-156392000D02*
X102601000Y-155172000D01*
X102361000Y-155172000D02*
X102601000Y-155172000D01*
X102421000Y-149913000D02*
X101821000Y-149913000D01*
D13*
X102719000Y-157996000D02*
X103346000Y-159378000D01*
D12*
X104421000Y-149913000D02*
X103821000Y-149913000D01*
D13*
X104846000Y-159377000D02*
X103345000Y-159377000D01*
X105514000Y-157992000D02*
X104846000Y-159377000D01*
D12*
X105831000Y-155172000D02*
X105591000Y-155172000D01*
X106031000Y-156392000D02*
X105591000Y-155172000D01*
X106181000Y-155452000D02*
X106111000Y-155452000D01*
X106241000Y-156522000D02*
X106161000Y-156522000D01*
X106421000Y-149913000D02*
X105821000Y-149913000D01*
X107208000Y-154805000D02*
X107200000Y-154813000D01*
X108662000Y-153342000D02*
X108380000Y-153626000D01*
X108771000Y-154662000D02*
X108801000Y-154662000D01*
X108821000Y-149913000D02*
X107821000Y-149913000D01*
X109021000Y-154882000D02*
X109021000Y-156142000D01*
X99171000Y-154881973D02*
G75*
G02*
X99391000Y-154662000I220000J-27D01*
G01*
X101950096Y-156521582D02*
G75*
G02*
X99390000Y-154662000I3035904J6871582D01*
G01*
X102010448Y-155451794D02*
G75*
G02*
X100992000Y-154813000I1438560J3424805D01*
G01*
X102161000Y-156391975D02*
G75*
G02*
X102031000Y-156522000I-130000J-25D01*
G01*
X102211000Y-155322025D02*
G75*
G02*
X102081000Y-155452000I-130000J25D01*
G01*
X102211000Y-155322026D02*
G75*
G02*
X102361000Y-155172000I150000J26D01*
G01*
D13*
X102676297Y-157993065D02*
G75*
G02*
X99171001Y-156141999I1314704J6734066D01*
G01*
D12*
X105831000Y-155172000D02*
G75*
G02*
X105981000Y-155322000I0J-150000D01*
G01*
X106111000Y-155452000D02*
G75*
G02*
X105981000Y-155322000I0J130000D01*
G01*
X106161000Y-156522000D02*
G75*
G02*
X106031000Y-156392000I0J130000D01*
G01*
X107199539Y-154813009D02*
G75*
G02*
X106181000Y-155452000I-2457539J2786009D01*
G01*
X108801000Y-154662000D02*
G75*
G02*
X109021000Y-154882000I0J-220000D01*
G01*
X108801346Y-154662243D02*
G75*
G02*
X106241000Y-156521999I-5596349J5012247D01*
G01*
D13*
X109021044Y-156141227D02*
G75*
G02*
X105516000Y-157992999I-4821044J4882227D01*
G01*
D12*
%TO.C,K1*%
X105779000Y-66322000D02*
X116179000Y-66322000D01*
X116179000Y-66342000D02*
X116179000Y-81742000D01*
X105769000Y-81742000D02*
X116169000Y-81742000D01*
X105769000Y-66322000D02*
X105769000Y-81722000D01*
D14*
%TO.C,D8*%
X136140000Y-102108000D02*
X136140000Y-103058000D01*
%TO.C,R23*%
X150140936Y-123725000D02*
X150595064Y-123725000D01*
X150140936Y-125195000D02*
X150595064Y-125195000D01*
%TO.C,D2*%
X148187000Y-77055000D02*
X148187000Y-79715000D01*
X148187000Y-79715000D02*
X149887000Y-79715000D01*
X149887000Y-77055000D02*
X149887000Y-79715000D01*
%TO.C,R7*%
X143991064Y-65813000D02*
X143536936Y-65813000D01*
X143991064Y-67283000D02*
X143536936Y-67283000D01*
%TO.C,D12*%
X127885000Y-102109000D02*
X127885000Y-103059000D01*
%TO.C,C7*%
X108160452Y-88038000D02*
X107637948Y-88038000D01*
X108160452Y-89508000D02*
X107637948Y-89508000D01*
%TO.C,C21*%
X159011252Y-57685000D02*
X158488748Y-57685000D01*
X159011252Y-59155000D02*
X158488748Y-59155000D01*
%TO.C,C16*%
X159011252Y-55145000D02*
X158488748Y-55145000D01*
X159011252Y-56615000D02*
X158488748Y-56615000D01*
%TO.C,R18*%
X108050064Y-96166000D02*
X107595936Y-96166000D01*
X108050064Y-97636000D02*
X107595936Y-97636000D01*
%TO.C,C22*%
X159011252Y-52605000D02*
X158488748Y-52605000D01*
X159011252Y-54075000D02*
X158488748Y-54075000D01*
%TO.C,D22*%
X119550000Y-127880000D02*
X119550000Y-126930000D01*
%TO.C,R27*%
X150140936Y-121185000D02*
X150595064Y-121185000D01*
X150140936Y-122655000D02*
X150595064Y-122655000D01*
%TO.C,R15*%
X124589464Y-79230100D02*
X124135336Y-79230100D01*
X124589464Y-80700100D02*
X124135336Y-80700100D01*
%TO.C,R12*%
X142873464Y-86346400D02*
X142419336Y-86346400D01*
X142873464Y-87816400D02*
X142419336Y-87816400D01*
%TO.C,R25*%
X150140936Y-126265000D02*
X150595064Y-126265000D01*
X150140936Y-127735000D02*
X150595064Y-127735000D01*
%TO.C,D9*%
X119950000Y-113320000D02*
X119950000Y-114270000D01*
%TO.C,U1*%
X122755000Y-47367000D02*
X140755000Y-47367000D01*
X122755000Y-54117000D02*
X122755000Y-47367000D01*
X122755000Y-72867000D02*
X122755000Y-72117000D01*
X123755000Y-72867000D02*
X122755000Y-72867000D01*
X139755000Y-72867000D02*
X140755000Y-72867000D01*
X140755000Y-53367000D02*
X122755000Y-53367000D01*
X140755000Y-54117000D02*
X140755000Y-47367000D01*
X140755000Y-72867000D02*
X140755000Y-72117000D01*
%TO.C,Q1*%
X129090500Y-86757500D02*
X130765500Y-86757500D01*
X130115500Y-83637500D02*
X130765500Y-83637500D01*
X131415500Y-83637500D02*
X130765500Y-83637500D01*
X131415500Y-86757500D02*
X130765500Y-86757500D01*
%TO.C,Q3*%
X117792500Y-75082000D02*
X118442500Y-75082000D01*
X117792500Y-78202000D02*
X118442500Y-78202000D01*
X119092500Y-78202000D02*
X118442500Y-78202000D01*
X120117500Y-75082000D02*
X118442500Y-75082000D01*
D15*
%TO.C,J5*%
X108113000Y-100007000D02*
X109663000Y-100007000D01*
X108113000Y-102707000D02*
X108113000Y-100007000D01*
X108113000Y-105407000D02*
X108113000Y-106007000D01*
X108113000Y-106007000D02*
X114113000Y-106007000D01*
X114113000Y-100007000D02*
X112563000Y-100007000D01*
X114113000Y-102707000D02*
X114113000Y-100007000D01*
X114113000Y-106007000D02*
X114113000Y-105407000D01*
D10*
X112013000Y-98557000D02*
G75*
G02*
X112013000Y-98557000I-100000J0D01*
G01*
D14*
%TO.C,R8*%
X118645000Y-71805436D02*
X118645000Y-72259564D01*
X120115000Y-71805436D02*
X120115000Y-72259564D01*
%TO.C,C13*%
X107627748Y-92120750D02*
X108150252Y-92120750D01*
X107627748Y-93590750D02*
X108150252Y-93590750D01*
%TO.C,R20*%
X124538664Y-81287500D02*
X124084536Y-81287500D01*
X124538664Y-82757500D02*
X124084536Y-82757500D01*
%TO.C,R6*%
X142521000Y-56668936D02*
X142521000Y-57123064D01*
X143991000Y-56668936D02*
X143991000Y-57123064D01*
%TO.C,C5*%
X145837148Y-87532900D02*
X146359652Y-87532900D01*
X145837148Y-89002900D02*
X146359652Y-89002900D01*
%TO.C,U2*%
X144538400Y-83292900D02*
X144538400Y-85092900D01*
X144538400Y-85892900D02*
X144538400Y-85092900D01*
X147658400Y-84292900D02*
X147658400Y-85092900D01*
X147658400Y-85892900D02*
X147658400Y-85092900D01*
%TO.C,C10*%
X142385148Y-82155400D02*
X142907652Y-82155400D01*
X142385148Y-83625400D02*
X142907652Y-83625400D01*
%TO.C,R22*%
X157580064Y-63527000D02*
X157125936Y-63527000D01*
X157580064Y-64997000D02*
X157125936Y-64997000D01*
%TO.C,D17*%
X143350000Y-127730000D02*
X143350000Y-126780000D01*
%TO.C,R16*%
X127031000Y-85424564D02*
X127031000Y-84970436D01*
X128501000Y-85424564D02*
X128501000Y-84970436D01*
%TO.C,R19*%
X108116064Y-94152750D02*
X107661936Y-94152750D01*
X108116064Y-95622750D02*
X107661936Y-95622750D01*
%TO.C,D3*%
X149330000Y-70070000D02*
X149330000Y-72730000D01*
X149330000Y-72730000D02*
X151030000Y-72730000D01*
X151030000Y-70070000D02*
X151030000Y-72730000D01*
%TO.C,R30*%
X162250936Y-117003000D02*
X162705064Y-117003000D01*
X162250936Y-118473000D02*
X162705064Y-118473000D01*
%TO.C,D15*%
X131450000Y-143080000D02*
X131450000Y-142130000D01*
%TO.C,R29*%
X162250936Y-119035000D02*
X162705064Y-119035000D01*
X162250936Y-120505000D02*
X162705064Y-120505000D01*
%TO.C,D20*%
X135500000Y-127530000D02*
X135500000Y-126580000D01*
%TO.C,R28*%
X162250936Y-121067000D02*
X162705064Y-121067000D01*
X162250936Y-122537000D02*
X162705064Y-122537000D01*
%TO.C,R24*%
X150140936Y-116105000D02*
X150595064Y-116105000D01*
X150140936Y-117575000D02*
X150595064Y-117575000D01*
%TO.C,D5*%
X128050000Y-113320000D02*
X128050000Y-114270000D01*
%TO.C,C19*%
X159966252Y-69115000D02*
X159443748Y-69115000D01*
X159966252Y-70585000D02*
X159443748Y-70585000D01*
%TO.C,Q2*%
X158030000Y-77125000D02*
X159705000Y-77125000D01*
X159055000Y-74005000D02*
X159705000Y-74005000D01*
X160355000Y-74005000D02*
X159705000Y-74005000D01*
X160355000Y-77125000D02*
X159705000Y-77125000D01*
%TO.C,D1*%
X120511200Y-83125600D02*
X120511200Y-85785600D01*
X120511200Y-85785600D02*
X122211200Y-85785600D01*
X122211200Y-83125600D02*
X122211200Y-85785600D01*
%TO.C,J1*%
X160255000Y-88353000D02*
X160255000Y-93053000D01*
X160255000Y-93053000D02*
X166655000Y-93053000D01*
X167355000Y-88353000D02*
X160255000Y-88353000D01*
X167355000Y-92353000D02*
X167355000Y-88353000D01*
D11*
X167715555Y-93053000D02*
G75*
G02*
X167715555Y-93053000I-360555J0D01*
G01*
D16*
X167715555Y-93053000D02*
X167455000Y-93353000D01*
X167055000Y-93253000D01*
X167155000Y-92753000D01*
X167555000Y-92753000D01*
X167715555Y-93053000D01*
G36*
X167715555Y-93053000D02*
G01*
X167455000Y-93353000D01*
X167055000Y-93253000D01*
X167155000Y-92753000D01*
X167555000Y-92753000D01*
X167715555Y-93053000D01*
G37*
D14*
%TO.C,D4*%
X153140000Y-72170000D02*
X153140000Y-69510000D01*
X154840000Y-69510000D02*
X153140000Y-69510000D01*
X154840000Y-72170000D02*
X154840000Y-69510000D01*
%TO.C,R10*%
X143536936Y-71909000D02*
X143991064Y-71909000D01*
X143536936Y-73379000D02*
X143991064Y-73379000D01*
%TO.C,R26*%
X150140936Y-118645000D02*
X150595064Y-118645000D01*
X150140936Y-120115000D02*
X150595064Y-120115000D01*
%TO.C,D14*%
X131950000Y-107870000D02*
X131950000Y-108820000D01*
%TO.C,D13*%
X140050000Y-107825000D02*
X140050000Y-108775000D01*
%TO.C,J4*%
X95390000Y-95140000D02*
X97390000Y-95140000D01*
X95390000Y-85740000D02*
X97390000Y-85740000D01*
X91590000Y-95140000D02*
X93490000Y-95140000D01*
X91590000Y-85740000D02*
X93490000Y-85740000D01*
X91590000Y-85740000D02*
X91590000Y-95140000D01*
%TO.C,R4*%
X102635000Y-92752936D02*
X102635000Y-93207064D01*
X101165000Y-92752936D02*
X101165000Y-93207064D01*
%TO.C,L1*%
X144617400Y-82901400D02*
X144667400Y-82901400D01*
X146517400Y-81101400D02*
X144617400Y-81101400D01*
X146517400Y-82901400D02*
X144667400Y-82901400D01*
%TO.C,J6*%
X163150000Y-59840000D02*
X164350000Y-59840000D01*
X164350000Y-58350000D02*
X164350000Y-59840000D01*
X164350000Y-73650000D02*
X164350000Y-72160000D01*
X165690000Y-58350000D02*
X164350000Y-58350000D01*
X165690000Y-73650000D02*
X164350000Y-73650000D01*
X168410000Y-73650000D02*
X170150000Y-73650000D01*
X170150000Y-58350000D02*
X168410000Y-58350000D01*
X170150000Y-73650000D02*
X170150000Y-58350000D01*
%TO.C,C2*%
X154165000Y-118138748D02*
X154165000Y-118661252D01*
X155635000Y-118138748D02*
X155635000Y-118661252D01*
%TO.C,R13*%
X111606064Y-89562000D02*
X111151936Y-89562000D01*
X111606064Y-91032000D02*
X111151936Y-91032000D01*
%TO.C,D16*%
X139450000Y-132700000D02*
X139450000Y-131750000D01*
%TO.C,U3*%
X109819000Y-92920500D02*
X109819000Y-93720500D01*
X109819000Y-94520500D02*
X109819000Y-93720500D01*
X112939000Y-92920500D02*
X112939000Y-93720500D01*
X112939000Y-95520500D02*
X112939000Y-93720500D01*
%TO.C,R43*%
X162250936Y-123099000D02*
X162705064Y-123099000D01*
X162250936Y-124569000D02*
X162705064Y-124569000D01*
%TO.C,C18*%
X159966252Y-71655000D02*
X159443748Y-71655000D01*
X159966252Y-73125000D02*
X159443748Y-73125000D01*
%TO.C,D10*%
X135900000Y-113370000D02*
X135900000Y-114320000D01*
%TO.C,C11*%
X142385148Y-80123400D02*
X142907652Y-80123400D01*
X142385148Y-81593400D02*
X142907652Y-81593400D01*
%TO.C,C1*%
X144603800Y-56634748D02*
X144603800Y-57157252D01*
X146073800Y-56634748D02*
X146073800Y-57157252D01*
%TO.C,R14*%
X115162064Y-94134000D02*
X114707936Y-94134000D01*
X115162064Y-95604000D02*
X114707936Y-95604000D01*
%TO.C,D24*%
X123650000Y-133030000D02*
X123650000Y-132080000D01*
%TO.C,D23*%
X127550000Y-137930000D02*
X127550000Y-136980000D01*
%TO.C,C8*%
X142907652Y-84187400D02*
X142385148Y-84187400D01*
X142907652Y-85657400D02*
X142385148Y-85657400D01*
%TO.C,L2*%
X158345000Y-79407936D02*
X158345000Y-80612064D01*
X161065000Y-79407936D02*
X161065000Y-80612064D01*
%TO.C,R3*%
X160227064Y-94265000D02*
X159772936Y-94265000D01*
X160227064Y-95735000D02*
X159772936Y-95735000D01*
%TO.C,R21*%
X154847064Y-76227000D02*
X154392936Y-76227000D01*
X154847064Y-77697000D02*
X154392936Y-77697000D01*
%TO.C,C20*%
X157761000Y-61206748D02*
X157761000Y-61729252D01*
X159231000Y-61206748D02*
X159231000Y-61729252D01*
%TO.C,D21*%
X127700000Y-127530000D02*
X127700000Y-126580000D01*
%TO.C,D25*%
X116752000Y-80738000D02*
X116752000Y-83398000D01*
X116752000Y-83398000D02*
X118452000Y-83398000D01*
X118452000Y-80738000D02*
X118452000Y-83398000D01*
%TO.C,R9*%
X143536936Y-75465000D02*
X143991064Y-75465000D01*
X143536936Y-76935000D02*
X143991064Y-76935000D01*
%TO.C,C23*%
X159011252Y-47525000D02*
X158488748Y-47525000D01*
X159011252Y-48995000D02*
X158488748Y-48995000D01*
%TO.C,C4*%
X143502748Y-68353000D02*
X144025252Y-68353000D01*
X143502748Y-69823000D02*
X144025252Y-69823000D01*
%TO.C,C9*%
X108150252Y-90070000D02*
X107627748Y-90070000D01*
X108150252Y-91540000D02*
X107627748Y-91540000D01*
%TO.C,D18*%
X131550000Y-132700000D02*
X131550000Y-131750000D01*
%TO.C,D6*%
X144067000Y-113317000D02*
X144067000Y-114267000D01*
%TO.C,C15*%
X158488748Y-50065000D02*
X159011252Y-50065000D01*
X158488748Y-51535000D02*
X159011252Y-51535000D01*
%TO.C,R31*%
X98490936Y-66341000D02*
X98945064Y-66341000D01*
X98490936Y-67811000D02*
X98945064Y-67811000D01*
%TO.C,C6*%
X145837148Y-89691900D02*
X146359652Y-89691900D01*
X145837148Y-91161900D02*
X146359652Y-91161900D01*
%TO.C,R2*%
X160227064Y-96297000D02*
X159772936Y-96297000D01*
X160227064Y-97767000D02*
X159772936Y-97767000D01*
%TO.C,C17*%
X152681000Y-61729252D02*
X152681000Y-61206748D01*
X154151000Y-61729252D02*
X154151000Y-61206748D01*
%TO.C,C12*%
X111640252Y-96166000D02*
X111117748Y-96166000D01*
X111640252Y-97636000D02*
X111117748Y-97636000D01*
%TO.C,SW6*%
X91170000Y-68900000D02*
X91170000Y-69800000D01*
X91170000Y-68900000D02*
X91380000Y-68700000D01*
X91170000Y-69800000D02*
X91380000Y-70000000D01*
X91380000Y-70000000D02*
X92670000Y-70000000D01*
X92670000Y-65750000D02*
X92670000Y-71450000D01*
X92670000Y-68700000D02*
X91380000Y-68700000D01*
X93680000Y-72050000D02*
X94470000Y-72050000D01*
X94470000Y-65150000D02*
X93680000Y-65150000D01*
X95520000Y-67000000D02*
X95520000Y-67200000D01*
X95520000Y-68500000D02*
X95520000Y-70200000D01*
%TO.C,R11*%
X142673400Y-89975464D02*
X142673400Y-89521336D01*
X144143400Y-89975464D02*
X144143400Y-89521336D01*
%TO.C,R1*%
X106961000Y-54382936D02*
X106961000Y-54837064D01*
X108431000Y-54382936D02*
X108431000Y-54837064D01*
%TO.C,J3*%
X92289000Y-48780000D02*
X93089000Y-48780000D01*
X92289000Y-50430000D02*
X92289000Y-48780000D01*
X92339000Y-61530000D02*
X93089000Y-60780000D01*
X92339000Y-62880000D02*
X92339000Y-61530000D01*
X93039000Y-62880000D02*
X92339000Y-62880000D01*
X93089000Y-51230000D02*
X92289000Y-50430000D01*
X93089000Y-60780000D02*
X93089000Y-51230000D01*
X95389000Y-48780000D02*
X101339000Y-48780000D01*
X101239000Y-62880000D02*
X95439000Y-62880000D01*
X103689000Y-48830000D02*
X106339000Y-48830000D01*
X106339000Y-48830000D02*
X106339000Y-62830000D01*
X106339000Y-62830000D02*
X103639000Y-62830000D01*
%TO.C,R17*%
X124411664Y-87891500D02*
X123957536Y-87891500D01*
X124411664Y-89361500D02*
X123957536Y-89361500D01*
%TO.C,F1*%
X101290000Y-83358578D02*
X101290000Y-82841422D01*
X102710000Y-83358578D02*
X102710000Y-82841422D01*
%TO.C,D7*%
X132330000Y-96013000D02*
X132330000Y-96963000D01*
%TO.C,C14*%
X154947252Y-74195000D02*
X154424748Y-74195000D01*
X154947252Y-75665000D02*
X154424748Y-75665000D01*
%TO.C,D11*%
X124075000Y-107570000D02*
X124075000Y-108520000D01*
%TO.C,R5*%
X102635000Y-88127064D02*
X102635000Y-87672936D01*
X101165000Y-88127064D02*
X101165000Y-87672936D01*
%TO.C,U5*%
X156706000Y-118316000D02*
X156706000Y-118766000D01*
X157156000Y-118316000D02*
X156706000Y-118316000D01*
X157156000Y-121536000D02*
X156706000Y-121536000D01*
X159476000Y-118316000D02*
X159926000Y-118316000D01*
X159476000Y-121536000D02*
X159926000Y-121536000D01*
X159926000Y-118316000D02*
X159926000Y-118766000D01*
X159926000Y-121536000D02*
X159926000Y-121086000D01*
%TO.C,J2*%
X107352000Y-63440000D02*
X107352000Y-66100000D01*
X107352000Y-63440000D02*
X112492000Y-63440000D01*
X107352000Y-66100000D02*
X112492000Y-66100000D01*
X112492000Y-63440000D02*
X112492000Y-66100000D01*
X115092000Y-64770000D02*
X115092000Y-66100000D01*
X115092000Y-66100000D02*
X113762000Y-66100000D01*
%TO.C,D19*%
X135600000Y-137830000D02*
X135600000Y-136880000D01*
%TO.C,U4*%
X122624600Y-83524500D02*
X122624600Y-85324500D01*
X122624600Y-86124500D02*
X122624600Y-85324500D01*
X125744600Y-84524500D02*
X125744600Y-85324500D01*
X125744600Y-86124500D02*
X125744600Y-85324500D01*
%TD*%
M02*
