M48
; DRILL file {KiCad 7.99.0-3134-gf47cc39208} date 2023-10-18T21:54:18+0100
; FORMAT={-:-/ absolute / inch / decimal}
; #@! TF.CreationDate,2023-10-18T21:54:18+01:00
; #@! TF.GenerationSoftware,Kicad,Pcbnew,7.99.0-3134-gf47cc39208
; #@! TF.FileFunction,Plated,1,2,PTH
FMAT,2
INCH
; #@! TA.AperFunction,Plated,PTH,ViaDrill
T1C0.0118
; #@! TA.AperFunction,Plated,PTH,ComponentDrill
T2C0.0236
; #@! TA.AperFunction,Plated,PTH,ComponentDrill
T3C0.0394
; #@! TA.AperFunction,Plated,PTH,ComponentDrill
T4C0.0512
%
G90
G05
T1
X3.9688Y-3.5775
X3.9718Y-3.5276
X4.0157Y-5.9252
X4.0311Y-2.161
X4.063Y-3.2677
X4.063Y-3.3307
X4.0717Y-3.2323
X4.08Y-2.08
X4.0949Y-3.2008
X4.24Y-3.52
X4.26Y-3.42
X4.266Y-3.334
X4.2913Y-2.27
X4.3044Y-2.1744
X4.3386Y-2.9842
X4.3701Y-2.8465
X4.46Y-2.27
X4.46Y-3.6
X4.52Y-3.5
X4.56Y-2.88
X4.5669Y-5.9252
X4.6358Y-2.687
X4.64Y-2.9
X4.6457Y-2.7165
X4.66Y-3.28
X4.7244Y-2.4803
X4.74Y-2.84
X4.7464Y-2.5023
X4.7559Y-3.3321
X4.815Y-3.305
X4.83Y-2.93
X4.86Y-2.96
X4.8713Y-3.2732
X4.9918Y-5.146
X5.0Y-2.78
X5.0079Y-2.8621
X5.0079Y-2.7
X5.0157Y-5.5276
X5.0197Y-3.9961
X5.025Y-3.25
X5.03Y-2.92
X5.0321Y-2.8179
X5.0524Y-5.4948
X5.0673Y-5.1531
X5.0714Y-3.9606
X5.1181Y-5.9252
X5.2211Y-4.3864
X5.2923Y-5.2057
X5.33Y-3.338
X5.3429Y-4.3823
X5.3444Y-5.2499
X5.47Y-2.96
X5.528Y-3.218
X5.534Y-3.304
X5.54Y-2.876
X5.58Y-2.96
X5.592Y-3.482
X5.6Y-2.3355
X5.65Y-2.81
X5.6693Y-5.9055
X5.68Y-2.5355
X5.684Y-3.622
X5.6924Y-3.354
X5.702Y-3.182
X5.7047Y-4.7941
X5.7124Y-4.4252
X5.7132Y-2.55
X5.7283Y-4.7362
X5.7297Y-4.6878
X5.734Y-3.154
X5.74Y-2.44
X5.7616Y-2.5557
X5.7781Y-4.7559
X5.7795Y-4.4252
X5.81Y-2.76
X5.838Y-3.298
X5.842Y-3.51
X5.8661Y-2.5787
X5.876Y-3.188
X5.88Y-4.94
X5.9Y-2.5556
X5.9079Y-2.4827
X5.91Y-2.79
X5.92Y-5.12
X5.9252Y-2.7362
X5.99Y-2.65
X6.0056Y-2.6231
X6.0669Y-4.7441
X6.07Y-3.08
X6.1164Y-3.3536
X6.1384Y-3.3316
X6.1732Y-3.3428
X6.18Y-4.6063
X6.1861Y-5.942
X6.19Y-2.9
X6.2Y-2.7
X6.2Y-4.56
X6.2022Y-3.3539
X6.2277Y-3.3034
X6.23Y-3.34
X6.2324Y-3.9489
X6.2598Y-3.9173
X6.2719Y-4.56
X6.2795Y-4.0551
X6.2913Y-4.7717
X6.3Y-2.36
X6.31Y-4.6063
X6.3268Y-4.874
X6.3408Y-2.3192
X6.3669Y-4.8285
X6.3808Y-2.1592
X6.3963Y-4.6659
X6.4032Y-4.9268
X6.49Y-2.88
X6.58Y-2.83
T3
X4.2788Y-2.55
X4.3788Y-2.55
X4.4788Y-2.55
X6.3494Y-3.5202
X6.3494Y-3.6202
X6.4494Y-3.5202
X6.4494Y-3.6202
X6.5494Y-3.5202
X6.5494Y-3.6202
T4
X4.22Y-2.665
X4.22Y-2.765
X4.22Y-3.165
X4.52Y-2.665
X4.52Y-2.765
X4.52Y-3.165
T2
G00X3.7299Y-3.3906
M15
G01X3.7063Y-3.3906
M16
G05
G00X3.7299Y-3.7307
M15
G01X3.7063Y-3.7307
M16
G05
G00X3.9043Y-3.3906
M15
G01X3.861Y-3.3906
M16
G05
G00X3.9043Y-3.7307
M15
G01X3.861Y-3.7307
M16
G05
T0
M30
