%TF.GenerationSoftware,KiCad,Pcbnew,7.99.0-3134-gf47cc39208*%
%TF.CreationDate,2023-10-21T21:10:59+01:00*%
%TF.ProjectId,hh2024,68683230-3234-42e6-9b69-6361645f7063,rev?*%
%TF.SameCoordinates,Original*%
%TF.FileFunction,Soldermask,Top*%
%TF.FilePolarity,Negative*%
%FSLAX46Y46*%
G04 Gerber Fmt 4.6, Leading zero omitted, Abs format (unit mm)*
G04 Created by KiCad (PCBNEW 7.99.0-3134-gf47cc39208) date 2023-10-21 21:10:59*
%MOMM*%
%LPD*%
G01*
G04 APERTURE LIST*
%ADD10C,0.000000*%
%ADD11C,1.100000*%
%ADD12C,2.000000*%
%ADD13O,1.700000X1.700000*%
%ADD14C,0.650000*%
%ADD15O,1.600000X1.000000*%
%ADD16O,2.100000X1.000000*%
%ADD17C,0.900000*%
%ADD18R,1.700000X1.700000*%
G04 APERTURE END LIST*
D10*
%TO.C,G\u002A\u002A\u002A*%
G36*
X136212679Y-119497356D02*
G01*
X136340152Y-119526012D01*
X136454371Y-119584097D01*
X136551748Y-119661415D01*
X136653813Y-119771798D01*
X136720419Y-119888182D01*
X136756033Y-120020954D01*
X136765285Y-120157888D01*
X136754605Y-120305538D01*
X136718747Y-120429190D01*
X136652622Y-120542148D01*
X136589374Y-120617907D01*
X136486341Y-120711882D01*
X136375499Y-120774051D01*
X136246117Y-120809052D01*
X136120017Y-120820683D01*
X136026172Y-120822522D01*
X135958604Y-120817942D01*
X135901374Y-120804104D01*
X135838541Y-120778170D01*
X135812844Y-120765983D01*
X135674468Y-120677153D01*
X135558423Y-120558208D01*
X135477121Y-120425285D01*
X135443915Y-120315720D01*
X135430237Y-120185552D01*
X135436072Y-120051767D01*
X135461405Y-119931353D01*
X135477621Y-119889363D01*
X135566534Y-119742067D01*
X135681962Y-119627206D01*
X135821244Y-119546583D01*
X135981723Y-119502003D01*
X136060328Y-119494172D01*
X136212679Y-119497356D01*
G37*
G36*
X123989521Y-115735662D02*
G01*
X123992783Y-115770533D01*
X123998991Y-115844672D01*
X124007914Y-115955095D01*
X124019319Y-116098822D01*
X124032975Y-116272869D01*
X124048651Y-116474254D01*
X124066115Y-116699995D01*
X124085134Y-116947111D01*
X124105479Y-117212618D01*
X124126916Y-117493535D01*
X124149214Y-117786879D01*
X124164207Y-117984737D01*
X124326797Y-120133187D01*
X124163609Y-122285154D01*
X124140805Y-122585277D01*
X124118710Y-122874931D01*
X124097556Y-123151134D01*
X124077574Y-123410909D01*
X124058997Y-123651274D01*
X124042057Y-123869252D01*
X124026986Y-124061863D01*
X124014016Y-124226126D01*
X124003378Y-124359064D01*
X123995305Y-124457696D01*
X123990030Y-124519043D01*
X123988182Y-124537747D01*
X123975943Y-124638372D01*
X123825086Y-124638366D01*
X123674229Y-124638361D01*
X123500210Y-122385690D01*
X123326191Y-120133020D01*
X123500174Y-117884028D01*
X123674157Y-115635036D01*
X123825792Y-115635036D01*
X123977426Y-115635036D01*
X123989521Y-115735662D01*
G37*
G36*
X110612261Y-119495063D02*
G01*
X110668953Y-119507241D01*
X110728745Y-119530385D01*
X110745411Y-119537896D01*
X110885387Y-119618672D01*
X110993391Y-119720869D01*
X111077548Y-119852215D01*
X111079159Y-119855423D01*
X111113076Y-119929250D01*
X111132639Y-119992969D01*
X111141597Y-120064159D01*
X111143704Y-120157888D01*
X111141487Y-120253392D01*
X111132335Y-120324229D01*
X111112497Y-120387980D01*
X111079159Y-120460354D01*
X110992411Y-120596304D01*
X110880415Y-120702150D01*
X110777685Y-120765306D01*
X110692990Y-120794870D01*
X110582781Y-120813927D01*
X110462810Y-120821569D01*
X110348830Y-120816890D01*
X110256595Y-120798982D01*
X110247564Y-120795837D01*
X110127834Y-120736188D01*
X110017279Y-120653942D01*
X109944476Y-120576659D01*
X109865044Y-120439951D01*
X109820072Y-120289054D01*
X109809159Y-120132093D01*
X109831904Y-119977191D01*
X109887906Y-119832470D01*
X109976764Y-119706053D01*
X109988053Y-119694102D01*
X110086355Y-119605500D01*
X110185171Y-119546626D01*
X110297519Y-119511842D01*
X110436418Y-119495505D01*
X110447864Y-119494887D01*
X110543591Y-119491672D01*
X110612261Y-119495063D01*
G37*
G36*
X127985101Y-119495664D02*
G01*
X128078091Y-119508853D01*
X128140224Y-119524308D01*
X128239554Y-119574184D01*
X128341791Y-119652499D01*
X128434639Y-119748144D01*
X128505804Y-119850010D01*
X128510685Y-119859028D01*
X128539045Y-119918213D01*
X128556087Y-119972821D01*
X128564484Y-120037076D01*
X128566910Y-120125199D01*
X128566876Y-120157888D01*
X128564632Y-120257317D01*
X128557126Y-120328872D01*
X128541605Y-120386976D01*
X128515317Y-120446050D01*
X128509828Y-120456748D01*
X128441953Y-120558402D01*
X128350882Y-120655042D01*
X128248986Y-120735465D01*
X128148636Y-120788467D01*
X128140224Y-120791468D01*
X127991601Y-120822854D01*
X127834179Y-120822806D01*
X127683599Y-120792114D01*
X127614513Y-120764933D01*
X127476454Y-120677347D01*
X127360956Y-120559418D01*
X127279366Y-120425285D01*
X127252602Y-120349604D01*
X127238679Y-120262385D01*
X127234982Y-120157888D01*
X127239338Y-120046082D01*
X127254136Y-119960274D01*
X127279366Y-119890491D01*
X127366050Y-119747384D01*
X127481015Y-119632331D01*
X127618632Y-119549011D01*
X127773270Y-119501102D01*
X127891431Y-119490599D01*
X127985101Y-119495664D01*
G37*
G36*
X144485989Y-119495063D02*
G01*
X144542681Y-119507241D01*
X144602473Y-119530385D01*
X144619139Y-119537896D01*
X144758298Y-119618066D01*
X144865746Y-119719539D01*
X144950096Y-119850605D01*
X144955797Y-119861994D01*
X144992885Y-119944732D01*
X145013100Y-120015511D01*
X145021166Y-120095196D01*
X145022139Y-120155013D01*
X145003148Y-120326970D01*
X144947143Y-120479421D01*
X144855578Y-120609983D01*
X144729907Y-120716274D01*
X144652591Y-120760649D01*
X144574891Y-120796042D01*
X144507973Y-120815525D01*
X144432298Y-120823387D01*
X144362630Y-120824265D01*
X144271175Y-120819908D01*
X144184866Y-120809365D01*
X144122126Y-120794900D01*
X144121292Y-120794606D01*
X144052314Y-120763690D01*
X143977235Y-120721124D01*
X143955270Y-120706640D01*
X143841239Y-120603361D01*
X143757637Y-120477129D01*
X143705010Y-120335022D01*
X143683901Y-120184119D01*
X143694854Y-120031497D01*
X143738413Y-119884236D01*
X143815123Y-119749414D01*
X143876262Y-119678457D01*
X143972536Y-119595552D01*
X144072431Y-119540678D01*
X144188498Y-119508663D01*
X144321592Y-119494887D01*
X144417319Y-119491672D01*
X144485989Y-119495063D01*
G37*
G36*
X153766419Y-119495664D02*
G01*
X153859409Y-119508853D01*
X153921542Y-119524308D01*
X154020924Y-119574212D01*
X154123165Y-119652551D01*
X154215955Y-119748197D01*
X154286984Y-119850025D01*
X154291845Y-119859028D01*
X154320266Y-119918726D01*
X154337394Y-119974306D01*
X154345949Y-120040069D01*
X154348654Y-120130314D01*
X154348735Y-120157888D01*
X154347051Y-120256342D01*
X154340187Y-120326797D01*
X154325419Y-120383555D01*
X154300027Y-120440915D01*
X154291845Y-120456748D01*
X154223354Y-120558587D01*
X154132004Y-120655236D01*
X154030107Y-120735570D01*
X153929969Y-120788461D01*
X153921542Y-120791468D01*
X153772919Y-120822854D01*
X153615496Y-120822806D01*
X153464917Y-120792114D01*
X153395830Y-120764933D01*
X153257772Y-120677347D01*
X153142274Y-120559418D01*
X153060684Y-120425285D01*
X153033919Y-120349604D01*
X153019997Y-120262385D01*
X153016300Y-120157888D01*
X153020656Y-120046082D01*
X153035454Y-119960274D01*
X153060684Y-119890491D01*
X153147368Y-119747384D01*
X153262333Y-119632331D01*
X153399949Y-119549011D01*
X153554588Y-119501102D01*
X153672749Y-119490599D01*
X153766419Y-119495664D01*
G37*
G36*
X119688616Y-119497176D02*
G01*
X119750250Y-119512871D01*
X119821600Y-119541812D01*
X119827209Y-119544321D01*
X119964933Y-119627774D01*
X120081174Y-119741463D01*
X120166594Y-119876076D01*
X120172243Y-119888430D01*
X120209388Y-120015756D01*
X120220459Y-120160214D01*
X120205785Y-120305804D01*
X120165697Y-120436524D01*
X120160719Y-120447295D01*
X120072229Y-120584197D01*
X119950624Y-120697840D01*
X119821639Y-120774085D01*
X119712726Y-120808089D01*
X119582433Y-120823548D01*
X119447725Y-120819933D01*
X119325570Y-120796717D01*
X119305484Y-120790154D01*
X119213614Y-120742447D01*
X119116692Y-120667188D01*
X119026843Y-120575557D01*
X118956193Y-120478731D01*
X118943853Y-120456748D01*
X118915431Y-120397051D01*
X118898303Y-120341470D01*
X118889748Y-120275708D01*
X118887044Y-120185463D01*
X118886963Y-120157888D01*
X118888664Y-120059276D01*
X118895553Y-119988777D01*
X118910304Y-119932211D01*
X118935591Y-119875399D01*
X118942914Y-119861308D01*
X119038645Y-119716829D01*
X119154612Y-119609244D01*
X119292845Y-119537272D01*
X119455374Y-119499635D01*
X119525386Y-119494003D01*
X119619421Y-119491847D01*
X119688616Y-119497176D01*
G37*
G36*
X112033445Y-123439192D02*
G01*
X112033502Y-123597196D01*
X112034474Y-123717862D01*
X112037563Y-123806216D01*
X112043970Y-123867287D01*
X112054896Y-123906104D01*
X112071544Y-123927694D01*
X112095114Y-123937086D01*
X112126808Y-123939308D01*
X112152942Y-123939290D01*
X112188075Y-123945409D01*
X112193990Y-123957784D01*
X112169879Y-123965406D01*
X112115323Y-123970841D01*
X112040828Y-123974083D01*
X111956900Y-123975130D01*
X111874045Y-123973978D01*
X111802770Y-123970624D01*
X111753581Y-123965062D01*
X111736865Y-123957949D01*
X111755317Y-123943285D01*
X111800512Y-123929367D01*
X111808240Y-123927819D01*
X111879616Y-123914429D01*
X111890086Y-123519061D01*
X111892901Y-123394040D01*
X111894432Y-123284144D01*
X111894662Y-123196168D01*
X111893572Y-123136909D01*
X111891147Y-123113161D01*
X111891129Y-123113140D01*
X111873727Y-123120582D01*
X111844416Y-123153026D01*
X111842562Y-123155508D01*
X111791962Y-123223534D01*
X111760246Y-123263185D01*
X111740986Y-123280068D01*
X111727755Y-123279784D01*
X111714125Y-123267940D01*
X111713886Y-123267704D01*
X111711364Y-123238226D01*
X111734276Y-123190213D01*
X111775347Y-123132064D01*
X111827303Y-123072177D01*
X111882868Y-123018947D01*
X111934770Y-122980773D01*
X111975188Y-122966060D01*
X112033445Y-122964811D01*
X112033445Y-123439192D01*
G37*
G36*
X152315745Y-122966998D02*
G01*
X152413434Y-123025970D01*
X152497225Y-123124471D01*
X152529273Y-123180601D01*
X152569141Y-123295313D01*
X152587023Y-123428326D01*
X152582412Y-123563064D01*
X152554802Y-123682948D01*
X152545331Y-123706262D01*
X152483267Y-123804563D01*
X152394600Y-123894846D01*
X152294550Y-123962327D01*
X152269986Y-123973716D01*
X152213413Y-123994506D01*
X152167927Y-123999690D01*
X152115156Y-123989032D01*
X152061218Y-123971021D01*
X151967086Y-123918476D01*
X151885501Y-123837947D01*
X151829340Y-123743135D01*
X151819265Y-123713558D01*
X151808558Y-123653416D01*
X151800556Y-123567402D01*
X151796687Y-123471993D01*
X151796532Y-123451243D01*
X151802068Y-123373846D01*
X151926442Y-123373846D01*
X151929405Y-123474969D01*
X151950870Y-123625675D01*
X151994252Y-123743103D01*
X152062097Y-123831657D01*
X152156951Y-123895743D01*
X152178362Y-123905571D01*
X152266515Y-123926145D01*
X152341914Y-123906418D01*
X152361934Y-123892698D01*
X152391995Y-123849402D01*
X152419955Y-123775369D01*
X152442825Y-123682221D01*
X152457616Y-123581580D01*
X152461622Y-123505011D01*
X152449806Y-123372549D01*
X152416575Y-123256177D01*
X152365995Y-123159882D01*
X152302126Y-123087652D01*
X152229033Y-123043474D01*
X152150778Y-123031334D01*
X152071424Y-123055221D01*
X152031467Y-123082871D01*
X151973838Y-123152727D01*
X151939212Y-123248251D01*
X151926442Y-123373846D01*
X151802068Y-123373846D01*
X151807401Y-123299289D01*
X151841363Y-123179662D01*
X151900121Y-123088116D01*
X151963961Y-123033672D01*
X152088540Y-122970208D01*
X152206624Y-122948197D01*
X152315745Y-122966998D01*
G37*
G36*
X132062260Y-115636269D02*
G01*
X132109433Y-115641383D01*
X132131578Y-115652499D01*
X132137350Y-115671738D01*
X132137365Y-115673270D01*
X132138952Y-115699238D01*
X132143573Y-115764622D01*
X132151014Y-115866594D01*
X132161063Y-116002327D01*
X132173507Y-116168993D01*
X132188133Y-116363764D01*
X132204728Y-116583812D01*
X132223080Y-116826309D01*
X132242976Y-117088428D01*
X132264203Y-117367341D01*
X132286548Y-117660219D01*
X132306626Y-117922804D01*
X132475887Y-120134103D01*
X132306626Y-122347943D01*
X132283498Y-122650804D01*
X132261303Y-122942149D01*
X132240253Y-123219151D01*
X132220561Y-123478984D01*
X132202439Y-123718822D01*
X132186099Y-123935838D01*
X132171755Y-124127207D01*
X132159618Y-124290101D01*
X132149901Y-124421695D01*
X132142815Y-124519162D01*
X132138575Y-124579676D01*
X132137365Y-124600077D01*
X132132356Y-124619928D01*
X132111558Y-124631509D01*
X132066314Y-124636947D01*
X131987967Y-124638368D01*
X131981408Y-124638372D01*
X131825451Y-124638372D01*
X131812760Y-124505970D01*
X131809376Y-124466453D01*
X131803008Y-124387753D01*
X131793893Y-124272934D01*
X131782269Y-124125061D01*
X131768375Y-123947196D01*
X131752449Y-123742404D01*
X131734727Y-123513748D01*
X131715450Y-123264292D01*
X131694854Y-122997100D01*
X131673177Y-122715234D01*
X131650658Y-122421759D01*
X131637867Y-122254786D01*
X131475666Y-120136005D01*
X131637881Y-118017922D01*
X131660771Y-117719370D01*
X131682950Y-117430724D01*
X131704180Y-117155049D01*
X131724223Y-116895408D01*
X131742841Y-116654867D01*
X131759796Y-116436489D01*
X131774849Y-116243339D01*
X131787762Y-116078481D01*
X131798298Y-115944979D01*
X131806218Y-115845897D01*
X131811283Y-115784300D01*
X131812774Y-115767438D01*
X131825451Y-115635036D01*
X131981408Y-115635036D01*
X132062260Y-115636269D01*
G37*
G36*
X140237080Y-115756846D02*
G01*
X140240456Y-115794807D01*
X140246791Y-115871981D01*
X140255848Y-115985329D01*
X140267393Y-116131816D01*
X140281189Y-116308406D01*
X140297002Y-116512062D01*
X140314596Y-116739747D01*
X140333736Y-116988426D01*
X140354185Y-117255061D01*
X140375710Y-117536616D01*
X140398074Y-117830056D01*
X140411533Y-118007085D01*
X140573209Y-120135515D01*
X140411461Y-122265134D01*
X140388710Y-122564231D01*
X140366661Y-122853231D01*
X140345549Y-123129098D01*
X140325611Y-123388797D01*
X140307080Y-123629293D01*
X140290192Y-123847550D01*
X140275182Y-124040532D01*
X140262285Y-124205204D01*
X140251738Y-124338531D01*
X140243774Y-124437477D01*
X140238629Y-124499007D01*
X140237007Y-124516562D01*
X140224303Y-124638372D01*
X140068157Y-124638372D01*
X139988185Y-124637663D01*
X139941582Y-124633530D01*
X139919350Y-124622968D01*
X139912491Y-124602969D01*
X139912010Y-124586192D01*
X139910407Y-124558265D01*
X139905742Y-124490956D01*
X139898230Y-124387126D01*
X139888086Y-124249636D01*
X139875528Y-124081345D01*
X139860770Y-123885114D01*
X139844027Y-123663803D01*
X139825517Y-123420273D01*
X139805453Y-123157383D01*
X139784053Y-122877994D01*
X139761532Y-122584966D01*
X139742342Y-122336048D01*
X139572674Y-120138084D01*
X139742412Y-117934224D01*
X139765667Y-117631832D01*
X139787979Y-117340803D01*
X139809134Y-117063986D01*
X139828917Y-116804229D01*
X139847114Y-116564381D01*
X139863509Y-116347291D01*
X139877889Y-116155807D01*
X139890038Y-115992777D01*
X139899742Y-115861051D01*
X139906786Y-115763478D01*
X139910956Y-115702904D01*
X139912080Y-115682701D01*
X139914801Y-115658256D01*
X139929024Y-115644007D01*
X139963706Y-115637218D01*
X140027804Y-115635153D01*
X140068157Y-115635036D01*
X140224303Y-115635036D01*
X140237080Y-115756846D01*
G37*
G36*
X148840242Y-115636269D02*
G01*
X148887414Y-115641383D01*
X148909560Y-115652499D01*
X148915332Y-115671738D01*
X148915347Y-115673270D01*
X148916934Y-115699238D01*
X148921555Y-115764622D01*
X148928996Y-115866594D01*
X148939045Y-116002327D01*
X148951489Y-116168993D01*
X148966115Y-116363764D01*
X148982710Y-116583812D01*
X149001062Y-116826309D01*
X149020958Y-117088428D01*
X149042184Y-117367341D01*
X149064529Y-117660219D01*
X149084608Y-117922804D01*
X149253869Y-120134103D01*
X149084608Y-122347943D01*
X149061480Y-122650804D01*
X149039284Y-122942149D01*
X149018235Y-123219151D01*
X148998542Y-123478984D01*
X148980420Y-123718822D01*
X148964081Y-123935838D01*
X148949737Y-124127207D01*
X148937599Y-124290101D01*
X148927882Y-124421695D01*
X148920797Y-124519162D01*
X148916557Y-124579676D01*
X148915347Y-124600077D01*
X148910338Y-124619928D01*
X148889540Y-124631509D01*
X148844296Y-124636947D01*
X148765949Y-124638368D01*
X148759390Y-124638372D01*
X148603433Y-124638372D01*
X148590742Y-124505970D01*
X148587358Y-124466453D01*
X148580990Y-124387753D01*
X148571875Y-124272934D01*
X148560251Y-124125061D01*
X148546357Y-123947196D01*
X148530430Y-123742404D01*
X148512709Y-123513748D01*
X148493431Y-123264292D01*
X148472835Y-122997100D01*
X148451159Y-122715234D01*
X148428639Y-122421759D01*
X148415849Y-122254786D01*
X148253647Y-120136005D01*
X148415863Y-118017922D01*
X148438753Y-117719370D01*
X148460932Y-117430724D01*
X148482162Y-117155049D01*
X148502205Y-116895408D01*
X148520823Y-116654867D01*
X148537777Y-116436489D01*
X148552830Y-116243339D01*
X148565744Y-116078481D01*
X148576279Y-115944979D01*
X148584199Y-115845897D01*
X148589265Y-115784300D01*
X148590755Y-115767438D01*
X148603433Y-115635036D01*
X148759390Y-115635036D01*
X148840242Y-115636269D01*
G37*
G36*
X114881334Y-115724170D02*
G01*
X114884980Y-115760654D01*
X114891496Y-115835735D01*
X114900612Y-115945892D01*
X114912059Y-116087605D01*
X114925570Y-116257352D01*
X114940876Y-116451614D01*
X114957707Y-116666870D01*
X114975796Y-116899598D01*
X114994875Y-117146278D01*
X115014673Y-117403390D01*
X115034924Y-117667412D01*
X115055357Y-117934824D01*
X115075706Y-118202106D01*
X115095701Y-118465736D01*
X115115073Y-118722194D01*
X115133555Y-118967959D01*
X115150877Y-119199511D01*
X115166771Y-119413328D01*
X115180969Y-119605891D01*
X115193201Y-119773677D01*
X115203200Y-119913168D01*
X115210697Y-120020841D01*
X115215423Y-120093176D01*
X115217104Y-120126112D01*
X115215675Y-120158975D01*
X115211212Y-120230589D01*
X115203980Y-120337464D01*
X115194243Y-120476112D01*
X115182267Y-120643042D01*
X115168316Y-120834766D01*
X115152655Y-121047794D01*
X115135549Y-121278637D01*
X115117263Y-121523806D01*
X115098063Y-121779812D01*
X115078212Y-122043164D01*
X115057975Y-122310375D01*
X115037618Y-122577954D01*
X115017406Y-122842412D01*
X114997602Y-123100261D01*
X114978473Y-123348010D01*
X114960282Y-123582170D01*
X114943296Y-123799253D01*
X114927778Y-123995769D01*
X114913994Y-124168228D01*
X114902208Y-124313142D01*
X114892686Y-124427020D01*
X114885692Y-124506375D01*
X114881491Y-124547716D01*
X114881410Y-124548339D01*
X114869548Y-124638372D01*
X114722959Y-124638372D01*
X114645321Y-124637218D01*
X114600145Y-124631746D01*
X114577543Y-124618946D01*
X114567629Y-124595804D01*
X114566512Y-124590707D01*
X114563595Y-124563443D01*
X114557727Y-124496764D01*
X114549132Y-124393507D01*
X114538031Y-124256506D01*
X114524648Y-124088598D01*
X114509204Y-123892617D01*
X114491922Y-123671399D01*
X114473025Y-123427780D01*
X114452735Y-123164595D01*
X114431275Y-122884680D01*
X114408868Y-122590869D01*
X114388209Y-122318689D01*
X114219766Y-120094335D01*
X114392617Y-117869982D01*
X114565468Y-115645628D01*
X114717373Y-115639433D01*
X114869278Y-115633238D01*
X114881334Y-115724170D01*
G37*
G36*
X140309427Y-139061253D02*
G01*
X140314513Y-139083812D01*
X140318373Y-139108222D01*
X140333853Y-139125791D01*
X140366805Y-139137617D01*
X140423078Y-139144795D01*
X140508522Y-139148422D01*
X140628987Y-139149594D01*
X140665786Y-139149631D01*
X140784040Y-139150432D01*
X140865769Y-139153236D01*
X140916797Y-139158649D01*
X140942944Y-139167277D01*
X140950042Y-139179182D01*
X140938279Y-139208308D01*
X140906677Y-139262293D01*
X140860771Y-139332066D01*
X140830530Y-139375137D01*
X140751214Y-139488734D01*
X140694483Y-139579404D01*
X140655799Y-139656770D01*
X140630625Y-139730454D01*
X140614420Y-139810076D01*
X140609759Y-139843203D01*
X140596473Y-139950763D01*
X140590606Y-140023691D01*
X140593898Y-140069345D01*
X140608090Y-140095079D01*
X140634920Y-140108250D01*
X140674261Y-140115914D01*
X140724400Y-140127701D01*
X140748683Y-140141028D01*
X140748818Y-140145251D01*
X140725245Y-140151942D01*
X140671080Y-140156611D01*
X140596854Y-140159284D01*
X140513100Y-140159984D01*
X140430350Y-140158738D01*
X140359137Y-140155571D01*
X140309994Y-140150507D01*
X140293328Y-140144167D01*
X140311767Y-140130432D01*
X140356916Y-140116983D01*
X140364497Y-140115474D01*
X140404060Y-140105898D01*
X140426717Y-140088692D01*
X140439050Y-140052878D01*
X140447640Y-139987479D01*
X140449003Y-139974532D01*
X140469547Y-139871852D01*
X140512624Y-139749410D01*
X140579922Y-139603095D01*
X140673133Y-139428792D01*
X140673921Y-139427392D01*
X140708832Y-139355108D01*
X140732176Y-139287067D01*
X140738199Y-139249513D01*
X140738199Y-139185783D01*
X140578684Y-139199267D01*
X140458731Y-139214188D01*
X140374701Y-139237527D01*
X140320447Y-139272642D01*
X140289828Y-139322888D01*
X140280132Y-139362396D01*
X140263485Y-139428025D01*
X140241298Y-139463111D01*
X140217307Y-139461924D01*
X140216019Y-139460701D01*
X140213812Y-139436312D01*
X140216798Y-139379650D01*
X140224314Y-139300405D01*
X140230636Y-139246737D01*
X140245657Y-139143774D01*
X140260410Y-139078907D01*
X140276042Y-139047885D01*
X140285352Y-139043710D01*
X140309427Y-139061253D01*
G37*
G36*
X119726216Y-133554730D02*
G01*
X119732306Y-133556096D01*
X119837872Y-133595940D01*
X119907990Y-133655364D01*
X119941121Y-133729511D01*
X119935725Y-133813529D01*
X119890261Y-133902563D01*
X119855359Y-133943982D01*
X119799402Y-134002637D01*
X119876334Y-134066051D01*
X119951194Y-134149249D01*
X119986780Y-134241133D01*
X119981651Y-134337623D01*
X119977387Y-134351921D01*
X119921708Y-134461472D01*
X119836945Y-134540231D01*
X119739103Y-134584062D01*
X119659736Y-134605389D01*
X119602654Y-134612717D01*
X119550449Y-134606873D01*
X119506511Y-134595093D01*
X119449185Y-134571916D01*
X119384497Y-134537933D01*
X119375792Y-134532674D01*
X119303033Y-134487706D01*
X119270061Y-134534780D01*
X119240135Y-134568664D01*
X119225484Y-134563202D01*
X119226129Y-134518581D01*
X119242092Y-134434981D01*
X119252666Y-134391090D01*
X119276852Y-134308071D01*
X119300699Y-134248468D01*
X119321387Y-134216548D01*
X119336101Y-134216583D01*
X119342021Y-134252840D01*
X119342035Y-134255681D01*
X119359892Y-134329978D01*
X119406526Y-134408292D01*
X119471537Y-134478517D01*
X119544521Y-134528543D01*
X119589950Y-134544245D01*
X119671144Y-134544670D01*
X119745016Y-134519706D01*
X119797670Y-134475141D01*
X119809873Y-134452617D01*
X119821470Y-134400918D01*
X119828405Y-134329081D01*
X119829275Y-134295413D01*
X119824639Y-134223171D01*
X119806041Y-134173313D01*
X119768909Y-134128876D01*
X119708324Y-134084618D01*
X119639583Y-134055839D01*
X119631211Y-134054003D01*
X119573218Y-134035826D01*
X119555582Y-134013857D01*
X119577139Y-133992725D01*
X119636723Y-133977058D01*
X119651050Y-133975215D01*
X119726205Y-133962123D01*
X119769677Y-133937094D01*
X119792134Y-133889525D01*
X119802534Y-133824629D01*
X119805975Y-133760343D01*
X119793294Y-133716641D01*
X119757545Y-133672746D01*
X119748808Y-133663904D01*
X119678597Y-133614946D01*
X119604513Y-133597214D01*
X119536288Y-133609325D01*
X119483655Y-133649899D01*
X119458588Y-133705085D01*
X119446993Y-133751511D01*
X119430987Y-133765493D01*
X119395957Y-133753860D01*
X119374809Y-133744229D01*
X119332395Y-133720168D01*
X119325955Y-133695994D01*
X119354778Y-133660836D01*
X119368516Y-133648048D01*
X119475047Y-133578375D01*
X119596599Y-133546683D01*
X119726216Y-133554730D01*
G37*
G36*
X144716704Y-133378971D02*
G01*
X144809605Y-133406472D01*
X144885030Y-133462715D01*
X144943461Y-133544476D01*
X144959899Y-133631123D01*
X144934345Y-133722939D01*
X144887430Y-133795609D01*
X144824270Y-133875365D01*
X144889835Y-133930535D01*
X144964848Y-134011504D01*
X145004422Y-134095827D01*
X145006388Y-134173370D01*
X144973657Y-134249221D01*
X144915454Y-134324722D01*
X144845356Y-134383084D01*
X144829545Y-134392029D01*
X144749017Y-134418657D01*
X144646437Y-134432740D01*
X144540692Y-134432647D01*
X144472936Y-134422825D01*
X144384238Y-134384419D01*
X144314237Y-134320028D01*
X144269787Y-134239488D01*
X144257739Y-134152634D01*
X144260459Y-134135688D01*
X144392824Y-134135688D01*
X144397212Y-134214088D01*
X144438009Y-134285099D01*
X144509324Y-134338919D01*
X144517187Y-134342652D01*
X144622648Y-134377566D01*
X144707849Y-134376544D01*
X144775138Y-134339483D01*
X144783755Y-134330890D01*
X144825636Y-134258748D01*
X144843086Y-134172193D01*
X144846897Y-134109271D01*
X144838794Y-134066400D01*
X144812133Y-134026562D01*
X144768390Y-133980843D01*
X144711917Y-133929695D01*
X144664875Y-133904141D01*
X144610941Y-133896128D01*
X144596238Y-133895920D01*
X144510758Y-133909707D01*
X144467178Y-133937750D01*
X144443082Y-133966275D01*
X144425353Y-134002190D01*
X144409569Y-134057271D01*
X144392824Y-134135688D01*
X144260459Y-134135688D01*
X144262788Y-134121174D01*
X144281556Y-134076413D01*
X144316715Y-134013735D01*
X144347206Y-133966605D01*
X144419039Y-133862178D01*
X144358102Y-133793978D01*
X144308308Y-133713192D01*
X144295992Y-133630879D01*
X144301553Y-133609807D01*
X144448038Y-133609807D01*
X144459242Y-133701260D01*
X144490750Y-133757130D01*
X144557834Y-133818543D01*
X144632557Y-133848855D01*
X144705187Y-133846083D01*
X144762038Y-133812364D01*
X144799554Y-133751249D01*
X144820961Y-133669294D01*
X144821722Y-133586420D01*
X144817944Y-133567045D01*
X144784402Y-133511332D01*
X144721448Y-133465093D01*
X144642000Y-133436010D01*
X144587368Y-133429944D01*
X144531672Y-133434638D01*
X144499923Y-133456805D01*
X144476151Y-133503330D01*
X144448038Y-133609807D01*
X144301553Y-133609807D01*
X144316781Y-133552101D01*
X144366300Y-133481919D01*
X144440175Y-133425398D01*
X144534031Y-133387598D01*
X144643495Y-133373583D01*
X144716704Y-133378971D01*
G37*
G36*
X115927354Y-128312280D02*
G01*
X116025546Y-128346482D01*
X116094671Y-128411107D01*
X116133897Y-128505452D01*
X116143203Y-128598286D01*
X116139969Y-128664068D01*
X116125296Y-128712526D01*
X116091730Y-128761118D01*
X116056916Y-128800319D01*
X115991063Y-128859711D01*
X115905968Y-128920661D01*
X115831677Y-128963753D01*
X115738107Y-129016221D01*
X115677244Y-129066525D01*
X115640962Y-129123803D01*
X115621136Y-129197196D01*
X115620451Y-129201327D01*
X115608060Y-129277686D01*
X115711453Y-129265351D01*
X115847961Y-129246966D01*
X115955836Y-129228061D01*
X116030536Y-129209567D01*
X116067521Y-129192417D01*
X116067704Y-129192237D01*
X116086002Y-129159123D01*
X116105439Y-129102624D01*
X116111053Y-129081286D01*
X116136397Y-129013412D01*
X116170681Y-128984946D01*
X116172775Y-128984494D01*
X116201149Y-128985926D01*
X116198124Y-129013107D01*
X116196935Y-129016082D01*
X116186339Y-129053642D01*
X116171409Y-129121267D01*
X116154653Y-129207211D01*
X116146743Y-129251258D01*
X116128258Y-129344439D01*
X116110754Y-129410238D01*
X116095804Y-129445280D01*
X116084981Y-129446190D01*
X116079857Y-129409594D01*
X116079650Y-129395212D01*
X116071774Y-129364057D01*
X116045029Y-129342007D01*
X115994736Y-129328323D01*
X115916217Y-129322266D01*
X115804796Y-129323095D01*
X115664465Y-129329574D01*
X115551282Y-129335857D01*
X115474563Y-129337593D01*
X115428439Y-129331907D01*
X115407038Y-129315925D01*
X115404489Y-129286772D01*
X115414923Y-129241574D01*
X115423328Y-129211504D01*
X115460229Y-129130805D01*
X115526393Y-129057932D01*
X115626844Y-128988113D01*
X115700355Y-128948362D01*
X115824549Y-128879291D01*
X115912433Y-128814197D01*
X115969210Y-128748581D01*
X115995597Y-128693095D01*
X116011572Y-128589596D01*
X115990721Y-128499380D01*
X115936864Y-128428711D01*
X115853822Y-128383852D01*
X115800223Y-128372787D01*
X115720449Y-128376269D01*
X115665472Y-128410043D01*
X115631736Y-128477533D01*
X115618767Y-128547441D01*
X115603164Y-128620816D01*
X115572788Y-128666211D01*
X115556631Y-128678556D01*
X115510481Y-128698140D01*
X115479085Y-128682601D01*
X115457740Y-128628799D01*
X115453576Y-128609770D01*
X115454597Y-128546612D01*
X115487030Y-128478825D01*
X115490323Y-128473879D01*
X115569173Y-128389027D01*
X115672470Y-128334838D01*
X115800926Y-128309202D01*
X115927354Y-128312280D01*
G37*
G36*
X124273789Y-139670289D02*
G01*
X124274648Y-139687238D01*
X124236800Y-139709893D01*
X124214429Y-139718434D01*
X124150876Y-139740588D01*
X124150876Y-140080640D01*
X124150876Y-140420691D01*
X124223771Y-140420691D01*
X124282276Y-140426631D01*
X124306978Y-140440362D01*
X124295551Y-140455751D01*
X124245670Y-140466667D01*
X124241353Y-140467050D01*
X124188484Y-140475008D01*
X124164302Y-140495274D01*
X124155126Y-140540234D01*
X124154601Y-140545575D01*
X124159651Y-140609586D01*
X124193230Y-140643845D01*
X124252752Y-140653394D01*
X124285855Y-140660217D01*
X124290110Y-140672418D01*
X124265739Y-140680552D01*
X124211997Y-140685872D01*
X124140203Y-140688453D01*
X124061679Y-140688370D01*
X123987744Y-140685696D01*
X123929719Y-140680507D01*
X123898922Y-140672878D01*
X123896664Y-140669821D01*
X123914975Y-140654222D01*
X123959244Y-140640152D01*
X123961325Y-140639727D01*
X124004049Y-140626929D01*
X124020255Y-140602290D01*
X124019639Y-140550913D01*
X124019582Y-140550223D01*
X124013178Y-140473651D01*
X123780151Y-140472324D01*
X123547123Y-140470997D01*
X123552249Y-140388887D01*
X123555407Y-140367049D01*
X123727190Y-140367049D01*
X123729312Y-140395145D01*
X123741855Y-140411185D01*
X123774086Y-140418545D01*
X123835271Y-140420598D01*
X123874464Y-140420691D01*
X124021738Y-140420691D01*
X124019418Y-140145295D01*
X124017384Y-140042845D01*
X124013464Y-139957677D01*
X124008187Y-139897656D01*
X124002082Y-139870649D01*
X124000877Y-139869898D01*
X123981301Y-139886732D01*
X123946540Y-139931166D01*
X123902582Y-139994104D01*
X123855415Y-140066447D01*
X123811025Y-140139096D01*
X123775401Y-140202953D01*
X123758809Y-140237733D01*
X123737548Y-140302642D01*
X123727345Y-140361356D01*
X123727190Y-140367049D01*
X123555407Y-140367049D01*
X123559013Y-140342107D01*
X123575782Y-140293934D01*
X123606265Y-140238604D01*
X123654167Y-140170353D01*
X123723196Y-140083417D01*
X123817057Y-139972032D01*
X123830152Y-139956765D01*
X123894519Y-139879468D01*
X123945965Y-139813146D01*
X123979543Y-139764517D01*
X123990305Y-139740301D01*
X123990037Y-139739626D01*
X123961916Y-139724377D01*
X123939033Y-139721608D01*
X123899001Y-139711590D01*
X123886072Y-139700424D01*
X123895881Y-139686715D01*
X123941303Y-139679638D01*
X123964263Y-139679055D01*
X124042461Y-139676194D01*
X124132576Y-139669200D01*
X124166764Y-139665512D01*
X124236927Y-139662047D01*
X124273789Y-139670289D01*
G37*
G36*
X136047771Y-145667247D02*
G01*
X136044761Y-145703061D01*
X136035436Y-145747527D01*
X136022197Y-145819600D01*
X136007646Y-145905019D01*
X136005171Y-145920200D01*
X135991608Y-146001329D01*
X135982323Y-146044886D01*
X135975199Y-146055184D01*
X135968120Y-146036533D01*
X135961986Y-146008204D01*
X135925838Y-145926424D01*
X135858071Y-145853009D01*
X135769400Y-145798134D01*
X135723390Y-145781597D01*
X135646070Y-145763599D01*
X135595172Y-145763119D01*
X135557971Y-145781479D01*
X135538081Y-145800809D01*
X135519770Y-145832151D01*
X135496373Y-145886666D01*
X135471674Y-145953180D01*
X135449455Y-146020518D01*
X135433498Y-146077506D01*
X135427587Y-146112970D01*
X135430281Y-146119273D01*
X135452141Y-146111916D01*
X135498184Y-146093633D01*
X135512996Y-146087496D01*
X135623928Y-146060085D01*
X135739349Y-146063670D01*
X135848227Y-146095357D01*
X135939533Y-146152247D01*
X135992112Y-146213310D01*
X136028123Y-146309096D01*
X136030857Y-146414974D01*
X136003213Y-146518988D01*
X135948093Y-146609179D01*
X135882352Y-146665711D01*
X135782086Y-146706330D01*
X135665652Y-146722770D01*
X135552951Y-146713035D01*
X135516264Y-146702429D01*
X135426524Y-146654397D01*
X135360214Y-146580481D01*
X135311703Y-146473901D01*
X135302881Y-146445467D01*
X135293724Y-146390632D01*
X135460245Y-146390632D01*
X135471688Y-146499058D01*
X135512856Y-146578968D01*
X135585637Y-146633786D01*
X135597304Y-146639154D01*
X135691282Y-146667030D01*
X135765010Y-146659075D01*
X135820825Y-146615613D01*
X135857375Y-146544016D01*
X135879200Y-146450587D01*
X135882794Y-146354351D01*
X135876811Y-146311817D01*
X135852154Y-146253928D01*
X135809460Y-146193976D01*
X135798924Y-146182757D01*
X135743019Y-146138173D01*
X135682250Y-146120842D01*
X135645024Y-146119273D01*
X135568257Y-146129541D01*
X135514636Y-146163543D01*
X135480895Y-146226075D01*
X135463768Y-146321936D01*
X135460245Y-146390632D01*
X135293724Y-146390632D01*
X135279843Y-146307506D01*
X135285996Y-146165199D01*
X135318323Y-146027183D01*
X135373808Y-145902092D01*
X135449436Y-145798563D01*
X135542191Y-145725232D01*
X135557094Y-145717516D01*
X135624631Y-145690861D01*
X135687197Y-145675715D01*
X135704071Y-145674402D01*
X135775920Y-145688131D01*
X135858041Y-145723657D01*
X135931082Y-145772488D01*
X135934654Y-145775569D01*
X135962475Y-145795955D01*
X135971172Y-145783025D01*
X135971727Y-145764155D01*
X135981356Y-145697396D01*
X136007518Y-145659148D01*
X136027358Y-145653218D01*
X136047771Y-145667247D01*
G37*
G36*
X148620221Y-128039392D02*
G01*
X148707305Y-128065088D01*
X148742996Y-128085031D01*
X148817848Y-128164948D01*
X148868406Y-128275344D01*
X148892366Y-128410484D01*
X148894044Y-128461335D01*
X148888739Y-128586989D01*
X148869905Y-128688786D01*
X148832822Y-128784314D01*
X148783331Y-128873880D01*
X148711373Y-128965590D01*
X148625344Y-129032285D01*
X148533673Y-129069675D01*
X148444787Y-129073470D01*
X148409998Y-129063891D01*
X148356388Y-129037241D01*
X148301685Y-129002829D01*
X148252059Y-128975592D01*
X148224787Y-128982863D01*
X148216268Y-129025665D01*
X148216264Y-129027057D01*
X148199664Y-129060146D01*
X148178550Y-129065895D01*
X148160390Y-129063255D01*
X148151771Y-129049745D01*
X148152417Y-129016976D01*
X148162053Y-128956561D01*
X148173042Y-128898312D01*
X148189719Y-128822163D01*
X148205806Y-128766731D01*
X148218512Y-128741126D01*
X148221348Y-128740680D01*
X148235231Y-128767793D01*
X148237448Y-128788056D01*
X148256614Y-128837332D01*
X148307954Y-128888908D01*
X148382229Y-128936132D01*
X148470203Y-128972350D01*
X148507034Y-128982236D01*
X148580751Y-128983048D01*
X148641599Y-128947974D01*
X148691052Y-128875317D01*
X148730584Y-128763377D01*
X148743361Y-128709961D01*
X148752340Y-128657128D01*
X148752414Y-128628292D01*
X148749163Y-128626341D01*
X148650853Y-128673211D01*
X148568655Y-128695595D01*
X148487031Y-128697176D01*
X148462112Y-128694385D01*
X148340227Y-128670057D01*
X148253108Y-128631340D01*
X148194086Y-128572691D01*
X148156493Y-128488567D01*
X148142385Y-128428641D01*
X148143981Y-128342329D01*
X148303444Y-128342329D01*
X148309018Y-128434193D01*
X148328509Y-128512588D01*
X148355946Y-128558278D01*
X148406946Y-128590165D01*
X148478675Y-128613794D01*
X148553406Y-128625300D01*
X148613410Y-128620820D01*
X148624062Y-128616734D01*
X148662314Y-128586039D01*
X148697521Y-128542817D01*
X148724494Y-128470995D01*
X148734571Y-128366955D01*
X148734594Y-128363951D01*
X148732428Y-128290086D01*
X148720889Y-128241385D01*
X148693954Y-128200774D01*
X148666956Y-128172246D01*
X148618910Y-128130336D01*
X148571979Y-128109824D01*
X148506813Y-128103263D01*
X148486890Y-128102941D01*
X148420563Y-128104313D01*
X148381972Y-128114599D01*
X148356521Y-128140924D01*
X148336929Y-128176154D01*
X148312507Y-128251485D01*
X148303444Y-128342329D01*
X148143981Y-128342329D01*
X148144173Y-128331974D01*
X148179417Y-128234191D01*
X148240798Y-128145681D01*
X148320996Y-128076833D01*
X148412692Y-128038037D01*
X148418386Y-128036894D01*
X148518344Y-128029168D01*
X148620221Y-128039392D01*
G37*
G36*
X128551831Y-145600872D02*
G01*
X128549383Y-145637330D01*
X128541517Y-145687558D01*
X128536846Y-145757493D01*
X128536320Y-145785620D01*
X128531229Y-145847470D01*
X128519309Y-145881116D01*
X128504945Y-145882488D01*
X128492524Y-145847515D01*
X128489773Y-145828826D01*
X128475081Y-145787263D01*
X128438183Y-145760475D01*
X128372368Y-145745632D01*
X128279294Y-145740067D01*
X128219429Y-145740455D01*
X128188996Y-145751024D01*
X128175075Y-145780778D01*
X128168310Y-145817396D01*
X128159214Y-145888834D01*
X128154978Y-145954280D01*
X128154946Y-145957742D01*
X128157890Y-145998212D01*
X128175591Y-146010256D01*
X128220693Y-146001874D01*
X128223562Y-146001147D01*
X128319961Y-145986404D01*
X128418502Y-145987297D01*
X128503446Y-146002816D01*
X128546392Y-146021844D01*
X128597635Y-146070025D01*
X128627830Y-146137654D01*
X128639351Y-146232333D01*
X128637814Y-146314518D01*
X128630840Y-146396564D01*
X128617559Y-146451183D01*
X128592958Y-146493295D01*
X128568340Y-146521218D01*
X128499273Y-146578842D01*
X128412793Y-146631031D01*
X128323593Y-146670432D01*
X128246366Y-146689696D01*
X128229994Y-146690499D01*
X128163293Y-146679587D01*
X128112344Y-146659473D01*
X128054994Y-146633140D01*
X128019062Y-146637600D01*
X127994320Y-146675475D01*
X127988413Y-146691249D01*
X127966128Y-146735345D01*
X127942634Y-146754759D01*
X127941705Y-146754802D01*
X127926274Y-146739561D01*
X127928788Y-146724481D01*
X127935754Y-146690362D01*
X127944173Y-146625901D01*
X127952561Y-146543022D01*
X127955152Y-146512638D01*
X127965069Y-146417072D01*
X127976797Y-146358951D01*
X127991517Y-146333353D01*
X127998744Y-146331116D01*
X128020593Y-146350627D01*
X128027607Y-146402825D01*
X128038239Y-146460199D01*
X128074297Y-146504372D01*
X128142026Y-146540815D01*
X128212582Y-146564944D01*
X128313181Y-146579927D01*
X128392223Y-146558688D01*
X128449062Y-146501851D01*
X128483049Y-146410044D01*
X128493583Y-146293081D01*
X128491154Y-146214857D01*
X128480917Y-146164174D01*
X128458614Y-146126354D01*
X128439091Y-146105144D01*
X128395023Y-146069317D01*
X128349571Y-146058899D01*
X128301393Y-146063739D01*
X128220797Y-146076514D01*
X128139835Y-146089361D01*
X128136651Y-146089867D01*
X128083424Y-146095855D01*
X128057530Y-146085507D01*
X128044696Y-146050499D01*
X128041321Y-146034258D01*
X128034168Y-145976965D01*
X128029206Y-145896085D01*
X128027607Y-145820044D01*
X128027607Y-145674402D01*
X128194433Y-145674402D01*
X128327904Y-145671074D01*
X128421165Y-145660886D01*
X128475868Y-145643531D01*
X128493662Y-145618793D01*
X128510856Y-145593558D01*
X128527909Y-145589665D01*
X128551831Y-145600872D01*
G37*
G36*
X132236195Y-95973394D02*
G01*
X132502037Y-96021781D01*
X132759130Y-96106868D01*
X133003069Y-96227950D01*
X133229446Y-96384318D01*
X133374502Y-96513800D01*
X133562937Y-96729781D01*
X133717252Y-96970412D01*
X133836490Y-97233969D01*
X133909620Y-97475046D01*
X133934341Y-97624137D01*
X133945315Y-97798873D01*
X133942862Y-97984935D01*
X133927298Y-98168003D01*
X133898940Y-98333754D01*
X133889761Y-98371294D01*
X133801336Y-98635566D01*
X133680110Y-98875688D01*
X133522732Y-99097631D01*
X133412689Y-99221298D01*
X133276657Y-99363106D01*
X134003579Y-100344067D01*
X134145695Y-100535848D01*
X134287384Y-100727057D01*
X134425339Y-100913226D01*
X134556248Y-101089889D01*
X134676803Y-101252579D01*
X134783692Y-101396830D01*
X134873608Y-101518175D01*
X134943239Y-101612149D01*
X134969089Y-101647037D01*
X135207677Y-101969046D01*
X135361971Y-101897885D01*
X135491768Y-101842240D01*
X135611000Y-101801947D01*
X135732231Y-101774272D01*
X135868028Y-101756479D01*
X136030956Y-101745836D01*
X136067631Y-101744335D01*
X136216334Y-101740653D01*
X136334491Y-101742705D01*
X136433608Y-101751049D01*
X136525191Y-101766244D01*
X136527243Y-101766666D01*
X136801220Y-101844283D01*
X137056685Y-101958576D01*
X137290724Y-102106827D01*
X137500419Y-102286319D01*
X137682856Y-102494334D01*
X137835118Y-102728153D01*
X137954290Y-102985059D01*
X138008047Y-103146879D01*
X138033767Y-103266967D01*
X138052400Y-103414904D01*
X138063231Y-103576651D01*
X138065546Y-103738170D01*
X138058631Y-103885423D01*
X138049540Y-103962476D01*
X137994130Y-104201410D01*
X137904853Y-104439826D01*
X137787196Y-104666021D01*
X137646647Y-104868290D01*
X137597765Y-104926016D01*
X137548284Y-104982991D01*
X137512334Y-105027165D01*
X137497106Y-105049671D01*
X137496998Y-105050316D01*
X137509224Y-105068562D01*
X137544300Y-105117570D01*
X137599820Y-105194084D01*
X137673378Y-105294847D01*
X137762568Y-105416601D01*
X137864985Y-105556091D01*
X137978223Y-105710059D01*
X138099878Y-105875249D01*
X138227542Y-106048403D01*
X138358811Y-106226266D01*
X138491278Y-106405581D01*
X138622539Y-106583090D01*
X138750187Y-106755537D01*
X138871818Y-106919666D01*
X138985025Y-107072218D01*
X139087403Y-107209939D01*
X139176546Y-107329570D01*
X139250049Y-107427856D01*
X139305505Y-107501539D01*
X139340511Y-107547363D01*
X139351832Y-107561420D01*
X139372413Y-107575055D01*
X139403693Y-107574899D01*
X139455806Y-107559449D01*
X139513171Y-107537513D01*
X139730202Y-107469301D01*
X139968501Y-107425910D01*
X140214322Y-107408473D01*
X140453919Y-107418124D01*
X140628995Y-107445480D01*
X140897068Y-107524901D01*
X141147840Y-107641045D01*
X141378063Y-107790667D01*
X141584494Y-107970521D01*
X141763885Y-108177362D01*
X141912991Y-108407943D01*
X142028568Y-108659020D01*
X142106404Y-108922889D01*
X142130952Y-109086029D01*
X142141206Y-109272543D01*
X142137366Y-109465995D01*
X142119633Y-109649947D01*
X142095973Y-109777571D01*
X142048725Y-109934174D01*
X141981181Y-110102524D01*
X141900090Y-110268587D01*
X141812199Y-110418332D01*
X141738890Y-110520208D01*
X141634737Y-110648500D01*
X142523012Y-111847253D01*
X143411287Y-113046007D01*
X143567150Y-112973994D01*
X143806380Y-112885594D01*
X144062028Y-112831390D01*
X144326293Y-112811264D01*
X144591372Y-112825101D01*
X144849463Y-112872783D01*
X145092765Y-112954193D01*
X145188385Y-112998275D01*
X145434169Y-113140158D01*
X145645123Y-113302444D01*
X145825706Y-113489672D01*
X145980374Y-113706383D01*
X146098710Y-113925340D01*
X146166518Y-114083053D01*
X146214874Y-114235365D01*
X146248420Y-114399344D01*
X146267054Y-114544043D01*
X146275807Y-114822007D01*
X146244810Y-115092416D01*
X146176464Y-115352014D01*
X146073169Y-115597542D01*
X145937326Y-115825743D01*
X145771335Y-116033359D01*
X145577597Y-116217132D01*
X145358511Y-116373804D01*
X145116480Y-116500118D01*
X144853903Y-116592815D01*
X144736450Y-116621282D01*
X144606940Y-116640042D01*
X144451562Y-116649483D01*
X144285761Y-116649668D01*
X144124988Y-116640656D01*
X143984690Y-116622508D01*
X143962619Y-116618238D01*
X143691579Y-116541464D01*
X143438943Y-116428185D01*
X143207610Y-116281324D01*
X143000480Y-116103806D01*
X142820454Y-115898555D01*
X142670433Y-115668495D01*
X142553315Y-115416552D01*
X142472001Y-115145649D01*
X142463729Y-115106820D01*
X142446191Y-114980724D01*
X142437576Y-114829624D01*
X142437554Y-114666961D01*
X142445796Y-114506178D01*
X142461971Y-114360718D01*
X142484797Y-114247463D01*
X142568822Y-114000669D01*
X142681308Y-113775594D01*
X142826910Y-113564342D01*
X143006062Y-113363274D01*
X143189342Y-113178168D01*
X142319106Y-112002783D01*
X142149799Y-111774196D01*
X142003814Y-111577404D01*
X141879319Y-111410112D01*
X141774481Y-111270024D01*
X141687468Y-111154842D01*
X141616446Y-111062269D01*
X141559584Y-110990011D01*
X141515048Y-110935769D01*
X141481006Y-110897248D01*
X141455625Y-110872150D01*
X141437072Y-110858180D01*
X141423515Y-110853041D01*
X141413120Y-110854436D01*
X141406003Y-110858602D01*
X141326256Y-110912053D01*
X141226482Y-110972383D01*
X141119905Y-111032212D01*
X141019747Y-111084160D01*
X140939231Y-111120850D01*
X140928858Y-111124885D01*
X140809672Y-111167528D01*
X140706662Y-111198230D01*
X140608195Y-111218861D01*
X140502637Y-111231292D01*
X140378355Y-111237396D01*
X140223717Y-111239044D01*
X140219183Y-111239044D01*
X140029034Y-111235098D01*
X139869018Y-111221596D01*
X139727477Y-111195953D01*
X139592753Y-111155588D01*
X139453188Y-111097917D01*
X139345626Y-111045487D01*
X139266138Y-111007253D01*
X139200822Y-110980180D01*
X139158555Y-110967715D01*
X139147932Y-110968703D01*
X139132922Y-110987991D01*
X139094546Y-111038311D01*
X139034930Y-111116851D01*
X138956200Y-111220801D01*
X138860480Y-111347350D01*
X138749897Y-111493687D01*
X138626575Y-111657001D01*
X138492642Y-111834482D01*
X138350221Y-112023318D01*
X138272169Y-112126851D01*
X137411530Y-113268625D01*
X137536598Y-113398871D01*
X137717271Y-113617262D01*
X137863460Y-113859219D01*
X137973457Y-114121454D01*
X138038380Y-114363522D01*
X138058075Y-114507197D01*
X138066055Y-114674761D01*
X138062813Y-114851785D01*
X138048845Y-115023841D01*
X138024643Y-115176499D01*
X138008264Y-115243126D01*
X137909685Y-115512606D01*
X137776545Y-115760336D01*
X137611723Y-115983641D01*
X137418094Y-116179849D01*
X137198538Y-116346286D01*
X136955931Y-116480278D01*
X136693152Y-116579151D01*
X136525507Y-116620808D01*
X136394362Y-116638952D01*
X136237725Y-116647558D01*
X136069533Y-116646977D01*
X135903723Y-116637557D01*
X135754231Y-116619647D01*
X135653962Y-116598968D01*
X135529430Y-116558595D01*
X135388217Y-116501395D01*
X135246762Y-116434849D01*
X135121506Y-116366436D01*
X135067722Y-116332258D01*
X134882766Y-116185355D01*
X134708229Y-116006772D01*
X134553331Y-115807182D01*
X134427291Y-115597256D01*
X134419600Y-115582075D01*
X134316746Y-115330093D01*
X134251746Y-115065118D01*
X134224464Y-114792919D01*
X134234766Y-114519266D01*
X134282517Y-114249928D01*
X134367583Y-113990675D01*
X134461266Y-113796457D01*
X134509758Y-113717310D01*
X134571939Y-113626556D01*
X134640912Y-113533140D01*
X134709778Y-113446009D01*
X134771638Y-113374112D01*
X134819594Y-113326393D01*
X134829887Y-113318375D01*
X134836744Y-113311209D01*
X134838910Y-113300206D01*
X134834670Y-113282978D01*
X134822308Y-113257135D01*
X134800109Y-113220290D01*
X134766358Y-113170054D01*
X134719338Y-113104037D01*
X134657333Y-113019850D01*
X134578629Y-112915106D01*
X134481510Y-112787415D01*
X134364259Y-112634389D01*
X134225162Y-112453638D01*
X134062503Y-112242774D01*
X133989289Y-112147949D01*
X133839884Y-111954430D01*
X133697667Y-111770139D01*
X133564826Y-111597916D01*
X133443550Y-111440603D01*
X133336027Y-111301040D01*
X133244445Y-111182068D01*
X133170992Y-111086528D01*
X133117857Y-111017261D01*
X133087228Y-110977107D01*
X133080752Y-110968440D01*
X133063904Y-110950011D01*
X133042620Y-110946519D01*
X133007170Y-110960289D01*
X132947823Y-110993644D01*
X132929257Y-111004635D01*
X132695991Y-111118946D01*
X132441427Y-111198274D01*
X132169644Y-111241564D01*
X131981239Y-111249882D01*
X131690866Y-111230890D01*
X131418522Y-111173768D01*
X131163313Y-111078289D01*
X131038290Y-111014093D01*
X130972348Y-110979290D01*
X130931769Y-110965580D01*
X130906737Y-110970440D01*
X130897916Y-110978028D01*
X130880944Y-110999400D01*
X130840673Y-111051761D01*
X130779275Y-111132242D01*
X130698923Y-111237977D01*
X130601791Y-111366097D01*
X130490052Y-111513735D01*
X130365878Y-111678023D01*
X130231442Y-111856095D01*
X130088919Y-112045081D01*
X130020531Y-112135832D01*
X129169517Y-113265401D01*
X129295813Y-113400412D01*
X129400689Y-113518614D01*
X129484864Y-113629675D01*
X129558310Y-113748472D01*
X129630997Y-113889880D01*
X129648074Y-113925923D01*
X129709983Y-114065522D01*
X129755073Y-114188492D01*
X129785757Y-114306636D01*
X129804446Y-114431759D01*
X129813553Y-114575665D01*
X129815510Y-114745295D01*
X129814308Y-114876999D01*
X129811025Y-114977090D01*
X129804436Y-115056313D01*
X129793320Y-115125417D01*
X129776454Y-115195145D01*
X129756583Y-115263265D01*
X129653547Y-115532542D01*
X129516224Y-115780160D01*
X129347483Y-116003252D01*
X129150193Y-116198952D01*
X128927221Y-116364394D01*
X128681437Y-116496711D01*
X128429851Y-116588996D01*
X128290501Y-116619233D01*
X128124022Y-116639433D01*
X127944568Y-116649100D01*
X127766291Y-116647735D01*
X127603343Y-116634841D01*
X127517285Y-116621055D01*
X127248908Y-116545580D01*
X126995958Y-116432310D01*
X126762252Y-116284198D01*
X126551608Y-116104195D01*
X126367844Y-115895253D01*
X126214777Y-115660326D01*
X126173882Y-115582131D01*
X126092098Y-115395233D01*
X126035501Y-115211826D01*
X126001277Y-115019090D01*
X125986612Y-114804203D01*
X125985582Y-114724110D01*
X125987018Y-114588464D01*
X125992612Y-114482004D01*
X126003703Y-114391642D01*
X126021629Y-114304289D01*
X126033084Y-114259471D01*
X126121968Y-113996681D01*
X126243659Y-113754028D01*
X126401813Y-113524922D01*
X126512766Y-113394466D01*
X126633591Y-113261735D01*
X126246041Y-112748344D01*
X126028289Y-112459930D01*
X125834633Y-112203543D01*
X125663679Y-111977364D01*
X125514037Y-111779577D01*
X125384313Y-111608362D01*
X125273115Y-111461902D01*
X125179051Y-111338380D01*
X125100728Y-111235976D01*
X125036754Y-111152874D01*
X124985737Y-111087255D01*
X124946284Y-111037302D01*
X124917003Y-111001195D01*
X124896502Y-110977118D01*
X124883388Y-110963253D01*
X124876269Y-110957781D01*
X124874530Y-110957621D01*
X124850099Y-110970002D01*
X124798693Y-110996526D01*
X124730895Y-111031730D01*
X124722853Y-111035918D01*
X124504752Y-111134471D01*
X124286228Y-111201026D01*
X124057087Y-111237702D01*
X123807134Y-111246621D01*
X123722126Y-111244006D01*
X123436980Y-111211779D01*
X123169666Y-111141234D01*
X122919355Y-111032090D01*
X122707637Y-110900419D01*
X122605981Y-110827386D01*
X122513464Y-110948601D01*
X122484497Y-110987093D01*
X122432835Y-111056339D01*
X122360946Y-111153009D01*
X122271301Y-111273769D01*
X122166370Y-111415290D01*
X122048622Y-111574241D01*
X121920526Y-111747290D01*
X121784554Y-111931106D01*
X121643174Y-112122357D01*
X121630416Y-112139623D01*
X121491220Y-112327972D01*
X121359212Y-112506555D01*
X121236590Y-112672399D01*
X121125552Y-112822534D01*
X121028298Y-112953988D01*
X120947024Y-113063790D01*
X120883930Y-113148969D01*
X120841213Y-113206553D01*
X120821073Y-113233571D01*
X120820008Y-113234969D01*
X120819541Y-113263660D01*
X120854276Y-113307074D01*
X120876307Y-113327389D01*
X120923161Y-113374442D01*
X120984477Y-113444112D01*
X121050048Y-113524569D01*
X121079441Y-113562759D01*
X121235941Y-113804298D01*
X121353776Y-114060369D01*
X121432361Y-114327423D01*
X121471110Y-114601910D01*
X121469440Y-114880278D01*
X121426765Y-115158979D01*
X121373580Y-115348203D01*
X121263544Y-115611176D01*
X121117418Y-115852545D01*
X120936874Y-116069914D01*
X120750793Y-116239496D01*
X120637654Y-116319807D01*
X120499034Y-116402651D01*
X120348868Y-116480848D01*
X120201090Y-116547216D01*
X120069633Y-116594576D01*
X120051710Y-116599728D01*
X119953978Y-116618915D01*
X119825944Y-116633004D01*
X119679395Y-116641760D01*
X119526116Y-116644944D01*
X119377896Y-116642320D01*
X119246521Y-116633651D01*
X119143776Y-116618699D01*
X119140784Y-116618046D01*
X118866773Y-116536278D01*
X118612306Y-116417812D01*
X118380110Y-116264836D01*
X118172906Y-116079540D01*
X117993419Y-115864110D01*
X117844373Y-115620736D01*
X117808275Y-115547475D01*
X117738546Y-115386107D01*
X117689588Y-115239212D01*
X117657588Y-115091005D01*
X117638736Y-114925697D01*
X117632486Y-114819440D01*
X117639702Y-114531175D01*
X117686283Y-114254728D01*
X117770475Y-113993047D01*
X117890519Y-113749081D01*
X118044662Y-113525779D01*
X118231145Y-113326090D01*
X118448214Y-113152962D01*
X118694113Y-113009343D01*
X118717098Y-112998204D01*
X118890586Y-112922872D01*
X119051635Y-112870817D01*
X119219145Y-112836805D01*
X119360722Y-112819956D01*
X119638795Y-112811191D01*
X119901586Y-112839115D01*
X120157033Y-112905227D01*
X120413076Y-113011026D01*
X120438373Y-113023523D01*
X120521066Y-113061465D01*
X120580520Y-113081508D01*
X120610475Y-113081571D01*
X120611149Y-113080947D01*
X120626546Y-113061023D01*
X120665068Y-113009801D01*
X120724656Y-112930054D01*
X120803249Y-112824554D01*
X120898785Y-112696074D01*
X121009206Y-112547386D01*
X121132450Y-112381263D01*
X121266456Y-112200477D01*
X121409165Y-112007801D01*
X121520796Y-111856986D01*
X122411843Y-110652832D01*
X122297022Y-110500278D01*
X122210296Y-110370702D01*
X122124748Y-110217509D01*
X122047766Y-110055794D01*
X121986739Y-109900651D01*
X121958831Y-109809348D01*
X121943174Y-109730532D01*
X121928719Y-109624649D01*
X121917304Y-109506996D01*
X121911719Y-109417438D01*
X121915823Y-109137648D01*
X121955176Y-108877665D01*
X122031383Y-108631544D01*
X122146049Y-108393339D01*
X122221399Y-108270641D01*
X122393898Y-108045628D01*
X122592101Y-107852453D01*
X122777043Y-107718044D01*
X124903934Y-107718044D01*
X124998756Y-107793436D01*
X125211945Y-107988940D01*
X125393934Y-108210265D01*
X125542063Y-108453232D01*
X125653670Y-108713662D01*
X125710143Y-108910609D01*
X125732338Y-109045271D01*
X125744890Y-109204314D01*
X125747788Y-109373378D01*
X125741019Y-109538103D01*
X125724571Y-109684127D01*
X125710863Y-109753481D01*
X125627995Y-110016343D01*
X125512043Y-110263006D01*
X125366780Y-110486484D01*
X125226793Y-110649221D01*
X125169980Y-110710366D01*
X125128135Y-110761556D01*
X125107725Y-110794609D01*
X125106967Y-110800804D01*
X125120733Y-110820932D01*
X125157936Y-110872050D01*
X125216472Y-110951341D01*
X125294238Y-111055987D01*
X125389131Y-111183173D01*
X125499048Y-111330082D01*
X125621884Y-111493898D01*
X125755539Y-111671803D01*
X125897907Y-111860982D01*
X125979019Y-111968626D01*
X126843274Y-113115063D01*
X126974682Y-113041701D01*
X127057754Y-113000265D01*
X127162375Y-112954990D01*
X127269446Y-112914000D01*
X127298085Y-112904122D01*
X127555885Y-112839481D01*
X127825038Y-112812098D01*
X128097957Y-112821330D01*
X128367054Y-112866537D01*
X128624742Y-112947077D01*
X128808994Y-113031900D01*
X128880693Y-113069274D01*
X128936199Y-113096488D01*
X128966614Y-113109246D01*
X128969708Y-113109473D01*
X128982834Y-113091981D01*
X129019358Y-113043398D01*
X129077204Y-112966486D01*
X129154293Y-112864007D01*
X129248548Y-112738723D01*
X129357890Y-112593395D01*
X129480241Y-112430786D01*
X129613524Y-112253657D01*
X129755661Y-112064771D01*
X129843349Y-111948245D01*
X130712727Y-110792980D01*
X130569800Y-110643097D01*
X130406176Y-110443745D01*
X130268716Y-110219322D01*
X130162759Y-109979965D01*
X130094778Y-109741392D01*
X130069243Y-109561055D01*
X130059977Y-109360442D01*
X130066663Y-109155912D01*
X130088981Y-108963826D01*
X130112074Y-108851995D01*
X130199675Y-108589920D01*
X130324531Y-108341512D01*
X130482512Y-108114055D01*
X130612387Y-107969408D01*
X130681415Y-107895415D01*
X130714533Y-107849798D01*
X133222255Y-107849798D01*
X133364379Y-107998089D01*
X133536492Y-108199347D01*
X133671790Y-108408225D01*
X133774973Y-108633636D01*
X133850742Y-108884496D01*
X133864943Y-108947472D01*
X133883093Y-109070911D01*
X133892771Y-109220814D01*
X133893963Y-109382128D01*
X133886653Y-109539802D01*
X133870829Y-109678784D01*
X133865653Y-109708258D01*
X133798802Y-109954426D01*
X133695388Y-110196876D01*
X133560713Y-110425373D01*
X133400080Y-110629683D01*
X133373520Y-110658192D01*
X133257674Y-110779644D01*
X134088288Y-111856840D01*
X134270014Y-112092490D01*
X134427633Y-112296799D01*
X134562890Y-112471994D01*
X134677530Y-112620300D01*
X134773300Y-112743942D01*
X134851946Y-112845145D01*
X134915212Y-112926137D01*
X134964846Y-112989142D01*
X135002593Y-113036386D01*
X135030198Y-113070095D01*
X135049408Y-113092494D01*
X135061968Y-113105808D01*
X135069624Y-113112265D01*
X135074122Y-113114089D01*
X135074496Y-113114102D01*
X135096726Y-113105302D01*
X135148848Y-113081415D01*
X135222808Y-113046205D01*
X135300809Y-113008235D01*
X135461033Y-112934992D01*
X135604619Y-112883156D01*
X135748224Y-112847933D01*
X135908506Y-112824528D01*
X135955839Y-112819704D01*
X136246206Y-112812253D01*
X136526410Y-112845836D01*
X136796022Y-112920376D01*
X137005620Y-113010357D01*
X137096070Y-113054991D01*
X137156502Y-113082040D01*
X137194392Y-113093645D01*
X137217217Y-113091950D01*
X137232455Y-113079096D01*
X137234784Y-113076017D01*
X137251798Y-113053289D01*
X137292167Y-112999653D01*
X137353701Y-112918009D01*
X137434216Y-112811255D01*
X137531524Y-112682287D01*
X137643438Y-112534006D01*
X137767771Y-112369308D01*
X137902337Y-112191092D01*
X138044948Y-112002256D01*
X138108395Y-111918255D01*
X138955662Y-110796553D01*
X138826202Y-110658160D01*
X138642720Y-110432922D01*
X138498365Y-110191549D01*
X138393371Y-109934627D01*
X138327969Y-109662741D01*
X138302392Y-109376478D01*
X138302002Y-109335457D01*
X138320140Y-109046365D01*
X138375062Y-108777684D01*
X138467535Y-108527519D01*
X138598323Y-108293973D01*
X138768191Y-108075150D01*
X138842202Y-107996419D01*
X138920105Y-107918947D01*
X138992734Y-107849360D01*
X139052148Y-107795101D01*
X139090404Y-107763611D01*
X139091352Y-107762951D01*
X139149843Y-107722692D01*
X138247010Y-106504594D01*
X138097729Y-106303160D01*
X137955412Y-106111075D01*
X137822134Y-105931146D01*
X137699975Y-105766179D01*
X137591010Y-105618980D01*
X137497317Y-105492356D01*
X137420973Y-105389113D01*
X137364056Y-105312058D01*
X137328642Y-105263998D01*
X137317208Y-105248337D01*
X137298265Y-105226947D01*
X137276433Y-105225272D01*
X137239381Y-105245338D01*
X137208255Y-105266233D01*
X137028721Y-105370958D01*
X136814626Y-105464244D01*
X136713178Y-105500183D01*
X136644900Y-105522034D01*
X136585900Y-105537829D01*
X136527108Y-105548565D01*
X136459457Y-105555239D01*
X136373878Y-105558850D01*
X136261302Y-105560395D01*
X136162386Y-105560780D01*
X135994166Y-105559541D01*
X135857859Y-105553590D01*
X135743089Y-105540817D01*
X135639481Y-105519108D01*
X135536659Y-105486352D01*
X135424248Y-105440437D01*
X135307820Y-105386837D01*
X135213547Y-105343249D01*
X135150123Y-105317344D01*
X135110875Y-105307123D01*
X135089133Y-105310588D01*
X135081362Y-105318999D01*
X135066130Y-105340754D01*
X135027771Y-105393855D01*
X134968306Y-105475545D01*
X134889751Y-105583071D01*
X134794127Y-105713676D01*
X134683452Y-105864606D01*
X134559744Y-106033106D01*
X134425022Y-106216420D01*
X134281306Y-106411794D01*
X134142802Y-106599923D01*
X133222255Y-107849798D01*
X130714533Y-107849798D01*
X130719816Y-107842521D01*
X130726025Y-107813000D01*
X130712087Y-107793017D01*
X130675849Y-107741947D01*
X130619700Y-107663127D01*
X130546029Y-107559891D01*
X130457225Y-107435576D01*
X130355676Y-107293517D01*
X130243771Y-107137049D01*
X130123899Y-106969510D01*
X129998448Y-106794233D01*
X129869808Y-106614555D01*
X129740367Y-106433812D01*
X129612513Y-106255339D01*
X129488637Y-106082472D01*
X129371125Y-105918546D01*
X129262368Y-105766898D01*
X129164754Y-105630862D01*
X129080671Y-105513775D01*
X129012508Y-105418972D01*
X128962655Y-105349789D01*
X128933499Y-105309561D01*
X128926775Y-105300516D01*
X128906788Y-105306107D01*
X128862362Y-105328254D01*
X128828755Y-105347221D01*
X128609084Y-105451997D01*
X128363537Y-105524534D01*
X128094342Y-105564293D01*
X127893820Y-105572335D01*
X127625917Y-105557169D01*
X127379700Y-105510340D01*
X127146137Y-105429371D01*
X126916199Y-105311782D01*
X126892216Y-105297403D01*
X126757861Y-105215779D01*
X125916380Y-106352722D01*
X125770419Y-106549913D01*
X125629922Y-106739686D01*
X125497241Y-106918864D01*
X125374731Y-107084270D01*
X125264745Y-107232729D01*
X125169635Y-107361063D01*
X125091756Y-107466098D01*
X125033460Y-107544656D01*
X124997100Y-107593561D01*
X124989417Y-107603854D01*
X124903934Y-107718044D01*
X122777043Y-107718044D01*
X122812445Y-107692315D01*
X123051367Y-107566417D01*
X123305305Y-107475957D01*
X123570698Y-107422138D01*
X123843982Y-107406158D01*
X124121596Y-107429220D01*
X124399977Y-107492522D01*
X124466762Y-107513923D01*
X124567700Y-107546938D01*
X124635724Y-107565759D01*
X124677367Y-107571665D01*
X124699158Y-107565935D01*
X124703961Y-107560366D01*
X124719028Y-107539090D01*
X124757322Y-107486548D01*
X124816815Y-107405488D01*
X124895477Y-107298660D01*
X124991276Y-107168814D01*
X125102185Y-107018698D01*
X125226171Y-106851064D01*
X125361206Y-106668660D01*
X125505260Y-106474235D01*
X125639821Y-106292759D01*
X126559040Y-105053485D01*
X126440132Y-104912223D01*
X126270379Y-104678743D01*
X126138695Y-104428402D01*
X126045826Y-104164390D01*
X125992521Y-103889898D01*
X125979524Y-103608117D01*
X126007584Y-103322239D01*
X126035863Y-103184463D01*
X126119453Y-102925487D01*
X126240135Y-102682572D01*
X126394551Y-102459170D01*
X126579345Y-102258730D01*
X126766092Y-102105301D01*
X129061187Y-102105301D01*
X129178511Y-102208213D01*
X129352327Y-102385865D01*
X129507427Y-102594766D01*
X129638093Y-102825839D01*
X129738607Y-103070008D01*
X129756444Y-103125695D01*
X129779244Y-103204879D01*
X129795232Y-103274127D01*
X129805634Y-103344214D01*
X129811676Y-103425912D01*
X129814584Y-103529996D01*
X129815510Y-103644711D01*
X129813443Y-103817975D01*
X129804174Y-103960998D01*
X129785261Y-104085640D01*
X129754267Y-104203760D01*
X129708752Y-104327217D01*
X129646279Y-104467871D01*
X129646183Y-104468075D01*
X129532335Y-104678983D01*
X129398880Y-104871276D01*
X129253698Y-105033754D01*
X129237092Y-105049567D01*
X129132212Y-105147670D01*
X130043765Y-106417347D01*
X130955319Y-107687023D01*
X131149136Y-107594087D01*
X131248725Y-107549303D01*
X131350954Y-107508225D01*
X131439365Y-107477296D01*
X131470059Y-107468457D01*
X131745130Y-107418494D01*
X132024703Y-107407384D01*
X132302229Y-107434460D01*
X132571158Y-107499052D01*
X132824942Y-107600492D01*
X132840688Y-107608311D01*
X132925142Y-107649243D01*
X132980568Y-107671434D01*
X133014726Y-107677157D01*
X133035379Y-107668686D01*
X133037999Y-107666112D01*
X133055998Y-107643277D01*
X133096146Y-107590043D01*
X133156054Y-107509669D01*
X133233335Y-107405413D01*
X133325601Y-107280536D01*
X133430461Y-107138297D01*
X133545529Y-106981953D01*
X133668416Y-106814766D01*
X133796734Y-106639993D01*
X133928094Y-106460893D01*
X134060109Y-106280727D01*
X134190389Y-106102753D01*
X134316546Y-105930230D01*
X134436192Y-105766417D01*
X134546940Y-105614574D01*
X134646399Y-105477960D01*
X134732183Y-105359834D01*
X134801903Y-105263454D01*
X134853170Y-105192080D01*
X134883596Y-105148972D01*
X134891327Y-105137036D01*
X134877445Y-105117517D01*
X134840910Y-105076897D01*
X134789390Y-105023669D01*
X134785097Y-105019366D01*
X134603703Y-104809220D01*
X134456517Y-104578262D01*
X134344285Y-104330967D01*
X134267754Y-104071811D01*
X134227670Y-103805269D01*
X134224780Y-103535815D01*
X134259831Y-103267927D01*
X134333570Y-103006077D01*
X134416839Y-102812072D01*
X134555897Y-102571920D01*
X134719204Y-102362578D01*
X134905048Y-102182992D01*
X134992501Y-102108846D01*
X134332865Y-101218891D01*
X134193614Y-101031015D01*
X134051805Y-100839681D01*
X133911427Y-100650272D01*
X133776470Y-100468172D01*
X133650924Y-100298763D01*
X133538777Y-100147428D01*
X133444020Y-100019551D01*
X133372784Y-99923406D01*
X133072340Y-99517878D01*
X132891428Y-99608673D01*
X132737618Y-99680432D01*
X132596776Y-99732537D01*
X132456743Y-99767679D01*
X132305360Y-99788549D01*
X132130467Y-99797837D01*
X132031443Y-99798978D01*
X131859039Y-99796596D01*
X131716718Y-99787149D01*
X131592433Y-99768072D01*
X131474139Y-99736797D01*
X131349789Y-99690757D01*
X131207336Y-99627387D01*
X131191824Y-99620089D01*
X130977143Y-99518717D01*
X130019165Y-100812009D01*
X129061187Y-102105301D01*
X126766092Y-102105301D01*
X126791160Y-102084705D01*
X127026638Y-101940545D01*
X127282423Y-101829702D01*
X127385902Y-101796555D01*
X127456038Y-101777884D01*
X127523078Y-101764702D01*
X127596747Y-101756104D01*
X127686773Y-101751187D01*
X127802881Y-101749046D01*
X127900501Y-101748714D01*
X128080431Y-101751675D01*
X128229719Y-101762016D01*
X128359771Y-101781928D01*
X128481994Y-101813600D01*
X128607795Y-101859221D01*
X128713038Y-101904670D01*
X128846046Y-101964979D01*
X129787327Y-100694533D01*
X129939522Y-100489027D01*
X130084554Y-100293020D01*
X130220418Y-100109234D01*
X130345108Y-99940389D01*
X130456618Y-99789208D01*
X130552942Y-99658413D01*
X130632074Y-99550723D01*
X130692008Y-99468862D01*
X130730738Y-99415551D01*
X130746259Y-99393510D01*
X130746300Y-99393441D01*
X130745606Y-99363822D01*
X130716183Y-99316586D01*
X130660554Y-99252918D01*
X130479520Y-99034421D01*
X130331303Y-98800038D01*
X130219046Y-98555573D01*
X130145892Y-98306830D01*
X130144431Y-98299829D01*
X130106147Y-98014919D01*
X130108289Y-97734675D01*
X130149214Y-97462509D01*
X130227281Y-97201832D01*
X130340849Y-96956055D01*
X130488277Y-96728590D01*
X130667924Y-96522847D01*
X130878148Y-96342239D01*
X131117308Y-96190176D01*
X131173478Y-96160974D01*
X131430247Y-96055497D01*
X131695894Y-95989545D01*
X131966012Y-95962413D01*
X132236195Y-95973394D01*
G37*
G36*
X119837707Y-123895423D02*
G01*
X120110594Y-123954253D01*
X120367567Y-124052280D01*
X120608057Y-124189279D01*
X120831492Y-124365027D01*
X120860887Y-124392246D01*
X121058968Y-124607318D01*
X121220805Y-124844132D01*
X121345798Y-125101661D01*
X121431724Y-125372137D01*
X121455460Y-125511948D01*
X121467587Y-125678119D01*
X121468260Y-125856307D01*
X121457633Y-126032170D01*
X121435860Y-126191364D01*
X121422214Y-126254764D01*
X121333094Y-126527533D01*
X121205740Y-126782640D01*
X121041322Y-127017992D01*
X120918132Y-127156312D01*
X120786848Y-127291015D01*
X121686923Y-128506347D01*
X122586998Y-129721678D01*
X122685743Y-129646004D01*
X122773889Y-129587305D01*
X122889985Y-129522441D01*
X123021395Y-129457415D01*
X123155486Y-129398229D01*
X123279622Y-129350887D01*
X123356464Y-129327317D01*
X123434487Y-129310325D01*
X123521740Y-129298835D01*
X123627826Y-129292077D01*
X123762351Y-129289282D01*
X123833111Y-129289109D01*
X124024126Y-129293659D01*
X124185787Y-129308541D01*
X124330439Y-129336574D01*
X124470426Y-129380578D01*
X124618091Y-129443370D01*
X124713322Y-129490122D01*
X124910691Y-129590609D01*
X125781510Y-128436824D01*
X126652329Y-127283039D01*
X126521281Y-127142949D01*
X126339494Y-126919834D01*
X126190255Y-126675749D01*
X126077167Y-126417257D01*
X126022157Y-126234164D01*
X126000719Y-126110219D01*
X125988170Y-125958746D01*
X125984509Y-125793644D01*
X125989739Y-125628811D01*
X126003859Y-125478144D01*
X126022114Y-125374740D01*
X126106187Y-125102514D01*
X126225584Y-124850180D01*
X126377364Y-124620504D01*
X126558590Y-124416258D01*
X126766323Y-124240209D01*
X126997622Y-124095127D01*
X127249551Y-123983780D01*
X127519170Y-123908938D01*
X127591783Y-123895803D01*
X127716630Y-123883112D01*
X127866686Y-123879272D01*
X128027306Y-123883672D01*
X128183846Y-123895704D01*
X128321661Y-123914760D01*
X128387740Y-123928916D01*
X128517755Y-123971133D01*
X128666364Y-124033693D01*
X128819731Y-124109676D01*
X128964019Y-124192160D01*
X129085390Y-124274226D01*
X129098878Y-124284593D01*
X129304247Y-124471950D01*
X129479928Y-124688715D01*
X129624447Y-124932687D01*
X129736328Y-125201661D01*
X129757529Y-125267619D01*
X129779950Y-125345443D01*
X129795672Y-125414156D01*
X129805905Y-125484460D01*
X129811856Y-125567056D01*
X129814734Y-125672645D01*
X129815641Y-125782325D01*
X129814096Y-125945836D01*
X129806626Y-126079205D01*
X129791257Y-126194476D01*
X129766015Y-126303693D01*
X129728925Y-126418897D01*
X129697569Y-126502592D01*
X129618506Y-126672628D01*
X129513914Y-126848659D01*
X129394210Y-127014262D01*
X129312891Y-127108903D01*
X129168233Y-127264309D01*
X130019159Y-128367369D01*
X130166425Y-128558178D01*
X130306993Y-128740132D01*
X130438575Y-128910279D01*
X130558881Y-129065667D01*
X130665621Y-129203343D01*
X130756505Y-129320355D01*
X130829246Y-129413752D01*
X130881553Y-129480581D01*
X130911136Y-129517891D01*
X130915860Y-129523617D01*
X130961635Y-129576806D01*
X131184071Y-129471795D01*
X131348591Y-129399185D01*
X131494338Y-129347800D01*
X131636662Y-129313755D01*
X131790917Y-129293162D01*
X131925522Y-129284121D01*
X132210284Y-129287751D01*
X132475883Y-129327391D01*
X132727176Y-129404149D01*
X132969020Y-129519132D01*
X132978046Y-129524246D01*
X133050534Y-129564788D01*
X133107154Y-129595004D01*
X133139415Y-129610428D01*
X133143717Y-129611360D01*
X133156723Y-129593989D01*
X133193134Y-129545521D01*
X133250878Y-129468712D01*
X133327881Y-129366316D01*
X133422072Y-129241089D01*
X133531378Y-129095787D01*
X133653726Y-128933165D01*
X133787043Y-128755979D01*
X133929257Y-128566983D01*
X134019305Y-128447322D01*
X134165922Y-128252294D01*
X134304801Y-128067174D01*
X134433877Y-127894741D01*
X134551082Y-127737773D01*
X134654351Y-127599050D01*
X134741616Y-127481350D01*
X134810812Y-127387452D01*
X134859871Y-127320135D01*
X134886729Y-127282179D01*
X134891327Y-127274641D01*
X134876342Y-127253376D01*
X134839858Y-127220285D01*
X134835787Y-127217046D01*
X134783619Y-127167359D01*
X134716765Y-127091364D01*
X134642768Y-126998820D01*
X134569176Y-126899483D01*
X134503534Y-126803112D01*
X134459192Y-126730043D01*
X134351468Y-126495908D01*
X134275999Y-126241793D01*
X134233678Y-125976209D01*
X134225398Y-125707664D01*
X134252052Y-125444669D01*
X134302133Y-125234137D01*
X134403268Y-124976497D01*
X134540579Y-124736269D01*
X134710216Y-124517595D01*
X134908330Y-124324620D01*
X135131070Y-124161484D01*
X135374586Y-124032332D01*
X135446695Y-124002541D01*
X135636770Y-123938755D01*
X135822463Y-123898879D01*
X136018174Y-123880713D01*
X136235743Y-123881945D01*
X136429928Y-123896087D01*
X136596858Y-123922574D01*
X136750710Y-123964904D01*
X136905666Y-124026578D01*
X136995247Y-124069384D01*
X137238609Y-124210016D01*
X137447929Y-124372629D01*
X137627380Y-124561499D01*
X137781136Y-124780897D01*
X137891031Y-124986715D01*
X137973309Y-125184894D01*
X138028016Y-125378865D01*
X138057590Y-125581302D01*
X138064472Y-125804880D01*
X138062488Y-125877655D01*
X138035388Y-126156636D01*
X137975167Y-126411867D01*
X137879630Y-126648559D01*
X137746583Y-126871920D01*
X137573831Y-127087160D01*
X137535697Y-127128244D01*
X137394330Y-127277316D01*
X138241818Y-128399337D01*
X138387202Y-128591838D01*
X138525451Y-128774934D01*
X138654381Y-128945732D01*
X138771811Y-129101338D01*
X138875558Y-129238860D01*
X138963440Y-129355405D01*
X139033276Y-129448080D01*
X139082882Y-129513992D01*
X139110076Y-129550248D01*
X139114354Y-129556024D01*
X139128364Y-129568876D01*
X139150026Y-129571575D01*
X139186130Y-129562018D01*
X139243467Y-129538103D01*
X139328827Y-129497726D01*
X139374316Y-129475526D01*
X139568892Y-129389456D01*
X139751629Y-129330404D01*
X139936079Y-129295587D01*
X140135794Y-129282221D01*
X140303920Y-129284606D01*
X140564209Y-129308712D01*
X140799687Y-129360687D01*
X141019978Y-129443718D01*
X141234706Y-129560991D01*
X141329851Y-129624222D01*
X141466041Y-129719374D01*
X141742945Y-129345030D01*
X141815358Y-129247156D01*
X141908738Y-129120974D01*
X142018837Y-128972223D01*
X142141405Y-128806643D01*
X142272194Y-128629973D01*
X142406955Y-128447954D01*
X142541439Y-128266325D01*
X142613790Y-128168618D01*
X143207730Y-127366549D01*
X142995108Y-127151710D01*
X142805747Y-126936398D01*
X142656940Y-126712644D01*
X142547131Y-126476680D01*
X142474763Y-126224735D01*
X142438281Y-125953041D01*
X142432945Y-125790161D01*
X142453010Y-125502642D01*
X142512778Y-125229123D01*
X142611603Y-124971175D01*
X142748844Y-124730371D01*
X142923854Y-124508284D01*
X142983141Y-124446032D01*
X143103348Y-124331136D01*
X143215327Y-124239668D01*
X143334319Y-124160617D01*
X143475563Y-124082973D01*
X143509169Y-124065971D01*
X143651560Y-123999708D01*
X143782618Y-123951261D01*
X143913748Y-123918202D01*
X144056356Y-123898099D01*
X144221847Y-123888522D01*
X144350126Y-123886787D01*
X144487486Y-123887439D01*
X144592538Y-123890451D01*
X144675321Y-123896764D01*
X144745871Y-123907322D01*
X144814226Y-123923070D01*
X144854069Y-123934152D01*
X145130697Y-124034971D01*
X145382929Y-124169291D01*
X145608858Y-124335504D01*
X145806574Y-124532004D01*
X145974169Y-124757183D01*
X146096554Y-124980636D01*
X146196689Y-125242211D01*
X146256844Y-125508048D01*
X146278557Y-125774558D01*
X146263366Y-126038151D01*
X146212809Y-126295240D01*
X146128424Y-126542233D01*
X146011749Y-126775543D01*
X145864322Y-126991580D01*
X145687681Y-127186755D01*
X145483363Y-127357479D01*
X145252907Y-127500163D01*
X144997850Y-127611217D01*
X144964471Y-127622644D01*
X144704391Y-127688905D01*
X144436911Y-127719109D01*
X144169321Y-127713586D01*
X143908911Y-127672662D01*
X143662971Y-127596665D01*
X143578343Y-127560303D01*
X143503164Y-127527403D01*
X143455879Y-127513152D01*
X143427397Y-127515523D01*
X143415588Y-127524047D01*
X143398801Y-127545272D01*
X143358946Y-127597736D01*
X143298134Y-127678605D01*
X143218479Y-127785044D01*
X143122095Y-127914220D01*
X143011093Y-128063298D01*
X142887588Y-128229444D01*
X142753693Y-128409824D01*
X142611520Y-128601605D01*
X142520602Y-128724371D01*
X141652119Y-129897527D01*
X141756937Y-130034282D01*
X141838542Y-130154349D01*
X141919878Y-130297778D01*
X141993699Y-130449894D01*
X142052757Y-130596025D01*
X142083890Y-130696327D01*
X142134988Y-130977999D01*
X142146020Y-131256257D01*
X142118787Y-131527750D01*
X142055090Y-131789128D01*
X141956728Y-132037039D01*
X141825503Y-132268133D01*
X141663215Y-132479057D01*
X141471664Y-132666461D01*
X141252651Y-132826994D01*
X141007977Y-132957304D01*
X140832499Y-133025397D01*
X140560257Y-133094423D01*
X140281117Y-133122771D01*
X139999302Y-133110643D01*
X139719037Y-133058245D01*
X139444546Y-132965780D01*
X139424771Y-132957433D01*
X139411400Y-132964101D01*
X139384176Y-132990968D01*
X139341929Y-133039551D01*
X139283486Y-133111366D01*
X139207675Y-133207929D01*
X139113325Y-133330756D01*
X138999263Y-133481363D01*
X138864318Y-133661267D01*
X138707318Y-133871984D01*
X138527091Y-134115030D01*
X138460885Y-134204528D01*
X138309839Y-134408962D01*
X138166200Y-134603646D01*
X138031951Y-134785877D01*
X137909076Y-134952947D01*
X137799557Y-135102153D01*
X137705379Y-135230789D01*
X137628523Y-135336149D01*
X137570975Y-135415529D01*
X137534716Y-135466223D01*
X137521749Y-135485470D01*
X137530974Y-135510603D01*
X137561892Y-135557269D01*
X137607874Y-135615492D01*
X137609184Y-135617039D01*
X137779724Y-135848829D01*
X137912666Y-136098879D01*
X138008047Y-136363893D01*
X138033767Y-136483981D01*
X138052400Y-136631918D01*
X138063231Y-136793665D01*
X138065546Y-136955184D01*
X138058631Y-137102437D01*
X138049540Y-137179490D01*
X137986804Y-137447651D01*
X137885840Y-137702352D01*
X137749647Y-137939910D01*
X137581222Y-138156645D01*
X137383561Y-138348874D01*
X137159662Y-138512916D01*
X136912522Y-138645090D01*
X136827317Y-138680719D01*
X136608374Y-138746475D01*
X136368717Y-138783667D01*
X136118635Y-138792602D01*
X135868422Y-138773589D01*
X135628368Y-138726937D01*
X135408766Y-138652954D01*
X135373000Y-138637125D01*
X135303220Y-138606472D01*
X135250002Y-138585894D01*
X135223351Y-138579203D01*
X135222207Y-138579690D01*
X135207646Y-138598895D01*
X135170313Y-138648953D01*
X135112597Y-138726629D01*
X135036889Y-138828689D01*
X134945581Y-138951899D01*
X134841063Y-139093026D01*
X134725726Y-139248836D01*
X134601960Y-139416095D01*
X134472158Y-139591568D01*
X134338709Y-139772022D01*
X134204005Y-139954224D01*
X134070436Y-140134938D01*
X133940393Y-140310931D01*
X133816267Y-140478970D01*
X133700449Y-140635820D01*
X133595330Y-140778247D01*
X133503301Y-140903018D01*
X133426752Y-141006898D01*
X133368075Y-141086654D01*
X133329660Y-141139052D01*
X133313898Y-141160858D01*
X133313709Y-141161148D01*
X133320675Y-141186515D01*
X133352599Y-141234106D01*
X133404190Y-141296480D01*
X133430290Y-141325124D01*
X133611305Y-141547265D01*
X133752948Y-141784816D01*
X133855448Y-142038369D01*
X133919037Y-142308518D01*
X133943945Y-142595855D01*
X133944353Y-142645044D01*
X133927728Y-142921864D01*
X133877709Y-143177312D01*
X133792021Y-143418000D01*
X133668390Y-143650540D01*
X133530483Y-143848407D01*
X133368845Y-144026790D01*
X133174898Y-144188157D01*
X132957091Y-144327063D01*
X132723872Y-144438067D01*
X132501703Y-144511193D01*
X132370881Y-144536555D01*
X132214350Y-144554097D01*
X132048183Y-144563016D01*
X131888455Y-144562513D01*
X131751240Y-144551784D01*
X131734863Y-144549439D01*
X131461351Y-144486363D01*
X131201497Y-144383834D01*
X130958181Y-144243374D01*
X130734281Y-144066506D01*
X130631979Y-143966432D01*
X130449393Y-143748383D01*
X130306359Y-143517281D01*
X130201178Y-143269741D01*
X130132152Y-143002379D01*
X130123737Y-142953763D01*
X130111046Y-142828915D01*
X130107205Y-142678859D01*
X130111606Y-142518239D01*
X130123638Y-142361700D01*
X130142693Y-142223884D01*
X130156850Y-142157805D01*
X130204186Y-142013077D01*
X130273494Y-141854068D01*
X130358841Y-141690939D01*
X130454298Y-141533852D01*
X130553931Y-141392966D01*
X130651811Y-141278444D01*
X130693610Y-141238300D01*
X130726758Y-141202930D01*
X130739200Y-141178822D01*
X130726982Y-141159881D01*
X130691912Y-141110125D01*
X130636365Y-141032783D01*
X130562714Y-140931081D01*
X130473336Y-140808244D01*
X130370603Y-140667499D01*
X130256892Y-140512074D01*
X130134576Y-140345193D01*
X130006031Y-140170084D01*
X129873631Y-139989973D01*
X129739751Y-139808086D01*
X129606765Y-139627650D01*
X129477048Y-139451891D01*
X129352975Y-139284036D01*
X129236920Y-139127311D01*
X129131258Y-138984942D01*
X129038363Y-138860156D01*
X128960612Y-138756180D01*
X128900377Y-138676239D01*
X128860033Y-138623560D01*
X128842873Y-138602317D01*
X128819471Y-138587439D01*
X128785256Y-138592515D01*
X128734706Y-138615286D01*
X128635672Y-138658213D01*
X128512205Y-138701855D01*
X128381758Y-138740556D01*
X128261784Y-138768663D01*
X128260634Y-138768884D01*
X128153188Y-138782509D01*
X128018162Y-138789534D01*
X127869800Y-138790145D01*
X127722345Y-138784527D01*
X127590039Y-138772864D01*
X127503453Y-138759050D01*
X127232480Y-138680739D01*
X126979966Y-138565768D01*
X126784971Y-138440187D01*
X129043867Y-138440187D01*
X130002061Y-139733889D01*
X130960255Y-141027591D01*
X131130420Y-140937262D01*
X131235653Y-140886760D01*
X131358176Y-140835886D01*
X131474144Y-140794432D01*
X131491243Y-140789101D01*
X131570529Y-140766282D01*
X131639954Y-140750274D01*
X131710304Y-140739844D01*
X131792366Y-140733761D01*
X131896925Y-140730792D01*
X132010259Y-140729802D01*
X132148275Y-140730193D01*
X132254576Y-140733407D01*
X132339773Y-140740399D01*
X132414479Y-140752122D01*
X132489304Y-140769531D01*
X132508091Y-140774561D01*
X132702875Y-140837109D01*
X132879698Y-140912329D01*
X133004082Y-140980913D01*
X133086993Y-141033253D01*
X134042121Y-139742931D01*
X134194932Y-139536258D01*
X134340168Y-139339380D01*
X134475885Y-139154956D01*
X134600142Y-138985647D01*
X134710997Y-138834113D01*
X134806508Y-138703013D01*
X134884733Y-138595009D01*
X134943730Y-138512760D01*
X134981558Y-138458927D01*
X134996273Y-138436170D01*
X134996399Y-138435691D01*
X134980522Y-138414812D01*
X134939898Y-138376927D01*
X134888044Y-138334035D01*
X134792901Y-138247352D01*
X134689927Y-138133943D01*
X134588793Y-138005666D01*
X134499166Y-137874384D01*
X134461266Y-137810563D01*
X134346966Y-137563858D01*
X134269717Y-137302483D01*
X134229652Y-137032246D01*
X134226906Y-136758957D01*
X134261614Y-136488428D01*
X134333910Y-136226467D01*
X134419918Y-136024944D01*
X134499162Y-135878121D01*
X134580193Y-135754273D01*
X134675160Y-135636234D01*
X134760481Y-135543642D01*
X134897040Y-135401289D01*
X134858760Y-135342867D01*
X134838923Y-135314202D01*
X134797331Y-135255337D01*
X134736388Y-135169624D01*
X134658500Y-135060414D01*
X134566074Y-134931059D01*
X134461516Y-134784911D01*
X134347231Y-134625320D01*
X134225625Y-134455638D01*
X134099104Y-134279217D01*
X133970075Y-134099408D01*
X133840942Y-133919563D01*
X133714113Y-133743033D01*
X133591992Y-133573169D01*
X133476986Y-133413323D01*
X133371501Y-133266847D01*
X133277942Y-133137092D01*
X133198716Y-133027409D01*
X133136228Y-132941150D01*
X133092885Y-132881667D01*
X133071091Y-132852310D01*
X133069142Y-132849906D01*
X133041326Y-132848132D01*
X132993525Y-132867673D01*
X132978255Y-132876533D01*
X132921167Y-132907646D01*
X132841738Y-132945802D01*
X132757142Y-132982754D01*
X132756954Y-132982832D01*
X132497767Y-133067731D01*
X132228470Y-133114684D01*
X131955277Y-133123894D01*
X131684402Y-133095568D01*
X131422059Y-133029912D01*
X131181618Y-132930752D01*
X131041467Y-132860220D01*
X130105392Y-134133543D01*
X129169317Y-135406866D01*
X129262880Y-135504062D01*
X129453867Y-135731542D01*
X129607561Y-135978867D01*
X129724937Y-136247693D01*
X129756583Y-136343754D01*
X129779326Y-136422522D01*
X129795275Y-136491489D01*
X129805653Y-136561401D01*
X129811682Y-136643005D01*
X129814585Y-136747047D01*
X129815510Y-136861725D01*
X129813483Y-137034630D01*
X129804283Y-137177336D01*
X129785392Y-137301755D01*
X129754295Y-137419798D01*
X129708476Y-137543379D01*
X129645417Y-137684409D01*
X129638743Y-137698506D01*
X129526428Y-137907842D01*
X129399946Y-138088089D01*
X129249712Y-138252276D01*
X129190965Y-138307258D01*
X129043867Y-138440187D01*
X126784971Y-138440187D01*
X126748747Y-138416858D01*
X126541657Y-138236731D01*
X126361534Y-138028110D01*
X126211212Y-137793717D01*
X126093527Y-137536275D01*
X126033084Y-137347548D01*
X126001081Y-137181452D01*
X125984842Y-136990574D01*
X125984373Y-136789459D01*
X125999677Y-136592654D01*
X126030759Y-136414705D01*
X126032802Y-136406262D01*
X126103757Y-136186771D01*
X126206574Y-135965948D01*
X126333894Y-135758487D01*
X126404412Y-135664395D01*
X126459628Y-135592039D01*
X126500901Y-135530756D01*
X126523256Y-135488395D01*
X126524946Y-135474152D01*
X126510129Y-135454059D01*
X126472128Y-135402620D01*
X126412953Y-135322553D01*
X126334613Y-135216576D01*
X126239119Y-135087407D01*
X126128480Y-134937764D01*
X126004705Y-134770365D01*
X125869805Y-134587930D01*
X125725788Y-134393175D01*
X125582476Y-134199382D01*
X124655416Y-132945796D01*
X124556733Y-132988170D01*
X124366207Y-133053286D01*
X124151295Y-133098234D01*
X123925793Y-133121208D01*
X123703498Y-133120403D01*
X123610117Y-133112033D01*
X123324210Y-133058040D01*
X123058389Y-132966791D01*
X122812890Y-132838403D01*
X122797549Y-132827122D01*
X124898222Y-132827122D01*
X124898277Y-132827454D01*
X124911352Y-132847755D01*
X124947701Y-132899335D01*
X125005328Y-132979465D01*
X125082237Y-133085417D01*
X125176433Y-133214461D01*
X125285919Y-133363869D01*
X125408701Y-133530913D01*
X125542781Y-133712862D01*
X125686166Y-133906989D01*
X125822862Y-134091676D01*
X126742804Y-135333370D01*
X126836038Y-135269223D01*
X126899996Y-135229702D01*
X126986569Y-135182036D01*
X127079551Y-135135048D01*
X127102418Y-135124199D01*
X127227949Y-135068278D01*
X127337782Y-135027062D01*
X127442734Y-134998407D01*
X127553625Y-134980171D01*
X127681271Y-134970209D01*
X127836492Y-134966379D01*
X127900501Y-134966090D01*
X128083777Y-134969058D01*
X128236442Y-134980046D01*
X128369891Y-135001555D01*
X128495519Y-135036082D01*
X128624722Y-135086127D01*
X128768896Y-135154190D01*
X128777169Y-135158346D01*
X128863439Y-135201092D01*
X128920065Y-135226262D01*
X128954935Y-135235948D01*
X128975935Y-135232236D01*
X128990951Y-135217217D01*
X128992310Y-135215339D01*
X129009046Y-135192391D01*
X129048818Y-135138115D01*
X129109564Y-135055316D01*
X129189223Y-134946802D01*
X129285733Y-134815380D01*
X129397033Y-134663855D01*
X129521062Y-134495036D01*
X129655758Y-134311728D01*
X129799059Y-134116738D01*
X129921175Y-133950599D01*
X130823078Y-132723626D01*
X130801357Y-132701094D01*
X133293903Y-132701094D01*
X133296551Y-132712561D01*
X133311360Y-132735099D01*
X133348922Y-132789221D01*
X133407242Y-132872125D01*
X133484324Y-132981005D01*
X133578173Y-133113057D01*
X133686793Y-133265478D01*
X133808190Y-133435462D01*
X133940367Y-133620207D01*
X134081330Y-133816908D01*
X134208833Y-133994569D01*
X135104571Y-135241836D01*
X135300035Y-135146151D01*
X135457318Y-135074748D01*
X135600434Y-135023825D01*
X135743684Y-134989922D01*
X135901372Y-134969582D01*
X136070044Y-134959922D01*
X136363001Y-134967348D01*
X136633601Y-135010594D01*
X136882290Y-135089773D01*
X137109514Y-135204996D01*
X137147457Y-135229105D01*
X137213904Y-135269798D01*
X137268877Y-135298250D01*
X137301094Y-135308663D01*
X137302133Y-135308578D01*
X137318956Y-135291324D01*
X137358873Y-135242657D01*
X137419836Y-135165265D01*
X137499797Y-135061837D01*
X137596709Y-134935062D01*
X137708524Y-134787629D01*
X137833194Y-134622228D01*
X137968671Y-134441547D01*
X138112908Y-134248275D01*
X138248810Y-134065395D01*
X139167917Y-132826112D01*
X139100389Y-132773310D01*
X139003433Y-132691402D01*
X138898403Y-132592686D01*
X138796179Y-132488209D01*
X138707641Y-132389018D01*
X138651679Y-132317688D01*
X138507571Y-132083022D01*
X138402431Y-131837271D01*
X138335078Y-131576634D01*
X138304335Y-131297308D01*
X138302002Y-131190135D01*
X138322283Y-130902867D01*
X138382759Y-130628628D01*
X138482881Y-130368828D01*
X138622099Y-130124879D01*
X138799865Y-129898191D01*
X138808913Y-129888255D01*
X138937036Y-129748431D01*
X138077459Y-128607455D01*
X137931506Y-128413785D01*
X137792894Y-128229979D01*
X137663752Y-128058853D01*
X137546207Y-127903219D01*
X137442388Y-127765892D01*
X137354421Y-127649685D01*
X137284436Y-127557411D01*
X137234559Y-127491886D01*
X137206919Y-127455922D01*
X137202029Y-127449825D01*
X137177582Y-127451534D01*
X137123981Y-127469239D01*
X137049858Y-127499772D01*
X136986750Y-127528819D01*
X136833583Y-127596777D01*
X136691606Y-127646165D01*
X136543814Y-127681849D01*
X136373201Y-127708693D01*
X136346133Y-127712070D01*
X136125962Y-127722201D01*
X135892282Y-127703387D01*
X135657854Y-127658113D01*
X135435443Y-127588864D01*
X135237808Y-127498125D01*
X135232678Y-127495255D01*
X135169416Y-127460761D01*
X135131410Y-127445641D01*
X135107285Y-127447988D01*
X135085660Y-127465896D01*
X135081783Y-127469961D01*
X135060142Y-127496227D01*
X135016443Y-127552127D01*
X134953218Y-127634289D01*
X134873001Y-127739340D01*
X134778325Y-127863910D01*
X134671721Y-128004626D01*
X134555724Y-128158118D01*
X134432866Y-128321014D01*
X134305679Y-128489941D01*
X134176697Y-128661528D01*
X134048452Y-128832405D01*
X133923478Y-128999198D01*
X133804306Y-129158537D01*
X133693471Y-129307049D01*
X133593504Y-129441364D01*
X133506939Y-129558109D01*
X133436308Y-129653913D01*
X133384144Y-129725404D01*
X133352981Y-129769212D01*
X133344871Y-129782079D01*
X133358964Y-129805373D01*
X133394893Y-129845918D01*
X133421078Y-129872040D01*
X133544987Y-130011887D01*
X133661279Y-130183398D01*
X133764034Y-130375898D01*
X133847331Y-130578717D01*
X133889761Y-130716793D01*
X133921310Y-130875883D01*
X133940146Y-131055918D01*
X133945951Y-131242576D01*
X133938409Y-131421536D01*
X133917201Y-131578480D01*
X133909620Y-131613041D01*
X133820913Y-131894357D01*
X133695732Y-132156210D01*
X133535753Y-132395498D01*
X133407016Y-132544714D01*
X133341460Y-132617079D01*
X133304906Y-132667457D01*
X133293903Y-132701094D01*
X130801357Y-132701094D01*
X130647045Y-132541019D01*
X130459640Y-132318475D01*
X130311746Y-132080634D01*
X130203361Y-131827494D01*
X130134485Y-131559051D01*
X130105117Y-131275303D01*
X130103948Y-131201108D01*
X130120063Y-130936574D01*
X130169368Y-130690065D01*
X130254369Y-130450392D01*
X130289142Y-130374097D01*
X130354624Y-130251195D01*
X130434672Y-130122026D01*
X130521598Y-129997523D01*
X130607715Y-129888621D01*
X130685335Y-129806257D01*
X130693610Y-129798767D01*
X130726765Y-129763314D01*
X130739200Y-129739055D01*
X130726666Y-129720107D01*
X130690750Y-129670934D01*
X130633974Y-129594832D01*
X130558864Y-129495100D01*
X130467944Y-129375037D01*
X130363739Y-129237940D01*
X130248773Y-129087107D01*
X130125571Y-128925836D01*
X129996658Y-128757426D01*
X129864558Y-128585175D01*
X129731796Y-128412380D01*
X129600896Y-128242339D01*
X129474383Y-128078352D01*
X129354781Y-127923715D01*
X129244616Y-127781728D01*
X129146411Y-127655687D01*
X129062692Y-127548891D01*
X129062569Y-127548735D01*
X128960549Y-127419149D01*
X128758137Y-127520665D01*
X128553830Y-127610413D01*
X128352341Y-127670887D01*
X128140378Y-127705116D01*
X127904648Y-127716130D01*
X127900501Y-127716134D01*
X127665260Y-127705559D01*
X127453133Y-127671570D01*
X127250028Y-127611024D01*
X127056208Y-127527799D01*
X126967113Y-127485158D01*
X126908135Y-127459543D01*
X126871527Y-127448976D01*
X126849537Y-127451479D01*
X126834417Y-127465074D01*
X126830624Y-127470225D01*
X126813429Y-127493404D01*
X126772893Y-127547490D01*
X126711207Y-127629577D01*
X126630558Y-127736758D01*
X126533136Y-127866128D01*
X126421129Y-128014779D01*
X126296727Y-128179805D01*
X126162119Y-128358301D01*
X126019494Y-128547359D01*
X125955914Y-128631616D01*
X125108617Y-129754385D01*
X125229418Y-129881491D01*
X125403733Y-130094831D01*
X125547942Y-130334363D01*
X125658077Y-130592933D01*
X125699590Y-130728864D01*
X125729647Y-130885833D01*
X125745668Y-131068172D01*
X125747631Y-131261265D01*
X125735510Y-131450497D01*
X125709281Y-131621252D01*
X125701154Y-131656766D01*
X125624271Y-131897138D01*
X125516349Y-132127937D01*
X125382195Y-132341740D01*
X125226620Y-132531125D01*
X125054431Y-132688671D01*
X125012189Y-132720190D01*
X124953559Y-132765579D01*
X124912694Y-132803931D01*
X124898222Y-132827122D01*
X122797549Y-132827122D01*
X122587946Y-132672994D01*
X122434412Y-132526349D01*
X122263560Y-132322912D01*
X122128494Y-132110341D01*
X122023231Y-131878107D01*
X121964264Y-131698862D01*
X121939186Y-131578327D01*
X121922443Y-131428801D01*
X121914158Y-131262861D01*
X121914452Y-131093080D01*
X121923445Y-130932035D01*
X121941258Y-130792299D01*
X121954917Y-130728864D01*
X121991087Y-130616090D01*
X122043638Y-130485120D01*
X122106554Y-130348484D01*
X122173823Y-130218709D01*
X122239431Y-130108324D01*
X122281066Y-130049404D01*
X122326938Y-129990122D01*
X122362973Y-129941863D01*
X122378969Y-129918765D01*
X122369668Y-129896444D01*
X122335458Y-129841472D01*
X122277092Y-129754910D01*
X122195327Y-129637816D01*
X122090917Y-129491253D01*
X121964615Y-129316279D01*
X121817177Y-129113956D01*
X121649356Y-128885344D01*
X121489579Y-128668890D01*
X121340898Y-128467919D01*
X121199699Y-128277049D01*
X121067983Y-128098989D01*
X120947756Y-127936450D01*
X120841020Y-127792139D01*
X120749781Y-127668768D01*
X120676041Y-127569044D01*
X120621804Y-127495678D01*
X120589076Y-127451379D01*
X120579668Y-127438609D01*
X120560412Y-127444576D01*
X120514925Y-127466792D01*
X120461650Y-127495680D01*
X120287141Y-127577239D01*
X120086057Y-127643766D01*
X119872211Y-127692291D01*
X119659415Y-127719847D01*
X119461482Y-127723467D01*
X119416181Y-127720306D01*
X119174950Y-127683444D01*
X118935070Y-127618584D01*
X118708353Y-127529794D01*
X118506610Y-127421142D01*
X118461992Y-127391719D01*
X118252693Y-127223089D01*
X118066860Y-127023675D01*
X117908653Y-126799828D01*
X117782232Y-126557902D01*
X117691757Y-126304250D01*
X117659683Y-126166599D01*
X117626648Y-125885847D01*
X117633322Y-125611902D01*
X117677309Y-125347666D01*
X117756216Y-125096043D01*
X117867645Y-124859936D01*
X118009204Y-124642247D01*
X118178495Y-124445881D01*
X118373125Y-124273739D01*
X118590698Y-124128726D01*
X118828819Y-124013744D01*
X119085092Y-123931696D01*
X119357123Y-123885486D01*
X119549476Y-123876015D01*
X119837707Y-123895423D01*
G37*
%TD*%
D11*
%TO.C,SW2*%
X116233000Y-152094000D03*
X120033000Y-152094000D03*
%TD*%
%TO.C,SW4*%
X144245000Y-151660500D03*
X148045000Y-151660500D03*
%TD*%
D12*
%TO.C,K1*%
X107188000Y-80391000D03*
X107188000Y-70231000D03*
X107188000Y-67691000D03*
X114808000Y-67691000D03*
X114808000Y-70231000D03*
X114808000Y-80391000D03*
%TD*%
D11*
%TO.C,SW1*%
X102233000Y-152094000D03*
X106033000Y-152094000D03*
%TD*%
%TO.C,SW3*%
X130233000Y-152094000D03*
X134033000Y-152094000D03*
%TD*%
D13*
%TO.C,J1*%
X161305000Y-89403000D03*
X161305000Y-91943000D03*
X163845000Y-89403000D03*
X163845000Y-91943000D03*
X166385000Y-89403000D03*
X166385000Y-91943000D03*
%TD*%
D14*
%TO.C,J4*%
X98090000Y-93330000D03*
X98090000Y-87550000D03*
D15*
X94440000Y-94760000D03*
D16*
X98620000Y-94760000D03*
D15*
X94440000Y-86120000D03*
D16*
X98620000Y-86120000D03*
%TD*%
D11*
%TO.C,SW5*%
X158245000Y-151660500D03*
X162045000Y-151660500D03*
%TD*%
D17*
%TO.C,SW6*%
X94070000Y-70100000D03*
X94070000Y-67100000D03*
%TD*%
D18*
%TO.C,J2*%
X113762000Y-64770000D03*
D13*
X111222000Y-64770000D03*
X108682000Y-64770000D03*
%TD*%
M02*
