<?xml version="1.0" encoding="UTF-8"?>
<!DOCTYPE svg PUBLIC "-//W3C//DTD SVG 1.1//EN" "http://www.w3.org/Graphics/SVG/1.1/DTD/svg11.dtd">
<!-- Creator: CorelDRAW 2018 (64-Bit) -->
<svg xmlns="http://www.w3.org/2000/svg" xml:space="preserve" width="210mm" height="297mm" version="1.1" style="shape-rendering:geometricPrecision; text-rendering:geometricPrecision; image-rendering:optimizeQuality; fill-rule:evenodd; clip-rule:evenodd"
viewBox="0 0 2100000 2970000"
 xmlns:xlink="http://www.w3.org/1999/xlink">
 <defs>
  <style type="text/css">
   <![CDATA[
    .fil6 {fill:#E5D72B}
    .fil11 {fill:#EAD82A}
    .fil4 {fill:#EBDE23}
    .fil7 {fill:#ECE328}
    .fil3 {fill:#EFEA23}
    .fil1 {fill:#F2E623}
    .fil2 {fill:#F3EC23}
    .fil0 {fill:#F4E723}
    .fil5 {fill:#F6F124}
    .fil10 {fill:#FBF424}
    .fil9 {fill:#FBF724}
    .fil8 {fill:#FDF521}
   ]]>
  </style>
 </defs>
 <g id="Layer_x0020_1">
  <metadata id="CorelCorpID_0Corel-Layer"/>
  <path class="fil0" d="M-105185 931321c12554,-1253 31766,-123 45067,-123 19269,0 123615,-1232 133810,908l-133 41014c-12535,2838 -30141,1145 -44024,1145l-135063 -100 343 -42844zm-762 221161c979,-10217 757,-115470 -471,-117648 1891,-2684 -413,-2590 10837,-2353 45965,966 100772,22 147776,22 5139,0 19261,-1182 21751,1989 3871,4931 -653,106794 1140,117616l55502 166 187 -245867c0,-6704 981,-30368 462,-33588l-296190 -479 -24 280282c19328,-406 40254,567 59030,-140z"/>
  <path class="fil1" d="M1954376 1663628c2161,1719 5258,1494 8097,1446 51586,-880 282715,1708 288982,-821l334 -57443c-1193,-3622 -224070,986 -236724,-1395 -3568,-616 -1896,-228 -3417,-1565l-140 -51303c73,-3715 -364,-4328 1717,-6411 4767,-4218 228865,2096 238325,-1943 689,-6530 922,-54791 -885,-56938 -2172,-2443 -6212,-1195 -13294,-1191 -35781,22 -222082,1125 -224626,-1104l-704 -1567c-375,-1448 -313,-241 -533,-2646l85 -27620c-42,-4311 -499,-5418 587,-9421 1244,-4585 155592,-2207 178886,-2207 16385,0 44386,1678 59334,-136 1136,-2930 1374,-53390 970,-55205l-1583 -3265c-1422,18098 -470,37070 -594,55467l-231586 -104c-3082,-771 -2040,-353 -3872,-1871 1987,-1647 3079,-2009 6873,-2111 30657,-822 78056,146 109376,146 38753,0 77505,0 116258,0l0 -47295c-46637,0 -93270,0 -139903,0 -46667,0 -94481,1024 -141003,-47 -8467,-195 -5797,-3216 -5797,26650 0,81034 -1047,166304 0,246277l286698 0 5 -47294 -228635 -94c-3082,-771 -2040,-353 -3872,-1871 3754,-3111 9051,-1976 14773,-1966l220690 -4c0,8760 1255,50110 0,54184 -73563,0 -147127,0 -220690,0 -14551,0 -63586,-1865 -74132,668z"/>
  <path class="fil0" d="M1327425 931206l178657 193c444,2162 1104,36102 -80,40628l-664 1433c-2395,1208 -164438,2089 -178218,503l305 -42757zm-3017 221917c3431,-1594 1757,-23564 1757,-28026l-89 -83778c144,-5570 797,-4999 1409,-6327 1743,-3781 96704,-1824 107988,-1468l823 3895 5913 11029c922,1766 700,1760 1479,3390l27444 54268c684,1533 572,1871 1427,3477 1803,3388 550,-241 2111,3928l12643 24692c1821,3172 1712,4613 3400,7476 2093,3548 1685,4718 3176,7967l72115 -388c-162,-5383 800,672 -2302,-4729l-53666 -108233c-4076,-984 -3456,-1038 -2995,-5828 4621,-2549 47451,-1083 56447,-965 -1937,-1813 -681,-1084 -3871,-1890 -234,-59 -3602,-212 -4001,-209 -2269,12 -4596,110 -6901,114 -8645,14 -36299,-960 -43767,959l-567 8288c-4875,-4231 934,-10194 4080,-11076 2974,-834 49449,-583 54031,495 1122,-11160 215,-27296 215,-39060 0,-18125 -817,-105550 535,-115994l-292613 -65c1705,20058 359,110046 359,137731 0,14778 -1402,131902 810,136074l50327 -51c62,-230 89,-548 104,-707l114 -101823c-26,-4855 -784,-9590 1746,-13211 184,241 348,574 440,794l1125 58717c0,9963 1527,54699 -1246,60534z"/>
  <path class="fil0" d="M971036 1096393l-3608 -3643 -216 -51480c148,-5038 -615,-4108 3326,-5812l-403 -377c1220,-3515 3799,-1931 13074,-1916l223482 126c65,-11338 1229,-48652 -817,-57195 -38308,1455 -78620,410 -117248,410 -39219,0 -78496,-339 -117687,178 -1219,-1272 -158,-439 -613,-3028l-242 -42312 236845 204 238 -2479c-12160,0 -235272,958 -240594,-5 470,-711 -660,-2022 5676,-2482l111451 94c28735,0 95273,1333 119042,-8 -1094,-7998 -1251,-44035 282,-51490l-287793 106 -9 273460 286579 0c1305,-3027 1294,-43377 128,-47348 -36574,-1509 -77909,54 -115273,54l-113363 -174c-3800,-1430 -1251,383 -3871,-2772 11593,-1796 150205,-597 174376,-597 18248,0 41212,-1186 58770,433 -1208,-1721 1445,-1764 -5477,-1940 -31568,-804 -78286,134 -110435,134 -17242,0 -106832,1008 -115620,-141z"/>
  <path class="fil0" d="M1291617 1442118c7649,-1816 175991,-1324 179997,95l203 163335c-4328,1342 -170456,1794 -179905,53 -1366,-5325 -1695,-154152 -295,-163483zm-55215 217887c5249,945 244780,-790 286717,143 388,9 1503,47 1855,41l2562 -189 -21 -272870 -291113 -5 0 272880z"/>
  <path class="fil0" d="M752056 1006886c1170,-2730 952,-1607 1278,-2157l38491 -54256c1148,-1604 2855,-3570 4403,-5462 1162,-1421 860,-1119 2086,-2743l8038 -11676c7498,-9797 9669,-14387 17522,-23904l12047 -16611c2682,-4794 6494,-8680 9889,-12705 138,-164 346,-366 478,-538 3056,-3992 1613,-5944 -3834,-5989 -17154,-140 -51552,-1062 -65151,436 -1500,2468 -2511,3400 -3528,5042 -3063,4949 -7777,9891 -10699,15077l-3044 4637c-5636,6323 -16281,22911 -17739,24649l-28820 39220c-14835,19310 -7265,14355 -35676,14355 -74780,0 -66938,5688 -66909,-13674 30,-19641 1656,-78453 -358,-89602l-59891 165 313 282534 59615 -230c2350,-14394 -2628,-113613 1213,-118001 4740,-2731 74307,-1292 85722,-1000 330,381 3047,3182 3329,3562l17198 26137c5622,8241 10651,17676 17146,25300 3848,4517 6950,11210 10249,16361 767,1197 1412,1780 2562,3172l17339 26217c3628,5821 9260,12326 11912,18469l70056 -106c326,-3496 596,-3642 -1472,-6373l-7067 -9655c-120,-176 -309,-394 -431,-569l-13786 -21610c-3629,-6000 -9407,-11800 -12712,-17729l-33077 -49912c-2466,-2855 -615,-226 -2651,-4084 -3481,-6595 -20449,-29280 -24041,-36747z"/>
  <path class="fil0" d="M931978 1548680l987 -3533c28429,-1680 61679,-168 90638,-168 13345,0 83051,-1647 88901,1131 897,-3553 3613,-3723 -9092,-3373 -3922,108 -7902,42 -11830,42 -50645,0 -112855,1321 -160628,-4 1072,-2464 -1926,-1345 3866,-2094 1267,-164 4553,-18 6016,-4l154687 20c10509,0 14067,-1769 18270,2607l952 1110c132,154 379,465 486,593 1284,1527 40,104019 -8,114993l2956 520c33,2 2785,34 2925,32 10476,-114 39293,-708 46021,348l332 -274750 -51097 360c-4732,11330 1842,96470 -2118,102073 -1150,-1258 -1148,-792 -1370,-4836 -1545,-28119 1509,-69312 -542,-100552 8383,1067 39440,882 51170,594 5843,-143 3455,-1350 7908,1366l-1010 -2811c-8982,-263 -53512,-1355 -58830,834l-475 102345c-15036,1236 -175516,585 -178142,-789l-1017 -12885c31,-19541 911,-79411 -205,-89891l-60027 148 182 283231 60051 -451 43 -116206z"/>
  <path class="fil0" d="M193654 873904l453 279770 296749 -150 -314 -59197 -238674 -445c-1495,-6931 -96,-129385 -442,-153019l672 -8083c562,-5990 223008,2667 239034,-2216l-163 -59042c-5441,-1574 -132088,-541 -149125,-541 -43559,0 -96662,899 -139930,-76 -9040,-204 -7060,242 -7983,2004l295698 0 0 56158 -239711 -3c2486,-3313 9778,-1959 14095,-1948 72895,176 151180,949 222822,70 -183,-8942 1501,-46576 -993,-51367l-286857 45c-1449,3348 -1266,270126 0,273006l286831 104c1815,-3459 1251,-44478 314,-48498 -11917,1567 -149496,461 -173842,461 -4677,0 -53567,1549 -57757,-1453 2973,-1293 3624,-1010 7489,-1010 34969,6 214514,-1200 223663,607l2961 52618 -292615 0 137 -269924c45,-6943 -697,-6617 -2512,-7871z"/>
  <path class="fil0" d="M-522549 1150704c1840,-1293 2515,-1073 2472,-7871l-135 -199978c0,-14222 2051,-59839 -1367,-70102l55410 -427c-1397,16183 -620,67777 -526,90230 30,7369 467,7266 -931,11756 -83,268 -208,628 -365,917 -924,-1248 -775,-595 -1418,-2793 -560,-1914 -342,-905 -504,-2948 -1342,-16955 2191,-81076 -49,-93963l-48840 -374c2139,11621 1651,266882 -209,274167l50030 296 -316 -116131c2900,-1530 1688,-1274 2372,-1876 1716,-1509 -970,-1197 3828,-2126l176383 -154c8378,5576 5774,15214 5777,25828 4,21053 -1317,81094 134,93858 8672,1965 40439,540 51743,629 -2031,-13179 -614,-176661 -614,-204817 0,-21219 -1562,-49295 391,-69685l-51521 44c-2482,21263 2622,86365 -1265,101869 -2992,-2761 -567,703 -1779,-2681 -1025,-2861 -621,-98591 -682,-102334l56928 343 -82 273452c1022,5502 -740,1987 2384,4871l-44 -279248 -60240 -166 383 102156 -944 3375c-31817,1831 -97509,-10 -135542,-10 -7553,0 -15106,1 -22659,0 -5886,0 -18148,2115 -20318,-2788 -3614,-4149 61,-88327 -1145,-101861 -7343,-796 -51787,-1034 -57030,747l559 206873c0,21531 1616,50288 -269,70922z"/>
  <path class="fil0" d="M1592529 1440262c45,2777 9546,1390 12341,1388 20972,-12 98044,-1166 106538,292l313 222603c4070,1445 53692,1442 58669,292 1440,-5152 487,-173676 487,-197914 0,-10959 -1327,-19672 2134,-26879l117569 -427 157 -56243 -298367 -480 159 57368z"/>
  <path class="fil0" d="M2371240 1604284l-352 -221105c-7565,-451 -51496,-795 -56416,682l-271 279771c6294,1762 130117,632 147795,632 18122,0 141948,1688 148333,-481l-186 -55344c-2962,-1347 -197673,-658 -225982,-348 -7413,81 -10665,1137 -12921,-3807z"/>
  <path class="fil2" d="M867573 1208251c6284,5066 15230,6000 21918,376 4237,-3563 6457,-7188 8400,-12281l331619 -134c3055,1576 -54,-93 2655,2048l11670 12010c1482,1586 2563,3291 3875,5019 5275,6947 12097,12107 17121,19023 20289,1017 42680,170 63199,170 44326,0 33439,4619 49253,-12829l16160 -16404c2649,-2706 3811,-5228 7084,-7666 3110,-2317 9001,-1248 13215,-1241l186210 15c10152,64 13264,-2113 21105,-6839l12847 -6705c7617,-5982 14232,-3066 14034,-16306l-135 -46336 -18439 -18607c-655,-644 -2062,-1793 -3099,-2754 -1041,-963 -1784,-1772 -2958,-2902 -508,-489 -3530,-3684 -3536,-3697 -2961,-5903 1835,-13204 -2104,-19383 -156,-244 -629,-940 -792,-1180l-2993 -3768c-3544,-3626 -3291,-2392 -7788,-4213 -3999,-1620 -7151,-2690 -12481,-70 -1282,631 -405,213 -1958,958 -19233,9228 -9632,36837 10323,35953 8891,-394 2751,-1295 8805,-3445l4976 4416c138,141 337,354 473,495 9085,9371 10981,9094 15159,13344 5578,5675 9472,7965 8943,16633 -759,12439 7,25013 -259,37475l-25964 14291c-202,109 -452,246 -656,352 -2926,1511 -3731,1566 -5628,4667l-210492 12c-2456,4044 -6036,5608 -9149,9321l-21919 23391c-1344,1581 -2161,3612 -3994,4722 -4103,2484 -61000,853 -70695,853 -21909,0 -18889,3014 -26283,-5710l-19548 -20866c-11772,-12497 -7143,-11931 -24118,-11924 -108142,47 -216538,910 -324637,8 -4394,-14454 -21459,-18202 -28592,-11774l-6938 6448c-871,5846 -2216,15057 818,19504l5293 5530z"/>
  <path class="fil3" d="M1807139 1342521c114,116 1379,1594 1387,1605 1691,2553 739,1966 1779,4289 3662,8180 25725,10640 31275,-561 4786,-9661 7343,-15794 -3417,-24617 -155,-127 -400,-294 -551,-423l-2919 -3680c-23287,-1402 -18454,1310 -28840,13722 -22055,1470 -49279,105 -71920,105 -135260,0 -273056,-970 -407923,62 -4416,34 -4377,485 -7644,-1301l-12774 -10864c-151,-140 -360,-342 -510,-483l-29268 -25531 -111470 -220c-5145,-9121 -9584,-15220 -21591,-14266 -4198,333 -7164,2245 -9771,4361 -3307,2684 -7087,9383 -7318,13715 -257,4815 2888,11511 5746,14511 8287,8695 19939,7044 26150,1255 4013,-3739 3449,-4657 3819,-8056 13047,-4025 31680,-1750 46457,-1750 15763,0 31526,0 47289,0 17749,1 15730,-1990 24934,5605 1017,839 2388,1869 3263,2702l9322 8323c1325,1204 1908,1606 3259,2690l11221 9485c213,196 820,769 1030,966l4996 4768c917,1002 359,529 1087,1711l492902 1877z"/>
  <path class="fil2" d="M1898461 1753289c10668,0 7822,-1421 13044,-7318l27735 -31294 110942 -48c4264,0 6975,-381 10184,2147l6673 5242c1781,1402 447,524 2274,1744 8259,5513 13065,11083 24193,10973l128115 -48c7763,-47 9964,1246 14584,5309l8459 7310c167,135 394,319 565,451l1185 844c174,123 423,277 595,399l3806 2937c3724,2893 5591,3918 8230,8120l102501 471c2117,4631 4146,7176 7999,10564 4820,4240 14656,4889 19723,1308l1097 -870c225,-176 889,-680 1107,-862 1429,-1193 3188,-3266 4163,-4618 5415,-7506 4848,-17844 -2215,-24627 -2311,-2219 -10169,-5837 -14140,-5585 -3744,238 -7863,2193 -10738,4117 -3171,2122 -3819,4665 -5250,7546 -1359,2738 -1607,1847 -3757,4821l-89653 -51c-7848,0 -9292,-2597 -14679,-7678 -6104,-5758 -14529,-10199 -19431,-16640 -29144,-2350 -87338,-367 -121551,-367 -8208,0 -19501,2104 -26463,-1712l-6700 -4083c-1549,-1249 -1566,-1217 -3212,-2673l-11551 -8218c-3550,-2767 -3775,-3874 -11135,-3850 -38070,127 -83968,-1812 -120246,166 -2064,2481 -2821,2765 -4889,5043l-25182 28938c-1808,1919 -2321,1907 -4411,4418l-52290 96c-5387,25 -3774,637 -7077,-1707l-19930 -14554c-10064,-9136 -15439,-3812 -37942,-5008 -3934,-6438 -7002,-16676 -23676,-13555 -4141,775 -8127,3417 -10127,6793l-749 1268c-2316,3860 -3216,11248 -2018,16900 722,3406 1682,3266 4081,5935l7172 5440c6641,3074 15677,502 19285,-2635 2,-1 3173,-4414 3643,-5210 4617,-7827 -2580,-7374 11256,-7363 3488,3 15856,-183 18505,396 3555,777 244,-362 2986,1624 829,601 1778,1287 2791,2071 1607,1245 2755,2409 4928,3992l10679 8062c991,893 118,152 1563,1364l3913 2954c4849,2296 52639,811 61036,811z"/>
  <path class="fil4" d="M2503956 1479122c6311,7098 5383,4669 10313,6654 10218,4116 4749,1634 11214,-384 1570,-490 1397,-88 3252,-846 4208,-1719 4446,-4604 8392,-7201 458,-7964 1736,-15705 -1879,-20583 -8520,-11494 -22898,-5440 -27183,-7104 -4360,-1692 -18502,-17543 -22767,-21850l-52146 -52184c-3981,-4010 -8118,-8025 -12335,-12313l-12021 -12168 -221098 -139c-1013,-1900 -1858,-2692 -3409,-4468 -1501,-1719 -2049,-2077 -3548,-3156 -5145,-3704 -15246,-15075 -20992,-20522 -4518,-4282 -10240,-9872 -13755,-13781l-13055 -14253c-32489,-180 -65037,-3 -97535,-3 -40729,0 -22131,1125 -34133,-9465 -3744,-3303 -8300,-5551 -14230,-5113 -5058,373 -2096,-1 -4772,1460 -3840,2097 -4714,1968 -7348,4506 -15750,15174 3651,40191 21158,31026 11520,-6030 5871,-10700 12648,-12187l121257 39c4474,4604 8667,8747 13393,13464l38822 39690c13341,2152 41286,560 56157,560 52673,0 116364,-1494 166499,55l42665 42743c1971,1976 3940,4020 5909,5930l30581 30489c138,141 343,353 483,492 141,138 357,339 499,476l16681 16581c589,7593 -2731,17916 2283,23555z"/>
  <path class="fil2" d="M-232528 779973c7184,0 29336,-1653 35200,1577l4043 1889c217,101 491,202 700,310 2936,1522 1216,1544 4717,2845 8701,3232 25927,13376 27539,13989 7670,2915 3093,2138 7160,3681 7055,2677 136789,-481 144100,920l1519 433c3719,1344 4009,2951 4406,3434l16265 15258c6368,5391 5556,5512 15422,5431 85520,-698 172336,148 258212,-109 4263,-13 5889,489 7983,2654 1516,1566 3493,8274 10084,10489 8007,2691 18962,491 23061,-6500 2689,-4586 5355,-10169 3394,-15834 -3413,-9864 -9135,-13104 -18989,-13087 -12262,22 -14655,4620 -19382,14464l-270613 20c-1780,-3673 -4126,-5136 -7561,-8023l-6069 -5738c-12713,-13250 -10496,-10919 -27403,-10920 -15307,-1 -127300,1697 -132568,-1534l-2559 -1533c-1486,-664 -1444,-324 -2890,-1053 -2904,-1466 -521,-471 -2182,-1543l-8011 -4035c-248,-107 -511,-195 -766,-291 -5865,-2230 -1512,123 -5524,-2970 -155,-120 -379,-311 -545,-426 -171,-119 -419,-273 -602,-385l-15643 -7429c-5633,-1877 -279,-434 -5061,-3386 -6482,-225 -44771,1125 -46982,-1366 -3621,-4080 3886,-2105 -6789,-10990 -4211,-3504 -8593,-3161 -16273,-2483 -1667,147 -3768,416 -4932,1025l-3436 3235c-2133,2724 -697,1322 -2162,3890 -1604,2811 -4613,3759 -2787,14312 917,5303 7049,10841 11204,12915 2894,1444 7741,1029 11178,822 5171,-311 4538,-813 8406,-4064 8830,-7421 562,-9894 15136,-9894z"/>
  <path class="fil0" d="M-578323 1085848c-5105,1926 -9020,3641 -11772,7629 -120,173 -292,410 -411,584 -119,175 -298,407 -413,584 -2485,3805 -3237,15534 -845,19370l9418 8175c2502,1094 4333,2534 7040,2676 3449,181 10267,-2927 12545,-4922l4205 -4522c4107,-5205 2339,-18677 -1314,-22560 -2675,-2845 -7104,-5412 -11028,-7635l25 -119715c-742,-2172 -648,-1375 -1710,-2759l-3334 -3603c-140,-143 -354,-343 -494,-488l-41243 -42509c-2167,-2309 -3169,-2818 -5026,-4828 -12874,-13935 -9061,-7944 -9061,-39396 0,-7043 -1537,-33410 1142,-37511 2331,-3568 6811,-5663 9910,-8790 2423,-2445 2875,-2372 5441,-4404l25758 -22540c3546,-3020 6762,-6178 10282,-9381 214,-195 827,-762 1043,-956l8698 -8564 81772 -76 36700 40677c7536,8211 -402,6373 -333,17064 21,3213 154,5253 1462,7563l3616 5102c13953,15654 41884,-694 31092,-21275 -7963,-15188 -19303,-8312 -24262,-9924 -3872,-1259 -11819,-12443 -16048,-16617l-10688 -11050c-143,-141 -350,-347 -491,-491l-16651 -17741c-3057,-1289 -80414,-749 -90110,-489 -2332,1034 -7446,7779 -10844,9945 -6820,4347 -20176,17804 -27106,23925l-19120 16416c-140,139 -339,352 -479,489 -13417,13068 -10322,4725 -10322,46657 0,9195 87,18431 -34,27619 -139,10548 4161,11021 10374,17954 5036,5619 8135,8544 13709,13924l18738 18742c471,477 1430,1420 2018,1997l13705 13791c4586,4164 4576,2915 4482,10339 -466,37133 293,74391 -36,111524z"/>
  <path class="fil3" d="M1638368 1514286c4230,1591 -552,1075 4940,2221 11880,2479 18487,-1569 24185,-11583 3859,-6780 -519,-12796 -2216,-16679 -1283,-2935 -4005,-5572 -6105,-6493 -9882,-4335 -12169,-1681 -14910,-1128 -8508,1719 -3726,-1153 -7734,3112 -11313,12036 -4412,20452 -5752,24560 -1158,1429 -5019,4010 -6671,5375 -1402,1159 -1504,1396 -3174,2773l-15446 11068c-336,22026 866,44724 480,66552 -86,4839 -856,4086 1423,7331l16054 15352c162,132 389,313 550,446 2000,1654 2435,2055 4134,3825 7818,8139 6312,2691 8709,7459 1602,3184 1752,72973 438,80558l-14065 30265c-795,2278 -257,1494 -1337,3581 -1146,2213 -197,-262 -1494,2530 -1005,2161 -1511,5008 -2464,6825l-229786 73 -7374 -11018c-2492,-2474 -9272,-4969 -13262,-4727 -2923,178 -9808,2246 -13411,5529 -2706,2467 -5427,7674 -5548,12455 -210,8332 4509,13553 10016,17832 2708,2104 2534,1745 6841,1924 11418,473 10110,-1198 12364,-2639 185,-119 426,-278 617,-391 4975,-2943 2856,-98 8772,-11197l235463 -112c4968,-7988 4077,-7402 7986,-16098l11051 -23364c2385,-5076 3833,-1427 3681,-16173 -171,-16579 1992,-7793 1977,-17673l-4 -59165c-725,-668 -1686,-1741 -2386,-2550l-5753 -6002c-4995,-5374 -21742,-17688 -24178,-23978 -2951,-7621 -2352,-52279 -1838,-63023 7354,-4121 6106,-2948 13119,-9286l2602 -2110c1464,-917 1298,-566 3135,-1825 2223,-1524 4910,-3055 6371,-4432z"/>
  <path class="fil2" d="M1954376 1663628c10546,-2533 59581,-668 74132,-668 73563,0 147127,0 220690,0 1255,-4074 0,-45424 0,-54184l-220690 4c-5722,-10 -11019,-1145 -14773,1966 1832,1518 790,1100 3872,1871l228635 94 -5 47294 -286698 0c-1047,-79973 0,-165243 0,-246277 0,-29866 -2670,-26845 5797,-26650 46522,1071 94336,47 141003,47 46633,0 93266,0 139903,0l0 47295c-38753,0 -77505,0 -116258,0 -31320,0 -78719,-968 -109376,-146 -3794,102 -4886,464 -6873,2111 1832,1518 790,1100 3872,1871l231586 104c124,-18397 -828,-37369 594,-55467 -1854,-1182 -294164,-1400 -296154,213 -2199,3421 -947,11898 -948,16831l0 124121c0,42219 744,91050 -71,133074 -68,3494 -1228,7286 1762,6496z"/>
  <path class="fil2" d="M961535 793492c4667,503 8086,1065 12868,855 8507,-373 11530,-4319 15284,-10463 3342,-5468 2812,-3911 10271,-3911l122239 -11c3810,516 4471,1645 7757,5331l927 1057c3400,3820 6562,6777 10240,10446l17521 17955c1915,2106 691,-513 2295,3448 98329,1074 202139,74 301080,79 15801,1 3966,2474 13862,10150 703,545 2050,1202 3118,1819 3804,2195 2061,2171 7596,2328 2969,84 6784,127 9086,-926 4332,-1983 -1574,967 1192,-744 4108,-2541 6323,-4715 8763,-9046 1663,-2951 1198,-5093 1205,-9036 17,-9410 -5202,-13462 -12874,-17145 -3231,-1551 -4032,-2387 -8738,-979 -3816,1141 -9221,4161 -11995,7745 -5081,6565 389,8186 -12200,8186l-289649 0c-5527,0 -3942,908 -7591,-2093l-19518 -19862c-2097,-2705 -1673,-2951 -4200,-5641 -3332,-3548 -6496,-5819 -9084,-10011 -10297,-1694 -99829,-528 -118224,-528 -19049,0 -20828,2355 -24308,-5320 -9274,-20452 -46680,-4637 -33283,18637 821,1428 1665,2787 2858,3914 1277,1208 267,-102 2073,1826 520,555 829,1199 1429,1940z"/>
  <path class="fil5" d="M660092 801987c-568,12711 1971,60726 -1359,67971 -1258,1291 -4632,206 -9283,6105 -3724,4724 -3873,7564 -3712,13658 108,4055 -221,3981 1607,6743 7415,11197 24404,14307 32345,2013 3515,-5442 2542,-18367 -664,-22789 -1681,-2319 -1730,-2816 -4128,-3961 -10598,-5060 -7685,407 -7685,-33291 0,-6594 -1787,-28232 1259,-32021l20430 -13038c1837,-987 1108,-549 2550,-1459l16887 -12143c16385,-621 33752,-97 50245,-97 15298,0 21255,-3539 32145,5869 593,512 998,866 1582,1366 10963,9383 22917,17150 34171,26025l22150 16159c12359,9609 13108,7185 30146,7185l178322 -80c180,195 425,255 505,616l1457 1730c2308,2728 2935,5342 5283,7403 10961,9626 30781,5712 31735,-12446 245,-4649 -1525,-10815 -3868,-13411 -3760,-4166 -6805,-5530 -12406,-5700 -6101,-185 -9372,514 -14314,3745 -4910,3211 -978,-262 -3950,5160 -1395,2546 -1772,1784 -3312,5364l-195215 17c-2249,-999 -2508,-1857 -5283,-3591l-15323 -11268c-179,-118 -422,-277 -600,-396l-2861 -2056c-165,-124 -398,-293 -563,-419l-16771 -12889c-3288,-2811 -6777,-4434 -10426,-7339l-21043 -16380c-3871,-2983 -9732,-1839 -14812,-1831 -8873,13 -68079,-858 -71367,577 -2280,995 119,-118 -2217,1664l-19690 12792c-1979,1228 -208,358 -2332,1644l-19635 12799z"/>
  <path class="fil6" d="M2610941 1357037l13355 15501c4497,4662 21682,21130 22438,25588 1028,6071 92,221110 266,253015 73,13465 -1258,11584 -3671,14670 -4182,5348 -3077,5312 -4794,8216 -3202,5416 3253,-4377 -1244,1593 -414,549 -608,599 -1253,1692l-14439 22737c-8125,1723 -130647,1099 -135958,-545 -2332,-3411 -182,-2762 -2923,-6184 -3811,-4758 -13070,-8254 -18726,-7020 -8448,1842 -11035,7139 -13867,12191 -6565,11707 5248,24505 14707,26082 6549,1092 11600,-1564 15579,-4781l2055 -1903c2534,-2801 1640,-3816 2935,-6756 9733,-2504 47090,-1004 60338,-1004l76824 6c2470,-312 3744,-1164 5079,-2757l17418 -27841c169,-268 1220,-1986 1526,-2447 116,-175 268,-426 386,-598 117,-168 292,-402 410,-566l8163 -12411c996,-1656 407,1182 1042,-2629 281,-1685 72,-5846 59,-7773l78 -258102 -2511 -2987c-807,-880 -853,-934 -1492,-1567l-35715 -39529c-4237,1804 -506,-223 -3229,2595 -2260,2339 -698,183 -2836,3514z"/>
  <path class="fil5" d="M473443 1026604c-75,2925 3105,3990 -11397,3816l-45322 1093c824,667 -86,2046 7872,2054l39413 -78c9609,12 8496,-288 15892,-2956 3221,-1291 6523,-6706 10107,-11440 427,-564 801,-1156 1250,-1678l12347 -13320c1156,-1381 1318,-1506 2317,-2520l2785 -3165c3304,-4473 5819,-8204 10033,-11226l188 -146778 -60185 -58798c-2711,-2786 -5980,-5532 -8480,-8942 -36651,-1710 -316894,2296 -323284,-1049 -3901,-2052 -1678,-5046 -7159,-9694 -5455,-4625 -4409,-3991 -13444,-3910 -6806,62 -11163,-116 -14701,6535 -4061,7635 -6019,15227 1381,23178 8615,9257 22339,8908 29493,-1266 1831,-2604 1122,-3408 2551,-5906 9719,-2334 137316,-876 158617,-876 53197,0 106412,96 159603,-43 3295,1608 -356,-512 2553,2067l19949 18529c3805,3352 6740,8124 10780,10785 4315,2842 5113,4338 8811,7982l2080 1958c151,138 375,326 524,463l22498 22730c1820,3861 502,121516 668,132260 89,5781 796,4866 -2167,8480l-30897 35135c-1631,1636 -4085,4908 -4676,6580z"/>
  <path class="fil5" d="M638494 1221929c-1243,2993 -2148,2981 -4045,5313l-121823 39 -1058 -3706c-321,-1124 -495,-1200 -1100,-2097l-12616 -19764c-1854,-3470 -1676,-2209 -2766,-4360 -1367,-2700 -336,-2282 -2068,-4807l-3394 -3779 -308678 -356c-723,-3237 -185,-3814 -1600,-6254 -21,-37 -3149,-3651 -3674,-4204 -5480,-5765 -18931,-5102 -24777,-448 -4084,3252 -646,-606 -3368,4459 -1940,3610 -1770,991 -2652,5254 -1008,4865 -311,10528 1738,13912l1490 2477c989,1523 582,1069 1735,2224 5245,5256 11955,5373 19649,4088l4125 -1857c154,-123 355,-334 503,-463 14287,-12422 -1030,-11280 28816,-11281 39929,0 277742,-1170 281726,816 2110,1052 2031,2036 3364,4275l2801 5338c2036,4801 3678,4068 6269,9448l5830 9937c2179,3804 3542,5985 6407,8339l126105 135 3284 5410c1545,2642 1207,2090 3606,4268 14838,13472 37091,-3544 30963,-19205 -2192,-5604 -6017,-11235 -12316,-12197 -13848,-2116 -18726,565 -22476,9046z"/>
  <path class="fil5" d="M1206396 1152933l-405 -56364 -234955 -176c8788,1149 98378,141 115620,141 32149,0 78867,-938 110435,-134 6922,176 4269,219 5477,1940 -17558,-1619 -40522,-433 -58770,-433 -24171,0 -162783,-1199 -174376,597 2620,3155 71,1342 3871,2772l113363 174c37364,0 78699,-1563 115273,-54 1166,3971 1177,44321 -128,47348l-286579 0 9 -273460 287793 -106c-1533,7455 -1376,43492 -282,51490 -23769,1341 -90307,8 -119042,8l-111451 -94c-6336,460 -5206,1771 -5676,2482 5322,963 228434,5 240594,5 504,-6953 876,-53101 -573,-57808l-295927 200c-981,3135 -1438,276674 -50,281944l295779 -472z"/>
  <path class="fil2" d="M-433578 1197013c-2227,7013 -7599,5618 -15692,5597 -35744,-96 -121030,1738 -144827,-244 -5623,-7777 -9755,-7901 -12041,-14219l-18032 -17215c-11487,-12111 -14305,-10992 -14188,-21166 454,-39538 -644,-79557 34,-119257 4347,-1478 2907,-1283 5750,-2974 6354,-3780 429,2124 6773,-7018 4339,-6253 2099,-16634 -3242,-21998 -5000,-5020 -5465,-4139 -13328,-4144 -9918,-8 -8181,-790 -13735,4717 -4522,4485 -4201,5190 -4199,12740 1,6867 99,8195 2727,11248 39,45 1881,1984 1926,2030 4292,4367 5601,3482 9819,6403l296 131480c2988,1570 25013,24079 26944,26017 701,704 937,975 1430,1477l19125 19324 166499 -156 24483 -34440c5253,-6433 5595,-6168 9659,-13006 2381,-4007 1429,381 2083,-4635 1118,-8568 -2341,-20766 856,-27871 957,-1012 5393,136 10340,-7443l1584 -2378c107,-154 313,-361 416,-516 1856,-2797 1794,-7059 1461,-11049 -250,-2993 30,-1786 -976,-3699 -91,-174 -277,-392 -377,-561l-811 -1139c-2951,-4826 -231,-3261 -3828,-5856 -790,-569 -5576,-3299 -5719,-3344 -2645,-836 -13173,-897 -15918,385 -5135,2399 -9942,10083 -10585,15224 -1424,11384 6221,15511 13766,20695 405,4971 1422,25370 -759,29684l-27714 37307z"/>
  <path class="fil5" d="M1236402 1387125l291113 5 21 272870 -2562 189c-352,6 -1467,-32 -1855,-41 -41937,-933 -281468,802 -286717,-143l0 -272880zm-4692 277826c8354,1650 295207,1020 300056,-178l-177 -282796 -300023 292 144 282682z"/>
  <path class="fil5" d="M946203 1357614l3507 -1556c200,-449 654,-304 1065,-452l-82 -17759 21680 24c2968,3288 -2058,3209 4921,3035 -1709,-4131 -2658,-3140 -3418,-7259 -7863,-7587 -15176,-735 -23645,-1232 -2560,-7223 -4010,-5538 -8893,-10801l-16402 -18036c-140,-139 -342,-348 -482,-490l-11012 -11701c-5556,-5239 -2565,-7827 -11932,-7849l-57214 87c-13702,0 -26325,-2313 -34115,4341l-12844 11912c-1190,1128 -67,41 -1513,1335l-11391 9323c-2142,1845 -3091,2498 -5348,4540l-28292 24869c-852,591 -1553,867 -2414,1273 -102,7555 -1376,71499 578,76046l59712 59793c1557,1418 2505,1302 2874,2672l-80 117225c-10537,7614 -14353,5017 -14144,21698 130,10271 4322,12312 10980,16263 8292,4921 19457,-1703 23550,-9078 1517,-2733 1174,-4831 1184,-8185 18,-6099 -651,-9223 -4511,-13794 -1906,-2257 -6529,-4079 -9590,-6904l-127 -121166c-642,-1861 -2798,-2608 -4146,-3921 -1580,-1539 -2444,-2588 -3824,-3942l-26536 -26782c-6535,-7194 -21490,-23158 -28384,-28400 -139,-9132 -1358,-63270 927,-66819 1492,-2317 4293,-3277 6896,-5823l13980 -12658c159,-134 381,-321 544,-451 11083,-8869 24053,-21739 30399,-26657 3559,-2757 6770,-6918 10804,-8867 4119,-1990 76815,-862 82958,-466l43291 46874 489 19738z"/>
  <path class="fil7" d="M1169413 1727587c-3076,-4598 -3616,-8200 -7672,-11659l-5931 -3858c-3001,-1316 -8677,-1567 -12134,7l-2400 1385c-201,99 -469,205 -676,303 -6266,2954 -6136,3348 -8999,9849 -3562,8086 -1714,8513 653,14866 897,2408 200,2118 2980,4941 147,148 356,351 507,495l5085 3722c176,111 403,288 583,394 180,105 406,278 594,376 2845,1479 3924,1202 7719,1173 10197,-79 13318,-5979 16976,-11526 2668,-4045 440,-3135 5567,-3455 14347,-896 89390,1097 95557,81l23561 -11844c166,-115 380,-310 548,-424 6122,-4175 15340,-8168 18959,-10589 2789,-1867 4397,-1708 8225,-1765 43088,-645 88485,561 132074,24 18288,-225 6265,2765 18392,11247l2803 2119c2927,1938 12059,2524 16299,-407 7811,-5400 12037,-11202 10917,-20737 -509,-4327 -3953,-9059 -7161,-11632 -5263,-4220 -15646,-7055 -24291,85 -5718,4723 -3574,6857 -5145,8252 -5235,4646 -143274,-571 -150040,2127l-13580 7007c-1525,879 46,126 -1774,1267 -187,117 -419,283 -610,395l-29347 15955c-5326,3352 -11530,1777 -18438,1777 -26584,1 -53239,168 -79801,49z"/>
  <path class="fil2" d="M759012 1688742c597,2853 11995,13332 15277,16640l8138 8528c146,134 370,319 519,451 153,135 377,322 533,456l3385 2668c2208,1618 2357,1685 3763,3891l248739 -111c1819,-665 5791,-8174 6221,-8805l24388 -32641c132,-155 328,-373 460,-529 2035,-2417 4669,-6354 5207,-9551 1219,-7247 -489,-19712 473,-28305 2904,-1425 4037,-868 6323,-2435l2474 -2374c2867,-3161 1518,-2393 3249,-5612 1417,-2636 3242,-4527 2208,-10242 -1439,-7954 -8258,-16095 -18461,-16208 -7259,-81 -8012,-125 -13270,4763 -14078,13088 -2150,27925 1359,29994 1753,1034 3764,935 5831,1973 760,7170 378,14470 437,21685 54,6450 320,6564 -5400,14525l-19038 26392c-2631,4021 -5700,9798 -11268,10128l-235523 -123 -19133 -19044c-3342,-3663 -6215,-6354 -9799,-9887 -2345,-2312 -6589,-8064 -9645,-8719 -2775,-741 -2176,-1267 -3319,-1974 -4343,-2684 -4625,-1855 -5273,-5726l-125 -127741c-3450,2778 -1947,213 -3057,4871l111 127126c1155,1136 1632,1461 2607,2315l4689 4140c4843,4626 6535,5741 6920,9481z"/>
  <path class="fil2" d="M-22680 1114759c5880,840 5676,4723 14601,3240 12878,-2141 20628,-18943 12918,-29279 -502,-672 -1074,-1524 -1689,-2309 -3594,-4585 -12989,-8715 -19316,-6044l-5484 2511c-10160,4330 -6398,19482 -6761,26457l-27531 28568c345,8061 858,22938 184,30616 -431,4905 -1968,5052 -6033,9103l-35541 33410c-193,198 -780,786 -939,952 -768,797 -610,679 -1255,1426l-110902 -200c-920,-2197 -498,-1933 -1053,-3562 -2029,-5950 2082,4336 -536,-1502 -5070,-11304 -22228,-12698 -29982,-4883 -7632,7692 -6015,21301 -351,27181 3947,4097 7411,4407 12765,4486 15651,230 15386,-7126 20127,-13750 19622,-1213 78478,-236 102050,-176 14492,38 12610,1130 19580,-6312 136,-145 323,-369 459,-517l1418 -1580c11,-12 1519,-1500 1523,-1503l9642 -9094c6181,-5346 20464,-21886 26044,-24239l87 -36901c3408,-2212 2764,-2460 6232,-5992l19743 -20107z"/>
  <path class="fil8" d="M-522549 1150704c1365,3899 22106,1717 26972,1717 8789,0 21284,735 29534,-28 2622,-27029 -2991,-97156 675,-119218 28628,-1740 61844,-263 90971,-263l67979 0c4637,0 19474,-2173 21409,1869l-164 118704 58556 -262c1481,-1989 1234,2259 1317,-2519 -3124,-2884 -1362,631 -2384,-4871l82 -273452 -56928 -343c61,3743 -343,99473 682,102334 1212,3384 -1213,-80 1779,2681 3887,-15504 -1217,-80606 1265,-101869l51521 -44c-1953,20390 -391,48466 -391,69685 0,28156 -1417,191638 614,204817 -11304,-89 -43071,1336 -51743,-629 -1451,-12764 -130,-72805 -134,-93858 -3,-10614 2601,-20252 -5777,-25828l-176383 154c-4798,929 -2112,617 -3828,2126 -684,602 528,346 -2372,1876l316 116131 -50030 -296c1860,-7285 2348,-262546 209,-274167l48840 374c2240,12887 -1293,77008 49,93963 162,2043 -56,1034 504,2948 643,2198 494,1545 1418,2793 157,-289 282,-649 365,-917 1398,-4490 961,-4387 931,-11756 -94,-22453 -871,-74047 526,-90230l-55410 427c3418,10263 1367,55880 1367,70102l135 199978c43,6798 -632,6578 -2472,7871z"/>
  <path class="fil9" d="M193654 873904c1815,1254 2557,928 2512,7871l-137 269924 292615 0 -2961 -52618c-9149,-1807 -188694,-601 -223663,-607 -3865,0 -4516,-283 -7489,1010 4190,3002 53080,1453 57757,1453 24346,0 161925,1106 173842,-461 937,4020 1501,45039 -314,48498l-286831 -104c-1266,-2880 -1449,-269658 0,-273006l286857 -45c2494,4791 810,42425 993,51367 -71642,879 -149927,106 -222822,-70 -4317,-11 -11609,-1365 -14095,1948l239711 3 0 -56158 -295698 0 -277 995z"/>
  <path class="fil9" d="M1324408 1153123c2773,-5835 1246,-50571 1246,-60534l-1125 -58717c-92,-220 -256,-553 -440,-794 -2530,3621 -1772,8356 -1746,13211l-114 101823c-15,159 -42,477 -104,707l-50327 51c-2212,-4172 -810,-121296 -810,-136074 0,-27685 1346,-117673 -359,-137731l292613 65c-1352,10444 -535,97869 -535,115994 0,11764 907,27900 -215,39060 -4582,-1078 -51057,-1329 -54031,-495 -3146,882 -8955,6845 -4080,11076l567 -8288c7468,-1919 35122,-945 43767,-959 2305,-4 4632,-102 6901,-114 399,-3 3767,150 4001,209 3190,806 1934,77 3871,1890 4336,814 894,129 2454,-1005l139 -161045 -298687 227 -16 281449 57030 -6z"/>
  <path class="fil10" d="M1112504 1546110c-1385,5058 -1465,110523 -127,118783l58892 -235 139 -279503c-4453,-2716 -2065,-1509 -7908,-1366 -11730,288 -42787,473 -51170,-594 2051,31240 -1003,72433 542,100552 222,4044 220,3578 1370,4836 3960,-5603 -2614,-90743 2118,-102073l51097 -360 -332 274750c-6728,-1056 -35545,-462 -46021,-348 -140,2 -2892,-30 -2925,-32l-2956 -520c48,-10974 1292,-113466 8,-114993 -107,-128 -354,-439 -486,-593l-952 -1110c-4203,-4376 -7761,-2607 -18270,-2607l-154687 -20c-1463,-14 -4749,-160 -6016,4 -5792,749 -2794,-370 -3866,2094 47773,1325 109983,4 160628,4 3928,0 7908,66 11830,-42 12705,-350 9989,-180 9092,3373z"/>
  <path class="fil11" d="M759012 1688742c-385,-3740 -2077,-4855 -6920,-9481l-4689 -4140c-975,-854 -1452,-1179 -2607,-2315l-111 -127126c1110,-4658 -393,-2093 3057,-4871l125 127741c648,3871 930,3042 5273,5726 1143,707 544,1233 3319,1974 -2550,-4953 31,-2696 -5084,-5118l10 -128357 5401 -3778c1382,-1058 3629,-2618 4705,-4112 2787,-3867 4267,-7964 3967,-13833l-2069 -6862c-4146,-7344 -7671,-8687 -17614,-8636 -7546,39 -11361,765 -15018,6423 -12479,19309 7317,27747 10933,30798 1177,33499 363,86046 34,122188 -85,9301 1890,9624 6439,14344 3128,3246 6962,8004 10849,9435z"/>
  <path class="fil7" d="M479901 1030533c-7396,2668 -6283,2968 -15892,2956l-39413 78c-7958,-8 -7048,-1387 -7872,-2054l45322 -1093c14502,174 11322,-891 11397,-3816 -8654,694 -49001,2021 -53953,-747 -3818,-2627 -945,-1151 -2930,-5127 -1621,-3247 -5048,-7591 -8869,-8749 -7632,-2311 -13004,-3502 -19589,1791 -6652,5346 -7746,10417 -7023,18808 367,4257 922,3888 2626,6384 1894,2773 1372,3036 4091,4752 1198,757 5202,3163 5563,3298 6478,2418 14023,704 19128,-4051 218,-204 1425,-1513 1446,-1536l3771 -4779 50279 -200c6414,117 9793,40 11918,-5915z"/>
  <path class="fil0" d="M2610941 1357037c2138,-3331 576,-1175 2836,-3514 2723,-2818 -1008,-791 3229,-2595l-2035 -1231c-499,-8918 4082,-3434 3076,-14827 -407,-4615 -2759,-8656 -5765,-11271 -8387,-7296 -17093,-6700 -26453,-744 -3146,2002 -1929,1602 -3725,5020 -4170,7939 -4263,10150 562,19419 5567,10693 17310,6506 27364,7446l911 2297z"/>
  <path class="fil0" d="M946203 1357614c3178,2678 2601,3665 5361,6016 5058,4309 10155,6131 16696,4632 938,-215 6056,-2886 7218,-3652 6324,-4167 6255,-8361 6223,-15917 -20,-4704 -266,-9314 -4205,-12998 -2477,-2316 2038,-667 -3620,-2048 760,4119 1709,3128 3418,7259 -6979,174 -1953,253 -4921,-3035l-21680 -24 82 17759c-411,148 -865,3 -1065,452l-3507 1556z"/>
 </g>
</svg>
