<svg id="Layer_2" data-name="Layer 2" xmlns="http://www.w3.org/2000/svg" viewBox="0 0 226.77 308.87"><defs><style>.cls-1,.cls-2,.cls-3,.cls-4,.cls-5,.cls-6{fill:none;stroke:#e41d13;stroke-miterlimit:10;}.cls-2{stroke-width:0.75px;}.cls-3{stroke-width:0.77px;}.cls-4{stroke-width:0.81px;}.cls-5{stroke-width:0.85px;}.cls-6{stroke-width:0.91px;}</style></defs><title>Graphic HH2024</title><line class="cls-1" x1="114.17" y1="0.3" x2="0.4" y2="153.56"/><line class="cls-1" x1="226.37" y1="153.91" x2="114.17" y2="0.3"/><line class="cls-1" x1="0.4" y1="153.56" x2="112.95" y2="308.57"/><line class="cls-1" x1="226.37" y1="153.91" x2="112.95" y2="308.57"/><circle class="cls-2" cx="113.95" cy="49.54" r="6.54"/><circle class="cls-3" cx="93.09" cy="76.99" r="6.5"/><ellipse class="cls-4" cx="132.4" cy="78.05" rx="6.88" ry="7.24"/><circle class="cls-5" cx="112.35" cy="103.82" r="7.14"/><line class="cls-4" x1="113.24" y1="135.04" x2="115.34" y2="154.32"/><line class="cls-4" x1="111.43" y1="154.66" x2="113.24" y2="135.04"/><line class="cls-4" x1="113.32" y1="173.78" x2="111.38" y2="153.5"/><line class="cls-4" x1="115.34" y1="154.32" x2="113.53" y2="173.54"/><circle class="cls-6" cx="113.57" cy="154.24" r="1.62"/><line class="cls-4" x1="76.15" y1="135.22" x2="78.24" y2="154.51"/><line class="cls-4" x1="74.34" y1="154.85" x2="76.15" y2="135.22"/><line class="cls-4" x1="76.23" y1="173.97" x2="74.28" y2="153.69"/><line class="cls-4" x1="78.24" y1="154.51" x2="76.44" y2="173.73"/><circle class="cls-6" cx="76.48" cy="154.43" r="1.62"/><line class="cls-4" x1="160.99" y1="138.59" x2="151.5" y2="155.51"/><line class="cls-4" x1="148.13" y1="153.52" x2="160.99" y2="138.59"/><line class="cls-4" x1="138.56" y1="170.18" x2="148.75" y2="152.55"/><line class="cls-4" x1="151.5" y1="155.51" x2="138.87" y2="170.11"/><circle class="cls-6" cx="150.11" cy="154.43" r="1.62"/><line class="cls-4" x1="187.18" y1="134.9" x2="189.27" y2="154.18"/><line class="cls-4" x1="185.37" y1="154.52" x2="187.18" y2="134.9"/><line class="cls-4" x1="187.25" y1="173.64" x2="185.31" y2="153.36"/><line class="cls-4" x1="189.27" y1="154.18" x2="187.47" y2="173.4"/><circle class="cls-6" cx="187.51" cy="154.1" r="1.62"/><line class="cls-4" x1="25.18" y1="139.68" x2="38.68" y2="153.6"/><line class="cls-4" x1="35.81" y1="156.27" x2="25.18" y2="139.68"/><line class="cls-4" x1="49.05" y1="170.2" x2="35.06" y2="155.39"/><line class="cls-4" x1="38.68" y1="153.6" x2="49.07" y2="169.87"/><circle class="cls-6" cx="37.25" cy="154.63" r="1.62"/><circle class="cls-5" cx="94.22" cy="129.56" r="7.14"/><circle class="cls-5" cx="74.87" cy="102.65" r="7.14"/><circle class="cls-5" cx="150.79" cy="103.11" r="7.14"/><circle class="cls-5" cx="169.66" cy="127.99" r="7.14"/><circle class="cls-5" cx="130.86" cy="129.33" r="7.14"/><circle class="cls-5" cx="55.54" cy="128.16" r="7.14"/><circle class="cls-5" cx="56.24" cy="181.09" r="7.14"/><circle class="cls-5" cx="75.52" cy="206.4" r="7.14"/><circle class="cls-5" cx="112.92" cy="204.71" r="7.14"/><circle class="cls-5" cx="131.5" cy="179.48" r="7.14"/><circle class="cls-5" cx="94.81" cy="179.48" r="7.14"/><circle class="cls-5" cx="150.11" cy="204.71" r="7.14"/><circle class="cls-5" cx="168.61" cy="180.41" r="7.14"/><circle class="cls-5" cx="131.97" cy="229.99" r="7.14"/><circle class="cls-5" cx="94.05" cy="230.28" r="7.14"/><circle class="cls-5" cx="112.34" cy="256.26" r="7.14"/></svg>