  0
SECTION
  2
HEADER
  9
$ACADVER
  1
AC1027
  9
$ACADMAINTVER
 70
   125
  9
$DWGCODEPAGE
  3
ANSI_1252
  9
$REQUIREDVERSIONS
160
                 0
  9
$INSBASE
 10
0.0
 20
0.0
 30
0.0
  9
$EXTMIN
 10
1.000000000000000E+20
 20
1.000000000000000E+20
 30
1.000000000000000E+20
  9
$EXTMAX
 10
-1.000000000000000E+20
 20
-1.000000000000000E+20
 30
-1.000000000000000E+20
  9
$LIMMIN
 10
0.0
 20
0.0
  9
$LIMMAX
 10
12.0
 20
9.0
  9
$ORTHOMODE
 70
     0
  9
$REGENMODE
 70
     1
  9
$FILLMODE
 70
     1
  9
$QTEXTMODE
 70
     0
  9
$MIRRTEXT
 70
     0
  9
$LTSCALE
 40
1.0
  9
$ATTMODE
 70
     1
  9
$TEXTSIZE
 40
0.2
  9
$TRACEWID
 40
0.05
  9
$TEXTSTYLE
  7
Standard
  9
$CLAYER
  8
0
  9
$CELTYPE
  6
ByLayer
  9
$CECOLOR
 62
   256
  9
$CELTSCALE
 40
1.0
  9
$DISPSILH
 70
     0
  9
$DIMSCALE
 40
1.0
  9
$DIMASZ
 40
0.18
  9
$DIMEXO
 40
0.0625
  9
$DIMDLI
 40
0.38
  9
$DIMRND
 40
0.0
  9
$DIMDLE
 40
0.0
  9
$DIMEXE
 40
0.18
  9
$DIMTP
 40
0.0
  9
$DIMTM
 40
0.0
  9
$DIMTXT
 40
0.18
  9
$DIMCEN
 40
0.09
  9
$DIMTSZ
 40
0.0
  9
$DIMTOL
 70
     0
  9
$DIMLIM
 70
     0
  9
$DIMTIH
 70
     1
  9
$DIMTOH
 70
     1
  9
$DIMSE1
 70
     0
  9
$DIMSE2
 70
     0
  9
$DIMTAD
 70
     0
  9
$DIMZIN
 70
     0
  9
$DIMBLK
  1

  9
$DIMASO
 70
     1
  9
$DIMSHO
 70
     1
  9
$DIMPOST
  1

  9
$DIMAPOST
  1

  9
$DIMALT
 70
     0
  9
$DIMALTD
 70
     2
  9
$DIMALTF
 40
25.4
  9
$DIMLFAC
 40
1.0
  9
$DIMTOFL
 70
     0
  9
$DIMTVP
 40
0.0
  9
$DIMTIX
 70
     0
  9
$DIMSOXD
 70
     0
  9
$DIMSAH
 70
     0
  9
$DIMBLK1
  1

  9
$DIMBLK2
  1

  9
$DIMSTYLE
  2
Standard
  9
$DIMCLRD
 70
     0
  9
$DIMCLRE
 70
     0
  9
$DIMCLRT
 70
     0
  9
$DIMTFAC
 40
1.0
  9
$DIMGAP
 40
0.09
  9
$DIMJUST
 70
     0
  9
$DIMSD1
 70
     0
  9
$DIMSD2
 70
     0
  9
$DIMTOLJ
 70
     1
  9
$DIMTZIN
 70
     0
  9
$DIMALTZ
 70
     0
  9
$DIMALTTZ
 70
     0
  9
$DIMUPT
 70
     0
  9
$DIMDEC
 70
     4
  9
$DIMTDEC
 70
     4
  9
$DIMALTU
 70
     2
  9
$DIMALTTD
 70
     2
  9
$DIMTXSTY
  7
Standard
  9
$DIMAUNIT
 70
     0
  9
$DIMADEC
 70
     0
  9
$DIMALTRND
 40
0.0
  9
$DIMAZIN
 70
     0
  9
$DIMDSEP
 70
    46
  9
$DIMATFIT
 70
     3
  9
$DIMFRAC
 70
     0
  9
$DIMLDRBLK
  1

  9
$DIMLUNIT
 70
     2
  9
$DIMLWD
 70
    -2
  9
$DIMLWE
 70
    -2
  9
$DIMTMOVE
 70
     0
  9
$DIMFXL
 40
1.0
  9
$DIMFXLON
 70
     0
  9
$DIMJOGANG
 40
0.7853981633974483
  9
$DIMTFILL
 70
     0
  9
$DIMTFILLCLR
 70
     0
  9
$DIMARCSYM
 70
     0
  9
$DIMLTYPE
  6

  9
$DIMLTEX1
  6

  9
$DIMLTEX2
  6

  9
$DIMTXTDIRECTION
 70
     0
  9
$LUNITS
 70
     2
  9
$LUPREC
 70
     4
  9
$SKETCHINC
 40
0.1
  9
$FILLETRAD
 40
0.0
  9
$AUNITS
 70
     0
  9
$AUPREC
 70
     0
  9
$MENU
  1
.
  9
$ELEVATION
 40
0.0
  9
$PELEVATION
 40
0.0
  9
$THICKNESS
 40
0.0
  9
$LIMCHECK
 70
     0
  9
$CHAMFERA
 40
0.0
  9
$CHAMFERB
 40
0.0
  9
$CHAMFERC
 40
0.0
  9
$CHAMFERD
 40
0.0
  9
$SKPOLY
 70
     0
  9
$TDCREATE
 40
2460295.425972223
  9
$TDUCREATE
 40
2460295.384305556
  9
$TDUPDATE
 40
2460295.425972223
  9
$TDUUPDATE
 40
2460295.384305556
  9
$TDINDWG
 40
0.0000000000
  9
$TDUSRTIMER
 40
0.0000000000
  9
$USRTIMER
 70
     1
  9
$ANGBASE
 50
0.0
  9
$ANGDIR
 70
     0
  9
$PDMODE
 70
     0
  9
$PDSIZE
 40
0.0
  9
$PLINEWID
 40
0.0
  9
$SPLFRAME
 70
     0
  9
$SPLINETYPE
 70
     6
  9
$SPLINESEGS
 70
     8
  9
$HANDSEED
  5
92
  9
$SURFTAB1
 70
     6
  9
$SURFTAB2
 70
     6
  9
$SURFTYPE
 70
     6
  9
$SURFU
 70
     6
  9
$SURFV
 70
     6
  9
$UCSBASE
  2

  9
$UCSNAME
  2

  9
$UCSORG
 10
0.0
 20
0.0
 30
0.0
  9
$UCSXDIR
 10
1.0
 20
0.0
 30
0.0
  9
$UCSYDIR
 10
0.0
 20
1.0
 30
0.0
  9
$UCSORTHOREF
  2

  9
$UCSORTHOVIEW
 70
     0
  9
$UCSORGTOP
 10
0.0
 20
0.0
 30
0.0
  9
$UCSORGBOTTOM
 10
0.0
 20
0.0
 30
0.0
  9
$UCSORGLEFT
 10
0.0
 20
0.0
 30
0.0
  9
$UCSORGRIGHT
 10
0.0
 20
0.0
 30
0.0
  9
$UCSORGFRONT
 10
0.0
 20
0.0
 30
0.0
  9
$UCSORGBACK
 10
0.0
 20
0.0
 30
0.0
  9
$PUCSBASE
  2

  9
$PUCSNAME
  2

  9
$PUCSORG
 10
0.0
 20
0.0
 30
0.0
  9
$PUCSXDIR
 10
1.0
 20
0.0
 30
0.0
  9
$PUCSYDIR
 10
0.0
 20
1.0
 30
0.0
  9
$PUCSORTHOREF
  2

  9
$PUCSORTHOVIEW
 70
     0
  9
$PUCSORGTOP
 10
0.0
 20
0.0
 30
0.0
  9
$PUCSORGBOTTOM
 10
0.0
 20
0.0
 30
0.0
  9
$PUCSORGLEFT
 10
0.0
 20
0.0
 30
0.0
  9
$PUCSORGRIGHT
 10
0.0
 20
0.0
 30
0.0
  9
$PUCSORGFRONT
 10
0.0
 20
0.0
 30
0.0
  9
$PUCSORGBACK
 10
0.0
 20
0.0
 30
0.0
  9
$USERI1
 70
     0
  9
$USERI2
 70
     0
  9
$USERI3
 70
     0
  9
$USERI4
 70
     0
  9
$USERI5
 70
     0
  9
$USERR1
 40
0.0
  9
$USERR2
 40
0.0
  9
$USERR3
 40
0.0
  9
$USERR4
 40
0.0
  9
$USERR5
 40
0.0
  9
$WORLDVIEW
 70
     1
  9
$SHADEDGE
 70
     3
  9
$SHADEDIF
 70
    70
  9
$TILEMODE
 70
     1
  9
$MAXACTVP
 70
    64
  9
$PINSBASE
 10
0.0
 20
0.0
 30
0.0
  9
$PLIMCHECK
 70
     0
  9
$PEXTMIN
 10
1.000000000000000E+20
 20
1.000000000000000E+20
 30
1.000000000000000E+20
  9
$PEXTMAX
 10
-1.000000000000000E+20
 20
-1.000000000000000E+20
 30
-1.000000000000000E+20
  9
$PLIMMIN
 10
0.0
 20
0.0
  9
$PLIMMAX
 10
12.0
 20
9.0
  9
$UNITMODE
 70
     0
  9
$VISRETAIN
 70
     1
  9
$PLINEGEN
 70
     0
  9
$PSLTSCALE
 70
     1
  9
$TREEDEPTH
 70
  3020
  9
$CMLSTYLE
  2
Standard
  9
$CMLJUST
 70
     0
  9
$CMLSCALE
 40
1.0
  9
$PROXYGRAPHICS
 70
     1
  9
$MEASUREMENT
 70
     0
  9
$CELWEIGHT
370
    -1
  9
$ENDCAPS
280
     0
  9
$JOINSTYLE
280
     0
  9
$LWDISPLAY
290
     1
  9
$INSUNITS
 70
     4
  9
$HYPERLINKBASE
  1

  9
$STYLESHEET
  1

  9
$XEDIT
290
     1
  9
$CEPSNTYPE
380
     0
  9
$PSTYLEMODE
290
     1
  9
$FINGERPRINTGUID
  2
{2C73F68E-6775-634D-BCEE-10285B5F5E8D}
  9
$VERSIONGUID
  2
{5BA1A0E5-F7F6-FF43-BBDE-019461E6426D}
  9
$EXTNAMES
290
     1
  9
$PSVPSCALE
 40
0.0
  9
$OLESTARTUP
290
     0
  9
$SORTENTS
280
   127
  9
$INDEXCTL
280
     0
  9
$HIDETEXT
280
     1
  9
$XCLIPFRAME
280
     2
  9
$HALOGAP
280
     0
  9
$OBSCOLOR
 70
   257
  9
$OBSLTYPE
280
     0
  9
$INTERSECTIONDISPLAY
280
     0
  9
$INTERSECTIONCOLOR
 70
   257
  9
$DIMASSOC
280
     2
  9
$PROJECTNAME
  1

  9
$CAMERADISPLAY
290
     0
  9
$LENSLENGTH
 40
50.0
  9
$CAMERAHEIGHT
 40
0.0
  9
$STEPSPERSEC
 40
2.0
  9
$STEPSIZE
 40
6.0
  9
$3DDWFPREC
 40
2.0
  9
$PSOLWIDTH
 40
0.25
  9
$PSOLHEIGHT
 40
4.0
  9
$LOFTANG1
 40
1.570796326794896
  9
$LOFTANG2
 40
1.570796326794896
  9
$LOFTMAG1
 40
0.0
  9
$LOFTMAG2
 40
0.0
  9
$LOFTPARAM
 70
     7
  9
$LOFTNORMALS
280
     1
  9
$LATITUDE
 40
37.795
  9
$LONGITUDE
 40
-122.394
  9
$NORTHDIRECTION
 40
0.0
  9
$TIMEZONE
 70
 -8000
  9
$LIGHTGLYPHDISPLAY
280
     1
  9
$TILEMODELIGHTSYNCH
280
     1
  9
$CMATERIAL
347
11
  9
$SOLIDHIST
280
     0
  9
$SHOWHIST
280
     1
  9
$DWFFRAME
280
     2
  9
$DGNFRAME
280
     0
  9
$REALWORLDSCALE
290
     1
  9
$INTERFERECOLOR
 62
     1
  9
$INTERFEREOBJVS
345
33
  9
$INTERFEREVPVS
346
30
  9
$CSHADOW
280
     0
  9
$SHADOWPLANELOCATION
 40
0.0
  0
ENDSEC
  0
SECTION
  2
CLASSES
  0
CLASS
  1
ACDBDICTIONARYWDFLT
  2
AcDbDictionaryWithDefault
  3
ObjectDBX Classes
 90
        0
 91
        1
280
     0
281
     0
  0
CLASS
  1
MATERIAL
  2
AcDbMaterial
  3
ObjectDBX Classes
 90
     1153
 91
        3
280
     0
281
     0
  0
CLASS
  1
VISUALSTYLE
  2
AcDbVisualStyle
  3
ObjectDBX Classes
 90
     4095
 91
       24
280
     0
281
     0
  0
CLASS
  1
SCALE
  2
AcDbScale
  3
ObjectDBX Classes
 90
     1153
 91
       17
280
     0
281
     0
  0
CLASS
  1
TABLESTYLE
  2
AcDbTableStyle
  3
ObjectDBX Classes
 90
     4095
 91
        1
280
     0
281
     0
  0
CLASS
  1
MLEADERSTYLE
  2
AcDbMLeaderStyle
  3
ACDB_MLEADERSTYLE_CLASS
 90
     4095
 91
        1
280
     0
281
     0
  0
CLASS
  1
ACDBSECTIONVIEWSTYLE
  2
AcDbSectionViewStyle
  3
ObjectDBX Classes
 90
     1025
 91
        1
280
     0
281
     0
  0
CLASS
  1
ACDBDETAILVIEWSTYLE
  2
AcDbDetailViewStyle
  3
ObjectDBX Classes
 90
     1025
 91
        1
280
     0
281
     0
  0
CLASS
  1
DICTIONARYVAR
  2
AcDbDictionaryVar
  3
ObjectDBX Classes
 90
        0
 91
        5
280
     0
281
     0
  0
CLASS
  1
CELLSTYLEMAP
  2
AcDbCellStyleMap
  3
ObjectDBX Classes
 90
     1152
 91
        1
280
     0
281
     0
  0
ENDSEC
  0
SECTION
  2
TABLES
  0
TABLE
  2
VPORT
  5
8
330
0
100
AcDbSymbolTable
 70
     1
1001
ACAD
1000
DbSaveVer
1071
      205
  0
VPORT
  5
57
330
8
100
AcDbSymbolTableRecord
100
AcDbViewportTableRecord
  2
*Active
 70
     0
 10
0.0
 20
0.0
 11
1.0
 21
1.0
 12
0.0
 22
0.0
 13
0.0
 23
0.0
 14
1.0
 24
1.0
 15
0.0
 25
0.0
 16
0.0
 26
0.0
 36
1.0
 17
107.5349672933777
 27
228.3107746775145
 37
0.0
 40
140.1260243485227
 41
0.8543642566991842
 42
50.0
 43
0.0
 44
0.0
 50
0.0
 51
0.0
 71
     0
 72
   100
 73
     1
 74
     0
 75
     1
 76
     0
 77
     0
 78
     0
281
     0
 65
     1
110
0.0
120
0.0
130
0.0
111
1.0
121
0.0
131
0.0
112
0.0
122
1.0
132
0.0
 79
     0
146
0.0
 60
     3
 61
     5
292
     1
282
     1
141
0.0
142
0.0
 63
   250
421
  3355443
  0
ENDTAB
  0
TABLE
  2
LTYPE
  5
5
330
0
100
AcDbSymbolTable
 70
     1
  0
LTYPE
  5
5B
330
5
100
AcDbSymbolTableRecord
100
AcDbLinetypeTableRecord
  2
ByBlock
 70
     0
  3

 72
    65
 73
     0
 40
0.0
  0
LTYPE
  5
5C
330
5
100
AcDbSymbolTableRecord
100
AcDbLinetypeTableRecord
  2
ByLayer
 70
     0
  3

 72
    65
 73
     0
 40
0.0
  0
LTYPE
  5
5D
330
5
100
AcDbSymbolTableRecord
100
AcDbLinetypeTableRecord
  2
Continuous
 70
     0
  3
Solid line
 72
    65
 73
     0
 40
0.0
  0
ENDTAB
  0
TABLE
  2
LAYER
  5
2
330
0
100
AcDbSymbolTable
 70
     7
  0
LAYER
  5
54
330
2
100
AcDbSymbolTableRecord
100
AcDbLayerTableRecord
  2
0
 70
     0
 62
     7
  6
Continuous
370
    -3
390
F
347
21
348
0
  0
LAYER
  5
78
330
2
100
AcDbSymbolTableRecord
100
AcDbLayerTableRecord
  2
Diamond
 70
     1
 62
     7
  6
Continuous
370
     0
390
F
347
21
348
0
  0
LAYER
  5
79
330
2
100
AcDbSymbolTableRecord
100
AcDbLayerTableRecord
  2
Layer 7
 70
     1
 62
     7
  6
Continuous
370
     0
390
F
347
21
348
0
  0
LAYER
  5
7A
330
2
100
AcDbSymbolTableRecord
100
AcDbLayerTableRecord
  2
SILK
 70
     1
 62
     7
  6
Continuous
370
     0
390
F
347
21
348
0
  0
LAYER
  5
7B
330
2
100
AcDbSymbolTableRecord
100
AcDbLayerTableRecord
  2
GOLD
 70
     1
 62
     7
  6
Continuous
370
     0
390
F
347
21
348
0
  0
LAYER
  5
7C
330
2
100
AcDbSymbolTableRecord
100
AcDbLayerTableRecord
  2
Layer 6
 70
     1
 62
     7
  6
Continuous
370
     0
390
F
347
21
348
0
  0
LAYER
  5
7D
330
2
100
AcDbSymbolTableRecord
100
AcDbLayerTableRecord
  2
Layer 5
 70
     0
 62
     7
  6
Continuous
370
     0
390
F
347
21
348
0
  0
ENDTAB
  0
TABLE
  2
STYLE
  5
3
330
0
100
AcDbSymbolTable
 70
     2
  0
STYLE
  5
55
330
3
100
AcDbSymbolTableRecord
100
AcDbTextStyleTableRecord
  2
Standard
 70
     0
 40
0.0
 41
1.0
 50
0.0
 71
     0
 42
0.2
  3
txt
  4

  0
STYLE
  5
5A
330
3
100
AcDbSymbolTableRecord
100
AcDbTextStyleTableRecord
  2
Annotative
 70
     0
 40
0.0
 41
1.0
 50
0.0
 71
     0
 42
0.2
  3
txt
  4

1001
AcadAnnotative
1000
AnnotativeData
1002
{
1070
     1
1070
     1
1002
}
  0
ENDTAB
  0
TABLE
  2
VIEW
  5
6
330
0
100
AcDbSymbolTable
 70
     0
  0
ENDTAB
  0
TABLE
  2
UCS
  5
7
330
0
100
AcDbSymbolTable
 70
     0
  0
ENDTAB
  0
TABLE
  2
APPID
  5
9
330
0
100
AcDbSymbolTable
 70
     2
  0
APPID
  5
56
330
9
100
AcDbSymbolTableRecord
100
AcDbRegAppTableRecord
  2
ACAD
 70
     0
  0
APPID
  5
5E
330
9
100
AcDbSymbolTableRecord
100
AcDbRegAppTableRecord
  2
AcadAnnotative
 70
     0
  0
ENDTAB
  0
TABLE
  2
DIMSTYLE
  5
A
330
0
100
AcDbSymbolTable
 70
     2
100
AcDbDimStyleTable
 71
     0
  0
DIMSTYLE
105
58
330
A
100
AcDbSymbolTableRecord
100
AcDbDimStyleTableRecord
  2
Standard
 70
     0
340
55
  0
DIMSTYLE
105
59
330
A
100
AcDbSymbolTableRecord
100
AcDbDimStyleTableRecord
  2
Annotative
 70
     0
340
55
1001
AcadAnnotative
1000
AnnotativeData
1002
{
1070
     1
1070
     1
1002
}
  0
ENDTAB
  0
TABLE
  2
BLOCK_RECORD
  5
1
330
0
100
AcDbSymbolTable
 70
     1
  0
BLOCK_RECORD
  5
70
330
1
100
AcDbSymbolTableRecord
100
AcDbBlockTableRecord
  2
*Model_Space
340
73
 70
     0
280
     1
281
     0
  0
BLOCK_RECORD
  5
6C
330
1
100
AcDbSymbolTableRecord
100
AcDbBlockTableRecord
  2
*Paper_Space
340
6F
 70
     0
280
     1
281
     0
  0
BLOCK_RECORD
  5
74
330
1
100
AcDbSymbolTableRecord
100
AcDbBlockTableRecord
  2
*Paper_Space0
340
77
 70
     0
280
     1
281
     0
  0
ENDTAB
  0
ENDSEC
  0
SECTION
  2
BLOCKS
  0
BLOCK
  5
71
330
70
100
AcDbEntity
  8
0
100
AcDbBlockBegin
  2
*Model_Space
 70
     0
 10
0.0
 20
0.0
 30
0.0
  3
*Model_Space
  1

  0
ENDBLK
  5
72
330
70
100
AcDbEntity
  8
0
100
AcDbBlockEnd
  0
BLOCK
  5
6D
330
6C
100
AcDbEntity
 67
     1
  8
0
100
AcDbBlockBegin
  2
*Paper_Space
 70
     0
 10
0.0
 20
0.0
 30
0.0
  3
*Paper_Space
  1

  0
ENDBLK
  5
6E
330
6C
100
AcDbEntity
 67
     1
  8
0
100
AcDbBlockEnd
  0
BLOCK
  5
75
330
74
100
AcDbEntity
 67
     1
  8
0
100
AcDbBlockBegin
  2
*Paper_Space0
 70
     0
 10
0.0
 20
0.0
 30
0.0
  3
*Paper_Space0
  1

  0
ENDBLK
  5
76
330
74
100
AcDbEntity
 67
     1
  8
0
100
AcDbBlockEnd
  0
ENDSEC
  0
SECTION
  2
ENTITIES
  0
CIRCLE
  5
7E
330
70
100
AcDbEntity
  8
Layer 5
 62
     1
420
 16711680
370
    35
100
AcDbCircle
 10
71.45440238331797
 20
281.1777395302859
 30
0.0
 40
1.499999999624899
  0
CIRCLE
  5
7F
330
70
100
AcDbEntity
  8
Layer 5
 62
     1
420
 16711680
370
    35
100
AcDbCircle
 10
143.2056430825598
 20
281.1777395302859
 30
0.0
 40
1.499999999624979
  0
CIRCLE
  5
80
330
70
100
AcDbEntity
  8
Layer 5
 62
     1
420
 16711680
370
    25
100
AcDbCircle
 10
66.53310344238271
 20
282.3164502595318
 30
0.0
 40
0.9999999997500935
  0
CIRCLE
  5
81
330
70
100
AcDbEntity
  8
Layer 5
 62
     1
420
 16711680
370
    25
100
AcDbCircle
 10
66.53310344238271
 20
175.2527704139839
 30
0.0
 40
0.9999999997501337
  0
CIRCLE
  5
82
330
70
100
AcDbEntity
  8
Layer 5
 62
     1
420
 16711680
370
    25
100
AcDbCircle
 10
148.1273198409724
 20
175.2527704139832
 30
0.0
 40
0.9999999997500935
  0
CIRCLE
  5
83
330
70
100
AcDbEntity
  8
Layer 5
 62
     1
420
 16711680
370
    25
100
AcDbCircle
 10
148.1269182392992
 20
282.3164502595318
 30
0.0
 40
0.9999999997500935
  0
SPLINE
  5
84
330
70
100
AcDbEntity
  8
Layer 5
 62
     1
420
 16711680
370
    25
100
AcDbSpline
210
0.0
220
0.0
230
1.0
 70
     9
 71
     3
 72
   902
 73
   898
 74
     0
 42
0.0000000001
 43
0.0000000001
 40
0.0
 40
0.0
 40
0.0
 40
0.0
 40
1.0
 40
1.0
 40
1.0
 40
2.0
 40
2.0
 40
2.0
 40
3.0
 40
3.0
 40
3.0
 40
4.0
 40
4.0
 40
4.0
 40
5.0
 40
5.0
 40
5.0
 40
6.0
 40
6.0
 40
6.0
 40
7.0
 40
7.0
 40
7.0
 40
8.0
 40
8.0
 40
8.0
 40
9.0
 40
9.0
 40
9.0
 40
10.0
 40
10.0
 40
10.0
 40
11.0
 40
11.0
 40
11.0
 40
12.0
 40
12.0
 40
12.0
 40
13.0
 40
13.0
 40
13.0
 40
14.0
 40
14.0
 40
14.0
 40
15.0
 40
15.0
 40
15.0
 40
16.0
 40
16.0
 40
16.0
 40
17.0
 40
17.0
 40
17.0
 40
18.0
 40
18.0
 40
18.0
 40
19.0
 40
19.0
 40
19.0
 40
20.0
 40
20.0
 40
20.0
 40
21.0
 40
21.0
 40
21.0
 40
22.0
 40
22.0
 40
22.0
 40
23.0
 40
23.0
 40
23.0
 40
24.0
 40
24.0
 40
24.0
 40
25.0
 40
25.0
 40
25.0
 40
26.0
 40
26.0
 40
26.0
 40
27.0
 40
27.0
 40
27.0
 40
28.0
 40
28.0
 40
28.0
 40
29.0
 40
29.0
 40
29.0
 40
30.0
 40
30.0
 40
30.0
 40
31.0
 40
31.0
 40
31.0
 40
32.0
 40
32.0
 40
32.0
 40
33.0
 40
33.0
 40
33.0
 40
34.0
 40
34.0
 40
34.0
 40
35.0
 40
35.0
 40
35.0
 40
36.0
 40
36.0
 40
36.0
 40
37.0
 40
37.0
 40
37.0
 40
38.0
 40
38.0
 40
38.0
 40
39.0
 40
39.0
 40
39.0
 40
40.0
 40
40.0
 40
40.0
 40
41.0
 40
41.0
 40
41.0
 40
42.0
 40
42.0
 40
42.0
 40
43.0
 40
43.0
 40
43.0
 40
44.0
 40
44.0
 40
44.0
 40
45.0
 40
45.0
 40
45.0
 40
46.0
 40
46.0
 40
46.0
 40
47.0
 40
47.0
 40
47.0
 40
48.0
 40
48.0
 40
48.0
 40
49.0
 40
49.0
 40
49.0
 40
50.0
 40
50.0
 40
50.0
 40
51.0
 40
51.0
 40
51.0
 40
52.0
 40
52.0
 40
52.0
 40
53.0
 40
53.0
 40
53.0
 40
54.0
 40
54.0
 40
54.0
 40
55.0
 40
55.0
 40
55.0
 40
56.0
 40
56.0
 40
56.0
 40
57.0
 40
57.0
 40
57.0
 40
58.0
 40
58.0
 40
58.0
 40
59.0
 40
59.0
 40
59.0
 40
60.0
 40
60.0
 40
60.0
 40
61.0
 40
61.0
 40
61.0
 40
62.0
 40
62.0
 40
62.0
 40
63.0
 40
63.0
 40
63.0
 40
64.0
 40
64.0
 40
64.0
 40
65.0
 40
65.0
 40
65.0
 40
66.0
 40
66.0
 40
66.0
 40
67.0
 40
67.0
 40
67.0
 40
68.0
 40
68.0
 40
68.0
 40
69.0
 40
69.0
 40
69.0
 40
70.0
 40
70.0
 40
70.0
 40
71.0
 40
71.0
 40
71.0
 40
72.0
 40
72.0
 40
72.0
 40
73.0
 40
73.0
 40
73.0
 40
74.0
 40
74.0
 40
74.0
 40
75.0
 40
75.0
 40
75.0
 40
76.0
 40
76.0
 40
76.0
 40
77.0
 40
77.0
 40
77.0
 40
78.0
 40
78.0
 40
78.0
 40
79.0
 40
79.0
 40
79.0
 40
80.0
 40
80.0
 40
80.0
 40
81.0
 40
81.0
 40
81.0
 40
82.0
 40
82.0
 40
82.0
 40
83.0
 40
83.0
 40
83.0
 40
84.0
 40
84.0
 40
84.0
 40
85.0
 40
85.0
 40
85.0
 40
86.0
 40
86.0
 40
86.0
 40
87.0
 40
87.0
 40
87.0
 40
88.0
 40
88.0
 40
88.0
 40
89.0
 40
89.0
 40
89.0
 40
90.0
 40
90.0
 40
90.0
 40
91.0
 40
91.0
 40
91.0
 40
92.0
 40
92.0
 40
92.0
 40
93.0
 40
93.0
 40
93.0
 40
94.0
 40
94.0
 40
94.0
 40
95.0
 40
95.0
 40
95.0
 40
96.0
 40
96.0
 40
96.0
 40
97.0
 40
97.0
 40
97.0
 40
98.0
 40
98.0
 40
98.0
 40
99.0
 40
99.0
 40
99.0
 40
100.0
 40
100.0
 40
100.0
 40
101.0
 40
101.0
 40
101.0
 40
102.0
 40
102.0
 40
102.0
 40
103.0
 40
103.0
 40
103.0
 40
104.0
 40
104.0
 40
104.0
 40
105.0
 40
105.0
 40
105.0
 40
106.0
 40
106.0
 40
106.0
 40
107.0
 40
107.0
 40
107.0
 40
108.0
 40
108.0
 40
108.0
 40
109.0
 40
109.0
 40
109.0
 40
110.0
 40
110.0
 40
110.0
 40
111.0
 40
111.0
 40
111.0
 40
112.0
 40
112.0
 40
112.0
 40
113.0
 40
113.0
 40
113.0
 40
114.0
 40
114.0
 40
114.0
 40
115.0
 40
115.0
 40
115.0
 40
116.0
 40
116.0
 40
116.0
 40
117.0
 40
117.0
 40
117.0
 40
118.0
 40
118.0
 40
118.0
 40
119.0
 40
119.0
 40
119.0
 40
120.0
 40
120.0
 40
120.0
 40
121.0
 40
121.0
 40
121.0
 40
122.0
 40
122.0
 40
122.0
 40
123.0
 40
123.0
 40
123.0
 40
124.0
 40
124.0
 40
124.0
 40
125.0
 40
125.0
 40
125.0
 40
126.0
 40
126.0
 40
126.0
 40
127.0
 40
127.0
 40
127.0
 40
128.0
 40
128.0
 40
128.0
 40
129.0
 40
129.0
 40
129.0
 40
130.0
 40
130.0
 40
130.0
 40
131.0
 40
131.0
 40
131.0
 40
132.0
 40
132.0
 40
132.0
 40
133.0
 40
133.0
 40
133.0
 40
134.0
 40
134.0
 40
134.0
 40
135.0
 40
135.0
 40
135.0
 40
136.0
 40
136.0
 40
136.0
 40
137.0
 40
137.0
 40
137.0
 40
138.0
 40
138.0
 40
138.0
 40
139.0
 40
139.0
 40
139.0
 40
140.0
 40
140.0
 40
140.0
 40
141.0
 40
141.0
 40
141.0
 40
142.0
 40
142.0
 40
142.0
 40
143.0
 40
143.0
 40
143.0
 40
144.0
 40
144.0
 40
144.0
 40
145.0
 40
145.0
 40
145.0
 40
146.0
 40
146.0
 40
146.0
 40
147.0
 40
147.0
 40
147.0
 40
148.0
 40
148.0
 40
148.0
 40
149.0
 40
149.0
 40
149.0
 40
150.0
 40
150.0
 40
150.0
 40
151.0
 40
151.0
 40
151.0
 40
152.0
 40
152.0
 40
152.0
 40
153.0
 40
153.0
 40
153.0
 40
154.0
 40
154.0
 40
154.0
 40
155.0
 40
155.0
 40
155.0
 40
156.0
 40
156.0
 40
156.0
 40
157.0
 40
157.0
 40
157.0
 40
158.0
 40
158.0
 40
158.0
 40
159.0
 40
159.0
 40
159.0
 40
160.0
 40
160.0
 40
160.0
 40
161.0
 40
161.0
 40
161.0
 40
162.0
 40
162.0
 40
162.0
 40
163.0
 40
163.0
 40
163.0
 40
164.0
 40
164.0
 40
164.0
 40
165.0
 40
165.0
 40
165.0
 40
166.0
 40
166.0
 40
166.0
 40
167.0
 40
167.0
 40
167.0
 40
168.0
 40
168.0
 40
168.0
 40
169.0
 40
169.0
 40
169.0
 40
170.0
 40
170.0
 40
170.0
 40
171.0
 40
171.0
 40
171.0
 40
172.0
 40
172.0
 40
172.0
 40
173.0
 40
173.0
 40
173.0
 40
174.0
 40
174.0
 40
174.0
 40
175.0
 40
175.0
 40
175.0
 40
176.0
 40
176.0
 40
176.0
 40
177.0
 40
177.0
 40
177.0
 40
178.0
 40
178.0
 40
178.0
 40
179.0
 40
179.0
 40
179.0
 40
180.0
 40
180.0
 40
180.0
 40
181.0
 40
181.0
 40
181.0
 40
182.0
 40
182.0
 40
182.0
 40
183.0
 40
183.0
 40
183.0
 40
184.0
 40
184.0
 40
184.0
 40
185.0
 40
185.0
 40
185.0
 40
186.0
 40
186.0
 40
186.0
 40
187.0
 40
187.0
 40
187.0
 40
188.0
 40
188.0
 40
188.0
 40
189.0
 40
189.0
 40
189.0
 40
190.0
 40
190.0
 40
190.0
 40
191.0
 40
191.0
 40
191.0
 40
192.0
 40
192.0
 40
192.0
 40
193.0
 40
193.0
 40
193.0
 40
194.0
 40
194.0
 40
194.0
 40
195.0
 40
195.0
 40
195.0
 40
196.0
 40
196.0
 40
196.0
 40
197.0
 40
197.0
 40
197.0
 40
198.0
 40
198.0
 40
198.0
 40
199.0
 40
199.0
 40
199.0
 40
200.0
 40
200.0
 40
200.0
 40
201.0
 40
201.0
 40
201.0
 40
202.0
 40
202.0
 40
202.0
 40
203.0
 40
203.0
 40
203.0
 40
204.0
 40
204.0
 40
204.0
 40
205.0
 40
205.0
 40
205.0
 40
206.0
 40
206.0
 40
206.0
 40
207.0
 40
207.0
 40
207.0
 40
208.0
 40
208.0
 40
208.0
 40
209.0
 40
209.0
 40
209.0
 40
210.0
 40
210.0
 40
210.0
 40
211.0
 40
211.0
 40
211.0
 40
212.0
 40
212.0
 40
212.0
 40
213.0
 40
213.0
 40
213.0
 40
214.0
 40
214.0
 40
214.0
 40
215.0
 40
215.0
 40
215.0
 40
216.0
 40
216.0
 40
216.0
 40
217.0
 40
217.0
 40
217.0
 40
218.0
 40
218.0
 40
218.0
 40
219.0
 40
219.0
 40
219.0
 40
220.0
 40
220.0
 40
220.0
 40
221.0
 40
221.0
 40
221.0
 40
222.0
 40
222.0
 40
222.0
 40
223.0
 40
223.0
 40
223.0
 40
224.0
 40
224.0
 40
224.0
 40
225.0
 40
225.0
 40
225.0
 40
226.0
 40
226.0
 40
226.0
 40
227.0
 40
227.0
 40
227.0
 40
228.0
 40
228.0
 40
228.0
 40
229.0
 40
229.0
 40
229.0
 40
230.0
 40
230.0
 40
230.0
 40
231.0
 40
231.0
 40
231.0
 40
232.0
 40
232.0
 40
232.0
 40
233.0
 40
233.0
 40
233.0
 40
234.0
 40
234.0
 40
234.0
 40
235.0
 40
235.0
 40
235.0
 40
236.0
 40
236.0
 40
236.0
 40
237.0
 40
237.0
 40
237.0
 40
238.0
 40
238.0
 40
238.0
 40
239.0
 40
239.0
 40
239.0
 40
240.0
 40
240.0
 40
240.0
 40
241.0
 40
241.0
 40
241.0
 40
242.0
 40
242.0
 40
242.0
 40
243.0
 40
243.0
 40
243.0
 40
244.0
 40
244.0
 40
244.0
 40
245.0
 40
245.0
 40
245.0
 40
246.0
 40
246.0
 40
246.0
 40
247.0
 40
247.0
 40
247.0
 40
248.0
 40
248.0
 40
248.0
 40
249.0
 40
249.0
 40
249.0
 40
250.0
 40
250.0
 40
250.0
 40
251.0
 40
251.0
 40
251.0
 40
252.0
 40
252.0
 40
252.0
 40
253.0
 40
253.0
 40
253.0
 40
254.0
 40
254.0
 40
254.0
 40
255.0
 40
255.0
 40
255.0
 40
256.0
 40
256.0
 40
256.0
 40
257.0
 40
257.0
 40
257.0
 40
258.0
 40
258.0
 40
258.0
 40
259.0
 40
259.0
 40
259.0
 40
260.0
 40
260.0
 40
260.0
 40
261.0
 40
261.0
 40
261.0
 40
262.0
 40
262.0
 40
262.0
 40
263.0
 40
263.0
 40
263.0
 40
264.0
 40
264.0
 40
264.0
 40
265.0
 40
265.0
 40
265.0
 40
266.0
 40
266.0
 40
266.0
 40
267.0
 40
267.0
 40
267.0
 40
268.0
 40
268.0
 40
268.0
 40
269.0
 40
269.0
 40
269.0
 40
270.0
 40
270.0
 40
270.0
 40
271.0
 40
271.0
 40
271.0
 40
272.0
 40
272.0
 40
272.0
 40
273.0
 40
273.0
 40
273.0
 40
274.0
 40
274.0
 40
274.0
 40
275.0
 40
275.0
 40
275.0
 40
276.0
 40
276.0
 40
276.0
 40
277.0
 40
277.0
 40
277.0
 40
278.0
 40
278.0
 40
278.0
 40
279.0
 40
279.0
 40
279.0
 40
280.0
 40
280.0
 40
280.0
 40
281.0
 40
281.0
 40
281.0
 40
282.0
 40
282.0
 40
282.0
 40
283.0
 40
283.0
 40
283.0
 40
284.0
 40
284.0
 40
284.0
 40
285.0
 40
285.0
 40
285.0
 40
286.0
 40
286.0
 40
286.0
 40
287.0
 40
287.0
 40
287.0
 40
288.0
 40
288.0
 40
288.0
 40
289.0
 40
289.0
 40
289.0
 40
290.0
 40
290.0
 40
290.0
 40
291.0
 40
291.0
 40
291.0
 40
292.0
 40
292.0
 40
292.0
 40
293.0
 40
293.0
 40
293.0
 40
294.0
 40
294.0
 40
294.0
 40
295.0
 40
295.0
 40
295.0
 40
296.0
 40
296.0
 40
296.0
 40
297.0
 40
297.0
 40
297.0
 40
298.0
 40
298.0
 40
298.0
 40
299.0
 40
299.0
 40
299.0
 40
299.0
 10
152.5234635713526
 20
176.9603655902542
 30
0.0
 10
152.5234635713526
 20
176.3923985358172
 30
0.0
 10
152.5234635713526
 20
176.3888673129448
 30
0.0
 10
152.4670286009349
 20
176.3571078389402
 30
0.0
 10
152.4246969901599
 20
176.3324323425274
 30
0.0
 10
152.1495199882755
 20
176.3253698967827
 30
0.0
 10
151.1935059911187
 20
176.3324323425274
 30
0.0
 10
149.9799495745927
 20
176.3359420335527
 30
0.0
 10
149.9764183517203
 20
176.3359420335527
 30
0.0
 10
150.0011153799802
 20
176.2865695088797
 30
0.0
 10
150.0363845450104
 20
176.2230720927172
 30
0.0
 10
150.0575503503979
 20
173.997023644923
 30
0.0
 10
150.0258124082401
 20
173.9370574516332
 30
0.0
 10
150.0116875167505
 20
173.912360423373
 30
0.0
 10
149.9164521584302
 20
173.8312284246954
 30
0.0
 10
149.8106015996459
 20
173.7571373399161
 30
0.0
 10
149.4578238219563
 20
173.5066788981384
 30
0.0
 10
148.8863255446469
 20
172.8857865643092
 30
0.0
 10
148.6958332961594
 20
172.5435809233897
 30
0.0
 10
148.6182325203541
 20
172.4024827314219
 30
0.0
 10
148.5723696867067
 20
172.3954202856772
 30
0.0
 10
147.6551345456057
 20
172.3954202856772
 30
0.0
 10
147.6551345456057
 20
172.3954202856772
 30
0.0
 10
146.8296466036463
 20
172.3954202856772
 30
0.0
 10
146.8296466036463
 20
172.3954202856772
 30
0.0
 10
146.8296466036463
 20
172.3954202856772
 30
0.0
 10
146.8049495753864
 20
172.3389853152594
 30
0.0
 10
146.8049495753864
 20
172.3389853152594
 30
0.0
 10
146.7908246838969
 20
172.3072258412548
 30
0.0
 10
146.7520242959943
 20
172.2789975901225
 30
0.0
 10
146.7061614623469
 20
172.2719566762249
 30
0.0
 10
146.5192004367317
 20
172.2366659793475
 30
0.0
 10
144.4060649934666
 20
172.3072258412548
 30
0.0
 10
144.144991351225
 20
172.3601511206472
 30
0.0
 10
144.060328129675
 20
172.3742544802897
 30
0.0
 10
144.0462247700323
 20
172.3671920345449
 30
0.0
 10
143.9544991027375
 20
172.2754878990972
 30
0.0
 10
143.9015738233453
 20
172.2190313968324
 30
0.0
 10
143.8522012986723
 20
172.1731685631853
 30
0.0
 10
143.8486700758
 20
172.1696373403129
 30
0.0
 10
143.8451388529276
 20
172.166127649287
 30
0.0
 10
143.1536866571911
 20
172.1555339806699
 30
0.0
 10
142.3105641327166
 20
172.1484715349251
 30
0.0
 10
141.4709512992676
 20
172.1378993981547
 30
0.0
 10
140.7230641331135
 20
172.1237745066652
 30
0.0
 10
140.6560354940786
 20
172.1132023698949
 30
0.0
 10
140.5078533245193
 20
172.0920365645077
 30
0.0
 10
140.4514183541015
 20
172.1167335927672
 30
0.0
 10
140.2291666316093
 20
172.2966537044844
 30
0.0
 10
140.2291666316093
 20
172.2966537044844
 30
0.0
 10
140.0739435481521
 20
172.4201173139371
 30
0.0
 10
140.0739435481521
 20
172.4201173139371
 30
0.0
 10
140.0739435481521
 20
172.4201173139371
 30
0.0
 10
139.5447768816177
 20
172.4201173139371
 30
0.0
 10
139.5447768816177
 20
172.4201173139371
 30
0.0
 10
139.5447768816177
 20
172.4201173139371
 30
0.0
 10
139.4318854089354
 20
172.335454092387
 30
0.0
 10
139.4318854089354
 20
172.335454092387
 30
0.0
 10
139.2731311026057
 20
172.2119689510876
 30
0.0
 10
139.005038078313
 20
172.0885053416353
 30
0.0
 10
138.7369235221734
 20
172.0144142568553
 30
0.0
 10
138.4229461323865
 20
171.9297510353053
 30
0.0
 10
137.960808104887
 20
171.9050540070458
 30
0.0
 10
137.73149393665
 20
171.9650417321823
 30
0.0
 10
137.4880764087703
 20
172.0250079254725
 30
0.0
 10
137.248190103763
 20
172.1555339806699
 30
0.0
 10
137.0894357974334
 20
172.3072258412548
 30
0.0
 10
137.0894357974334
 20
172.3072258412548
 30
0.0
 10
136.951868828338
 20
172.4448143421972
 30
0.0
 10
136.951868828338
 20
172.4448143421972
 30
0.0
 10
136.951868828338
 20
172.4448143421972
 30
0.0
 10
135.6359930759
 20
172.4448143421972
 30
0.0
 10
135.6359930759
 20
172.4448143421972
 30
0.0
 10
135.6359930759
 20
172.4448143421972
 30
0.0
 10
135.55132985435
 20
172.3601511206472
 30
0.0
 10
135.55132985435
 20
172.3601511206472
 30
0.0
 10
135.4349071587954
 20
172.2366659793475
 30
0.0
 10
135.2938089668276
 20
172.1908031457001
 30
0.0
 10
135.1032951864933
 20
172.2049280371896
 30
0.0
 10
134.941031189138
 20
172.2190313968324
 30
0.0
 10
134.8316709393281
 20
172.2613630076077
 30
0.0
 10
134.6976136612583
 20
172.3742544802897
 30
0.0
 10
134.6976136612583
 20
172.3742544802897
 30
0.0
 10
134.6094192168359
 20
172.4448143421972
 30
0.0
 10
134.6094192168359
 20
172.4448143421972
 30
0.0
 10
134.6094192168359
 20
172.4448143421972
 30
0.0
 10
133.37116577205
 20
172.4448143421972
 30
0.0
 10
133.37116577205
 20
172.4448143421972
 30
0.0
 10
133.37116577205
 20
172.4448143421972
 30
0.0
 10
133.2406397168526
 20
172.3460262291577
 30
0.0
 10
133.2406397168526
 20
172.3460262291577
 30
0.0
 10
133.0748229647781
 20
172.2225626197048
 30
0.0
 10
132.803198717613
 20
172.0955677873801
 30
0.0
 10
132.5421466072182
 20
172.0250079254725
 30
0.0
 10
132.362226495501
 20
171.9756138689527
 30
0.0
 10
132.2740320510786
 20
171.9685514232079
 30
0.0
 10
131.928295187287
 20
171.9685514232079
 30
0.0
 10
131.5508419131843
 20
171.9685514232079
 30
0.0
 10
131.5120199934349
 20
171.9720826460803
 30
0.0
 10
131.3321214135645
 20
172.0355800622428
 30
0.0
 10
131.1239730507151
 20
172.1096711470225
 30
0.0
 10
130.9511153847427
 20
172.208459260062
 30
0.0
 10
130.7711952730255
 20
172.3671920345449
 30
0.0
 10
130.7711952730255
 20
172.3671920345449
 30
0.0
 10
130.6512413545985
 20
172.4695113704568
 30
0.0
 10
130.6512413545985
 20
172.4695113704568
 30
0.0
 10
130.6512413545985
 20
172.4695113704568
 30
0.0
 10
125.7264773584338
 20
172.4695113704568
 30
0.0
 10
125.7264773584338
 20
172.4695113704568
 30
0.0
 10
125.7264773584338
 20
172.4695113704568
 30
0.0
 10
125.6523862736542
 20
172.4060139542943
 30
0.0
 10
125.6523862736542
 20
172.4060139542943
 30
0.0
 10
125.3666371349995
 20
172.1625964264146
 30
0.0
 10
124.6822473850078
 20
171.9791450918251
 30
0.0
 10
124.0895833023109
 20
171.9791450918251
 30
0.0
 10
123.5004504424864
 20
171.9826763146975
 30
0.0
 10
123.2393983320916
 20
172.0638083133751
 30
0.0
 10
122.9395243019474
 20
172.3389853152594
 30
0.0
 10
122.9395243019474
 20
172.3389853152594
 30
0.0
 10
122.7737290817197
 20
172.4942083987167
 30
0.0
 10
122.7737290817197
 20
172.4942083987167
 30
0.0
 10
122.7737290817197
 20
172.4942083987167
 30
0.0
 10
121.6272013042286
 20
172.4942083987167
 30
0.0
 10
121.6272013042286
 20
172.4942083987167
 30
0.0
 10
121.6272013042286
 20
172.4942083987167
 30
0.0
 10
121.5390068598062
 20
172.4095236453199
 30
0.0
 10
121.5390068598062
 20
172.4095236453199
 30
0.0
 10
121.3978871359917
 20
172.2789975901225
 30
0.0
 10
121.2461952754068
 20
172.21550017396
 30
0.0
 10
121.1050755515922
 20
172.2296250654495
 30
0.0
 10
120.9428115542369
 20
172.250790870837
 30
0.0
 10
120.748788082877
 20
172.3389853152594
 30
0.0
 10
120.6782282209697
 20
172.4236485368094
 30
0.0
 10
120.6782282209697
 20
172.4236485368094
 30
0.0
 10
120.6182404958328
 20
172.4942083987167
 30
0.0
 10
120.6182404958328
 20
172.4942083987167
 30
0.0
 10
120.6182404958328
 20
172.4942083987167
 30
0.0
 10
119.5140658609635
 20
172.4942083987167
 30
0.0
 10
119.5140658609635
 20
172.4942083987167
 30
0.0
 10
119.5140658609635
 20
172.4942083987167
 30
0.0
 10
119.2600546644666
 20
172.3248604237699
 30
0.0
 10
119.2600546644666
 20
172.3248604237699
 30
0.0
 10
118.8049790827119
 20
172.0250079254725
 30
0.0
 10
118.5580303319599
 20
171.96151050931
 30
0.0
 10
117.9265658613603
 20
171.9862075375699
 30
0.0
 10
117.3515363611786
 20
172.0073733429577
 30
0.0
 10
117.1045876104265
 20
172.0885053416353
 30
0.0
 10
116.769444415252
 20
172.3707232574173
 30
0.0
 10
116.769444415252
 20
172.3707232574173
 30
0.0
 10
116.5930555264073
 20
172.5189054269766
 30
0.0
 10
116.5930555264073
 20
172.5189054269766
 30
0.0
 10
116.5930555264073
 20
172.5189054269766
 30
0.0
 10
114.2188679727474
 20
172.5189054269766
 30
0.0
 10
114.2188679727474
 20
172.5189054269766
 30
0.0
 10
112.6243055273995
 20
172.5189054269766
 30
0.0
 10
111.848190110113
 20
172.5083117583595
 30
0.0
 10
111.848190110113
 20
172.4906771758443
 30
0.0
 10
111.848190110113
 20
172.4800835072272
 30
0.0
 10
111.7741205571801
 20
172.4201173139371
 30
0.0
 10
111.6823948898854
 20
172.3601511206472
 30
0.0
 10
111.2202568623859
 20
172.0638083133751
 30
0.0
 10
110.9697768887615
 20
171.9932484514681
 30
0.0
 10
110.3418436410343
 20
171.9932484514681
 30
0.0
 10
109.9820034176
 20
171.9897387604422
 30
0.0
 10
109.8726431677901
 20
172.0003108972129
 30
0.0
 10
109.7562204722354
 20
172.0355800622428
 30
0.0
 10
109.5198653901005
 20
172.1096711470225
 30
0.0
 10
109.3717047523879
 20
172.1943343685725
 30
0.0
 10
109.1882534177984
 20
172.3742544802897
 30
0.0
 10
109.1882534177984
 20
172.3742544802897
 30
0.0
 10
109.015395751826
 20
172.5435809233897
 30
0.0
 10
109.015395751826
 20
172.5435809233897
 30
0.0
 10
109.015395751826
 20
172.5435809233897
 30
0.0
 10
107.6289816693275
 20
172.5435809233897
 30
0.0
 10
107.6289816693275
 20
172.5435809233897
 30
0.0
 10
107.6289816693275
 20
172.5435809233897
 30
0.0
 10
107.5231311105432
 20
172.4448143421972
 30
0.0
 10
107.5231311105432
 20
172.4448143421972
 30
0.0
 10
107.4419991118656
 20
172.3671920345449
 30
0.0
 10
107.3961362782182
 20
172.3460262291577
 30
0.0
 10
107.3291076391833
 20
172.3460262291577
 30
0.0
 10
107.2620790001484
 20
172.3460262291577
 30
0.0
 10
107.2197473893734
 20
172.3671920345449
 30
0.0
 10
107.1350841678234
 20
172.4448143421972
 30
0.0
 10
107.1350841678234
 20
172.4448143421972
 30
0.0
 10
107.0292551408859
 20
172.5435809233897
 30
0.0
 10
107.0292551408859
 20
172.5435809233897
 30
0.0
 10
107.0292551408859
 20
172.5435809233897
 30
0.0
 10
105.6428410583875
 20
172.5435809233897
 30
0.0
 10
105.6428410583875
 20
172.5435809233897
 30
0.0
 10
105.6428410583875
 20
172.5435809233897
 30
0.0
 10
105.4699618605682
 20
172.3742544802897
 30
0.0
 10
105.4699618605682
 20
172.3742544802897
 30
0.0
 10
105.2865320578255
 20
172.1943343685725
 30
0.0
 10
105.1418811111386
 20
172.1096711470225
 30
0.0
 10
104.905526029004
 20
172.0355800622428
 30
0.0
 10
104.7855936424234
 20
172.0003108972129
 30
0.0
 10
104.6762118607667
 20
171.9897387604422
 30
0.0
 10
104.3163931691791
 20
171.9932484514681
 30
0.0
 10
103.6884383896052
 20
171.9932484514681
 30
0.0
 10
103.4414896388532
 20
172.0638083133751
 30
0.0
 10
102.9758419203284
 20
172.3601511206472
 30
0.0
 10
102.887647475906
 20
172.4201173139371
 30
0.0
 10
102.8100251682536
 20
172.4800835072272
 30
0.0
 10
102.8100251682536
 20
172.4906771758443
 30
0.0
 10
102.8100251682536
 20
172.5083117583595
 30
0.0
 10
102.0374409738396
 20
172.5189054269766
 30
0.0
 10
100.4393688374661
 20
172.5189054269766
 30
0.0
 10
100.4393688374661
 20
172.5189054269766
 30
0.0
 10
98.06515975195942
 20
172.5189054269766
 30
0.0
 10
98.06515975195942
 20
172.5189054269766
 30
0.0
 10
98.06515975195942
 20
172.5189054269766
 30
0.0
 10
97.892302085987
 20
172.3707232574173
 30
0.0
 10
97.892302085987
 20
172.3707232574173
 30
0.0
 10
97.55364919978696
 20
172.0885053416353
 30
0.0
 10
97.30670044903488
 20
172.0073733429577
 30
0.0
 10
96.73167094885311
 20
171.9862075375699
 30
0.0
 10
96.10018494640682
 20
171.96151050931
 30
0.0
 10
95.85325772750152
 20
172.0250079254725
 30
0.0
 10
95.39816061390004
 20
172.3248604237699
 30
0.0
 10
95.39816061390004
 20
172.3248604237699
 30
0.0
 10
95.14417094924999
 20
172.4942083987167
 30
0.0
 10
95.14417094924999
 20
172.4942083987167
 30
0.0
 10
95.14417094924999
 20
172.4942083987167
 30
0.0
 10
94.03997478253385
 20
172.4942083987167
 30
0.0
 10
94.03997478253385
 20
172.4942083987167
 30
0.0
 10
94.03997478253385
 20
172.4942083987167
 30
0.0
 10
93.98351828026932
 20
172.4236485368094
 30
0.0
 10
93.98351828026932
 20
172.4236485368094
 30
0.0
 10
93.90944872733644
 20
172.3389853152594
 30
0.0
 10
93.71542525597686
 20
172.250790870837
 30
0.0
 10
93.55667094964685
 20
172.2296250654495
 30
0.0
 10
93.41555122583232
 20
172.21550017396
 30
0.0
 10
93.26385936524772
 20
172.2754878990972
 30
0.0
 10
93.12273964143285
 20
172.4095236453199
 30
0.0
 10
93.12273964143285
 20
172.4095236453199
 30
0.0
 10
93.03454519701046
 20
172.4942083987167
 30
0.0
 10
93.03454519701046
 20
172.4942083987167
 30
0.0
 10
93.03454519701046
 20
172.4942083987167
 30
0.0
 10
91.88450772849371
 20
172.4942083987167
 30
0.0
 10
91.88450772849371
 20
172.4942083987167
 30
0.0
 10
91.88450772849371
 20
172.4942083987167
 30
0.0
 10
91.71869097641929
 20
172.3389853152594
 30
0.0
 10
91.71869097641929
 20
172.3389853152594
 30
0.0
 10
91.41883847812218
 20
172.0602770905027
 30
0.0
 10
91.16129605875265
 20
171.9826763146975
 30
0.0
 10
90.57216319892814
 20
171.9791450918251
 30
0.0
 10
89.97596789335887
 20
171.9791450918251
 30
0.0
 10
89.29510936623991
 20
172.1625964264146
 30
0.0
 10
89.00582900471253
 20
172.4060139542943
 30
0.0
 10
89.00582900471253
 20
172.4060139542943
 30
0.0
 10
88.93175945177965
 20
172.4695113704568
 30
0.0
 10
88.93175945177965
 20
172.4695113704568
 30
0.0
 10
88.93175945177965
 20
172.4695113704568
 30
0.0
 10
84.00697392376853
 20
172.4695113704568
 30
0.0
 10
84.00697392376853
 20
172.4695113704568
 30
0.0
 10
84.00697392376853
 20
172.4695113704568
 30
0.0
 10
83.89055122821357
 20
172.3671920345449
 30
0.0
 10
83.89055122821357
 20
172.3671920345449
 30
0.0
 10
83.71063111649638
 20
172.208459260062
 30
0.0
 10
83.53777345052398
 20
172.1096711470225
 30
0.0
 10
83.32611539664894
 20
172.0355800622428
 30
0.0
 10
83.14972650780415
 20
171.9720826460803
 30
0.0
 10
83.10739489702914
 20
171.9685514232079
 30
0.0
 10
82.72992009107968
 20
171.9685514232079
 30
0.0
 10
82.38420475913486
 20
171.9685514232079
 30
0.0
 10
82.29952000573806
 20
171.9756138689527
 30
0.0
 10
82.11962142586767
 20
172.0250079254725
 30
0.0
 10
81.85503809260048
 20
172.0955677873801
 30
0.0
 10
81.58339231358853
 20
172.2225626197048
 30
0.0
 10
81.41757556151409
 20
172.3460262291577
 30
0.0
 10
81.41757556151409
 20
172.3460262291577
 30
0.0
 10
81.2870495063167
 20
172.4448143421972
 30
0.0
 10
81.2870495063167
 20
172.4448143421972
 30
0.0
 10
81.2870495063167
 20
172.4448143421972
 30
0.0
 10
80.04879606153078
 20
172.4448143421972
 30
0.0
 10
80.04879606153078
 20
172.4448143421972
 30
0.0
 10
80.04879606153078
 20
172.4448143421972
 30
0.0
 10
79.96413283998077
 20
172.3742544802897
 30
0.0
 10
79.96413283998077
 20
172.3742544802897
 30
0.0
 10
79.82656587088538
 20
172.2613630076077
 30
0.0
 10
79.72071531210108
 20
172.2190313968324
 30
0.0
 10
79.55492009187342
 20
172.2049280371896
 30
0.0
 10
79.36440631153911
 20
172.1908031457001
 30
0.0
 10
79.22330811957134
 20
172.2366659793475
 30
0.0
 10
79.10688542401668
 20
172.3601511206472
 30
0.0
 10
79.10688542401668
 20
172.3601511206472
 30
0.0
 10
79.02222220246667
 20
172.4448143421972
 30
0.0
 10
79.02222220246667
 20
172.4448143421972
 30
0.0
 10
79.02222220246667
 20
172.4448143421972
 30
0.0
 10
77.70989920474787
 20
172.4448143421972
 30
0.0
 10
77.70989920474787
 20
172.4448143421972
 30
0.0
 10
77.70989920474787
 20
172.4448143421972
 30
0.0
 10
77.56877948093365
 20
172.3072258412548
 30
0.0
 10
77.56877948093365
 20
172.3072258412548
 30
0.0
 10
77.41708762034843
 20
172.1555339806699
 30
0.0
 10
77.17367009246874
 20
172.0250079254725
 30
0.0
 10
76.94082470135973
 20
171.9650417321823
 30
0.0
 10
76.78560161790213
 20
171.9262198124329
 30
0.0
 10
76.38698253841194
 20
171.9191788985352
 30
0.0
 10
76.18940631233286
 20
171.9544480635652
 30
0.0
 10
75.83662853464328
 20
172.0144142568553
 30
0.0
 10
75.441519146179
 20
172.1696373403129
 30
0.0
 10
75.22632986943126
 20
172.3319228695146
 30
0.0
 10
75.22632986943126
 20
172.3319228695146
 30
0.0
 10
75.11343839674899
 20
172.4201173139371
 30
0.0
 10
75.11343839674899
 20
172.4201173139371
 30
0.0
 10
75.11343839674899
 20
172.4201173139371
 30
0.0
 10
74.58427173021461
 20
172.4201173139371
 30
0.0
 10
74.58427173021461
 20
172.4201173139371
 30
0.0
 10
74.58427173021461
 20
172.4201173139371
 30
0.0
 10
74.4325798696297
 20
172.2966537044844
 30
0.0
 10
74.4325798696297
 20
172.2966537044844
 30
0.0
 10
74.20679692426546
 20
172.1167335927672
 30
0.0
 10
74.15389317671977
 20
172.0920365645077
 30
0.0
 10
74.00573253900725
 20
172.1132023698949
 30
0.0
 10
73.93517267709999
 20
172.1237745066652
 30
0.0
 10
73.19079520197139
 20
172.1378993981547
 30
0.0
 10
72.34767267749685
 20
172.1484715349251
 30
0.0
 10
71.5080598440479
 20
172.1555339806699
 30
0.0
 10
70.81307642543909
 20
172.166127649287
 30
0.0
 10
70.80954520256671
 20
172.1696373403129
 30
0.0
 10
70.80603551154111
 20
172.1731685631853
 30
0.0
 10
70.76017267789372
 20
172.2190313968324
 30
0.0
 10
70.70371617562919
 20
172.2754878990972
 30
0.0
 10
70.61199050833441
 20
172.3671920345449
 30
0.0
 10
70.59788714869199
 20
172.3742544802897
 30
0.0
 10
70.51675515001436
 20
172.3601511206472
 30
0.0
 10
70.25217181674718
 20
172.3072258412548
 30
0.0
 10
68.14254606450733
 20
172.2366659793475
 30
0.0
 10
67.95205381602013
 20
172.2719566762249
 30
0.0
 10
67.90972220524479
 20
172.2789975901225
 30
0.0
 10
67.87092181734249
 20
172.3072258412548
 30
0.0
 10
67.85328723482705
 20
172.3389853152594
 30
0.0
 10
67.85328723482705
 20
172.3389853152594
 30
0.0
 10
67.83212142943954
 20
172.3954202856772
 30
0.0
 10
67.83212142943954
 20
172.3954202856772
 30
0.0
 10
67.83212142943954
 20
172.3954202856772
 30
0.0
 10
67.00308073276095
 20
172.3954202856772
 30
0.0
 10
67.00308073276095
 20
172.3954202856772
 30
0.0
 10
66.08939834637912
 20
172.3954202856772
 30
0.0
 10
66.04000428985935
 20
172.4024827314219
 30
0.0
 10
65.96238198220731
 20
172.5435809233897
 30
0.0
 10
65.77188973371979
 20
172.8857865643092
 30
0.0
 10
65.20392267928278
 20
173.5066788981384
 30
0.0
 10
64.84761367872081
 20
173.7571373399161
 30
0.0
 10
64.74531587465569
 20
173.8312284246954
 30
0.0
 10
64.64652776161615
 20
173.912360423373
 30
0.0
 10
64.63593409299901
 20
173.9370574516332
 30
0.0
 10
64.60419615084146
 20
173.997023644923
 30
0.0
 10
64.62536195622864
 20
176.2230720927172
 30
0.0
 10
64.65712143023329
 20
176.2865695088797
 30
0.0
 10
64.6853281495191
 20
176.3359420335527
 30
0.0
 10
64.68179692664671
 20
176.3359420335527
 30
0.0
 10
63.46473081909508
 20
176.3324323425274
 30
0.0
 10
62.50869529009115
 20
176.3253698967827
 30
0.0
 10
62.23351828820682
 20
176.3324323425274
 30
0.0
 10
62.19118667743181
 20
176.3571078389402
 30
0.0
 10
62.13828292988676
 20
176.3888673129448
 30
0.0
 10
62.13475170701438
 20
176.3923985358172
 30
0.0
 10
62.13475170701438
 20
176.9603655902542
 30
0.0
 10
62.13475170701438
 20
177.2743429800412
 30
0.0
 10
62.14532384378442
 20
177.7823438411881
 30
0.0
 10
62.15238628952918
 20
178.0892587852306
 30
0.0
 10
62.15238628952918
 20
178.0892587852306
 30
0.0
 10
62.17002087204431
 20
178.6501633939225
 30
0.0
 10
62.17002087204431
 20
178.6501633939225
 30
0.0
 10
62.17002087204431
 20
178.6501633939225
 30
0.0
 10
62.3217127326292
 20
178.7983455634821
 30
0.0
 10
62.3217127326292
 20
178.7983455634821
 30
0.0
 10
62.60042095738592
 20
179.0664601196217
 30
0.0
 10
62.68508417893594
 20
179.3486780354037
 30
0.0
 10
62.68508417893594
 20
180.0119019800078
 30
0.0
 10
62.68861540180832
 20
180.6257318680922
 30
0.0
 10
62.65685592780399
 20
180.7280296721574
 30
0.0
 10
62.29703723621611
 20
181.3312874234714
 30
0.0
 10
62.29703723621611
 20
181.3312874234714
 30
0.0
 10
62.15944873527394
 20
181.564111282734
 30
0.0
 10
62.15944873527394
 20
181.564111282734
 30
0.0
 10
62.15944873527394
 20
181.564111282734
 30
0.0
 10
62.16297995814632
 20
181.7722596455834
 30
0.0
 10
62.16297995814632
 20
181.7722596455834
 30
0.0
 10
62.16297995814632
 20
181.8886823411381
 30
0.0
 10
62.18414576353382
 20
182.4248899215704
 30
0.0
 10
62.20884279179371
 20
182.9681814795943
 30
0.0
 10
62.25117440256872
 20
183.9524237278834
 30
0.0
 10
62.25117440256872
 20
183.9559549507558
 30
0.0
 10
62.31114059585917
 20
184.0159211440459
 30
0.0
 10
62.31114059585917
 20
184.0159211440459
 30
0.0
 10
62.3675755662766
 20
184.0723776463105
 30
0.0
 10
62.3675755662766
 20
184.0723776463105
 30
0.0
 10
62.3675755662766
 20
184.0723776463105
 30
0.0
 10
64.81585420471617
 20
184.0864810059532
 30
0.0
 10
64.81585420471617
 20
184.0864810059532
 30
0.0
 10
66.44921703796701
 20
184.0935434516979
 30
0.0
 10
67.27119528890051
 20
184.1076468113407
 30
0.0
 10
67.28882987141564
 20
184.1252813938558
 30
0.0
 10
67.30295476290518
 20
184.135875062473
 30
0.0
 10
67.34528637368049
 20
184.1464471992433
 30
0.0
 10
67.39114920732756
 20
184.1464471992433
 30
0.0
 10
67.39114920732756
 20
184.1464471992433
 30
0.0
 10
67.48285334277555
 20
184.2875669230578
 30
0.0
 10
67.48285334277555
 20
184.2875669230578
 30
0.0
 10
67.67336712310987
 20
184.5697848388402
 30
0.0
 10
67.76156156753227
 20
184.9648942273048
 30
0.0
 10
67.71569873388488
 20
185.3000374224792
 30
0.0
 10
67.68393925988056
 20
185.5046545624563
 30
0.0
 10
67.64867009484999
 20
185.5787241153891
 30
0.0
 10
67.36292095619529
 20
186.0232275603735
 30
0.0
 10
67.19006329022288
 20
186.2913421165131
 30
0.0
 10
67.15477259334618
 20
186.3301425044157
 30
0.0
 10
66.98544615024615
 20
186.4500964228428
 30
0.0
 10
66.53388025951703
 20
186.7640522807829
 30
0.0
 10
66.26578723522392
 20
186.9898352261475
 30
0.0
 10
65.79658676197968
 20
187.451973253647
 30
0.0
 10
65.30268926047587
 20
187.9423395322787
 30
0.0
 10
65.01694012182085
 20
188.2951173099683
 30
0.0
 10
64.51247048354668
 20
189.0500669218672
 30
0.0
 10
63.85277776181458
 20
190.0343091701563
 30
0.0
 10
63.41180553970261
 20
190.9409506426402
 30
0.0
 10
63.03079951088076
 20
192.0910096430037
 30
0.0
 10
62.61805553990104
 20
193.3433664474324
 30
0.0
 10
62.42050084566875
 20
194.3205677818235
 30
0.0
 10
62.34994098376148
 20
195.4388673081824
 30
0.0
 10
62.33583762411873
 20
195.6752223903173
 30
0.0
 10
62.31467181873155
 20
196.0350626137516
 30
0.0
 10
62.30054692724202
 20
196.2361485308563
 30
0.0
 10
62.21235248281963
 20
197.4602770841527
 30
0.0
 10
62.26174653933908
 20
198.3316493916063
 30
0.0
 10
62.48752948470396
 20
199.7251259198495
 30
0.0
 10
62.81914145700572
 20
201.7712327240797
 30
0.0
 10
63.72931415236227
 20
203.9831347485376
 30
0.0
 10
65.10513456624325
 20
206.0680634725173
 30
0.0
 10
65.42968409280057
 20
206.5619609740214
 30
0.0
 10
65.61313542739012
 20
206.7983160561563
 30
0.0
 10
66.19875859618935
 20
207.4932779429183
 30
0.0
 10
67.71922995675726
 20
209.2889263053709
 30
0.0
 10
68.7810729808516
 20
210.2484715254001
 30
0.0
 10
71.00712142864579
 20
211.8359715250032
 30
0.0
 10
73.31074912039844
 20
213.4763968039985
 30
0.0
 10
75.3039521770833
 20
215.2226511099313
 30
0.0
 10
76.30229778501514
 20
216.4679454686152
 30
0.0
 10
76.72916664748438
 20
217.000643358022
 30
0.0
 10
77.1419106184641
 20
217.653273634009
 30
0.0
 10
77.39945303783362
 20
218.2071373288033
 30
0.0
 10
77.45588800825105
 20
218.3306224701027
 30
0.0
 10
77.50175084189844
 20
218.4293890512954
 30
0.0
 10
77.50175084189844
 20
218.4364514970402
 30
0.0
 10
77.49821961902606
 20
218.4364514970402
 30
0.0
 10
77.38532814634409
 20
218.4152856916527
 30
0.0
 10
77.25127086827399
 20
218.3870574405204
 30
0.0
 10
76.58804692367015
 20
218.2600626081954
 30
0.0
 10
75.59674222963598
 20
218.2141997745481
 30
0.0
 10
75.12050084249375
 20
218.2847596364553
 30
0.0
 10
74.65483159212221
 20
218.3588291893882
 30
0.0
 10
74.14683073097501
 20
218.5246459414626
 30
0.0
 10
73.61413284156826
 20
218.782166828985
 30
0.0
 10
72.55933073137189
 20
219.2901676901319
 30
0.0
 10
71.17644787174582
 20
220.8459297475771
 30
0.0
 10
70.69314403885916
 20
222.0700583008735
 30
0.0
 10
70.51675515001436
 20
222.5180929687303
 30
0.0
 10
70.48146445313702
 20
222.6733160521876
 30
0.0
 10
70.34389748404196
 20
223.6504958547319
 30
0.0
 10
70.24510937100242
 20
224.3701763016006
 30
0.0
 10
70.38269787194426
 20
225.4990694965766
 30
0.0
 10
70.67901914736963
 20
226.3316198842808
 30
0.0
 10
70.86953292770394
 20
226.8748899104579
 30
0.0
 10
71.23641406503596
 20
227.6086737169694
 30
0.0
 10
71.47983159291595
 20
227.936754466399
 30
0.0
 10
71.63858589924529
 20
228.1484125202741
 30
0.0
 10
71.82907814773315
 20
228.3671545517407
 30
0.0
 10
72.03722651058227
 20
228.571750159871
 30
0.0
 10
72.03722651058227
 20
228.571750159871
 30
0.0
 10
72.03722651058227
 20
228.8222301334954
 30
0.0
 10
72.03722651058227
 20
228.8222301334954
 30
0.0
 10
72.03722651058227
 20
228.8222301334954
 30
0.0
 10
68.96099309256879
 20
228.8081267738527
 30
0.0
 10
68.96099309256879
 20
228.8081267738527
 30
0.0
 10
66.49154864874169
 20
228.7940018823631
 30
0.0
 10
65.67310162068025
 20
228.7975331052355
 30
0.0
 10
65.64842612426715
 20
228.818698910623
 30
0.0
 10
65.62019787313488
 20
228.8398647160105
 30
0.0
 10
65.61313542739012
 20
228.9315903833053
 30
0.0
 10
65.61313542739012
 20
229.2279331905771
 30
0.0
 10
65.61313542739012
 20
229.4395912444522
 30
0.0
 10
65.62372909600727
 20
229.6265522700673
 30
0.0
 10
65.63430123277763
 20
229.6442083844293
 30
0.0
 10
65.64489490139476
 20
229.6618429669444
 30
0.0
 10
65.7048610946849
 20
229.6794775494595
 30
0.0
 10
65.77188973371979
 20
229.6865399952042
 30
0.0
 10
65.83538714988262
 20
229.6935809091022
 30
0.0
 10
65.89888456604481
 20
229.7041745777193
 30
0.0
 10
65.91300945753435
 20
229.7147467144897
 30
0.0
 10
65.95180984543697
 20
229.7359125198772
 30
0.0
 10
65.92358159430502
 20
230.0640148011537
 30
0.0
 10
65.87418753778493
 20
230.1557189366017
 30
0.0
 10
65.80364920772443
 20
230.2933074375439
 30
0.0
 10
65.76129606510264
 20
230.5684844394282
 30
0.0
 10
65.76129606510264
 20
230.8824402973684
 30
0.0
 10
65.76129606510264
 20
231.2564054122923
 30
0.0
 10
65.7260269000724
 20
231.3904411585153
 30
0.0
 10
65.58139748523259
 20
231.5491954648449
 30
0.0
 10
65.5073064004526
 20
231.6338586863949
 30
0.0
 10
65.45791234393283
 20
231.7220531308173
 30
0.0
 10
65.4191119560302
 20
231.8420070492444
 30
0.0
 10
65.38735248202588
 20
231.9337327165392
 30
0.0
 10
65.33091751160781
 20
232.0466241892214
 30
0.0
 10
65.29211712370518
 20
232.0924870228688
 30
0.0
 10
65.23566062144066
 20
232.1559844390313
 30
0.0
 10
65.22155726179824
 20
232.1947848269339
 30
0.0
 10
65.22155726179824
 20
232.2935514081267
 30
0.0
 10
65.22155726179824
 20
232.406442880809
 30
0.0
 10
65.1792256510229
 20
232.4911276342058
 30
0.0
 10
65.12276914875869
 20
232.4911276342058
 30
0.0
 10
65.08749998372812
 20
232.4911276342058
 30
0.0
 10
65.027533790438
 20
232.6286946033012
 30
0.0
 10
65.027533790438
 20
232.7133578248512
 30
0.0
 10
65.027533790438
 20
232.7627518813709
 30
0.0
 10
64.99577431643335
 20
232.8333117432782
 30
0.0
 10
64.9393393460156
 20
232.9074028280579
 30
0.0
 10
64.85467612446559
 20
233.0308664375105
 30
0.0
 10
64.8299790962057
 20
233.1472891330652
 30
0.0
 10
64.87935162087869
 20
233.2248899088704
 30
0.0
 10
64.89347651236821
 20
233.2495869371303
 30
0.0
 10
64.88994528949582
 20
233.2742839653902
 30
0.0
 10
64.85818581549151
 20
233.3060434393948
 30
0.0
 10
64.81938542758856
 20
233.3483750501699
 30
0.0
 10
64.81585420471617
 20
234.8088586856012
 30
0.0
 10
64.80528206794581
 20
257.2843386536693
 30
0.0
 10
64.80528206794581
 20
257.2843386536693
 30
0.0
 10
64.79468839932867
 20
281.2167925661433
 30
0.0
 10
64.79468839932867
 20
281.2167925661433
 30
0.0
 10
64.79468839932867
 20
281.2167925661433
 30
0.0
 10
64.70649395490628
 20
281.2767587594334
 30
0.0
 10
64.70649395490628
 20
281.2767587594334
 30
0.0
 10
64.70649395490628
 20
281.2767587594334
 30
0.0
 10
64.62183073335626
 20
281.3331937298512
 30
0.0
 10
64.62183073335626
 20
281.3331937298512
 30
0.0
 10
64.62183073335626
 20
281.3331937298512
 30
0.0
 10
64.62536195622864
 20
282.324498423885
 30
0.0
 10
64.62536195622864
 20
282.324498423885
 30
0.0
 10
64.6324244019734
 20
283.3052309811486
 30
0.0
 10
64.6324244019734
 20
283.3158031179189
 30
0.0
 10
64.6853281495191
 20
283.3722596201834
 30
0.0
 10
64.71355640065104
 20
283.4004878713157
 30
0.0
 10
64.74531587465569
 20
283.4251633677288
 30
0.0
 10
64.75235678855367
 20
283.4251633677288
 30
0.0
 10
64.76295045717082
 20
283.4251633677288
 30
0.0
 10
64.76999137106911
 20
283.647415090221
 30
0.0
 10
64.76999137106911
 20
283.9225920921053
 30
0.0
 10
64.76999137106911
 20
284.3388672859574
 30
0.0
 10
64.77705381681388
 20
284.4341241761246
 30
0.0
 10
64.81585420471617
 20
284.5258498434193
 30
0.0
 10
64.88288284375108
 20
284.6987075093917
 30
0.0
 10
64.96050515140343
 20
284.7798395080694
 30
0.0
 10
65.13336281737584
 20
284.8680339524918
 30
0.0
 10
65.27799223221567
 20
284.9421250372714
 30
0.0
 10
65.31681415196539
 20
284.9526971740417
 30
0.0
 10
65.51083762332499
 20
284.9526971740417
 30
0.0
 10
65.69779864894013
 20
284.9526971740417
 30
0.0
 10
65.74013025971547
 20
284.945634728297
 30
0.0
 10
65.85302173239742
 20
284.8891997578793
 30
0.0
 10
66.01177603872741
 20
284.8045365363292
 30
0.0
 10
66.02941062124222
 20
284.8045365363292
 30
0.0
 10
66.02941062124222
 20
284.896262203624
 30
0.0
 10
66.02941062124222
 20
285.1043890346267
 30
0.0
 10
66.22696531547451
 20
285.2878403692163
 30
0.0
 10
66.4527482608394
 20
285.2878403692163
 30
0.0
 10
66.60797134429635
 20
285.2878403692163
 30
0.0
 10
66.6432405093266
 20
285.2666745638288
 30
0.0
 10
66.87608590043592
 20
285.0408916184642
 30
0.0
 10
67.09833762292811
 20
284.8257023417168
 30
0.0
 10
67.17240717586098
 20
284.7939428677122
 30
0.0
 10
67.46168753738806
 20
284.7904331766865
 30
0.0
 10
67.58870390155985
 20
284.7869019538141
 30
0.0
 10
67.65573254059475
 20
284.7974740905845
 30
0.0
 10
67.71922995675726
 20
284.8327647874615
 30
0.0
 10
67.76860248143056
 20
284.8574402838746
 30
0.0
 10
67.8426935662099
 20
284.8856685350069
 30
0.0
 10
67.8885563998573
 20
284.8927309807517
 30
0.0
 10
67.97321962140731
 20
284.9068343403944
 30
0.0
 10
67.97675084427969
 20
284.9138967861392
 30
0.0
 10
68.00497909541196
 20
285.0620574238517
 30
0.0
 10
68.04377948331491
 20
285.2490399813136
 30
0.0
 10
68.16724309276722
 20
285.5453612567387
 30
0.0
 10
68.26956242867914
 20
285.6970531173236
 30
0.0
 10
68.33659106771404
 20
285.8029036761079
 30
0.0
 10
68.36128809597392
 20
285.8170070357506
 30
0.0
 10
68.52708331620156
 20
285.8699323151427
 30
0.0
 10
68.68583762253123
 20
285.9157736169434
 30
0.0
 10
68.74933503869407
 20
285.9228360626882
 30
0.0
 10
68.96099309256879
 20
285.9122639259178
 30
0.0
 10
69.5007534277203
 20
285.8840356747855
 30
0.0
 10
69.90643495295525
 20
285.7217501455835
 30
0.0
 10
70.22394356561459
 20
285.4113039786689
 30
0.0
 10
70.22394356561459
 20
285.4113039786689
 30
0.0
 10
70.41796703697483
 20
285.2208117301814
 30
0.0
 10
70.41796703697483
 20
285.2208117301814
 30
0.0
 10
70.41796703697483
 20
285.2208117301814
 30
0.0
 10
70.54496186929952
 20
285.3054749517314
 30
0.0
 10
70.54496186929952
 20
285.3054749517314
 30
0.0
 10
70.80250428866873
 20
285.4818638405762
 30
0.0
 10
71.04945303942113
 20
285.5559549253558
 30
0.0
 10
71.36694012023335
 20
285.5559549253558
 30
0.0
 10
71.57861970595549
 20
285.5559549253558
 30
0.0
 10
71.77617440018747
 20
285.5065608688361
 30
0.0
 10
72.01606070519509
 20
285.3972006190261
 30
0.0
 10
72.12188973213229
 20
285.3478065625064
 30
0.0
 10
72.34767267749685
 20
285.2702057867011
 30
0.0
 10
72.51699912059688
 20
285.2243429530537
 30
0.0
 10
72.68632556369691
 20
285.1784801194063
 30
0.0
 10
72.91917095480624
 20
285.1114514803715
 30
0.0
 10
73.0355936503609
 20
285.0761823153412
 30
0.0
 10
73.0355936503609
 20
285.0761823153412
 30
0.0
 10
73.24372048136388
 20
285.0091536763063
 30
0.0
 10
73.24372048136388
 20
285.0091536763063
 30
0.0
 10
73.24372048136388
 20
285.0091536763063
 30
0.0
 10
79.70661195245833
 20
284.9879878709188
 30
0.0
 10
79.70661195245833
 20
284.9879878709188
 30
0.0
 10
100.3970372266911
 20
284.9244689229095
 30
0.0
 10
114.2717717202927
 20
284.9244689229095
 30
0.0
 10
134.9516033259083
 20
284.9879878709188
 30
0.0
 10
134.9516033259083
 20
284.9879878709188
 30
0.0
 10
141.4180260198755
 20
285.0091536763063
 30
0.0
 10
141.4180260198755
 20
285.0091536763063
 30
0.0
 10
141.4180260198755
 20
285.0091536763063
 30
0.0
 10
141.626174382725
 20
285.0761823153412
 30
0.0
 10
141.626174382725
 20
285.0761823153412
 30
0.0
 10
141.7390658554072
 20
285.1114514803715
 30
0.0
 10
141.9718897146698
 20
285.1784801194063
 30
0.0
 10
142.1412161577698
 20
285.2243429530537
 30
0.0
 10
142.3105641327166
 20
285.2702057867011
 30
0.0
 10
142.5363255462344
 20
285.3478065625064
 30
0.0
 10
142.6456857960443
 20
285.3972006190261
 30
0.0
 10
143.1748524625787
 20
285.6370869240334
 30
0.0
 10
143.6722811869552
 20
285.6088586729012
 30
0.0
 10
144.1167846319395
 20
285.3054749517314
 30
0.0
 10
144.1167846319395
 20
285.3054749517314
 30
0.0
 10
144.2402482413922
 20
285.2208117301814
 30
0.0
 10
144.2402482413922
 20
285.2208117301814
 30
0.0
 10
144.2402482413922
 20
285.2208117301814
 30
0.0
 10
144.4342717127521
 20
285.4113039786689
 30
0.0
 10
144.4342717127521
 20
285.4113039786689
 30
0.0
 10
144.7517803254114
 20
285.7217501455835
 30
0.0
 10
145.1574618506464
 20
285.8840356747855
 30
0.0
 10
145.6972221857979
 20
285.9122639259178
 30
0.0
 10
145.9124114625453
 20
285.9228360626882
 30
0.0
 10
145.9759088787078
 20
285.9157736169434
 30
0.0
 10
146.1311319621651
 20
285.8699323151427
 30
0.0
 10
146.3004799371119
 20
285.8170070357506
 30
0.0
 10
146.3216457424994
 20
285.8029036761079
 30
0.0
 10
146.3921840725599
 20
285.6970531173236
 30
0.0
 10
146.4945034084719
 20
285.5453612567387
 30
0.0
 10
146.6144357950521
 20
285.2490399813136
 30
0.0
 10
146.6532577148015
 20
285.0620574238517
 30
0.0
 10
146.6849956569594
 20
284.9138967861392
 30
0.0
 10
146.6885268798318
 20
284.9068343403944
 30
0.0
 10
146.7696588785094
 20
284.8927309807517
 30
0.0
 10
146.8155217121568
 20
284.8856685350069
 30
0.0
 10
146.8931440198088
 20
284.8574402838746
 30
0.0
 10
146.9390068534562
 20
284.8327647874615
 30
0.0
 10
147.0025042696187
 20
284.7974740905845
 30
0.0
 10
147.0695329086536
 20
284.7869019538141
 30
0.0
 10
147.1965277409786
 20
284.7904331766865
 30
0.0
 10
147.4858081025057
 20
284.7939428677122
 30
0.0
 10
147.563408878311
 20
284.8257023417168
 30
0.0
 10
147.7856606008032
 20
285.0408916184642
 30
0.0
 10
148.0185059919125
 20
285.2666745638288
 30
0.0
 10
148.0502439340703
 20
285.2878403692163
 30
0.0
 10
148.2054670175276
 20
285.2878403692163
 30
0.0
 10
148.4347811857645
 20
285.2878403692163
 30
0.0
 10
148.6288046571244
 20
285.1043890346267
 30
0.0
 10
148.6288046571244
 20
284.896262203624
 30
0.0
 10
148.6288046571244
 20
284.8045365363292
 30
0.0
 10
148.6464392396396
 20
284.8045365363292
 30
0.0
 10
148.8087247688417
 20
284.8891997578793
 30
0.0
 10
148.9180850186516
 20
284.945634728297
 30
0.0
 10
148.9639478522989
 20
284.9526971740417
 30
0.0
 10
149.1509088779141
 20
284.9526971740417
 30
0.0
 10
149.3414226582484
 20
284.9526971740417
 30
0.0
 10
149.380223046151
 20
284.9421250372714
 30
0.0
 10
149.5248524609912
 20
284.8680339524918
 30
0.0
 10
149.7012413498359
 20
284.7798395080694
 30
0.0
 10
149.7753324346156
 20
284.6987075093917
 30
0.0
 10
149.8458922965229
 20
284.5258498434193
 30
0.0
 10
149.8811614615531
 20
284.4341241761246
 30
0.0
 10
149.8882239072979
 20
284.3388672859574
 30
0.0
 10
149.8917551301703
 20
283.9225920921053
 30
0.0
 10
149.8917551301703
 20
283.647415090221
 30
0.0
 10
149.8987960440682
 20
283.4251633677288
 30
0.0
 10
149.905858489813
 20
283.4251633677288
 30
0.0
 10
149.9164521584302
 20
283.4251633677288
 30
0.0
 10
149.948190100588
 20
283.4004878713157
 30
0.0
 10
149.9764183517203
 20
283.3722596201834
 30
0.0
 10
150.0293436311124
 20
283.3158031179189
 30
0.0
 10
150.0293436311124
 20
283.3052309811486
 30
0.0
 10
150.032853322138
 20
282.324498423885
 30
0.0
 10
150.032853322138
 20
282.324498423885
 30
0.0
 10
150.0363845450104
 20
281.3331937298512
 30
0.0
 10
150.0363845450104
 20
281.3331937298512
 30
0.0
 10
150.0363845450104
 20
281.3331937298512
 30
0.0
 10
149.9517213234604
 20
281.2767587594334
 30
0.0
 10
149.9517213234604
 20
281.2767587594334
 30
0.0
 10
149.9517213234604
 20
281.2767587594334
 30
0.0
 10
149.8670581019104
 20
281.2167925661433
 30
0.0
 10
149.8670581019104
 20
281.2167925661433
 30
0.0
 10
149.8670581019104
 20
281.2167925661433
 30
0.0
 10
149.8599956561656
 20
271.0603065660782
 30
0.0
 10
149.8599956561656
 20
271.0603065660782
 30
0.0
 10
149.8599956561656
 20
271.0603065660782
 30
0.0
 10
149.8529547422677
 20
270.6122934300683
 30
0.0
 10
149.8529547422677
 20
270.6122934300683
 30
0.0
 10
149.8529547422677
 20
270.6122934300683
 30
0.0
 10
148.335993072725
 20
270.0936989003043
 30
0.0
 10
146.4803785169823
 20
270.1501554025688
 30
0.0
 10
146.4803785169823
 20
270.1501554025688
 30
0.0
 10
146.4803785169823
 20
252.3842501539178
 30
0.0
 10
146.4803785169823
 20
252.3842501539178
 30
0.0
 10
146.5262413506297
 20
252.3877813767902
 30
0.0
 10
146.5685729614047
 20
252.3877813767902
 30
0.0
 10
146.6144357950521
 20
252.3877813767902
 30
0.0
 10
146.6144357950521
 20
252.3877813767902
 30
0.0
 10
146.6250294636693
 20
252.3877813767902
 30
0.0
 10
146.6250294636693
 20
252.3877813767902
 30
0.0
 10
148.4171466032494
 20
252.4124784050501
 30
0.0
 10
149.8529547422677
 20
251.9221121264183
 30
0.0
 10
149.8529547422677
 20
251.9221121264183
 30
0.0
 10
149.8529547422677
 20
251.9221121264183
 30
0.0
 10
149.8529547422677
 20
251.6504878792532
 30
0.0
 10
149.8529547422677
 20
251.6504878792532
 30
0.0
 10
149.8423610736505
 20
234.5584002438235
 30
0.0
 10
149.8352986279057
 20
233.3448438272974
 30
0.0
 10
149.8000294628755
 20
233.3060434393948
 30
0.0
 10
149.7718012117432
 20
233.2742839653902
 30
0.0
 10
149.7647602978452
 20
233.2495869371303
 30
0.0
 10
149.7823948803604
 20
233.2248899088704
 30
0.0
 10
149.8282577140078
 20
233.1472891330652
 30
0.0
 10
149.8070919086203
 20
233.0308664375105
 30
0.0
 10
149.7188974641979
 20
232.9074028280579
 30
0.0
 10
149.6659721848057
 20
232.8333117432782
 30
0.0
 10
149.6342127108011
 20
232.7627518813709
 30
0.0
 10
149.6342127108011
 20
232.7133578248512
 30
0.0
 10
149.6342127108011
 20
232.6286946033012
 30
0.0
 10
149.5742465175109
 20
232.4911276342058
 30
0.0
 10
149.5354461296083
 20
232.4911276342058
 30
0.0
 10
149.4789896273438
 20
232.4911276342058
 30
0.0
 10
149.4366580165688
 20
232.406442880809
 30
0.0
 10
149.4366580165688
 20
232.2935514081267
 30
0.0
 10
149.4366580165688
 20
232.1947848269339
 30
0.0
 10
149.4260858797984
 20
232.1559844390313
 30
0.0
 10
149.3696293775339
 20
232.0924870228688
 30
0.0
 10
149.3308289896313
 20
232.0466241892214
 30
0.0
 10
149.2743940192135
 20
231.9337327165392
 30
0.0
 10
149.2426345452089
 20
231.8420070492444
 30
0.0
 10
149.2038341573062
 20
231.7220531308173
 30
0.0
 10
149.1544401007864
 20
231.6338586863949
 30
0.0
 10
149.0803705478536
 20
231.5491954648449
 30
0.0
 10
148.9357196011667
 20
231.3904411585153
 30
0.0
 10
148.9004504361364
 20
231.2564054122923
 30
0.0
 10
148.9004504361364
 20
230.8824402973684
 30
0.0
 10
148.9004504361364
 20
230.5684844394282
 30
0.0
 10
148.854587602489
 20
230.2933074375439
 30
0.0
 10
148.7840277405818
 20
230.1557189366017
 30
0.0
 10
148.7381649069344
 20
230.0640148011537
 30
0.0
 10
148.7099366558021
 20
229.7359125198772
 30
0.0
 10
148.7487585755515
 20
229.7147467144897
 30
0.0
 10
148.7593307123218
 20
229.7041745777193
 30
0.0
 10
148.8263593513568
 20
229.6935809091022
 30
0.0
 10
148.8898567675193
 20
229.6865399952042
 30
0.0
 10
148.9533541836818
 20
229.6794775494595
 30
0.0
 10
149.0133419088187
 20
229.6618429669444
 30
0.0
 10
149.0274452684614
 20
229.6442083844293
 30
0.0
 10
149.0380174052318
 20
229.6265522700673
 30
0.0
 10
149.0450798509765
 20
229.4395912444522
 30
0.0
 10
149.0450798509765
 20
229.2279331905771
 30
0.0
 10
149.0450798509765
 20
228.9315903833053
 30
0.0
 10
149.0380174052318
 20
228.8398647160105
 30
0.0
 10
149.0133419088187
 20
228.818698910623
 30
0.0
 10
148.9851136576864
 20
228.7975331052355
 30
0.0
 10
148.166666629625
 20
228.7940018823631
 30
0.0
 10
145.7007534086703
 20
228.8081267738527
 30
0.0
 10
145.7007534086703
 20
228.8081267738527
 30
0.0
 10
142.4269652964245
 20
228.8222301334954
 30
0.0
 10
142.4269652964245
 20
228.8222301334954
 30
0.0
 10
142.4269652964245
 20
228.8222301334954
 30
0.0
 10
142.4269652964245
 20
228.7940018823631
 30
0.0
 10
142.4269652964245
 20
228.7940018823631
 30
0.0
 10
142.7197768808239
 20
228.529418549096
 30
0.0
 10
142.9984635737339
 20
228.2295660507985
 30
0.0
 10
143.2171840733537
 20
227.936754466399
 30
0.0
 10
143.4606016012333
 20
227.6086737169694
 30
0.0
 10
143.8275042704125
 20
226.8748899104579
 30
0.0
 10
144.0179965189
 20
226.3316198842808
 30
0.0
 10
144.3143393261718
 20
225.4990694965766
 30
0.0
 10
144.4519062952672
 20
224.3701763016006
 30
0.0
 10
144.3496084912021
 20
223.6504958547319
 30
0.0
 10
144.2155512131323
 20
222.6733160521876
 30
0.0
 10
144.180282048102
 20
222.5180929687303
 30
0.0
 10
144.0038931592573
 20
222.0700583008735
 30
0.0
 10
143.5205893263703
 20
220.8459297475771
 30
0.0
 10
142.1376849348974
 20
219.2901676901319
 30
0.0
 10
141.082882824701
 20
218.782166828985
 30
0.0
 10
140.5501849352943
 20
218.5246459414626
 30
0.0
 10
140.0421840741474
 20
218.3588291893882
 30
0.0
 10
139.5765363556223
 20
218.2847596364553
 30
0.0
 10
139.1002734366333
 20
218.2141997745481
 30
0.0
 10
138.1089687425995
 20
218.2600626081954
 30
0.0
 10
137.4457447979953
 20
218.3870574405204
 30
0.0
 10
137.3116875199255
 20
218.4152856916527
 30
0.0
 10
137.1987960472432
 20
218.4364514970402
 30
0.0
 10
137.1952863562176
 20
218.4364514970402
 30
0.0
 10
137.1952863562176
 20
218.4293890512954
 30
0.0
 10
137.241149189865
 20
218.3306224701027
 30
0.0
 10
137.2975841602828
 20
218.2071373288033
 30
0.0
 10
137.5551050478052
 20
217.653273634009
 30
0.0
 10
137.9678705506317
 20
217.000643358022
 30
0.0
 10
138.3947178812542
 20
216.4679454686152
 30
0.0
 10
139.3930850210328
 20
215.2226511099313
 30
0.0
 10
141.3862880777176
 20
213.4763968039985
 30
0.0
 10
143.6899157694703
 20
211.8359715250032
 30
0.0
 10
145.9159426854177
 20
210.2484715254001
 30
0.0
 10
146.9778072413588
 20
209.2889263053709
 30
0.0
 10
148.4982786019271
 20
207.4932779429183
 30
0.0
 10
149.0838802388792
 20
206.7983160561563
 30
0.0
 10
149.2673315734687
 20
206.5619609740214
 30
0.0
 10
149.5918811000261
 20
206.0680634725173
 30
0.0
 10
150.9677230457542
 20
203.9831347485376
 30
0.0
 10
151.8778957411104
 20
201.7712327240797
 30
0.0
 10
152.2095077134125
 20
199.7251259198495
 30
0.0
 10
152.4352691269302
 20
198.3316493916063
 30
0.0
 10
152.4811319605776
 20
197.4602770841527
 30
0.0
 10
152.3964687390276
 20
196.2361485308563
 30
0.0
 10
152.3823653793848
 20
196.0350626137516
 30
0.0
 10
152.3611995739973
 20
195.6752223903173
 30
0.0
 10
152.3470746825078
 20
195.4388673081824
 30
0.0
 10
152.2765363524474
 20
194.3205677818235
 30
0.0
 10
152.078981658215
 20
193.3433664474324
 30
0.0
 10
151.6626849325161
 20
192.0910096430037
 30
0.0
 10
151.2852316584135
 20
190.9409506426402
 30
0.0
 10
150.8442594363015
 20
190.0343091701563
 30
0.0
 10
150.1845451827229
 20
189.0500669218672
 30
0.0
 10
149.6800755444484
 20
188.2951173099683
 30
0.0
 10
149.3943264057937
 20
187.9423395322787
 30
0.0
 10
148.9004504361364
 20
187.451973253647
 30
0.0
 10
148.4312499628922
 20
186.9898352261475
 30
0.0
 10
148.1631354067526
 20
186.7640522807829
 30
0.0
 10
147.7115910478703
 20
186.4500964228428
 30
0.0
 10
147.5422430729234
 20
186.3301425044157
 30
0.0
 10
147.5069739078932
 20
186.2913421165131
 30
0.0
 10
147.3341162419208
 20
186.0232275603735
 30
0.0
 10
147.0483671032661
 20
185.5787241153891
 30
0.0
 10
147.0130764063891
 20
185.5046545624563
 30
0.0
 10
146.9813384642312
 20
185.3000374224792
 30
0.0
 10
146.9354756305838
 20
184.9648942273048
 30
0.0
 10
147.0236700750062
 20
184.5697848388402
 30
0.0
 10
147.2141623234938
 20
184.2875669230578
 30
0.0
 10
147.2141623234938
 20
184.2875669230578
 30
0.0
 10
147.3094192136609
 20
184.1429159763709
 30
0.0
 10
147.3094192136609
 20
184.1429159763709
 30
0.0
 10
147.3376474647932
 20
184.1393847534986
 30
0.0
 10
147.3623229612063
 20
184.1323438396006
 30
0.0
 10
147.3729166298234
 20
184.1252813938558
 30
0.0
 10
147.3870199894662
 20
184.1076468113407
 30
0.0
 10
148.2125294632724
 20
184.0935434516979
 30
0.0
 10
149.8423610736505
 20
184.0864810059532
 30
0.0
 10
149.8423610736505
 20
184.0864810059532
 30
0.0
 10
152.2906397120901
 20
184.0723776463105
 30
0.0
 10
152.2906397120901
 20
184.0723776463105
 30
0.0
 10
152.2906397120901
 20
184.0723776463105
 30
0.0
 10
152.3506059053802
 20
184.0159211440459
 30
0.0
 10
152.3506059053802
 20
184.0159211440459
 30
0.0
 10
152.4070624076447
 20
183.9559549507558
 30
0.0
 10
152.4105936305171
 20
183.9524237278834
 30
0.0
 10
152.4529252412921
 20
182.9681814795943
 30
0.0
 10
152.4776007377053
 20
182.4248899215704
 30
0.0
 10
152.4952568520672
 20
181.8886823411381
 30
0.0
 10
152.4987880749395
 20
181.7722596455834
 30
0.0
 10
152.4987880749395
 20
181.7722596455834
 30
0.0
 10
152.4987880749395
 20
181.564111282734
 30
0.0
 10
152.4987880749395
 20
181.564111282734
 30
0.0
 10
152.4987880749395
 20
181.564111282734
 30
0.0
 10
152.3611995739973
 20
181.3312874234714
 30
0.0
 10
152.3611995739973
 20
181.3312874234714
 30
0.0
 10
152.001359350563
 20
180.7280296721574
 30
0.0
 10
151.9731310994307
 20
180.6257318680922
 30
0.0
 10
151.9731310994307
 20
180.0119019800078
 30
0.0
 10
151.9731310994307
 20
179.3486780354037
 30
0.0
 10
152.0578158528275
 20
179.0664601196217
 30
0.0
 10
152.3365025457375
 20
178.7983455634821
 30
0.0
 10
152.3365025457375
 20
178.7983455634821
 30
0.0
 10
152.4917256291947
 20
178.6501633939225
 30
0.0
 10
152.4917256291947
 20
178.6501633939225
 30
0.0
 10
152.4917256291947
 20
178.6501633939225
 30
0.0
 10
152.5058289888375
 20
178.0892587852306
 30
0.0
 10
152.5058289888375
 20
178.0892587852306
 30
0.0
 10
152.5164226574546
 20
177.7823438411881
 30
0.0
 10
152.5234635713526
 20
177.2743429800412
 30
0.0
 10
152.5234635713526
 20
176.9603655902542
 30
0.0
  0
ENDSEC
  0
SECTION
  2
OBJECTS
  0
DICTIONARY
  5
C
330
0
100
AcDbDictionary
281
     1
  3
ACAD_COLOR
350
63
  3
ACAD_DETAILVIEWSTYLE
350
6A
  3
ACAD_GROUP
350
D
  3
ACAD_LAYOUT
350
62
  3
ACAD_MATERIAL
350
10
  3
ACAD_MLEADERSTYLE
350
66
  3
ACAD_MLINESTYLE
350
5F
  3
ACAD_PLOTSETTINGS
350
61
  3
ACAD_PLOTSTYLENAME
350
E
  3
ACAD_SCALELIST
350
42
  3
ACAD_SECTIONVIEWSTYLE
350
68
  3
ACAD_TABLESTYLE
350
64
  3
ACAD_VISUALSTYLE
350
29
  3
ACDB_RECOMPOSE_DATA
350
8D
  3
AcDbVariableDictionary
350
85
  0
DICTIONARY
  5
63
102
{ACAD_REACTORS
330
C
102
}
330
C
100
AcDbDictionary
281
     1
  0
DICTIONARY
  5
6A
102
{ACAD_REACTORS
330
C
102
}
330
C
100
AcDbDictionary
281
     1
  3
Imperial24
350
6B
  0
DICTIONARY
  5
D
102
{ACAD_REACTORS
330
C
102
}
330
C
100
AcDbDictionary
281
     1
  0
DICTIONARY
  5
62
102
{ACAD_REACTORS
330
C
102
}
330
C
100
AcDbDictionary
281
     1
  3
Layout1
350
6F
  3
Layout2
350
77
  3
Model
350
73
  0
DICTIONARY
  5
10
102
{ACAD_REACTORS
330
C
102
}
330
C
100
AcDbDictionary
281
     1
  3
ByBlock
350
19
  3
ByLayer
350
11
  3
Global
350
21
  0
DICTIONARY
  5
66
102
{ACAD_REACTORS
330
C
102
}
330
C
100
AcDbDictionary
281
     1
  3
Standard
350
67
  0
DICTIONARY
  5
5F
102
{ACAD_REACTORS
330
C
102
}
330
C
100
AcDbDictionary
281
     1
  3
Standard
350
60
  0
DICTIONARY
  5
61
102
{ACAD_REACTORS
330
C
102
}
330
C
100
AcDbDictionary
281
     1
  0
ACDBDICTIONARYWDFLT
  5
E
102
{ACAD_REACTORS
330
C
102
}
330
C
100
AcDbDictionary
281
     1
  3
Normal
350
F
100
AcDbDictionaryWithDefault
340
F
  0
DICTIONARY
  5
42
102
{ACAD_REACTORS
330
C
102
}
330
C
100
AcDbDictionary
281
     1
  3
A0
350
43
  3
A1
350
44
  3
A2
350
45
  3
A3
350
46
  3
A4
350
47
  3
A5
350
48
  3
A6
350
49
  3
A7
350
4A
  3
A8
350
4B
  3
A9
350
4C
  3
B0
350
4D
  3
B1
350
4E
  3
B2
350
4F
  3
B3
350
50
  3
B4
350
51
  3
B5
350
52
  3
B6
350
53
  0
DICTIONARY
  5
68
102
{ACAD_REACTORS
330
C
102
}
330
C
100
AcDbDictionary
281
     1
  3
Imperial24
350
69
  0
DICTIONARY
  5
64
102
{ACAD_REACTORS
330
C
102
}
330
C
100
AcDbDictionary
281
     1
  3
Standard
350
65
  0
DICTIONARY
  5
29
102
{ACAD_REACTORS
330
C
102
}
330
C
100
AcDbDictionary
281
     1
  3
2dWireframe
350
2F
  3
Basic
350
2E
  3
Brighten
350
35
  3
ColorChange
350
39
  3
Conceptual
350
32
  3
Dim
350
34
  3
EdgeColorOff
350
41
  3
Facepattern
350
38
  3
Flat
350
2A
  3
FlatWithEdges
350
2B
  3
Gouraud
350
2C
  3
GouraudWithEdges
350
2D
  3
Hidden
350
31
  3
JitterOff
350
3F
  3
Linepattern
350
37
  3
OverhangOff
350
40
  3
Realistic
350
33
  3
Shaded
350
3E
  3
Shaded with edges
350
3D
  3
Shades of Gray
350
3A
  3
Sketchy
350
3B
  3
Thicken
350
36
  3
Wireframe
350
30
  3
X-Ray
350
3C
  0
XRECORD
  5
8D
102
{ACAD_REACTORS
330
C
102
}
330
C
100
AcDbXrecord
280
     1
 90
        1
330
65
  0
DICTIONARY
  5
85
102
{ACAD_REACTORS
330
C
102
}
330
C
100
AcDbDictionary
281
     1
  3
CANNOSCALE
350
8A
  3
CMLEADERSTYLE
350
87
  3
CTABLESTYLE
350
86
  3
CVIEWDETAILSTYLE
350
88
  3
CVIEWSECTIONSTYLE
350
89
  0
ACDBDETAILVIEWSTYLE
  5
6B
102
{ACAD_XDICTIONARY
360
90
102
}
102
{ACAD_REACTORS
330
6A
102
}
330
6A
100
AcDbModelDocViewStyle
 70
     0
  3
Imperial24
290
     0
100
AcDbDetailViewStyle
 70
     0
 71
     0
 90
        3
 71
     1
340
55
 62
   256
 40
0.24
340
0
 62
   256
 40
0.24
300

 40
0.36
280
     3
 71
     2
340
5D
 90
       25
 62
   256
 71
     3
340
55
 62
   256
 40
0.24
 90
        1
 40
0.75
 90
        1
300
%<\AcVar ViewType \f "%tc1">% %<\AcVar ViewDetailId>%\PSCALE %<\AcVar ViewScale \f "%sn">%
 71
     4
340
5D
 90
       25
 62
   256
340
5D
 90
       25
 62
   256
280
     0
  0
LAYOUT
  5
6F
102
{ACAD_REACTORS
330
62
102
}
330
62
100
AcDbPlotSettings
  1

  2

  4

  6

 40
0.0
 41
0.0
 42
0.0
 43
0.0
 44
0.0
 45
0.0
 46
0.0
 47
0.0
 48
0.0
 49
0.0
140
0.0
141
0.0
142
1.0
143
1.0
 70
   688
 72
     0
 73
     0
 74
     5
  7

 75
    16
147
1.0
 76
     0
 77
     2
 78
   300
148
0.0
149
0.0
100
AcDbLayout
  1
Layout1
 70
     1
 71
     1
 10
0.0
 20
0.0
 11
12.0
 21
9.0
 12
0.0
 22
0.0
 32
0.0
 14
0.0
 24
0.0
 34
0.0
 15
0.0
 25
0.0
 35
0.0
146
0.0
 13
0.0
 23
0.0
 33
0.0
 16
1.0
 26
0.0
 36
0.0
 17
0.0
 27
1.0
 37
0.0
 76
     0
330
6C
  0
LAYOUT
  5
77
102
{ACAD_REACTORS
330
62
102
}
330
62
100
AcDbPlotSettings
  1

  2

  4

  6

 40
0.0
 41
0.0
 42
0.0
 43
0.0
 44
0.0
 45
0.0
 46
0.0
 47
0.0
 48
0.0
 49
0.0
140
0.0
141
0.0
142
1.0
143
1.0
 70
   688
 72
     0
 73
     0
 74
     5
  7

 75
    16
147
1.0
 76
     0
 77
     2
 78
   300
148
0.0
149
0.0
100
AcDbLayout
  1
Layout2
 70
     1
 71
     2
 10
0.0
 20
0.0
 11
12.0
 21
9.0
 12
0.0
 22
0.0
 32
0.0
 14
0.0
 24
0.0
 34
0.0
 15
0.0
 25
0.0
 35
0.0
146
0.0
 13
0.0
 23
0.0
 33
0.0
 16
1.0
 26
0.0
 36
0.0
 17
0.0
 27
1.0
 37
0.0
 76
     0
330
74
  0
LAYOUT
  5
73
102
{ACAD_REACTORS
330
62
102
}
330
62
100
AcDbPlotSettings
  1

  2

  4

  6

 40
0.0
 41
0.0
 42
0.0
 43
0.0
 44
0.0
 45
0.0
 46
0.0
 47
0.0
 48
0.0
 49
0.0
140
0.0
141
0.0
142
1.0
143
1.0
 70
  1712
 72
     0
 73
     0
 74
     0
  7

 75
     0
147
1.0
 76
     0
 77
     2
 78
   300
148
0.0
149
0.0
100
AcDbLayout
  1
Model
 70
     1
 71
     0
 10
0.0
 20
0.0
 11
12.0
 21
9.0
 12
0.0
 22
0.0
 32
0.0
 14
0.0
 24
0.0
 34
0.0
 15
0.0
 25
0.0
 35
0.0
146
0.0
 13
0.0
 23
0.0
 33
0.0
 16
1.0
 26
0.0
 36
0.0
 17
0.0
 27
1.0
 37
0.0
 76
     0
330
70
  0
MATERIAL
  5
19
102
{ACAD_XDICTIONARY
360
1A
102
}
102
{ACAD_REACTORS
330
10
102
}
330
10
100
AcDbMaterial
  1
ByBlock
 72
     0
 43
0.0208333333333333
 43
0.0
 43
0.0
 43
0.0
 43
0.0
 43
0.0208333333333333
 43
0.0
 43
0.0
 43
0.0
 43
0.0
 43
1.0
 43
0.0
 43
0.0
 43
0.0
 43
0.0
 43
1.0
 77
     0
 47
0.0208333333333333
 47
0.0
 47
0.0
 47
0.0
 47
0.0
 47
0.0208333333333333
 47
0.0
 47
0.0
 47
0.0
 47
0.0
 47
1.0
 47
0.0
 47
0.0
 47
0.0
 47
0.0
 47
1.0
171
     0
 49
0.0208333333333333
 49
0.0
 49
0.0
 49
0.0
 49
0.0
 49
0.0208333333333333
 49
0.0
 49
0.0
 49
0.0
 49
0.0
 49
1.0
 49
0.0
 49
0.0
 49
0.0
 49
0.0
 49
1.0
175
     0
142
0.0208333333333333
142
0.0
142
0.0
142
0.0
142
0.0
142
0.0208333333333333
142
0.0
142
0.0
142
0.0
142
0.0
142
1.0
142
0.0
142
0.0
142
0.0
142
0.0
142
1.0
179
     0
144
0.0208333333333333
144
0.0
144
0.0
144
0.0
144
0.0
144
0.0208333333333333
144
0.0
144
0.0
144
0.0
144
0.0
144
1.0
144
0.0
144
0.0
144
0.0
144
0.0
144
1.0
147
0.0208333333333333
147
0.0
147
0.0
147
0.0
147
0.0
147
0.0208333333333333
147
0.0
147
0.0
147
0.0
147
0.0
147
1.0
147
0.0
147
0.0
147
0.0
147
0.0
147
1.0
  0
MATERIAL
  5
11
102
{ACAD_XDICTIONARY
360
12
102
}
102
{ACAD_REACTORS
330
10
102
}
330
10
100
AcDbMaterial
  1
ByLayer
 72
     0
 43
0.0208333333333333
 43
0.0
 43
0.0
 43
0.0
 43
0.0
 43
0.0208333333333333
 43
0.0
 43
0.0
 43
0.0
 43
0.0
 43
1.0
 43
0.0
 43
0.0
 43
0.0
 43
0.0
 43
1.0
 77
     0
 47
0.0208333333333333
 47
0.0
 47
0.0
 47
0.0
 47
0.0
 47
0.0208333333333333
 47
0.0
 47
0.0
 47
0.0
 47
0.0
 47
1.0
 47
0.0
 47
0.0
 47
0.0
 47
0.0
 47
1.0
171
     0
 49
0.0208333333333333
 49
0.0
 49
0.0
 49
0.0
 49
0.0
 49
0.0208333333333333
 49
0.0
 49
0.0
 49
0.0
 49
0.0
 49
1.0
 49
0.0
 49
0.0
 49
0.0
 49
0.0
 49
1.0
175
     0
142
0.0208333333333333
142
0.0
142
0.0
142
0.0
142
0.0
142
0.0208333333333333
142
0.0
142
0.0
142
0.0
142
0.0
142
1.0
142
0.0
142
0.0
142
0.0
142
0.0
142
1.0
179
     0
144
0.0208333333333333
144
0.0
144
0.0
144
0.0
144
0.0
144
0.0208333333333333
144
0.0
144
0.0
144
0.0
144
0.0
144
1.0
144
0.0
144
0.0
144
0.0
144
0.0
144
1.0
147
0.0208333333333333
147
0.0
147
0.0
147
0.0
147
0.0
147
0.0208333333333333
147
0.0
147
0.0
147
0.0
147
0.0
147
1.0
147
0.0
147
0.0
147
0.0
147
0.0
147
1.0
  0
MATERIAL
  5
21
102
{ACAD_XDICTIONARY
360
22
102
}
102
{ACAD_REACTORS
330
10
102
}
330
10
100
AcDbMaterial
  1
Global
 72
     0
 43
0.0208333333333333
 43
0.0
 43
0.0
 43
0.0
 43
0.0
 43
0.0208333333333333
 43
0.0
 43
0.0
 43
0.0
 43
0.0
 43
1.0
 43
0.0
 43
0.0
 43
0.0
 43
0.0
 43
1.0
 77
     0
 47
0.0208333333333333
 47
0.0
 47
0.0
 47
0.0
 47
0.0
 47
0.0208333333333333
 47
0.0
 47
0.0
 47
0.0
 47
0.0
 47
1.0
 47
0.0
 47
0.0
 47
0.0
 47
0.0
 47
1.0
171
     0
 49
0.0208333333333333
 49
0.0
 49
0.0
 49
0.0
 49
0.0
 49
0.0208333333333333
 49
0.0
 49
0.0
 49
0.0
 49
0.0
 49
1.0
 49
0.0
 49
0.0
 49
0.0
 49
0.0
 49
1.0
175
     0
142
0.0208333333333333
142
0.0
142
0.0
142
0.0
142
0.0
142
0.0208333333333333
142
0.0
142
0.0
142
0.0
142
0.0
142
1.0
142
0.0
142
0.0
142
0.0
142
0.0
142
1.0
179
     0
144
0.0208333333333333
144
0.0
144
0.0
144
0.0
144
0.0
144
0.0208333333333333
144
0.0
144
0.0
144
0.0
144
0.0
144
1.0
144
0.0
144
0.0
144
0.0
144
0.0
144
1.0
147
0.0208333333333333
147
0.0
147
0.0
147
0.0
147
0.0
147
0.0208333333333333
147
0.0
147
0.0
147
0.0
147
0.0
147
1.0
147
0.0
147
0.0
147
0.0
147
0.0
147
1.0
  0
MLEADERSTYLE
  5
67
102
{ACAD_REACTORS
330
66
102
}
330
66
100
AcDbMLeaderStyle
179
     2
170
     2
171
     1
172
     0
 90
        2
 40
0.0
 41
0.0
173
     1
 91
-1056964608
340
5B
 92
       -2
290
     1
 42
0.09
291
     1
 43
0.36
  3
Standard
 44
0.18
300

342
55
174
     1
178
     6
175
     1
176
     0
 93
-1056964608
 45
0.18
292
     0
297
     0
 46
0.18
 94
-1056964608
 47
1.0
 49
1.0
140
1.0
293
     1
141
0.0
294
     1
177
     0
142
1.0
295
     0
296
     0
143
0.125
271
     0
272
     9
273
     9
298
     1
  0
MLINESTYLE
  5
60
102
{ACAD_REACTORS
330
5F
102
}
330
5F
100
AcDbMlineStyle
  2
STANDARD
 70
     0
  3

 62
   256
 51
90.0
 52
90.0
 71
     2
 49
0.5
 62
   256
  6
BYLAYER
 49
-0.5
 62
   256
  6
BYLAYER
  0
ACDBPLACEHOLDER
  5
F
102
{ACAD_REACTORS
330
E
102
}
330
E
  0
SCALE
  5
43
102
{ACAD_REACTORS
330
42
102
}
330
42
100
AcDbScale
 70
     0
300
1:1
140
1.0
141
1.0
290
     1
  0
SCALE
  5
44
102
{ACAD_REACTORS
330
42
102
}
330
42
100
AcDbScale
 70
     0
300
1/128" = 1'-0"
140
0.0078125
141
12.0
290
     0
  0
SCALE
  5
45
102
{ACAD_REACTORS
330
42
102
}
330
42
100
AcDbScale
 70
     0
300
1/64" = 1'-0"
140
0.015625
141
12.0
290
     0
  0
SCALE
  5
46
102
{ACAD_REACTORS
330
42
102
}
330
42
100
AcDbScale
 70
     0
300
1/32" = 1'-0"
140
0.03125
141
12.0
290
     0
  0
SCALE
  5
47
102
{ACAD_REACTORS
330
42
102
}
330
42
100
AcDbScale
 70
     0
300
1/16" = 1'-0"
140
0.0625
141
12.0
290
     0
  0
SCALE
  5
48
102
{ACAD_REACTORS
330
42
102
}
330
42
100
AcDbScale
 70
     0
300
3/32" = 1'-0"
140
0.09375
141
12.0
290
     0
  0
SCALE
  5
49
102
{ACAD_REACTORS
330
42
102
}
330
42
100
AcDbScale
 70
     0
300
1/8" = 1'-0"
140
0.125
141
12.0
290
     0
  0
SCALE
  5
4A
102
{ACAD_REACTORS
330
42
102
}
330
42
100
AcDbScale
 70
     0
300
3/16" = 1'-0"
140
0.1875
141
12.0
290
     0
  0
SCALE
  5
4B
102
{ACAD_REACTORS
330
42
102
}
330
42
100
AcDbScale
 70
     0
300
1/4" = 1'-0"
140
0.25
141
12.0
290
     0
  0
SCALE
  5
4C
102
{ACAD_REACTORS
330
42
102
}
330
42
100
AcDbScale
 70
     0
300
3/8" = 1'-0"
140
0.375
141
12.0
290
     0
  0
SCALE
  5
4D
102
{ACAD_REACTORS
330
42
102
}
330
42
100
AcDbScale
 70
     0
300
1/2" = 1'-0"
140
0.5
141
12.0
290
     0
  0
SCALE
  5
4E
102
{ACAD_REACTORS
330
42
102
}
330
42
100
AcDbScale
 70
     0
300
3/4" = 1'-0"
140
0.75
141
12.0
290
     0
  0
SCALE
  5
4F
102
{ACAD_REACTORS
330
42
102
}
330
42
100
AcDbScale
 70
     0
300
1" = 1'-0"
140
1.0
141
12.0
290
     0
  0
SCALE
  5
50
102
{ACAD_REACTORS
330
42
102
}
330
42
100
AcDbScale
 70
     0
300
1-1/2" = 1'-0"
140
1.5
141
12.0
290
     0
  0
SCALE
  5
51
102
{ACAD_REACTORS
330
42
102
}
330
42
100
AcDbScale
 70
     0
300
3" = 1'-0"
140
3.0
141
12.0
290
     0
  0
SCALE
  5
52
102
{ACAD_REACTORS
330
42
102
}
330
42
100
AcDbScale
 70
     0
300
6" = 1'-0"
140
6.0
141
12.0
290
     0
  0
SCALE
  5
53
102
{ACAD_REACTORS
330
42
102
}
330
42
100
AcDbScale
 70
     0
300
1'-0" = 1'-0"
140
12.0
141
12.0
290
     0
  0
ACDBSECTIONVIEWSTYLE
  5
69
102
{ACAD_XDICTIONARY
360
8E
102
}
102
{ACAD_REACTORS
330
68
102
}
330
68
100
AcDbModelDocViewStyle
 70
     0
  3
Imperial24
290
     0
100
AcDbSectionViewStyle
 70
     0
 71
     0
 90
       78
 71
     1
340
55
 62
   256
 40
0.24
340
0
340
0
 62
   256
 40
0.24
300
I, O, Q, S, X, Z
 40
0.48
 90
        3
 40
0.18
 90
        1
 71
     2
340
5D
 90
       25
 62
   256
340
5D
 90
       50
 62
   256
 40
0.24
 40
0.0
 40
0.24
 71
     3
340
55
 62
   256
 40
0.24
 90
        1
 40
0.75
 90
        1
300
%<\AcVar ViewType \f "%tc1">% %<\AcVar ViewSectionStartId>%-%<\AcVar ViewSectionEndId>%\PSCALE %<\AcVar ViewScale \f "%sn">%
 71
     4
 62
   256
 62
   257
300
ANSI31
 40
1.0
 90
        0
290
     0
290
     0
 90
        6
 40
0.0
 40
1.570796326794896
 40
0.2617993877991494
 40
1.308996938995747
 40
-0.2617993877991494
 40
1.832595714594046
  0
TABLESTYLE
  5
65
102
{ACAD_XDICTIONARY
360
8B
102
}
102
{ACAD_REACTORS
330
64
102
}
330
64
100
AcDbTableStyle
280
     0
  3
Standard
 70
     0
 71
     0
 40
0.06
 41
0.06
280
     0
281
     0
  7
Standard
140
0.18
170
     2
 62
     0
 63
     7
283
     0
 90
      512
 91
        0
  1

274
    -2
284
     1
 64
     0
275
    -2
285
     1
 65
     0
276
    -2
286
     1
 66
     0
277
    -2
287
     1
 67
     0
278
    -2
288
     1
 68
     0
279
    -2
289
     1
 69
     0
  7
Standard
140
0.25
170
     5
 62
     0
 63
     7
283
     0
 90
      512
 91
        0
  1

274
    -2
284
     1
 64
     0
275
    -2
285
     1
 65
     0
276
    -2
286
     1
 66
     0
277
    -2
287
     1
 67
     0
278
    -2
288
     1
 68
     0
279
    -2
289
     1
 69
     0
  7
Standard
140
0.18
170
     5
 62
     0
 63
     7
283
     0
 90
      512
 91
        0
  1

274
    -2
284
     1
 64
     0
275
    -2
285
     1
 65
     0
276
    -2
286
     1
 66
     0
277
    -2
287
     1
 67
     0
278
    -2
288
     1
 68
     0
279
    -2
289
     1
 69
     0
  0
VISUALSTYLE
  5
2F
102
{ACAD_REACTORS
330
29
102
}
330
29
100
AcDbVisualStyle
  2
2dWireframe
 70
     4
177
     3
291
     0
 70
    58
 90
        0
176
     1
 90
        2
176
     1
 90
        0
176
     1
 90
        0
176
     1
 40
0.6
176
     1
 40
30.0
176
     1
 62
     7
420
 16777215
176
     1
 90
        1
176
     1
 90
        4
176
     1
 62
     7
176
     1
 62
   257
176
     1
 90
        1
176
     1
 90
        1
176
     1
 40
1.0
176
     1
 90
        0
176
     1
 62
   257
176
     1
 40
1.0
176
     1
 90
        1
176
     1
 90
        6
176
     1
 90
        2
176
     1
 62
     7
176
     1
 90
        5
176
     1
 90
        0
176
     1
 90
        0
176
     1
290
     0
176
     1
 90
        1
176
     1
 40
0.0
176
     1
 90
        0
176
     1
290
     1
176
     1
290
     1
176
     1
290
     0
176
     1
290
     0
176
     1
290
     0
176
     1
290
     0
176
     1
290
     0
176
     1
290
     0
176
     1
290
     0
176
     1
 90
       50
176
     1
 40
0.0
176
     1
 40
1.0
176
     1
 90
        0
176
     1
 62
    18
420
        0
176
     1
 90
       50
176
     1
 90
        3
176
     1
 62
     5
420
      255
176
     1
290
     0
176
     1
 90
       50
176
     1
 90
       50
176
     1
 90
       50
176
     1
290
     0
176
     1
 90
       50
176
     1
 62
   256
176
     0
 40
1.0
176
     0
 90
        2
176
     1
  1
strokes_ogs.tif
176
     1
290
     0
176
     1
 40
1.0
176
     1
 40
1.0
176
     1
1001
ACAD
1000
AcDbSavedByObjectVersion
1070
     0
  0
VISUALSTYLE
  5
2E
102
{ACAD_REACTORS
330
29
102
}
330
29
100
AcDbVisualStyle
  2
Basic
 70
     7
177
     3
291
     1
 70
    58
 90
        1
176
     1
 90
        0
176
     1
 90
        1
176
     1
 90
        0
176
     1
 40
0.6
176
     1
 40
30.0
176
     1
 62
     7
420
 16777215
176
     1
 90
        0
176
     1
 90
        4
176
     1
 62
     7
176
     1
 62
   257
176
     1
 90
        1
176
     1
 90
        1
176
     1
 40
1.0
176
     1
 90
        8
176
     1
 62
     7
176
     1
 40
1.0
176
     1
 90
        1
176
     1
 90
        6
176
     1
 90
        2
176
     1
 62
     7
176
     1
 90
        5
176
     1
 90
        0
176
     1
 90
        0
176
     1
290
     0
176
     1
 90
        1
176
     1
 40
0.0
176
     1
 90
        0
176
     1
290
     0
176
     1
290
     1
176
     1
290
     1
176
     1
290
     0
176
     1
290
     0
176
     1
290
     0
176
     1
290
     0
176
     1
290
     0
176
     1
290
     0
176
     1
 90
       50
176
     1
 40
0.0
176
     1
 40
1.0
176
     1
 90
        0
176
     1
 62
    18
420
        0
176
     1
 90
       50
176
     1
 90
        3
176
     1
 62
     5
420
      255
176
     1
290
     0
176
     1
 90
       50
176
     1
 90
       50
176
     1
 90
       50
176
     1
290
     0
176
     1
 90
       50
176
     1
 62
   256
176
     0
 40
1.0
176
     0
 90
        2
176
     1
  1
strokes_ogs.tif
176
     1
290
     0
176
     1
 40
1.0
176
     1
 40
1.0
176
     1
1001
ACAD
1000
AcDbSavedByObjectVersion
1070
     0
  0
VISUALSTYLE
  5
35
102
{ACAD_REACTORS
330
29
102
}
330
29
100
AcDbVisualStyle
  2
Brighten
 70
    12
177
     3
291
     1
 70
    58
 90
        2
176
     1
 90
        2
176
     1
 90
        0
176
     1
 90
        0
176
     1
 40
0.6
176
     1
 40
30.0
176
     1
 62
     7
420
 16777215
176
     1
 90
        1
176
     1
 90
        4
176
     1
 62
     7
176
     1
 62
   257
176
     1
 90
        1
176
     1
 90
        1
176
     1
 40
1.0
176
     1
 90
        8
176
     1
 62
     7
176
     1
 40
1.0
176
     1
 90
        1
176
     1
 90
        6
176
     1
 90
        2
176
     1
 62
     7
176
     1
 90
        5
176
     1
 90
        0
176
     1
 90
        0
176
     1
290
     0
176
     1
 90
        1
176
     1
 40
50.0
176
     1
 90
        0
176
     1
290
     0
176
     1
290
     1
176
     1
290
     1
176
     1
290
     0
176
     1
290
     0
176
     1
290
     0
176
     1
290
     0
176
     1
290
     0
176
     1
290
     0
176
     1
 90
       50
176
     1
 40
0.0
176
     1
 40
1.0
176
     1
 90
        0
176
     1
 62
    18
420
        0
176
     1
 90
       50
176
     1
 90
        3
176
     1
 62
     5
420
      255
176
     1
290
     0
176
     1
 90
       50
176
     1
 90
       50
176
     1
 90
       50
176
     1
290
     0
176
     1
 90
       50
176
     1
 62
   256
176
     0
 40
1.0
176
     0
 90
        2
176
     1
  1
strokes_ogs.tif
176
     1
290
     0
176
     1
 40
1.0
176
     1
 40
1.0
176
     1
1001
ACAD
1000
AcDbSavedByObjectVersion
1070
     0
  0
VISUALSTYLE
  5
39
102
{ACAD_REACTORS
330
29
102
}
330
29
100
AcDbVisualStyle
  2
ColorChange
 70
    16
177
     3
291
     1
 70
    58
 90
        2
176
     1
 90
        2
176
     1
 90
        3
176
     1
 90
        0
176
     1
 40
0.6
176
     1
 40
30.0
176
     1
 62
     8
420
  8421504
176
     1
 90
        1
176
     1
 90
        4
176
     1
 62
     7
176
     1
 62
   257
176
     1
 90
        1
176
     1
 90
        1
176
     1
 40
1.0
176
     1
 90
        8
176
     1
 62
     8
420
  8421504
176
     1
 40
1.0
176
     1
 90
        1
176
     1
 90
        6
176
     1
 90
        2
176
     1
 62
     7
176
     1
 90
        5
176
     1
 90
        0
176
     1
 90
        0
176
     1
290
     0
176
     1
 90
        1
176
     1
 40
0.0
176
     1
 90
        0
176
     1
290
     0
176
     1
290
     1
176
     1
290
     1
176
     1
290
     0
176
     1
290
     0
176
     1
290
     0
176
     1
290
     0
176
     1
290
     0
176
     1
290
     0
176
     1
 90
       50
176
     1
 40
0.0
176
     1
 40
1.0
176
     1
 90
        0
176
     1
 62
    18
420
        0
176
     1
 90
       50
176
     1
 90
        3
176
     1
 62
     5
420
      255
176
     1
290
     0
176
     1
 90
       50
176
     1
 90
       50
176
     1
 90
       50
176
     1
290
     0
176
     1
 90
       50
176
     1
 62
   256
176
     0
 40
1.0
176
     0
 90
        2
176
     1
  1
strokes_ogs.tif
176
     1
290
     0
176
     1
 40
1.0
176
     1
 40
1.0
176
     1
1001
ACAD
1000
AcDbSavedByObjectVersion
1070
     0
  0
VISUALSTYLE
  5
32
102
{ACAD_REACTORS
330
29
102
}
330
29
100
AcDbVisualStyle
  2
Conceptual
 70
     9
177
     3
291
     0
 70
    58
 90
        3
176
     1
 90
        2
176
     1
 90
        0
176
     1
 90
        0
176
     1
 40
0.6
176
     1
 40
30.0
176
     1
 62
     7
420
 16777215
176
     1
 90
        2
176
     1
 90
        2
176
     1
 62
     7
176
     1
 62
   257
176
     1
 90
        1
176
     1
 90
        1
176
     1
 40
179.0
176
     1
 90
        8
176
     1
 62
     7
176
     1
 40
1.0
176
     1
 90
        1
176
     1
 90
        6
176
     1
 90
        2
176
     1
 62
     7
176
     1
 90
        3
176
     1
 90
        0
176
     1
 90
        0
176
     1
290
     0
176
     1
 90
        1
176
     1
 40
0.0
176
     1
 90
        0
176
     1
290
     0
176
     1
290
     1
176
     1
290
     1
176
     1
290
     0
176
     1
290
     0
176
     1
290
     0
176
     1
290
     0
176
     1
290
     0
176
     1
290
     0
176
     1
 90
       50
176
     1
 40
0.0
176
     1
 40
1.0
176
     1
 90
        0
176
     1
 62
    18
420
        0
176
     1
 90
       50
176
     1
 90
        3
176
     1
 62
     5
420
      255
176
     1
290
     0
176
     1
 90
       50
176
     1
 90
       50
176
     1
 90
       50
176
     1
290
     0
176
     1
 90
       50
176
     1
 62
   256
176
     0
 40
1.0
176
     0
 90
        2
176
     1
  1
strokes_ogs.tif
176
     1
290
     0
176
     1
 40
1.0
176
     1
 40
1.0
176
     1
1001
ACAD
1000
AcDbSavedByObjectVersion
1070
     0
  0
VISUALSTYLE
  5
34
102
{ACAD_REACTORS
330
29
102
}
330
29
100
AcDbVisualStyle
  2
Dim
 70
    11
177
     3
291
     1
 70
    58
 90
        2
176
     1
 90
        2
176
     1
 90
        0
176
     1
 90
        0
176
     1
 40
0.6
176
     1
 40
30.0
176
     1
 62
     7
420
 16777215
176
     1
 90
        1
176
     1
 90
        4
176
     1
 62
     7
176
     1
 62
   257
176
     1
 90
        1
176
     1
 90
        1
176
     1
 40
1.0
176
     1
 90
        8
176
     1
 62
     7
176
     1
 40
1.0
176
     1
 90
        1
176
     1
 90
        6
176
     1
 90
        2
176
     1
 62
     7
176
     1
 90
        5
176
     1
 90
        0
176
     1
 90
        0
176
     1
290
     0
176
     1
 90
        1
176
     1
 40
-50.0
176
     1
 90
        0
176
     1
290
     0
176
     1
290
     1
176
     1
290
     1
176
     1
290
     0
176
     1
290
     0
176
     1
290
     0
176
     1
290
     0
176
     1
290
     0
176
     1
290
     0
176
     1
 90
       50
176
     1
 40
0.0
176
     1
 40
1.0
176
     1
 90
        0
176
     1
 62
    18
420
        0
176
     1
 90
       50
176
     1
 90
        3
176
     1
 62
     5
420
      255
176
     1
290
     0
176
     1
 90
       50
176
     1
 90
       50
176
     1
 90
       50
176
     1
290
     0
176
     1
 90
       50
176
     1
 62
   256
176
     0
 40
1.0
176
     0
 90
        2
176
     1
  1
strokes_ogs.tif
176
     1
290
     0
176
     1
 40
1.0
176
     1
 40
1.0
176
     1
1001
ACAD
1000
AcDbSavedByObjectVersion
1070
     0
  0
VISUALSTYLE
  5
41
102
{ACAD_REACTORS
330
29
102
}
330
29
100
AcDbVisualStyle
  2
EdgeColorOff
 70
    22
177
     3
291
     1
 70
    58
 90
        2
176
     0
 90
        2
176
     0
 90
        0
176
     0
 90
        0
176
     0
 40
0.6
176
     0
 40
30.0
176
     0
 62
     7
420
 16777215
176
     0
 90
        1
176
     0
 90
        4
176
     0
 62
     7
176
     0
 62
   257
176
     0
 90
        1
176
     0
 90
        1
176
     0
 40
1.0
176
     0
 90
        8
176
     2
 62
     7
176
     0
 40
1.0
176
     0
 90
        1
176
     0
 90
        6
176
     0
 90
        2
176
     0
 62
     7
176
     0
 90
        5
176
     0
 90
        0
176
     0
 90
        0
176
     0
290
     0
176
     0
 90
        1
176
     0
 40
0.0
176
     0
 90
        0
176
     0
290
     0
176
     0
290
     1
176
     0
290
     1
176
     0
290
     0
176
     0
290
     0
176
     0
290
     0
176
     0
290
     0
176
     0
290
     0
176
     0
290
     0
176
     0
 90
       50
176
     0
 40
0.0
176
     0
 40
1.0
176
     0
 90
        0
176
     0
 62
    18
420
        0
176
     0
 90
       50
176
     0
 90
        3
176
     0
 62
     5
420
      255
176
     0
290
     0
176
     0
 90
       50
176
     0
 90
       50
176
     0
 90
       50
176
     0
290
     0
176
     0
 90
       50
176
     0
 62
   256
176
     0
 40
1.0
176
     0
 90
        2
176
     0
  1
strokes_ogs.tif
176
     0
290
     0
176
     0
 40
1.0
176
     0
 40
1.0
176
     0
1001
ACAD
1000
AcDbSavedByObjectVersion
1070
     0
  0
VISUALSTYLE
  5
38
102
{ACAD_REACTORS
330
29
102
}
330
29
100
AcDbVisualStyle
  2
Facepattern
 70
    15
177
     3
291
     1
 70
    58
 90
        2
176
     1
 90
        2
176
     1
 90
        0
176
     1
 90
        0
176
     1
 40
0.6
176
     1
 40
30.0
176
     1
 62
     7
420
 16777215
176
     1
 90
        1
176
     1
 90
        4
176
     1
 62
     7
176
     1
 62
   257
176
     1
 90
        1
176
     1
 90
        1
176
     1
 40
1.0
176
     1
 90
        8
176
     1
 62
     7
176
     1
 40
1.0
176
     1
 90
        1
176
     1
 90
        6
176
     1
 90
        2
176
     1
 62
     7
176
     1
 90
        5
176
     1
 90
        0
176
     1
 90
        0
176
     1
290
     0
176
     1
 90
        1
176
     1
 40
0.0
176
     1
 90
        0
176
     1
290
     0
176
     1
290
     1
176
     1
290
     1
176
     1
290
     0
176
     1
290
     0
176
     1
290
     0
176
     1
290
     0
176
     1
290
     0
176
     1
290
     0
176
     1
 90
       50
176
     1
 40
0.0
176
     1
 40
1.0
176
     1
 90
        0
176
     1
 62
    18
420
        0
176
     1
 90
       50
176
     1
 90
        3
176
     1
 62
     5
420
      255
176
     1
290
     0
176
     1
 90
       50
176
     1
 90
       50
176
     1
 90
       50
176
     1
290
     0
176
     1
 90
       50
176
     1
 62
   256
176
     0
 40
1.0
176
     0
 90
        2
176
     1
  1
strokes_ogs.tif
176
     1
290
     0
176
     1
 40
1.0
176
     1
 40
1.0
176
     1
1001
ACAD
1000
AcDbSavedByObjectVersion
1070
     0
  0
VISUALSTYLE
  5
2A
102
{ACAD_REACTORS
330
29
102
}
330
29
100
AcDbVisualStyle
  2
Flat
 70
     0
177
     3
291
     1
 70
    58
 90
        2
176
     1
 90
        1
176
     1
 90
        1
176
     1
 90
        2
176
     1
 40
0.6
176
     1
 40
30.0
176
     1
 62
     7
420
 16777215
176
     1
 90
        0
176
     1
 90
        0
176
     1
 62
     7
176
     1
 62
   257
176
     1
 90
        1
176
     1
 90
        1
176
     1
 40
1.0
176
     1
 90
        8
176
     1
 62
     7
176
     1
 40
1.0
176
     1
 90
        1
176
     1
 90
        6
176
     1
 90
        2
176
     1
 62
     7
176
     1
 90
        5
176
     1
 90
        0
176
     1
 90
        0
176
     1
290
     0
176
     1
 90
       13
176
     1
 40
0.0
176
     1
 90
        0
176
     1
290
     0
176
     1
290
     1
176
     1
290
     1
176
     1
290
     0
176
     1
290
     0
176
     1
290
     0
176
     1
290
     0
176
     1
290
     0
176
     1
290
     0
176
     1
 90
       50
176
     1
 40
0.0
176
     1
 40
1.0
176
     1
 90
        0
176
     1
 62
    18
420
        0
176
     1
 90
       50
176
     1
 90
        3
176
     1
 62
     5
420
      255
176
     1
290
     0
176
     1
 90
       50
176
     1
 90
       50
176
     1
 90
       50
176
     1
290
     0
176
     1
 90
       50
176
     1
 62
   256
176
     0
 40
1.0
176
     0
 90
        2
176
     1
  1
strokes_ogs.tif
176
     1
290
     0
176
     1
 40
1.0
176
     1
 40
1.0
176
     1
1001
ACAD
1000
AcDbSavedByObjectVersion
1070
     0
  0
VISUALSTYLE
  5
2B
102
{ACAD_REACTORS
330
29
102
}
330
29
100
AcDbVisualStyle
  2
FlatWithEdges
 70
     1
177
     3
291
     1
 70
    58
 90
        2
176
     1
 90
        1
176
     1
 90
        1
176
     1
 90
        2
176
     1
 40
0.6
176
     1
 40
30.0
176
     1
 62
     7
420
 16777215
176
     1
 90
        1
176
     1
 90
        0
176
     1
 62
     7
176
     1
 62
   257
176
     1
 90
        1
176
     1
 90
        1
176
     1
 40
1.0
176
     1
 90
        0
176
     1
 62
   257
176
     1
 40
1.0
176
     1
 90
        1
176
     1
 90
        6
176
     1
 90
        2
176
     1
 62
     7
176
     1
 90
        5
176
     1
 90
        0
176
     1
 90
        0
176
     1
290
     0
176
     1
 90
       13
176
     1
 40
0.0
176
     1
 90
        0
176
     1
290
     0
176
     1
290
     1
176
     1
290
     1
176
     1
290
     0
176
     1
290
     0
176
     1
290
     0
176
     1
290
     0
176
     1
290
     0
176
     1
290
     0
176
     1
 90
       50
176
     1
 40
0.0
176
     1
 40
1.0
176
     1
 90
        0
176
     1
 62
    18
420
        0
176
     1
 90
       50
176
     1
 90
        3
176
     1
 62
     5
420
      255
176
     1
290
     0
176
     1
 90
       50
176
     1
 90
       50
176
     1
 90
       50
176
     1
290
     0
176
     1
 90
       50
176
     1
 62
   256
176
     0
 40
1.0
176
     0
 90
        2
176
     1
  1
strokes_ogs.tif
176
     1
290
     0
176
     1
 40
1.0
176
     1
 40
1.0
176
     1
1001
ACAD
1000
AcDbSavedByObjectVersion
1070
     0
  0
VISUALSTYLE
  5
2C
102
{ACAD_REACTORS
330
29
102
}
330
29
100
AcDbVisualStyle
  2
Gouraud
 70
     2
177
     3
291
     1
 70
    58
 90
        2
176
     1
 90
        2
176
     1
 90
        1
176
     1
 90
        2
176
     1
 40
0.6
176
     1
 40
30.0
176
     1
 62
     7
420
 16777215
176
     1
 90
        0
176
     1
 90
        0
176
     1
 62
     7
176
     1
 62
   257
176
     1
 90
        1
176
     1
 90
        1
176
     1
 40
1.0
176
     1
 90
        0
176
     1
 62
     7
176
     1
 40
1.0
176
     1
 90
        1
176
     1
 90
        6
176
     1
 90
        2
176
     1
 62
     7
176
     1
 90
        5
176
     1
 90
        0
176
     1
 90
        0
176
     1
290
     0
176
     1
 90
       13
176
     1
 40
0.0
176
     1
 90
        0
176
     1
290
     0
176
     1
290
     1
176
     1
290
     1
176
     1
290
     0
176
     1
290
     0
176
     1
290
     0
176
     1
290
     0
176
     1
290
     0
176
     1
290
     0
176
     1
 90
       50
176
     1
 40
0.0
176
     1
 40
1.0
176
     1
 90
        0
176
     1
 62
    18
420
        0
176
     1
 90
       50
176
     1
 90
        3
176
     1
 62
     5
420
      255
176
     1
290
     0
176
     1
 90
       50
176
     1
 90
       50
176
     1
 90
       50
176
     1
290
     0
176
     1
 90
       50
176
     1
 62
   256
176
     0
 40
1.0
176
     0
 90
        2
176
     1
  1
strokes_ogs.tif
176
     1
290
     0
176
     1
 40
1.0
176
     1
 40
1.0
176
     1
1001
ACAD
1000
AcDbSavedByObjectVersion
1070
     0
  0
VISUALSTYLE
  5
2D
102
{ACAD_REACTORS
330
29
102
}
330
29
100
AcDbVisualStyle
  2
GouraudWithEdges
 70
     3
177
     3
291
     1
 70
    58
 90
        2
176
     1
 90
        2
176
     1
 90
        1
176
     1
 90
        2
176
     1
 40
0.6
176
     1
 40
30.0
176
     1
 62
     7
420
 16777215
176
     1
 90
        1
176
     1
 90
        0
176
     1
 62
     7
176
     1
 62
   257
176
     1
 90
        1
176
     1
 90
        1
176
     1
 40
1.0
176
     1
 90
        0
176
     1
 62
   257
176
     1
 40
1.0
176
     1
 90
        1
176
     1
 90
        6
176
     1
 90
        2
176
     1
 62
     7
176
     1
 90
        5
176
     1
 90
        0
176
     1
 90
        0
176
     1
290
     0
176
     1
 90
       13
176
     1
 40
0.0
176
     1
 90
        0
176
     1
290
     0
176
     1
290
     1
176
     1
290
     1
176
     1
290
     0
176
     1
290
     0
176
     1
290
     0
176
     1
290
     0
176
     1
290
     0
176
     1
290
     0
176
     1
 90
       50
176
     1
 40
0.0
176
     1
 40
1.0
176
     1
 90
        0
176
     1
 62
    18
420
        0
176
     1
 90
       50
176
     1
 90
        3
176
     1
 62
     5
420
      255
176
     1
290
     0
176
     1
 90
       50
176
     1
 90
       50
176
     1
 90
       50
176
     1
290
     0
176
     1
 90
       50
176
     1
 62
   256
176
     0
 40
1.0
176
     0
 90
        2
176
     1
  1
strokes_ogs.tif
176
     1
290
     0
176
     1
 40
1.0
176
     1
 40
1.0
176
     1
1001
ACAD
1000
AcDbSavedByObjectVersion
1070
     0
  0
VISUALSTYLE
  5
31
102
{ACAD_REACTORS
330
29
102
}
330
29
100
AcDbVisualStyle
  2
Hidden
 70
     6
177
     3
291
     0
 70
    58
 90
        1
176
     1
 90
        2
176
     1
 90
        2
176
     1
 90
        0
176
     1
 40
0.6
176
     1
 40
30.0
176
     1
 62
     7
420
 16777215
176
     1
 90
        2
176
     1
 90
        2
176
     1
 62
     7
176
     1
 62
   257
176
     1
 90
        2
176
     1
 90
        1
176
     1
 40
40.0
176
     1
 90
        0
176
     1
 62
   257
176
     1
 40
1.0
176
     1
 90
        1
176
     1
 90
        6
176
     1
 90
        2
176
     1
 62
     7
176
     1
 90
        3
176
     1
 90
        0
176
     1
 90
        0
176
     1
290
     0
176
     1
 90
        1
176
     1
 40
0.0
176
     1
 90
        0
176
     1
290
     0
176
     1
290
     1
176
     1
290
     1
176
     1
290
     0
176
     1
290
     0
176
     1
290
     0
176
     1
290
     0
176
     1
290
     0
176
     1
290
     0
176
     1
 90
       50
176
     1
 40
0.0
176
     1
 40
1.0
176
     1
 90
        0
176
     1
 62
    18
420
        0
176
     1
 90
       50
176
     1
 90
        3
176
     1
 62
     5
420
      255
176
     1
290
     0
176
     1
 90
       50
176
     1
 90
       50
176
     1
 90
       50
176
     1
290
     0
176
     1
 90
       50
176
     1
 62
   256
176
     0
 40
1.0
176
     0
 90
        2
176
     1
  1
strokes_ogs.tif
176
     1
290
     0
176
     1
 40
1.0
176
     1
 40
1.0
176
     1
1001
ACAD
1000
AcDbSavedByObjectVersion
1070
     0
  0
VISUALSTYLE
  5
3F
102
{ACAD_REACTORS
330
29
102
}
330
29
100
AcDbVisualStyle
  2
JitterOff
 70
    20
177
     3
291
     1
 70
    58
 90
        2
176
     0
 90
        2
176
     0
 90
        0
176
     0
 90
        0
176
     0
 40
0.6
176
     0
 40
30.0
176
     0
 62
     7
420
 16777215
176
     0
 90
        1
176
     0
 90
        4
176
     0
 62
     7
176
     0
 62
   257
176
     0
 90
        1
176
     0
 90
        1
176
     0
 40
1.0
176
     0
 90
       10
176
     2
 62
     7
176
     0
 40
1.0
176
     0
 90
        1
176
     0
 90
        6
176
     0
 90
        2
176
     0
 62
     7
176
     0
 90
        5
176
     0
 90
        0
176
     0
 90
        0
176
     0
290
     0
176
     0
 90
        1
176
     0
 40
0.0
176
     0
 90
        0
176
     0
290
     0
176
     0
290
     1
176
     0
290
     1
176
     0
290
     0
176
     0
290
     0
176
     0
290
     0
176
     0
290
     0
176
     0
290
     0
176
     0
290
     0
176
     0
 90
       50
176
     0
 40
0.0
176
     0
 40
1.0
176
     0
 90
        0
176
     0
 62
    18
420
        0
176
     0
 90
       50
176
     0
 90
        3
176
     0
 62
     5
420
      255
176
     0
290
     0
176
     0
 90
       50
176
     0
 90
       50
176
     0
 90
       50
176
     0
290
     0
176
     0
 90
       50
176
     0
 62
   256
176
     0
 40
1.0
176
     0
 90
        2
176
     0
  1
strokes_ogs.tif
176
     0
290
     0
176
     0
 40
1.0
176
     0
 40
1.0
176
     0
1001
ACAD
1000
AcDbSavedByObjectVersion
1070
     0
  0
VISUALSTYLE
  5
37
102
{ACAD_REACTORS
330
29
102
}
330
29
100
AcDbVisualStyle
  2
Linepattern
 70
    14
177
     3
291
     1
 70
    58
 90
        2
176
     1
 90
        2
176
     1
 90
        0
176
     1
 90
        0
176
     1
 40
0.6
176
     1
 40
30.0
176
     1
 62
     7
420
 16777215
176
     1
 90
        1
176
     1
 90
        4
176
     1
 62
     7
176
     1
 62
   257
176
     1
 90
        7
176
     1
 90
        7
176
     1
 40
1.0
176
     1
 90
        8
176
     1
 62
     7
176
     1
 40
1.0
176
     1
 90
        1
176
     1
 90
        6
176
     1
 90
        2
176
     1
 62
     7
176
     1
 90
        5
176
     1
 90
        0
176
     1
 90
        0
176
     1
290
     0
176
     1
 90
        1
176
     1
 40
0.0
176
     1
 90
        0
176
     1
290
     0
176
     1
290
     1
176
     1
290
     1
176
     1
290
     0
176
     1
290
     0
176
     1
290
     0
176
     1
290
     0
176
     1
290
     0
176
     1
290
     0
176
     1
 90
       50
176
     1
 40
0.0
176
     1
 40
1.0
176
     1
 90
        0
176
     1
 62
    18
420
        0
176
     1
 90
       50
176
     1
 90
        3
176
     1
 62
     5
420
      255
176
     1
290
     0
176
     1
 90
       50
176
     1
 90
       50
176
     1
 90
       50
176
     1
290
     0
176
     1
 90
       50
176
     1
 62
   256
176
     0
 40
1.0
176
     0
 90
        2
176
     1
  1
strokes_ogs.tif
176
     1
290
     0
176
     1
 40
1.0
176
     1
 40
1.0
176
     1
1001
ACAD
1000
AcDbSavedByObjectVersion
1070
     0
  0
VISUALSTYLE
  5
40
102
{ACAD_REACTORS
330
29
102
}
330
29
100
AcDbVisualStyle
  2
OverhangOff
 70
    21
177
     3
291
     1
 70
    58
 90
        2
176
     0
 90
        2
176
     0
 90
        0
176
     0
 90
        0
176
     0
 40
0.6
176
     0
 40
30.0
176
     0
 62
     7
420
 16777215
176
     0
 90
        1
176
     0
 90
        4
176
     0
 62
     7
176
     0
 62
   257
176
     0
 90
        1
176
     0
 90
        1
176
     0
 40
1.0
176
     0
 90
        9
176
     2
 62
     7
176
     0
 40
1.0
176
     0
 90
        1
176
     0
 90
        6
176
     0
 90
        2
176
     0
 62
     7
176
     0
 90
        5
176
     0
 90
        0
176
     0
 90
        0
176
     0
290
     0
176
     0
 90
        1
176
     0
 40
0.0
176
     0
 90
        0
176
     0
290
     0
176
     0
290
     1
176
     0
290
     1
176
     0
290
     0
176
     0
290
     0
176
     0
290
     0
176
     0
290
     0
176
     0
290
     0
176
     0
290
     0
176
     0
 90
       50
176
     0
 40
0.0
176
     0
 40
1.0
176
     0
 90
        0
176
     0
 62
    18
420
        0
176
     0
 90
       50
176
     0
 90
        3
176
     0
 62
     5
420
      255
176
     0
290
     0
176
     0
 90
       50
176
     0
 90
       50
176
     0
 90
       50
176
     0
290
     0
176
     0
 90
       50
176
     0
 62
   256
176
     0
 40
1.0
176
     0
 90
        2
176
     0
  1
strokes_ogs.tif
176
     0
290
     0
176
     0
 40
1.0
176
     0
 40
1.0
176
     0
1001
ACAD
1000
AcDbSavedByObjectVersion
1070
     0
  0
VISUALSTYLE
  5
33
102
{ACAD_REACTORS
330
29
102
}
330
29
100
AcDbVisualStyle
  2
Realistic
 70
     8
177
     3
291
     0
 70
    58
 90
        2
176
     1
 90
        3
176
     1
 90
        0
176
     1
 90
        2
176
     1
 40
0.6
176
     1
 40
30.0
176
     1
 62
     7
420
 16777215
176
     1
 90
        0
176
     1
 90
        0
176
     1
 62
     7
176
     1
 62
   257
176
     1
 90
        1
176
     1
 90
        1
176
     1
 40
1.0
176
     1
 90
        8
176
     1
 62
   257
176
     1
 40
1.0
176
     1
 90
        1
176
     1
 90
        6
176
     1
 90
        2
176
     1
 62
     7
176
     1
 90
        3
176
     1
 90
        0
176
     1
 90
        0
176
     1
290
     0
176
     1
 90
       13
176
     1
 40
0.0
176
     1
 90
        0
176
     1
290
     0
176
     1
290
     1
176
     1
290
     1
176
     1
290
     0
176
     1
290
     0
176
     1
290
     0
176
     1
290
     0
176
     1
290
     0
176
     1
290
     0
176
     1
 90
       50
176
     1
 40
0.0
176
     1
 40
1.0
176
     1
 90
        0
176
     1
 62
    18
420
        0
176
     1
 90
       50
176
     1
 90
        3
176
     1
 62
     5
420
      255
176
     1
290
     0
176
     1
 90
       50
176
     1
 90
       50
176
     1
 90
       50
176
     1
290
     0
176
     1
 90
       50
176
     1
 62
   256
176
     0
 40
1.0
176
     0
 90
        2
176
     1
  1
strokes_ogs.tif
176
     1
290
     0
176
     1
 40
1.0
176
     1
 40
1.0
176
     1
1001
ACAD
1000
AcDbSavedByObjectVersion
1070
     0
  0
VISUALSTYLE
  5
3E
102
{ACAD_REACTORS
330
29
102
}
330
29
100
AcDbVisualStyle
  2
Shaded
 70
    27
177
     3
291
     0
 70
    58
 90
        2
176
     1
 90
        2
176
     1
 90
        1
176
     1
 90
        2
176
     1
 40
0.6
176
     1
 40
30.0
176
     1
 62
     7
420
 16777215
176
     1
 90
        0
176
     1
 90
        4
176
     1
 62
     7
176
     1
 62
   257
176
     1
 90
        1
176
     1
 90
        1
176
     1
 40
1.0
176
     1
 90
        8
176
     1
 62
   257
176
     1
 40
1.0
176
     1
 90
        1
176
     1
 90
        6
176
     1
 90
        2
176
     1
 62
     8
420
  7895160
176
     1
 90
        3
176
     1
 90
        0
176
     1
 90
        0
176
     1
290
     0
176
     1
 90
        5
176
     1
 40
0.0
176
     1
 90
        0
176
     1
290
     0
176
     1
290
     1
176
     1
290
     1
176
     1
290
     0
176
     1
290
     0
176
     1
290
     0
176
     1
290
     0
176
     1
290
     0
176
     1
290
     0
176
     1
 90
       50
176
     1
 40
0.0
176
     1
 40
1.0
176
     1
 90
        0
176
     1
 62
    18
420
        0
176
     1
 90
       50
176
     1
 90
        3
176
     1
 62
     5
420
      255
176
     1
290
     0
176
     1
 90
       50
176
     1
 90
       50
176
     1
 90
       50
176
     1
290
     0
176
     1
 90
       50
176
     1
 62
   256
176
     0
 40
1.0
176
     0
 90
        2
176
     1
  1
strokes_ogs.tif
176
     1
290
     0
176
     1
 40
1.0
176
     1
 40
1.0
176
     1
1001
ACAD
1000
AcDbSavedByObjectVersion
1070
     0
  0
VISUALSTYLE
  5
3D
102
{ACAD_REACTORS
330
29
102
}
330
29
100
AcDbVisualStyle
  2
Shaded with edges
 70
    26
177
     3
291
     0
 70
    58
 90
        2
176
     1
 90
        2
176
     1
 90
        1
176
     1
 90
        2
176
     1
 40
0.6
176
     1
 40
30.0
176
     1
 62
     7
420
 16777215
176
     1
 90
        1
176
     1
 90
        2
176
     1
 62
     7
176
     1
 62
   257
176
     1
 90
        2
176
     1
 90
        1
176
     1
 40
1.0
176
     1
 90
        8
176
     1
 62
   257
176
     1
 40
1.0
176
     1
 90
        1
176
     1
 90
        6
176
     1
 90
        2
176
     1
 62
     7
176
     1
 90
        3
176
     1
 90
        0
176
     1
 90
        0
176
     1
290
     0
176
     1
 90
        5
176
     1
 40
0.0
176
     1
 90
        0
176
     1
290
     0
176
     1
290
     1
176
     1
290
     1
176
     1
290
     0
176
     1
290
     0
176
     1
290
     0
176
     1
290
     0
176
     1
290
     0
176
     1
290
     0
176
     1
 90
       50
176
     1
 40
0.0
176
     1
 40
1.0
176
     1
 90
        0
176
     1
 62
    18
420
        0
176
     1
 90
       50
176
     1
 90
        3
176
     1
 62
     5
420
      255
176
     1
290
     0
176
     1
 90
       50
176
     1
 90
       50
176
     1
 90
       50
176
     1
290
     0
176
     1
 90
       50
176
     1
 62
   256
176
     0
 40
1.0
176
     0
 90
        2
176
     1
  1
strokes_ogs.tif
176
     1
290
     0
176
     1
 40
1.0
176
     1
 40
1.0
176
     1
1001
ACAD
1000
AcDbSavedByObjectVersion
1070
     0
  0
VISUALSTYLE
  5
3A
102
{ACAD_REACTORS
330
29
102
}
330
29
100
AcDbVisualStyle
  2
Shades of Gray
 70
    23
177
     3
291
     0
 70
    58
 90
        2
176
     1
 90
        2
176
     1
 90
        3
176
     1
 90
        0
176
     1
 40
0.6
176
     1
 40
30.0
176
     1
 62
     7
420
 16777215
176
     1
 90
        2
176
     1
 90
        2
176
     1
 62
     7
176
     1
 62
     7
176
     1
 90
        1
176
     1
 90
        1
176
     1
 40
40.0
176
     1
 90
        8
176
     1
 62
     7
176
     1
 40
1.0
176
     1
 90
        1
176
     1
 90
        6
176
     1
 90
        2
176
     1
 62
     7
176
     1
 90
        3
176
     1
 90
        0
176
     1
 90
        0
176
     1
290
     0
176
     1
 90
        1
176
     1
 40
0.0
176
     1
 90
        0
176
     1
290
     0
176
     1
290
     1
176
     1
290
     1
176
     1
290
     0
176
     1
290
     0
176
     1
290
     0
176
     1
290
     0
176
     1
290
     0
176
     1
290
     0
176
     1
 90
       50
176
     1
 40
0.0
176
     1
 40
1.0
176
     1
 90
        0
176
     1
 62
    18
420
        0
176
     1
 90
       50
176
     1
 90
        3
176
     1
 62
     5
420
      255
176
     1
290
     0
176
     1
 90
       50
176
     1
 90
       50
176
     1
 90
       50
176
     1
290
     0
176
     1
 90
       50
176
     1
 62
   256
176
     0
 40
1.0
176
     0
 90
        2
176
     1
  1
strokes_ogs.tif
176
     1
290
     0
176
     1
 40
1.0
176
     1
 40
1.0
176
     1
1001
ACAD
1000
AcDbSavedByObjectVersion
1070
     0
  0
VISUALSTYLE
  5
3B
102
{ACAD_REACTORS
330
29
102
}
330
29
100
AcDbVisualStyle
  2
Sketchy
 70
    24
177
     3
291
     0
 70
    58
 90
        1
176
     1
 90
        2
176
     1
 90
        2
176
     1
 90
        0
176
     1
 40
0.6
176
     1
 40
30.0
176
     1
 62
     7
420
 16777215
176
     1
 90
        2
176
     1
 90
        2
176
     1
 62
     7
176
     1
 62
     7
176
     1
 90
        1
176
     1
 90
        1
176
     1
 40
40.0
176
     1
 90
       11
176
     1
 62
     7
176
     1
 40
1.0
176
     1
 90
        1
176
     1
 90
        6
176
     1
 90
        2
176
     1
 62
     7
176
     1
 90
        6
176
     1
 90
        0
176
     1
 90
        0
176
     1
290
     0
176
     1
 90
        1
176
     1
 40
0.0
176
     1
 90
        0
176
     1
290
     0
176
     1
290
     1
176
     1
290
     1
176
     1
290
     0
176
     1
290
     0
176
     1
290
     0
176
     1
290
     0
176
     1
290
     0
176
     1
290
     0
176
     1
 90
       50
176
     1
 40
0.0
176
     1
 40
1.0
176
     1
 90
        0
176
     1
 62
    18
420
        0
176
     1
 90
       50
176
     1
 90
        3
176
     1
 62
     5
420
      255
176
     1
290
     0
176
     1
 90
       50
176
     1
 90
       50
176
     1
 90
       50
176
     1
290
     0
176
     1
 90
       50
176
     1
 62
   256
176
     0
 40
1.0
176
     0
 90
        2
176
     1
  1
strokes_ogs.tif
176
     1
290
     0
176
     1
 40
1.0
176
     1
 40
1.0
176
     1
1001
ACAD
1000
AcDbSavedByObjectVersion
1070
     0
  0
VISUALSTYLE
  5
36
102
{ACAD_REACTORS
330
29
102
}
330
29
100
AcDbVisualStyle
  2
Thicken
 70
    13
177
     3
291
     1
 70
    58
 90
        2
176
     1
 90
        2
176
     1
 90
        0
176
     1
 90
        0
176
     1
 40
0.6
176
     1
 40
30.0
176
     1
 62
     7
420
 16777215
176
     1
 90
        1
176
     1
 90
        4
176
     1
 62
     7
176
     1
 62
   257
176
     1
 90
        1
176
     1
 90
        1
176
     1
 40
1.0
176
     1
 90
       12
176
     1
 62
     7
176
     1
 40
1.0
176
     1
 90
        1
176
     1
 90
        6
176
     1
 90
        2
176
     1
 62
     7
176
     1
 90
        5
176
     1
 90
        0
176
     1
 90
        0
176
     1
290
     0
176
     1
 90
        1
176
     1
 40
0.0
176
     1
 90
        0
176
     1
290
     0
176
     1
290
     1
176
     1
290
     1
176
     1
290
     0
176
     1
290
     0
176
     1
290
     0
176
     1
290
     0
176
     1
290
     0
176
     1
290
     0
176
     1
 90
       50
176
     1
 40
0.0
176
     1
 40
1.0
176
     1
 90
        0
176
     1
 62
    18
420
        0
176
     1
 90
       50
176
     1
 90
        3
176
     1
 62
     5
420
      255
176
     1
290
     0
176
     1
 90
       50
176
     1
 90
       50
176
     1
 90
       50
176
     1
290
     0
176
     1
 90
       50
176
     1
 62
   256
176
     0
 40
1.0
176
     0
 90
        2
176
     1
  1
strokes_ogs.tif
176
     1
290
     0
176
     1
 40
1.0
176
     1
 40
1.0
176
     1
1001
ACAD
1000
AcDbSavedByObjectVersion
1070
     0
  0
VISUALSTYLE
  5
30
102
{ACAD_REACTORS
330
29
102
}
330
29
100
AcDbVisualStyle
  2
Wireframe
 70
     5
177
     3
291
     0
 70
    58
 90
        0
176
     1
 90
        2
176
     1
 90
        0
176
     1
 90
        0
176
     1
 40
0.6
176
     1
 40
30.0
176
     1
 62
     7
420
 16777215
176
     1
 90
        1
176
     1
 90
        4
176
     1
 62
     7
176
     1
 62
   257
176
     1
 90
        1
176
     1
 90
        1
176
     1
 40
1.0
176
     1
 90
        0
176
     1
 62
   257
176
     1
 40
1.0
176
     1
 90
        1
176
     1
 90
        6
176
     1
 90
        2
176
     1
 62
     7
176
     1
 90
        3
176
     1
 90
        0
176
     1
 90
        0
176
     1
290
     0
176
     1
 90
        1
176
     1
 40
0.0
176
     1
 90
        0
176
     1
290
     0
176
     1
290
     1
176
     1
290
     1
176
     1
290
     0
176
     1
290
     0
176
     1
290
     0
176
     1
290
     0
176
     1
290
     0
176
     1
290
     0
176
     1
 90
       50
176
     1
 40
0.0
176
     1
 40
1.0
176
     1
 90
        0
176
     1
 62
    18
420
        0
176
     1
 90
       50
176
     1
 90
        3
176
     1
 62
     5
420
      255
176
     1
290
     0
176
     1
 90
       50
176
     1
 90
       50
176
     1
 90
       50
176
     1
290
     0
176
     1
 90
       50
176
     1
 62
   256
176
     0
 40
1.0
176
     0
 90
        2
176
     1
  1
strokes_ogs.tif
176
     1
290
     0
176
     1
 40
1.0
176
     1
 40
1.0
176
     1
1001
ACAD
1000
AcDbSavedByObjectVersion
1070
     0
  0
VISUALSTYLE
  5
3C
102
{ACAD_REACTORS
330
29
102
}
330
29
100
AcDbVisualStyle
  2
X-Ray
 70
    25
177
     3
291
     0
 70
    58
 90
        2
176
     1
 90
        2
176
     1
 90
        1
176
     1
 90
        1
176
     1
 40
0.5
176
     1
 40
30.0
176
     1
 62
     7
420
 16777215
176
     1
 90
        1
176
     1
 90
        0
176
     1
 62
     7
176
     1
 62
   257
176
     1
 90
        1
176
     1
 90
        1
176
     1
 40
1.0
176
     1
 90
        8
176
     1
 62
     7
176
     1
 40
1.0
176
     1
 90
        1
176
     1
 90
        6
176
     1
 90
        2
176
     1
 62
     7
176
     1
 90
        3
176
     1
 90
        0
176
     1
 90
        0
176
     1
290
     0
176
     1
 90
       13
176
     1
 40
0.0
176
     1
 90
        0
176
     1
290
     0
176
     1
290
     1
176
     1
290
     1
176
     1
290
     0
176
     1
290
     0
176
     1
290
     0
176
     1
290
     0
176
     1
290
     0
176
     1
290
     0
176
     1
 90
       50
176
     1
 40
0.0
176
     1
 40
1.0
176
     1
 90
        0
176
     1
 62
    18
420
        0
176
     1
 90
       50
176
     1
 90
        3
176
     1
 62
     5
420
      255
176
     1
290
     0
176
     1
 90
       50
176
     1
 90
       50
176
     1
 90
       50
176
     1
290
     0
176
     1
 90
       50
176
     1
 62
   256
176
     0
 40
1.0
176
     0
 90
        2
176
     1
  1
strokes_ogs.tif
176
     1
290
     0
176
     1
 40
1.0
176
     1
 40
1.0
176
     1
1001
ACAD
1000
AcDbSavedByObjectVersion
1070
     0
  0
DICTIONARYVAR
  5
8A
102
{ACAD_REACTORS
330
85
102
}
330
85
100
DictionaryVariables
280
     0
  1
1:1
  0
DICTIONARYVAR
  5
87
102
{ACAD_REACTORS
330
85
102
}
330
85
100
DictionaryVariables
280
     0
  1
STANDARD
  0
DICTIONARYVAR
  5
86
102
{ACAD_REACTORS
330
85
102
}
330
85
100
DictionaryVariables
280
     0
  1
STANDARD
  0
DICTIONARYVAR
  5
88
102
{ACAD_REACTORS
330
85
102
}
330
85
100
DictionaryVariables
280
     0
  1
Imperial24
  0
DICTIONARYVAR
  5
89
102
{ACAD_REACTORS
330
85
102
}
330
85
100
DictionaryVariables
280
     0
  1
Imperial24
  0
DICTIONARY
  5
90
330
6B
100
AcDbDictionary
280
     1
281
     1
  3
ACAD_XREC_ROUNDTRIP
360
91
  0
DICTIONARY
  5
1A
330
19
100
AcDbDictionary
280
     1
281
     1
  3
BUMPTILE
360
1C
  3
DIFFUSETILE
360
1B
  3
OPACITYTILE
360
1F
  3
REFLECTIONTILE
360
1E
  3
REFRACTIONTILE
360
20
  3
SPECULARTILE
360
1D
  0
DICTIONARY
  5
12
330
11
100
AcDbDictionary
280
     1
281
     1
  3
BUMPTILE
360
14
  3
DIFFUSETILE
360
13
  3
OPACITYTILE
360
17
  3
REFLECTIONTILE
360
16
  3
REFRACTIONTILE
360
18
  3
SPECULARTILE
360
15
  0
DICTIONARY
  5
22
330
21
100
AcDbDictionary
280
     1
281
     1
  3
BUMPTILE
360
24
  3
DIFFUSETILE
360
23
  3
OPACITYTILE
360
27
  3
REFLECTIONTILE
360
26
  3
REFRACTIONTILE
360
28
  3
SPECULARTILE
360
25
  0
DICTIONARY
  5
8E
330
69
100
AcDbDictionary
280
     1
281
     1
  3
ACAD_XREC_ROUNDTRIP
360
8F
  0
DICTIONARY
  5
8B
330
65
100
AcDbDictionary
280
     1
281
     1
  3
ACAD_ROUNDTRIP_2008_TABLESTYLE_CELLSTYLEMAP
360
8C
  0
XRECORD
  5
91
102
{ACAD_REACTORS
330
90
102
}
330
90
100
AcDbXrecord
280
     1
102
DISPLAYNAME
  1
Imperial24
102
FLAGS
 90
        0
  0
XRECORD
  5
1C
102
{ACAD_REACTORS
330
1A
102
}
330
1A
100
AcDbXrecord
280
     1
270
     1
271
     1
  0
XRECORD
  5
1B
102
{ACAD_REACTORS
330
1A
102
}
330
1A
100
AcDbXrecord
280
     1
270
     1
271
     1
  0
XRECORD
  5
1F
102
{ACAD_REACTORS
330
1A
102
}
330
1A
100
AcDbXrecord
280
     1
270
     1
271
     1
  0
XRECORD
  5
1E
102
{ACAD_REACTORS
330
1A
102
}
330
1A
100
AcDbXrecord
280
     1
270
     1
271
     1
  0
XRECORD
  5
20
102
{ACAD_REACTORS
330
1A
102
}
330
1A
100
AcDbXrecord
280
     1
270
     1
271
     1
  0
XRECORD
  5
1D
102
{ACAD_REACTORS
330
1A
102
}
330
1A
100
AcDbXrecord
280
     1
270
     1
271
     1
  0
XRECORD
  5
14
102
{ACAD_REACTORS
330
12
102
}
330
12
100
AcDbXrecord
280
     1
270
     1
271
     1
  0
XRECORD
  5
13
102
{ACAD_REACTORS
330
12
102
}
330
12
100
AcDbXrecord
280
     1
270
     1
271
     1
  0
XRECORD
  5
17
102
{ACAD_REACTORS
330
12
102
}
330
12
100
AcDbXrecord
280
     1
270
     1
271
     1
  0
XRECORD
  5
16
102
{ACAD_REACTORS
330
12
102
}
330
12
100
AcDbXrecord
280
     1
270
     1
271
     1
  0
XRECORD
  5
18
102
{ACAD_REACTORS
330
12
102
}
330
12
100
AcDbXrecord
280
     1
270
     1
271
     1
  0
XRECORD
  5
15
102
{ACAD_REACTORS
330
12
102
}
330
12
100
AcDbXrecord
280
     1
270
     1
271
     1
  0
XRECORD
  5
24
102
{ACAD_REACTORS
330
22
102
}
330
22
100
AcDbXrecord
280
     1
270
     1
271
     1
  0
XRECORD
  5
23
102
{ACAD_REACTORS
330
22
102
}
330
22
100
AcDbXrecord
280
     1
270
     1
271
     1
  0
XRECORD
  5
27
102
{ACAD_REACTORS
330
22
102
}
330
22
100
AcDbXrecord
280
     1
270
     1
271
     1
  0
XRECORD
  5
26
102
{ACAD_REACTORS
330
22
102
}
330
22
100
AcDbXrecord
280
     1
270
     1
271
     1
  0
XRECORD
  5
28
102
{ACAD_REACTORS
330
22
102
}
330
22
100
AcDbXrecord
280
     1
270
     1
271
     1
  0
XRECORD
  5
25
102
{ACAD_REACTORS
330
22
102
}
330
22
100
AcDbXrecord
280
     1
270
     1
271
     1
  0
XRECORD
  5
8F
102
{ACAD_REACTORS
330
8E
102
}
330
8E
100
AcDbXrecord
280
     1
102
DISPLAYNAME
  1
Imperial24
102
FLAGS
 90
        0
  0
CELLSTYLEMAP
  5
8C
102
{ACAD_REACTORS
330
8B
102
}
330
8B
100
AcDbCellStyleMap
 90
        3
300
CELLSTYLE
  1
TABLEFORMAT_BEGIN
 90
        5
170
     1
 91
        0
 92
    32768
 62
   257
 93
        1
300
CONTENTFORMAT
  1
CONTENTFORMAT_BEGIN
 90
        0
 91
        0
 92
      512
 93
        0
300

 40
0.0
140
1.0
 94
        5
 62
     0
340
55
144
0.25
309
CONTENTFORMAT_END
171
     0
 94
        0
309
TABLEFORMAT_END
  1
CELLSTYLE_BEGIN
 90
        1
 91
        1
300
_TITLE
309
CELLSTYLE_END
300
CELLSTYLE
  1
TABLEFORMAT_BEGIN
 90
        5
170
     1
 91
        0
 92
        0
 62
   257
 93
        1
300
CONTENTFORMAT
  1
CONTENTFORMAT_BEGIN
 90
        0
 91
        0
 92
      512
 93
        0
300

 40
0.0
140
1.0
 94
        5
 62
     0
340
55
144
0.18
309
CONTENTFORMAT_END
171
     0
 94
        0
309
TABLEFORMAT_END
  1
CELLSTYLE_BEGIN
 90
        2
 91
        1
300
_HEADER
309
CELLSTYLE_END
300
CELLSTYLE
  1
TABLEFORMAT_BEGIN
 90
        5
170
     1
 91
        0
 92
        0
 62
   257
 93
        1
300
CONTENTFORMAT
  1
CONTENTFORMAT_BEGIN
 90
        0
 91
        0
 92
      512
 93
        0
300

 40
0.0
140
1.0
 94
        2
 62
     0
340
55
144
0.18
309
CONTENTFORMAT_END
171
     0
 94
        0
309
TABLEFORMAT_END
  1
CELLSTYLE_BEGIN
 90
        3
 91
        2
300
_DATA
309
CELLSTYLE_END
  0
ENDSEC
  0
EOF
