%TF.GenerationSoftware,KiCad,Pcbnew,7.99.0-3134-gf47cc39208*%
%TF.CreationDate,2023-12-05T20:49:35+00:00*%
%TF.ProjectId,hh2024,68683230-3234-42e6-9b69-6361645f7063,rev?*%
%TF.SameCoordinates,Original*%
%TF.FileFunction,Soldermask,Bot*%
%TF.FilePolarity,Negative*%
%FSLAX46Y46*%
G04 Gerber Fmt 4.6, Leading zero omitted, Abs format (unit mm)*
G04 Created by KiCad (PCBNEW 7.99.0-3134-gf47cc39208) date 2023-12-05 20:49:35*
%MOMM*%
%LPD*%
G01*
G04 APERTURE LIST*
G04 Aperture macros list*
%AMRoundRect*
0 Rectangle with rounded corners*
0 $1 Rounding radius*
0 $2 $3 $4 $5 $6 $7 $8 $9 X,Y pos of 4 corners*
0 Add a 4 corners polygon primitive as box body*
4,1,4,$2,$3,$4,$5,$6,$7,$8,$9,$2,$3,0*
0 Add four circle primitives for the rounded corners*
1,1,$1+$1,$2,$3*
1,1,$1+$1,$4,$5*
1,1,$1+$1,$6,$7*
1,1,$1+$1,$8,$9*
0 Add four rect primitives between the rounded corners*
20,1,$1+$1,$2,$3,$4,$5,0*
20,1,$1+$1,$4,$5,$6,$7,0*
20,1,$1+$1,$6,$7,$8,$9,0*
20,1,$1+$1,$8,$9,$2,$3,0*%
%AMRotRect*
0 Rectangle, with rotation*
0 The origin of the aperture is its center*
0 $1 length*
0 $2 width*
0 $3 Rotation angle, in degrees counterclockwise*
0 Add horizontal line*
21,1,$1,$2,0,0,$3*%
G04 Aperture macros list end*
%ADD10C,1.592146*%
%ADD11C,1.681336*%
%ADD12C,1.701999*%
%ADD13C,1.780030*%
%ADD14C,1.710776*%
%ADD15C,1.632645*%
%ADD16C,1.810000*%
%ADD17C,1.900111*%
%ADD18C,1.656310*%
%ADD19C,1.590537*%
%ADD20C,1.606519*%
%ADD21C,1.580304*%
%ADD22C,1.630294*%
%ADD23C,1.770000*%
%ADD24C,1.840460*%
%ADD25C,1.611192*%
%ADD26C,1.880112*%
%ADD27C,1.740122*%
%ADD28C,1.670127*%
%ADD29C,1.833243*%
%ADD30R,0.770000X0.950000*%
%ADD31RoundRect,0.250000X0.262500X0.450000X-0.262500X0.450000X-0.262500X-0.450000X0.262500X-0.450000X0*%
%ADD32R,1.000000X1.300000*%
%ADD33R,0.900000X3.000000*%
%ADD34RotRect,1.200000X0.800000X45.000000*%
%ADD35C,1.100000*%
%ADD36RotRect,1.200000X0.800000X315.000000*%
%ADD37RoundRect,0.112500X0.112500X-0.187500X0.112500X0.187500X-0.112500X0.187500X-0.112500X-0.187500X0*%
%ADD38RoundRect,0.250000X-0.262500X-0.450000X0.262500X-0.450000X0.262500X0.450000X-0.262500X0.450000X0*%
%ADD39RoundRect,0.250000X-0.250000X-0.475000X0.250000X-0.475000X0.250000X0.475000X-0.250000X0.475000X0*%
%ADD40RoundRect,0.250000X-0.450000X0.262500X-0.450000X-0.262500X0.450000X-0.262500X0.450000X0.262500X0*%
%ADD41R,1.000000X1.000000*%
%ADD42R,2.000000X2.000000*%
%ADD43R,0.800000X0.800000*%
%ADD44R,1.500000X0.900000*%
%ADD45RoundRect,0.150000X-0.587500X-0.150000X0.587500X-0.150000X0.587500X0.150000X-0.587500X0.150000X0*%
%ADD46RoundRect,0.150000X0.587500X0.150000X-0.587500X0.150000X-0.587500X-0.150000X0.587500X-0.150000X0*%
%ADD47R,1.100000X1.900000*%
%ADD48R,0.700000X2.500000*%
%ADD49RoundRect,0.250000X0.450000X-0.262500X0.450000X0.262500X-0.450000X0.262500X-0.450000X-0.262500X0*%
%ADD50RoundRect,0.250000X0.250000X0.475000X-0.250000X0.475000X-0.250000X-0.475000X0.250000X-0.475000X0*%
%ADD51RoundRect,0.150000X-0.150000X0.512500X-0.150000X-0.512500X0.150000X-0.512500X0.150000X0.512500X0*%
%ADD52C,2.000000*%
%ADD53O,1.700000X1.700000*%
%ADD54RoundRect,0.112500X-0.112500X0.187500X-0.112500X-0.187500X0.112500X-0.187500X0.112500X0.187500X0*%
%ADD55O,2.100000X1.000000*%
%ADD56O,1.600000X1.000000*%
%ADD57R,1.450000X0.600000*%
%ADD58R,1.450000X0.300000*%
%ADD59C,0.650000*%
%ADD60RoundRect,0.137500X-0.137500X-0.662500X0.137500X-0.662500X0.137500X0.662500X-0.137500X0.662500X0*%
%ADD61R,2.200000X1.800000*%
%ADD62R,1.300000X0.300000*%
%ADD63RoundRect,0.250000X0.475000X-0.250000X0.475000X0.250000X-0.475000X0.250000X-0.475000X-0.250000X0*%
%ADD64RoundRect,0.150000X0.150000X-0.512500X0.150000X0.512500X-0.150000X0.512500X-0.150000X-0.512500X0*%
%ADD65R,0.500000X0.500000*%
%ADD66R,0.700000X1.000000*%
%ADD67RoundRect,0.250000X1.075000X-0.375000X1.075000X0.375000X-1.075000X0.375000X-1.075000X-0.375000X0*%
%ADD68RoundRect,0.250000X-0.475000X0.250000X-0.475000X-0.250000X0.475000X-0.250000X0.475000X0.250000X0*%
%ADD69R,1.500000X0.700000*%
%ADD70R,0.800000X1.000000*%
%ADD71C,0.900000*%
%ADD72RoundRect,0.375000X-0.625000X0.375000X-0.625000X-0.375000X0.625000X-0.375000X0.625000X0.375000X0*%
%ADD73RoundRect,0.200000X-0.550000X0.200000X-0.550000X-0.200000X0.550000X-0.200000X0.550000X0.200000X0*%
%ADD74RoundRect,0.243750X-0.456250X0.243750X-0.456250X-0.243750X0.456250X-0.243750X0.456250X0.243750X0*%
%ADD75R,1.650000X1.650000*%
%ADD76RoundRect,0.050000X0.050000X0.375000X-0.050000X0.375000X-0.050000X-0.375000X0.050000X-0.375000X0*%
%ADD77RoundRect,0.050000X0.375000X0.050000X-0.375000X0.050000X-0.375000X-0.050000X0.375000X-0.050000X0*%
G04 APERTURE END LIST*
D10*
X120366073Y-114720000D02*
G75*
G02*
X120366073Y-114720000I-796073J0D01*
G01*
D11*
X145190668Y-114795000D02*
G75*
G02*
X145190668Y-114795000I-840668J0D01*
G01*
D12*
X137020999Y-103650000D02*
G75*
G02*
X137020999Y-103650000I-850999J0D01*
G01*
D13*
X124710015Y-131210000D02*
G75*
G02*
X124710015Y-131210000I-890015J0D01*
G01*
D14*
X124705388Y-109290000D02*
G75*
G02*
X124705388Y-109290000I-855388J0D01*
G01*
D15*
X132806322Y-131210000D02*
G75*
G02*
X132806322Y-131210000I-816322J0D01*
G01*
D16*
X128805000Y-125790000D02*
G75*
G02*
X128805000Y-125790000I-905000J0D01*
G01*
D17*
X132980055Y-97880000D02*
G75*
G02*
X132980055Y-97880000I-950055J0D01*
G01*
D18*
X137018155Y-136840000D02*
G75*
G02*
X137018155Y-136840000I-828155J0D01*
G01*
D19*
X136945268Y-114770000D02*
G75*
G02*
X136945268Y-114770000I-795268J0D01*
G01*
D20*
X128693259Y-136860000D02*
G75*
G02*
X128693259Y-136860000I-803259J0D01*
G01*
D21*
X132790152Y-142630000D02*
G75*
G02*
X132790152Y-142630000I-790152J0D01*
G01*
D22*
X132805147Y-109330000D02*
G75*
G02*
X132805147Y-109330000I-815147J0D01*
G01*
D23*
X137015000Y-125810000D02*
G75*
G02*
X137015000Y-125810000I-885000J0D01*
G01*
D24*
X141130230Y-131200000D02*
G75*
G02*
X141130230Y-131200000I-920230J0D01*
G01*
D23*
X120425000Y-125810000D02*
G75*
G02*
X120425000Y-125810000I-885000J0D01*
G01*
D25*
X128705596Y-114770000D02*
G75*
G02*
X128705596Y-114770000I-805596J0D01*
G01*
D26*
X141160056Y-109320000D02*
G75*
G02*
X141160056Y-109320000I-940056J0D01*
G01*
D27*
X128760061Y-103650000D02*
G75*
G02*
X128760061Y-103650000I-870061J0D01*
G01*
D28*
X145195063Y-125780000D02*
G75*
G02*
X145195063Y-125780000I-835063J0D01*
G01*
D29*
X158934079Y-46800000D02*
G75*
G02*
X158934079Y-46800000I-916621J0D01*
G01*
D30*
%TO.C,D8*%
X136990000Y-102725000D03*
X135360000Y-102725000D03*
%TD*%
D31*
%TO.C,R23*%
X149455500Y-124460000D03*
X151280500Y-124460000D03*
%TD*%
D32*
%TO.C,SW2*%
X119133000Y-150144000D03*
X117133000Y-150144000D03*
X121133000Y-150144000D03*
X115133000Y-150144000D03*
D33*
X122833000Y-151594000D03*
D34*
X121813000Y-154204000D03*
D35*
X120033000Y-152094000D03*
X116233000Y-152094000D03*
D36*
X114453000Y-154204000D03*
D33*
X113433000Y-151594000D03*
%TD*%
D37*
%TO.C,D2*%
X149037000Y-77055000D03*
X149037000Y-79155000D03*
%TD*%
D38*
%TO.C,R7*%
X144676500Y-66548000D03*
X142851500Y-66548000D03*
%TD*%
D30*
%TO.C,D12*%
X128695000Y-102705000D03*
X127065000Y-102705000D03*
%TD*%
D39*
%TO.C,C7*%
X108747700Y-98321750D03*
X106847700Y-98321750D03*
%TD*%
%TO.C,C21*%
X159700000Y-58420000D03*
X157800000Y-58420000D03*
%TD*%
%TO.C,C16*%
X159700000Y-55880000D03*
X157800000Y-55880000D03*
%TD*%
D38*
%TO.C,R18*%
X108634000Y-106449750D03*
X106809000Y-106449750D03*
%TD*%
D39*
%TO.C,C22*%
X159700000Y-53340000D03*
X157800000Y-53340000D03*
%TD*%
D40*
%TO.C,R39*%
X132450000Y-80162500D03*
X132450000Y-78337500D03*
%TD*%
D30*
%TO.C,D22*%
X118755000Y-126765000D03*
X120385000Y-126765000D03*
%TD*%
D41*
%TO.C,GPIO 23*%
X120890000Y-63740000D03*
%TD*%
D31*
%TO.C,R27*%
X149455500Y-121920000D03*
X151280500Y-121920000D03*
%TD*%
D38*
%TO.C,R15*%
X125274900Y-79965100D03*
X123449900Y-79965100D03*
%TD*%
%TO.C,R12*%
X143558900Y-87081400D03*
X141733900Y-87081400D03*
%TD*%
D31*
%TO.C,R25*%
X149455500Y-127000000D03*
X151280500Y-127000000D03*
%TD*%
D42*
%TO.C,GND*%
X165000000Y-133000000D03*
%TD*%
D30*
%TO.C,D9*%
X120340000Y-113795000D03*
X118710000Y-113795000D03*
%TD*%
D31*
%TO.C,R32*%
X116054500Y-54737000D03*
X117879500Y-54737000D03*
%TD*%
D43*
%TO.C,U1*%
X132010000Y-59327000D03*
X132010000Y-60577000D03*
X132010000Y-61827000D03*
X133260000Y-59327000D03*
X133260000Y-60577000D03*
X133260000Y-61827000D03*
X134510000Y-59327000D03*
X134510000Y-60577000D03*
X134510000Y-61827000D03*
D44*
X123005000Y-54857000D03*
X123005000Y-56127000D03*
X123005000Y-57397000D03*
X123005000Y-58667000D03*
X123005000Y-59937000D03*
X123005000Y-61207000D03*
X123005000Y-62477000D03*
X123005000Y-63747000D03*
X123005000Y-65017000D03*
X123005000Y-66287000D03*
X123005000Y-67557000D03*
X123005000Y-68827000D03*
X123005000Y-70097000D03*
X123005000Y-71367000D03*
X140505000Y-71367000D03*
X140505000Y-70097000D03*
X140505000Y-68827000D03*
X140505000Y-67557000D03*
X140505000Y-66287000D03*
X140505000Y-65017000D03*
X140505000Y-63747000D03*
X140505000Y-62477000D03*
X140505000Y-61207000D03*
X140505000Y-59937000D03*
X140505000Y-58667000D03*
X140505000Y-57397000D03*
X140505000Y-56127000D03*
X140505000Y-54857000D03*
%TD*%
D45*
%TO.C,Q1*%
X131703000Y-85197500D03*
X129828000Y-84247500D03*
X129828000Y-86147500D03*
%TD*%
D41*
%TO.C,DOUT*%
X154800000Y-48000000D03*
%TD*%
D46*
%TO.C,Q3*%
X117505000Y-76642000D03*
X119380000Y-77592000D03*
X119380000Y-75692000D03*
%TD*%
D47*
%TO.C,J5*%
X108311500Y-113605750D03*
X113711500Y-113605750D03*
D48*
X110261500Y-110005750D03*
X111761500Y-110005750D03*
%TD*%
D49*
%TO.C,R8*%
X119380000Y-71120000D03*
X119380000Y-72945000D03*
%TD*%
D50*
%TO.C,C13*%
X106837500Y-102404500D03*
X108737500Y-102404500D03*
%TD*%
D32*
%TO.C,SW4*%
X147145000Y-149710500D03*
X145145000Y-149710500D03*
X149145000Y-149710500D03*
X143145000Y-149710500D03*
D33*
X150845000Y-151160500D03*
D34*
X149825000Y-153770500D03*
D35*
X148045000Y-151660500D03*
X144245000Y-151660500D03*
D36*
X142465000Y-153770500D03*
D33*
X141445000Y-151160500D03*
%TD*%
D38*
%TO.C,R20*%
X125224100Y-82022500D03*
X123399100Y-82022500D03*
%TD*%
D31*
%TO.C,R35*%
X116054500Y-56769000D03*
X117879500Y-56769000D03*
%TD*%
D49*
%TO.C,R6*%
X143256000Y-55983500D03*
X143256000Y-57808500D03*
%TD*%
D50*
%TO.C,C5*%
X145148400Y-88267900D03*
X147048400Y-88267900D03*
%TD*%
D51*
%TO.C,U2*%
X145148400Y-86230400D03*
X147048400Y-86230400D03*
X147048400Y-83955400D03*
X146098400Y-83955400D03*
X145148400Y-83955400D03*
%TD*%
D50*
%TO.C,C10*%
X141696400Y-82890400D03*
X143596400Y-82890400D03*
%TD*%
D38*
%TO.C,R22*%
X158265500Y-64262000D03*
X156440500Y-64262000D03*
%TD*%
D30*
%TO.C,D17*%
X143520000Y-126670000D03*
X145150000Y-126670000D03*
%TD*%
D52*
%TO.C,K1*%
X104550000Y-95210000D03*
X114710000Y-95210000D03*
X117250000Y-95210000D03*
X117250000Y-87590000D03*
X114710000Y-87590000D03*
X104550000Y-87590000D03*
%TD*%
D40*
%TO.C,R16*%
X127766000Y-86110000D03*
X127766000Y-84285000D03*
%TD*%
D38*
%TO.C,R19*%
X108700000Y-104436500D03*
X106875000Y-104436500D03*
%TD*%
D37*
%TO.C,D3*%
X150180000Y-70070000D03*
X150180000Y-72170000D03*
%TD*%
D31*
%TO.C,R30*%
X161565500Y-117738000D03*
X163390500Y-117738000D03*
%TD*%
D30*
%TO.C,D15*%
X131185000Y-143605000D03*
X132815000Y-143605000D03*
%TD*%
D31*
%TO.C,R29*%
X161565500Y-119770000D03*
X163390500Y-119770000D03*
%TD*%
D32*
%TO.C,SW1*%
X105133000Y-150144000D03*
X103133000Y-150144000D03*
X107133000Y-150144000D03*
X101133000Y-150144000D03*
D33*
X108833000Y-151594000D03*
D34*
X107813000Y-154204000D03*
D35*
X106033000Y-152094000D03*
X102233000Y-152094000D03*
D36*
X100453000Y-154204000D03*
D33*
X99433000Y-151594000D03*
%TD*%
D41*
%TO.C,GND*%
X156900000Y-50000000D03*
%TD*%
D30*
%TO.C,D20*%
X135345000Y-126755000D03*
X136975000Y-126755000D03*
%TD*%
D31*
%TO.C,R28*%
X161565500Y-121802000D03*
X163390500Y-121802000D03*
%TD*%
%TO.C,R24*%
X149455500Y-116840000D03*
X151280500Y-116840000D03*
%TD*%
%TO.C,R33*%
X119350000Y-59925000D03*
X121175000Y-59925000D03*
%TD*%
D30*
%TO.C,D5*%
X128715000Y-113795000D03*
X127085000Y-113795000D03*
%TD*%
D39*
%TO.C,C19*%
X160655000Y-69850000D03*
X158755000Y-69850000D03*
%TD*%
D41*
%TO.C,TP3*%
X121450000Y-77325000D03*
%TD*%
D45*
%TO.C,Q2*%
X160642500Y-75565000D03*
X158767500Y-74615000D03*
X158767500Y-76515000D03*
%TD*%
D32*
%TO.C,SW3*%
X133133000Y-150144000D03*
X131133000Y-150144000D03*
X135133000Y-150144000D03*
X129133000Y-150144000D03*
D33*
X136833000Y-151594000D03*
D34*
X135813000Y-154204000D03*
D35*
X134033000Y-152094000D03*
X130233000Y-152094000D03*
D36*
X128453000Y-154204000D03*
D33*
X127433000Y-151594000D03*
%TD*%
D37*
%TO.C,D1*%
X121361200Y-83125600D03*
X121361200Y-85225600D03*
%TD*%
D49*
%TO.C,R36*%
X156900000Y-78687500D03*
X156900000Y-80512500D03*
%TD*%
D53*
%TO.C,J1*%
X166385000Y-91943000D03*
X166385000Y-89403000D03*
X163845000Y-91943000D03*
X163845000Y-89403000D03*
X161305000Y-91943000D03*
X161305000Y-89403000D03*
%TD*%
D40*
%TO.C,R40*%
X137250000Y-80162500D03*
X137250000Y-78337500D03*
%TD*%
D54*
%TO.C,D4*%
X153990000Y-72170000D03*
X153990000Y-70070000D03*
%TD*%
D31*
%TO.C,R10*%
X142851500Y-72644000D03*
X144676500Y-72644000D03*
%TD*%
%TO.C,R26*%
X149455500Y-119380000D03*
X151280500Y-119380000D03*
%TD*%
D30*
%TO.C,D14*%
X132790000Y-108415000D03*
X131160000Y-108415000D03*
%TD*%
%TO.C,D13*%
X141065000Y-108450000D03*
X139435000Y-108450000D03*
%TD*%
D55*
%TO.C,J4*%
X98620000Y-86120000D03*
D56*
X94440000Y-86120000D03*
D55*
X98620000Y-94760000D03*
D56*
X94440000Y-94760000D03*
D57*
X99535000Y-93690000D03*
X99535000Y-92890000D03*
D58*
X99535000Y-92190000D03*
X99535000Y-91190000D03*
X99535000Y-89690000D03*
X99535000Y-88690000D03*
D57*
X99535000Y-87990000D03*
X99535000Y-87190000D03*
X99535000Y-87190000D03*
X99535000Y-87990000D03*
D58*
X99535000Y-89190000D03*
X99535000Y-90190000D03*
X99535000Y-90690000D03*
X99535000Y-91690000D03*
D57*
X99535000Y-92890000D03*
X99535000Y-93690000D03*
D59*
X98090000Y-87550000D03*
X98090000Y-93330000D03*
%TD*%
D49*
%TO.C,R4*%
X101900000Y-92067500D03*
X101900000Y-93892500D03*
%TD*%
D60*
%TO.C,L1*%
X146292400Y-82001400D03*
X144842400Y-82001400D03*
%TD*%
D61*
%TO.C,J6*%
X167050000Y-73650000D03*
X167050000Y-58350000D03*
D62*
X163800000Y-71750000D03*
X163800000Y-71250000D03*
X163800000Y-70750000D03*
X163800000Y-70250000D03*
X163800000Y-69750000D03*
X163800000Y-69250000D03*
X163800000Y-68750000D03*
X163800000Y-68250000D03*
X163800000Y-67750000D03*
X163800000Y-67250000D03*
X163800000Y-66750000D03*
X163800000Y-66250000D03*
X163800000Y-65750000D03*
X163800000Y-65250000D03*
X163800000Y-64750000D03*
X163800000Y-64250000D03*
X163800000Y-63750000D03*
X163800000Y-63250000D03*
X163800000Y-62750000D03*
X163800000Y-62250000D03*
X163800000Y-61750000D03*
X163800000Y-61250000D03*
X163800000Y-60750000D03*
X163800000Y-60250000D03*
%TD*%
D63*
%TO.C,C2*%
X154900000Y-117450000D03*
X154900000Y-119350000D03*
%TD*%
D38*
%TO.C,R13*%
X112190000Y-99845750D03*
X110365000Y-99845750D03*
%TD*%
D30*
%TO.C,D16*%
X139375000Y-132095000D03*
X141005000Y-132095000D03*
%TD*%
D64*
%TO.C,U3*%
X112227500Y-102131750D03*
X110327500Y-102131750D03*
X110327500Y-104406750D03*
X111277500Y-104406750D03*
X112227500Y-104406750D03*
%TD*%
D31*
%TO.C,R43*%
X161565500Y-123834000D03*
X163390500Y-123834000D03*
%TD*%
D65*
%TO.C,D26*%
X158430000Y-48250000D03*
D66*
X159510000Y-48000000D03*
D65*
X157580000Y-48250000D03*
D66*
X156500000Y-48000000D03*
%TD*%
D39*
%TO.C,C18*%
X160655000Y-72390000D03*
X158755000Y-72390000D03*
%TD*%
D30*
%TO.C,D10*%
X136965000Y-113795000D03*
X135335000Y-113795000D03*
%TD*%
D50*
%TO.C,C11*%
X141696400Y-80858400D03*
X143596400Y-80858400D03*
%TD*%
D63*
%TO.C,C1*%
X145338800Y-55946000D03*
X145338800Y-57846000D03*
%TD*%
D38*
%TO.C,R14*%
X115746000Y-102248750D03*
X113921000Y-102248750D03*
%TD*%
D30*
%TO.C,D24*%
X123015000Y-132135000D03*
X124645000Y-132135000D03*
%TD*%
D40*
%TO.C,R34*%
X147370800Y-57808500D03*
X147370800Y-55983500D03*
%TD*%
D30*
%TO.C,D23*%
X127085000Y-137765000D03*
X128715000Y-137765000D03*
%TD*%
D42*
%TO.C,SWIO*%
X165000000Y-127000000D03*
%TD*%
D39*
%TO.C,C8*%
X143596400Y-84922400D03*
X141696400Y-84922400D03*
%TD*%
D49*
%TO.C,R38*%
X129750000Y-78337500D03*
X129750000Y-80162500D03*
%TD*%
D67*
%TO.C,L2*%
X159705000Y-78610000D03*
X159705000Y-81410000D03*
%TD*%
D41*
%TO.C,3.3V*%
X159000000Y-50000000D03*
%TD*%
D38*
%TO.C,R3*%
X160912500Y-95000000D03*
X159087500Y-95000000D03*
%TD*%
%TO.C,R21*%
X155532500Y-76962000D03*
X153707500Y-76962000D03*
%TD*%
D63*
%TO.C,C20*%
X158496000Y-60518000D03*
X158496000Y-62418000D03*
%TD*%
D30*
%TO.C,D21*%
X127085000Y-126735000D03*
X128715000Y-126735000D03*
%TD*%
D37*
%TO.C,D25*%
X117602000Y-80738000D03*
X117602000Y-82838000D03*
%TD*%
D31*
%TO.C,R9*%
X142851500Y-76200000D03*
X144676500Y-76200000D03*
%TD*%
D68*
%TO.C,C23*%
X167000000Y-54950000D03*
X167000000Y-53050000D03*
%TD*%
D50*
%TO.C,C4*%
X142814000Y-69088000D03*
X144714000Y-69088000D03*
%TD*%
D39*
%TO.C,C9*%
X108737500Y-100353750D03*
X106837500Y-100353750D03*
%TD*%
D30*
%TO.C,D18*%
X131185000Y-132135000D03*
X132815000Y-132135000D03*
%TD*%
D32*
%TO.C,SW5*%
X161145000Y-149710500D03*
X159145000Y-149710500D03*
X163145000Y-149710500D03*
X157145000Y-149710500D03*
D33*
X164845000Y-151160500D03*
D34*
X163825000Y-153770500D03*
D35*
X162045000Y-151660500D03*
X158245000Y-151660500D03*
D36*
X156465000Y-153770500D03*
D33*
X155445000Y-151160500D03*
%TD*%
D30*
%TO.C,D6*%
X145165000Y-113820000D03*
X143535000Y-113820000D03*
%TD*%
D63*
%TO.C,C15*%
X165000000Y-53050000D03*
X165000000Y-54950000D03*
%TD*%
D31*
%TO.C,R31*%
X97805500Y-67076000D03*
X99630500Y-67076000D03*
%TD*%
D50*
%TO.C,C6*%
X145148400Y-90426900D03*
X147048400Y-90426900D03*
%TD*%
D41*
%TO.C,Reset*%
X155925000Y-123125000D03*
%TD*%
D38*
%TO.C,R2*%
X160912500Y-97032000D03*
X159087500Y-97032000D03*
%TD*%
D68*
%TO.C,C17*%
X153416000Y-62418000D03*
X153416000Y-60518000D03*
%TD*%
D39*
%TO.C,C12*%
X112227500Y-106449750D03*
X110327500Y-106449750D03*
%TD*%
D69*
%TO.C,SW6*%
X95830000Y-66350000D03*
X95830000Y-67850000D03*
X95830000Y-70850000D03*
D70*
X95180000Y-64950000D03*
X92970000Y-64950000D03*
D71*
X94070000Y-67100000D03*
X94070000Y-70100000D03*
D70*
X95180000Y-72250000D03*
X92970000Y-72250000D03*
%TD*%
D42*
%TO.C,3.3V*%
X165000000Y-130000000D03*
%TD*%
D40*
%TO.C,R11*%
X143408400Y-90660900D03*
X143408400Y-88835900D03*
%TD*%
D49*
%TO.C,R1*%
X107696000Y-53697500D03*
X107696000Y-55522500D03*
%TD*%
D72*
%TO.C,J3*%
X102489000Y-49080000D03*
X94239000Y-49080000D03*
X102489000Y-62680000D03*
X94189000Y-62680000D03*
D73*
X96789000Y-60230000D03*
X96789000Y-59130000D03*
X96789000Y-58030000D03*
X96789000Y-56930000D03*
X96789000Y-55830000D03*
X96789000Y-54730000D03*
X96789000Y-53630000D03*
X96789000Y-52530000D03*
%TD*%
D38*
%TO.C,R17*%
X125097100Y-88626500D03*
X123272100Y-88626500D03*
%TD*%
D74*
%TO.C,F1*%
X102000000Y-84037500D03*
X102000000Y-82162500D03*
%TD*%
D41*
%TO.C,DIN*%
X161300000Y-48000000D03*
%TD*%
D30*
%TO.C,D7*%
X132825000Y-96985000D03*
X131195000Y-96985000D03*
%TD*%
D39*
%TO.C,C14*%
X155636000Y-74930000D03*
X153736000Y-74930000D03*
%TD*%
D30*
%TO.C,D11*%
X124635000Y-108385000D03*
X123005000Y-108385000D03*
%TD*%
D40*
%TO.C,R5*%
X101900000Y-88812500D03*
X101900000Y-86987500D03*
%TD*%
D75*
%TO.C,U5*%
X158316000Y-119926000D03*
D76*
X157516000Y-121376000D03*
X157916000Y-121376000D03*
X158316000Y-121376000D03*
X158716000Y-121376000D03*
X159116000Y-121376000D03*
D77*
X159766000Y-120726000D03*
X159766000Y-120326000D03*
X159766000Y-119926000D03*
X159766000Y-119526000D03*
X159766000Y-119126000D03*
D76*
X159116000Y-118476000D03*
X158716000Y-118476000D03*
X158316000Y-118476000D03*
X157916000Y-118476000D03*
X157516000Y-118476000D03*
D77*
X156866000Y-119126000D03*
X156866000Y-119526000D03*
X156866000Y-119926000D03*
X156866000Y-120326000D03*
X156866000Y-120726000D03*
%TD*%
D30*
%TO.C,D19*%
X135365000Y-137745000D03*
X136995000Y-137745000D03*
%TD*%
D49*
%TO.C,R37*%
X134950000Y-78337500D03*
X134950000Y-80162500D03*
%TD*%
D51*
%TO.C,U4*%
X123234600Y-86462000D03*
X125134600Y-86462000D03*
X125134600Y-84187000D03*
X124184600Y-84187000D03*
X123234600Y-84187000D03*
%TD*%
M02*
