%TF.GenerationSoftware,KiCad,Pcbnew,7.99.0-3134-gf47cc39208*%
%TF.CreationDate,2023-10-21T21:10:59+01:00*%
%TF.ProjectId,hh2024,68683230-3234-42e6-9b69-6361645f7063,rev?*%
%TF.SameCoordinates,Original*%
%TF.FileFunction,Paste,Bot*%
%TF.FilePolarity,Positive*%
%FSLAX46Y46*%
G04 Gerber Fmt 4.6, Leading zero omitted, Abs format (unit mm)*
G04 Created by KiCad (PCBNEW 7.99.0-3134-gf47cc39208) date 2023-10-21 21:10:59*
%MOMM*%
%LPD*%
G01*
G04 APERTURE LIST*
G04 Aperture macros list*
%AMRoundRect*
0 Rectangle with rounded corners*
0 $1 Rounding radius*
0 $2 $3 $4 $5 $6 $7 $8 $9 X,Y pos of 4 corners*
0 Add a 4 corners polygon primitive as box body*
4,1,4,$2,$3,$4,$5,$6,$7,$8,$9,$2,$3,0*
0 Add four circle primitives for the rounded corners*
1,1,$1+$1,$2,$3*
1,1,$1+$1,$4,$5*
1,1,$1+$1,$6,$7*
1,1,$1+$1,$8,$9*
0 Add four rect primitives between the rounded corners*
20,1,$1+$1,$2,$3,$4,$5,0*
20,1,$1+$1,$4,$5,$6,$7,0*
20,1,$1+$1,$6,$7,$8,$9,0*
20,1,$1+$1,$8,$9,$2,$3,0*%
%AMRotRect*
0 Rectangle, with rotation*
0 The origin of the aperture is its center*
0 $1 length*
0 $2 width*
0 $3 Rotation angle, in degrees counterclockwise*
0 Add horizontal line*
21,1,$1,$2,0,0,$3*%
G04 Aperture macros list end*
%ADD10R,0.770000X0.950000*%
%ADD11RoundRect,0.250000X0.262500X0.450000X-0.262500X0.450000X-0.262500X-0.450000X0.262500X-0.450000X0*%
%ADD12R,0.900000X3.000000*%
%ADD13RotRect,1.200000X0.800000X315.000000*%
%ADD14RotRect,1.200000X0.800000X45.000000*%
%ADD15R,1.000000X1.300000*%
%ADD16RoundRect,0.112500X0.112500X-0.187500X0.112500X0.187500X-0.112500X0.187500X-0.112500X-0.187500X0*%
%ADD17RoundRect,0.250000X-0.262500X-0.450000X0.262500X-0.450000X0.262500X0.450000X-0.262500X0.450000X0*%
%ADD18RoundRect,0.250000X-0.250000X-0.475000X0.250000X-0.475000X0.250000X0.475000X-0.250000X0.475000X0*%
%ADD19R,1.500000X0.900000*%
%ADD20R,0.800000X0.800000*%
%ADD21RoundRect,0.150000X-0.587500X-0.150000X0.587500X-0.150000X0.587500X0.150000X-0.587500X0.150000X0*%
%ADD22RoundRect,0.150000X0.587500X0.150000X-0.587500X0.150000X-0.587500X-0.150000X0.587500X-0.150000X0*%
%ADD23R,0.700000X2.500000*%
%ADD24R,1.100000X1.900000*%
%ADD25RoundRect,0.250000X0.450000X-0.262500X0.450000X0.262500X-0.450000X0.262500X-0.450000X-0.262500X0*%
%ADD26RoundRect,0.250000X0.250000X0.475000X-0.250000X0.475000X-0.250000X-0.475000X0.250000X-0.475000X0*%
%ADD27RoundRect,0.150000X-0.150000X0.512500X-0.150000X-0.512500X0.150000X-0.512500X0.150000X0.512500X0*%
%ADD28C,2.000000*%
%ADD29RoundRect,0.250000X-0.450000X0.262500X-0.450000X-0.262500X0.450000X-0.262500X0.450000X0.262500X0*%
%ADD30RoundRect,0.112500X-0.112500X0.187500X-0.112500X-0.187500X0.112500X-0.187500X0.112500X0.187500X0*%
%ADD31R,1.450000X0.600000*%
%ADD32R,1.450000X0.300000*%
%ADD33RoundRect,0.137500X-0.137500X-0.662500X0.137500X-0.662500X0.137500X0.662500X-0.137500X0.662500X0*%
%ADD34R,1.300000X0.300000*%
%ADD35R,2.200000X1.800000*%
%ADD36RoundRect,0.250000X0.475000X-0.250000X0.475000X0.250000X-0.475000X0.250000X-0.475000X-0.250000X0*%
%ADD37RoundRect,0.150000X0.150000X-0.512500X0.150000X0.512500X-0.150000X0.512500X-0.150000X-0.512500X0*%
%ADD38RoundRect,0.250000X1.075000X-0.375000X1.075000X0.375000X-1.075000X0.375000X-1.075000X-0.375000X0*%
%ADD39RoundRect,0.250000X-0.475000X0.250000X-0.475000X-0.250000X0.475000X-0.250000X0.475000X0.250000X0*%
%ADD40R,0.800000X1.000000*%
%ADD41R,1.500000X0.700000*%
%ADD42RoundRect,0.200000X-0.550000X0.200000X-0.550000X-0.200000X0.550000X-0.200000X0.550000X0.200000X0*%
%ADD43RoundRect,0.375000X-0.625000X0.375000X-0.625000X-0.375000X0.625000X-0.375000X0.625000X0.375000X0*%
%ADD44RoundRect,0.243750X-0.456250X0.243750X-0.456250X-0.243750X0.456250X-0.243750X0.456250X0.243750X0*%
%ADD45RoundRect,0.167500X0.167500X0.167500X-0.167500X0.167500X-0.167500X-0.167500X0.167500X-0.167500X0*%
%ADD46RoundRect,0.050000X0.375000X0.050000X-0.375000X0.050000X-0.375000X-0.050000X0.375000X-0.050000X0*%
%ADD47RoundRect,0.050000X0.050000X0.375000X-0.050000X0.375000X-0.050000X-0.375000X0.050000X-0.375000X0*%
G04 APERTURE END LIST*
D10*
%TO.C,D8*%
X136990000Y-102270000D03*
X135360000Y-102270000D03*
%TD*%
D11*
%TO.C,R23*%
X151280500Y-124460000D03*
X149455500Y-124460000D03*
%TD*%
D12*
%TO.C,SW2*%
X113433000Y-151594000D03*
D13*
X114453000Y-154204000D03*
D14*
X121813000Y-154204000D03*
D12*
X122833000Y-151594000D03*
D15*
X115133000Y-150144000D03*
X121133000Y-150144000D03*
X117133000Y-150144000D03*
X119133000Y-150144000D03*
%TD*%
D16*
%TO.C,D2*%
X149037000Y-79155000D03*
X149037000Y-77055000D03*
%TD*%
D17*
%TO.C,R7*%
X142851500Y-66548000D03*
X144676500Y-66548000D03*
%TD*%
D10*
%TO.C,D12*%
X128715000Y-102270000D03*
X127085000Y-102270000D03*
%TD*%
D18*
%TO.C,C7*%
X106949200Y-88773000D03*
X108849200Y-88773000D03*
%TD*%
%TO.C,C21*%
X157800000Y-58420000D03*
X159700000Y-58420000D03*
%TD*%
%TO.C,C16*%
X157800000Y-55880000D03*
X159700000Y-55880000D03*
%TD*%
D17*
%TO.C,R18*%
X106910500Y-96901000D03*
X108735500Y-96901000D03*
%TD*%
D18*
%TO.C,C22*%
X157800000Y-53340000D03*
X159700000Y-53340000D03*
%TD*%
D10*
%TO.C,D22*%
X118785000Y-127605000D03*
X120415000Y-127605000D03*
%TD*%
D11*
%TO.C,R27*%
X151280500Y-121920000D03*
X149455500Y-121920000D03*
%TD*%
D17*
%TO.C,R15*%
X123449900Y-79965100D03*
X125274900Y-79965100D03*
%TD*%
%TO.C,R12*%
X141733900Y-87081400D03*
X143558900Y-87081400D03*
%TD*%
D11*
%TO.C,R25*%
X151280500Y-127000000D03*
X149455500Y-127000000D03*
%TD*%
D10*
%TO.C,D9*%
X120340000Y-113795000D03*
X118710000Y-113795000D03*
%TD*%
D11*
%TO.C,R32*%
X117879500Y-54737000D03*
X116054500Y-54737000D03*
%TD*%
D19*
%TO.C,U1*%
X140505000Y-54857000D03*
X140505000Y-56127000D03*
X140505000Y-57397000D03*
X140505000Y-58667000D03*
X140505000Y-59937000D03*
X140505000Y-61207000D03*
X140505000Y-62477000D03*
X140505000Y-63747000D03*
X140505000Y-65017000D03*
X140505000Y-66287000D03*
X140505000Y-67557000D03*
X140505000Y-68827000D03*
X140505000Y-70097000D03*
X140505000Y-71367000D03*
X123005000Y-71367000D03*
X123005000Y-70097000D03*
X123005000Y-68827000D03*
X123005000Y-67557000D03*
X123005000Y-66287000D03*
X123005000Y-65017000D03*
X123005000Y-63747000D03*
X123005000Y-62477000D03*
X123005000Y-61207000D03*
X123005000Y-59937000D03*
X123005000Y-58667000D03*
X123005000Y-57397000D03*
X123005000Y-56127000D03*
X123005000Y-54857000D03*
D20*
X134510000Y-61827000D03*
X134510000Y-60577000D03*
X134510000Y-59327000D03*
X133260000Y-61827000D03*
X133260000Y-60577000D03*
X133260000Y-59327000D03*
X132010000Y-61827000D03*
X132010000Y-60577000D03*
X132010000Y-59327000D03*
%TD*%
D21*
%TO.C,Q1*%
X129828000Y-86147500D03*
X129828000Y-84247500D03*
X131703000Y-85197500D03*
%TD*%
D22*
%TO.C,Q3*%
X119380000Y-75692000D03*
X119380000Y-77592000D03*
X117505000Y-76642000D03*
%TD*%
D23*
%TO.C,J5*%
X111863000Y-100457000D03*
X110363000Y-100457000D03*
D24*
X113813000Y-104057000D03*
X108413000Y-104057000D03*
%TD*%
D25*
%TO.C,R8*%
X119380000Y-72945000D03*
X119380000Y-71120000D03*
%TD*%
D26*
%TO.C,C13*%
X108839000Y-92855750D03*
X106939000Y-92855750D03*
%TD*%
D12*
%TO.C,SW4*%
X141445000Y-151160500D03*
D13*
X142465000Y-153770500D03*
D14*
X149825000Y-153770500D03*
D12*
X150845000Y-151160500D03*
D15*
X143145000Y-149710500D03*
X149145000Y-149710500D03*
X145145000Y-149710500D03*
X147145000Y-149710500D03*
%TD*%
D17*
%TO.C,R20*%
X123399100Y-82022500D03*
X125224100Y-82022500D03*
%TD*%
D11*
%TO.C,R35*%
X117879500Y-56769000D03*
X116054500Y-56769000D03*
%TD*%
D25*
%TO.C,R6*%
X143256000Y-57808500D03*
X143256000Y-55983500D03*
%TD*%
D26*
%TO.C,C5*%
X147048400Y-88267900D03*
X145148400Y-88267900D03*
%TD*%
D27*
%TO.C,U2*%
X145148400Y-83955400D03*
X146098400Y-83955400D03*
X147048400Y-83955400D03*
X147048400Y-86230400D03*
X145148400Y-86230400D03*
%TD*%
D26*
%TO.C,C10*%
X143596400Y-82890400D03*
X141696400Y-82890400D03*
%TD*%
D17*
%TO.C,R22*%
X156440500Y-64262000D03*
X158265500Y-64262000D03*
%TD*%
D10*
%TO.C,D17*%
X143585000Y-127605000D03*
X145215000Y-127605000D03*
%TD*%
D28*
%TO.C,K1*%
X107188000Y-80391000D03*
X107188000Y-70231000D03*
X107188000Y-67691000D03*
X114808000Y-67691000D03*
X114808000Y-70231000D03*
X114808000Y-80391000D03*
%TD*%
D29*
%TO.C,R16*%
X127766000Y-84285000D03*
X127766000Y-86110000D03*
%TD*%
D17*
%TO.C,R19*%
X106976500Y-94887750D03*
X108801500Y-94887750D03*
%TD*%
D16*
%TO.C,D3*%
X150180000Y-72170000D03*
X150180000Y-70070000D03*
%TD*%
D11*
%TO.C,R30*%
X163390500Y-117738000D03*
X161565500Y-117738000D03*
%TD*%
D10*
%TO.C,D15*%
X131185000Y-143605000D03*
X132815000Y-143605000D03*
%TD*%
D11*
%TO.C,R29*%
X163390500Y-119770000D03*
X161565500Y-119770000D03*
%TD*%
D12*
%TO.C,SW1*%
X99433000Y-151594000D03*
D13*
X100453000Y-154204000D03*
D14*
X107813000Y-154204000D03*
D12*
X108833000Y-151594000D03*
D15*
X101133000Y-150144000D03*
X107133000Y-150144000D03*
X103133000Y-150144000D03*
X105133000Y-150144000D03*
%TD*%
D10*
%TO.C,D20*%
X135385000Y-127605000D03*
X137015000Y-127605000D03*
%TD*%
D11*
%TO.C,R28*%
X163390500Y-121802000D03*
X161565500Y-121802000D03*
%TD*%
%TO.C,R24*%
X151280500Y-116840000D03*
X149455500Y-116840000D03*
%TD*%
%TO.C,R33*%
X121175000Y-59925000D03*
X119350000Y-59925000D03*
%TD*%
D10*
%TO.C,D5*%
X128715000Y-113795000D03*
X127085000Y-113795000D03*
%TD*%
D18*
%TO.C,C19*%
X158755000Y-69850000D03*
X160655000Y-69850000D03*
%TD*%
D21*
%TO.C,Q2*%
X158767500Y-76515000D03*
X158767500Y-74615000D03*
X160642500Y-75565000D03*
%TD*%
D12*
%TO.C,SW3*%
X127433000Y-151594000D03*
D13*
X128453000Y-154204000D03*
D14*
X135813000Y-154204000D03*
D12*
X136833000Y-151594000D03*
D15*
X129133000Y-150144000D03*
X135133000Y-150144000D03*
X131133000Y-150144000D03*
X133133000Y-150144000D03*
%TD*%
D16*
%TO.C,D1*%
X121361200Y-85225600D03*
X121361200Y-83125600D03*
%TD*%
D30*
%TO.C,D4*%
X153990000Y-70070000D03*
X153990000Y-72170000D03*
%TD*%
D11*
%TO.C,R10*%
X144676500Y-72644000D03*
X142851500Y-72644000D03*
%TD*%
%TO.C,R26*%
X151280500Y-119380000D03*
X149455500Y-119380000D03*
%TD*%
D10*
%TO.C,D14*%
X132790000Y-108120000D03*
X131160000Y-108120000D03*
%TD*%
%TO.C,D13*%
X141065000Y-108070000D03*
X139435000Y-108070000D03*
%TD*%
D31*
%TO.C,J4*%
X99535000Y-93690000D03*
X99535000Y-92890000D03*
D32*
X99535000Y-91690000D03*
X99535000Y-90690000D03*
X99535000Y-90190000D03*
X99535000Y-89190000D03*
D31*
X99535000Y-87990000D03*
X99535000Y-87190000D03*
X99535000Y-87190000D03*
X99535000Y-87990000D03*
D32*
X99535000Y-88690000D03*
X99535000Y-89690000D03*
X99535000Y-91190000D03*
X99535000Y-92190000D03*
D31*
X99535000Y-92890000D03*
X99535000Y-93690000D03*
%TD*%
D25*
%TO.C,R4*%
X101900000Y-93892500D03*
X101900000Y-92067500D03*
%TD*%
D33*
%TO.C,L1*%
X144842400Y-82001400D03*
X146292400Y-82001400D03*
%TD*%
D34*
%TO.C,J6*%
X163800000Y-60250000D03*
X163800000Y-60750000D03*
X163800000Y-61250000D03*
X163800000Y-61750000D03*
X163800000Y-62250000D03*
X163800000Y-62750000D03*
X163800000Y-63250000D03*
X163800000Y-63750000D03*
X163800000Y-64250000D03*
X163800000Y-64750000D03*
X163800000Y-65250000D03*
X163800000Y-65750000D03*
X163800000Y-66250000D03*
X163800000Y-66750000D03*
X163800000Y-67250000D03*
X163800000Y-67750000D03*
X163800000Y-68250000D03*
X163800000Y-68750000D03*
X163800000Y-69250000D03*
X163800000Y-69750000D03*
X163800000Y-70250000D03*
X163800000Y-70750000D03*
X163800000Y-71250000D03*
X163800000Y-71750000D03*
D35*
X167050000Y-58350000D03*
X167050000Y-73650000D03*
%TD*%
D36*
%TO.C,C2*%
X154900000Y-119350000D03*
X154900000Y-117450000D03*
%TD*%
D17*
%TO.C,R13*%
X110466500Y-90297000D03*
X112291500Y-90297000D03*
%TD*%
D10*
%TO.C,D16*%
X139385000Y-132705000D03*
X141015000Y-132705000D03*
%TD*%
D37*
%TO.C,U3*%
X112329000Y-94858000D03*
X111379000Y-94858000D03*
X110429000Y-94858000D03*
X110429000Y-92583000D03*
X112329000Y-92583000D03*
%TD*%
D11*
%TO.C,R43*%
X163390500Y-123834000D03*
X161565500Y-123834000D03*
%TD*%
D18*
%TO.C,C18*%
X158755000Y-72390000D03*
X160655000Y-72390000D03*
%TD*%
D10*
%TO.C,D10*%
X136965000Y-113795000D03*
X135335000Y-113795000D03*
%TD*%
D26*
%TO.C,C11*%
X143596400Y-80858400D03*
X141696400Y-80858400D03*
%TD*%
D36*
%TO.C,C1*%
X145338800Y-57846000D03*
X145338800Y-55946000D03*
%TD*%
D17*
%TO.C,R14*%
X114022500Y-94869000D03*
X115847500Y-94869000D03*
%TD*%
D10*
%TO.C,D24*%
X122985000Y-132705000D03*
X124615000Y-132705000D03*
%TD*%
D29*
%TO.C,R34*%
X147370800Y-55983500D03*
X147370800Y-57808500D03*
%TD*%
D10*
%TO.C,D23*%
X127085000Y-138105000D03*
X128715000Y-138105000D03*
%TD*%
D18*
%TO.C,C8*%
X141696400Y-84922400D03*
X143596400Y-84922400D03*
%TD*%
D38*
%TO.C,L2*%
X159705000Y-81410000D03*
X159705000Y-78610000D03*
%TD*%
D17*
%TO.C,R3*%
X159087500Y-95000000D03*
X160912500Y-95000000D03*
%TD*%
%TO.C,R21*%
X153707500Y-76962000D03*
X155532500Y-76962000D03*
%TD*%
D36*
%TO.C,C20*%
X158496000Y-62418000D03*
X158496000Y-60518000D03*
%TD*%
D10*
%TO.C,D21*%
X127085000Y-127605000D03*
X128715000Y-127605000D03*
%TD*%
D16*
%TO.C,D25*%
X117602000Y-82838000D03*
X117602000Y-80738000D03*
%TD*%
D11*
%TO.C,R9*%
X144676500Y-76200000D03*
X142851500Y-76200000D03*
%TD*%
D18*
%TO.C,C23*%
X157800000Y-48260000D03*
X159700000Y-48260000D03*
%TD*%
D26*
%TO.C,C4*%
X144714000Y-69088000D03*
X142814000Y-69088000D03*
%TD*%
D18*
%TO.C,C9*%
X106939000Y-90805000D03*
X108839000Y-90805000D03*
%TD*%
D10*
%TO.C,D18*%
X131185000Y-132705000D03*
X132815000Y-132705000D03*
%TD*%
D12*
%TO.C,SW5*%
X155445000Y-151160500D03*
D13*
X156465000Y-153770500D03*
D14*
X163825000Y-153770500D03*
D12*
X164845000Y-151160500D03*
D15*
X157145000Y-149710500D03*
X163145000Y-149710500D03*
X159145000Y-149710500D03*
X161145000Y-149710500D03*
%TD*%
D10*
%TO.C,D6*%
X145165000Y-113820000D03*
X143535000Y-113820000D03*
%TD*%
D26*
%TO.C,C15*%
X159700000Y-50800000D03*
X157800000Y-50800000D03*
%TD*%
D11*
%TO.C,R31*%
X99630500Y-67076000D03*
X97805500Y-67076000D03*
%TD*%
D26*
%TO.C,C6*%
X147048400Y-90426900D03*
X145148400Y-90426900D03*
%TD*%
D17*
%TO.C,R2*%
X159087500Y-97032000D03*
X160912500Y-97032000D03*
%TD*%
D39*
%TO.C,C17*%
X153416000Y-60518000D03*
X153416000Y-62418000D03*
%TD*%
D18*
%TO.C,C12*%
X110429000Y-96901000D03*
X112329000Y-96901000D03*
%TD*%
D40*
%TO.C,SW6*%
X92970000Y-72250000D03*
X95180000Y-72250000D03*
X92970000Y-64950000D03*
X95180000Y-64950000D03*
D41*
X95830000Y-70850000D03*
X95830000Y-67850000D03*
X95830000Y-66350000D03*
%TD*%
D29*
%TO.C,R11*%
X143408400Y-88835900D03*
X143408400Y-90660900D03*
%TD*%
D25*
%TO.C,R1*%
X107696000Y-55522500D03*
X107696000Y-53697500D03*
%TD*%
D42*
%TO.C,J3*%
X96789000Y-52530000D03*
X96789000Y-53630000D03*
X96789000Y-54730000D03*
X96789000Y-55830000D03*
X96789000Y-56930000D03*
X96789000Y-58030000D03*
X96789000Y-59130000D03*
X96789000Y-60230000D03*
D43*
X94189000Y-62680000D03*
X102489000Y-62680000D03*
X94239000Y-49080000D03*
X102489000Y-49080000D03*
%TD*%
D17*
%TO.C,R17*%
X123272100Y-88626500D03*
X125097100Y-88626500D03*
%TD*%
D44*
%TO.C,F1*%
X102000000Y-82162500D03*
X102000000Y-84037500D03*
%TD*%
D10*
%TO.C,D7*%
X132815000Y-96120000D03*
X131185000Y-96120000D03*
%TD*%
D18*
%TO.C,C14*%
X153736000Y-74930000D03*
X155636000Y-74930000D03*
%TD*%
D10*
%TO.C,D11*%
X124640000Y-108120000D03*
X123010000Y-108120000D03*
%TD*%
D29*
%TO.C,R5*%
X101900000Y-86987500D03*
X101900000Y-88812500D03*
%TD*%
D45*
%TO.C,U5*%
X157906000Y-119516000D03*
X157906000Y-120336000D03*
X158726000Y-119516000D03*
X158726000Y-120336000D03*
D46*
X156866000Y-120726000D03*
X156866000Y-120326000D03*
X156866000Y-119926000D03*
X156866000Y-119526000D03*
X156866000Y-119126000D03*
D47*
X157516000Y-118476000D03*
X157916000Y-118476000D03*
X158316000Y-118476000D03*
X158716000Y-118476000D03*
X159116000Y-118476000D03*
D46*
X159766000Y-119126000D03*
X159766000Y-119526000D03*
X159766000Y-119926000D03*
X159766000Y-120326000D03*
X159766000Y-120726000D03*
D47*
X159116000Y-121376000D03*
X158716000Y-121376000D03*
X158316000Y-121376000D03*
X157916000Y-121376000D03*
X157516000Y-121376000D03*
%TD*%
D10*
%TO.C,D19*%
X135385000Y-138105000D03*
X137015000Y-138105000D03*
%TD*%
D27*
%TO.C,U4*%
X123234600Y-84187000D03*
X124184600Y-84187000D03*
X125134600Y-84187000D03*
X125134600Y-86462000D03*
X123234600Y-86462000D03*
%TD*%
M02*
