%TF.GenerationSoftware,KiCad,Pcbnew,7.99.0-3954-g9b2cde9571*%
%TF.CreationDate,2023-12-17T22:52:06+01:00*%
%TF.ProjectId,hh2024,68683230-3234-42e6-9b69-6361645f7063,1.4*%
%TF.SameCoordinates,Original*%
%TF.FileFunction,Profile,NP*%
%FSLAX46Y46*%
G04 Gerber Fmt 4.6, Leading zero omitted, Abs format (unit mm)*
G04 Created by KiCad (PCBNEW 7.99.0-3954-g9b2cde9571) date 2023-12-17 22:52:06*
%MOMM*%
%LPD*%
G01*
G04 APERTURE LIST*
%TA.AperFunction,Profile*%
%ADD10C,0.250000*%
%TD*%
%ADD11C,0.250000*%
%TA.AperFunction,Profile*%
%ADD12C,0.350000*%
%TD*%
G04 APERTURE END LIST*
D10*
X139080826Y-49923628D02*
X139204289Y-50008291D01*
X136382067Y-50219949D02*
X136590215Y-50152921D01*
X132053477Y-162921877D02*
X131915910Y-162784289D01*
D11*
X116069117Y-162999478D02*
X115821304Y-162926277D01*
X115642269Y-162805454D01*
X141589070Y-82841322D02*
X141920653Y-82842481D01*
X142242303Y-82854240D01*
X142552440Y-82875125D01*
X142849483Y-82903663D01*
X143131849Y-82938382D01*
X143397957Y-82977809D01*
X143646227Y-83020471D01*
X143981725Y-83087307D01*
X144268191Y-83153138D01*
X144564649Y-83230757D01*
X144812822Y-83305585D01*
X144816996Y-83306991D01*
X69396621Y-162932449D02*
X69189065Y-163082205D01*
X68969774Y-163115901D01*
X97939883Y-162868952D02*
X97774066Y-162738426D01*
X132159327Y-116792652D02*
X132261625Y-117021966D01*
X59779895Y-50703253D02*
X59918126Y-50481041D01*
X60097404Y-50361069D01*
X144333670Y-103136616D02*
X144216223Y-103360812D01*
X144206676Y-103387096D01*
X60926423Y-162685522D02*
X60783342Y-162467917D01*
X60620096Y-162260196D01*
X60431220Y-162044338D01*
X60230199Y-161835200D01*
X60030518Y-161647638D01*
X59811655Y-161471966D01*
X62969020Y-50167046D02*
X63042807Y-49923955D01*
X63144607Y-49688711D01*
X63233603Y-49532050D01*
X72465792Y-116792652D02*
X72215312Y-116842046D01*
D10*
X142178203Y-150941536D02*
X142273460Y-151086187D01*
D11*
X72363494Y-117021966D02*
X72465658Y-116793580D01*
X72465792Y-116792652D01*
X59822227Y-101923060D02*
X59803842Y-101620499D01*
X59799078Y-101319206D01*
X59794892Y-100869851D01*
X59792997Y-100580679D01*
X59791224Y-100243726D01*
X59789564Y-99855404D01*
X59788010Y-99412125D01*
X59786554Y-98910300D01*
X59785189Y-98346342D01*
X59783906Y-97716661D01*
X59782698Y-97017671D01*
X59781558Y-96245781D01*
X59780477Y-95397404D01*
X59779448Y-94468953D01*
X59778462Y-93456837D01*
X59777513Y-92357470D01*
X59776592Y-91167262D01*
X59775692Y-89882627D01*
X59774806Y-88499974D01*
X59773924Y-87015716D01*
X59773040Y-85426266D01*
X59772145Y-83728033D01*
X59771233Y-81917431D01*
X59770294Y-79990870D01*
X59769323Y-77944764D01*
D10*
X144915762Y-53952344D02*
X144831099Y-54012310D01*
X147254681Y-151156725D02*
X147314647Y-151213182D01*
D11*
X62425729Y-50438670D02*
X62677306Y-50399574D01*
X62683271Y-50396338D01*
X144940459Y-51856843D02*
X144990570Y-52121557D01*
X144994504Y-52389634D01*
X144995953Y-52653517D01*
X144996894Y-52904605D01*
X60993452Y-50332841D02*
X61092711Y-50087139D01*
X61313666Y-49954093D01*
X61416789Y-49941263D01*
X99280434Y-163235855D02*
X99011698Y-163230094D01*
X98743559Y-163204537D01*
X98475683Y-163141251D01*
X98220346Y-163032639D01*
X97982915Y-162896077D01*
X97939883Y-162868952D01*
X138812711Y-163059466D02*
X138546800Y-163065842D01*
X138249205Y-163070223D01*
X137938067Y-163074070D01*
X137656664Y-163077102D01*
X137353187Y-163079958D01*
X137274605Y-163080631D01*
D10*
X101993296Y-162685522D02*
X100606882Y-162685522D01*
D11*
X142160569Y-50438670D02*
X142415497Y-50414620D01*
X142637592Y-50290932D01*
X142749702Y-50188211D01*
D10*
X93029201Y-162710198D02*
X92856343Y-162858380D01*
D11*
X141670202Y-162957146D02*
X141386790Y-162966647D01*
X141045919Y-162962988D01*
X140741981Y-162956027D01*
X140417409Y-162946130D01*
X140090883Y-162933906D01*
X139781082Y-162919967D01*
X139506685Y-162904923D01*
X139228179Y-162884200D01*
X139109032Y-162868952D01*
X102487172Y-162784289D02*
X102293149Y-162883077D01*
X146937172Y-155217201D02*
X146943791Y-155501581D01*
X146971632Y-155780990D01*
X147037012Y-156040034D01*
X147163523Y-156276036D01*
X147300544Y-156430757D01*
X65657185Y-113159045D02*
X65559137Y-112895387D01*
X65486315Y-112645786D01*
X65432387Y-112389958D01*
X65386081Y-112113554D01*
X65344132Y-111832684D01*
X65307938Y-111578607D01*
D10*
X62355190Y-151082656D02*
X62446894Y-150941536D01*
D11*
X71266339Y-118761158D02*
X71425477Y-118556201D01*
X71581637Y-118342564D01*
X71733168Y-118122809D01*
X71878414Y-117899498D01*
X72015723Y-117675196D01*
X72143441Y-117452465D01*
X72287084Y-117180163D01*
X72363494Y-117021966D01*
X57155228Y-158871995D02*
X57100650Y-158627201D01*
X57098845Y-158368761D01*
X57098793Y-158268737D01*
X114224096Y-162904243D02*
X113986160Y-163048958D01*
X113732784Y-163162597D01*
X113470039Y-163225659D01*
X113209157Y-163246508D01*
X112948698Y-163244947D01*
X112890607Y-163242895D01*
X61416789Y-49941263D02*
X61657146Y-50020456D01*
X61840127Y-50188211D01*
D10*
X83895800Y-162759592D02*
X78971015Y-162759592D01*
D11*
X136046924Y-116446936D02*
X135799098Y-116560932D01*
X135555293Y-116661494D01*
X135315915Y-116748620D01*
X135035073Y-116835437D01*
X134761884Y-116902903D01*
X134540577Y-116944343D01*
X126296162Y-163193523D02*
X126057114Y-163088633D01*
X125835975Y-162945108D01*
X125735236Y-162861911D01*
X141945379Y-149929066D02*
X141935621Y-150188965D01*
X141973158Y-150455147D01*
X142055011Y-150711406D01*
X142178203Y-150941536D01*
X147173549Y-135503977D02*
X147213783Y-135759349D01*
X147266386Y-136122266D01*
X147309910Y-136464859D01*
X147344598Y-136791453D01*
X147370693Y-137106374D01*
X147388442Y-137413945D01*
X147398086Y-137718493D01*
X147399871Y-138024343D01*
X147394041Y-138335819D01*
X147380839Y-138657248D01*
X147360510Y-138992954D01*
X62852597Y-50336372D02*
X62969020Y-50167046D01*
D10*
X67999635Y-50152921D02*
X68207761Y-50219949D01*
X57261078Y-153897816D02*
X57123490Y-153664992D01*
D11*
X144746436Y-102004213D02*
X144719370Y-102264463D01*
X144682938Y-102321700D01*
X135620076Y-163115901D02*
X135374085Y-163067408D01*
X135193208Y-162932449D01*
X112890607Y-163242895D02*
X112599011Y-163223734D01*
X112324317Y-163177947D01*
X112064746Y-163083865D01*
X111825761Y-162932568D01*
X111733485Y-162858380D01*
X57172884Y-152260922D02*
X57183757Y-152009107D01*
X57195657Y-151744941D01*
X57210374Y-151477405D01*
X57259813Y-151229413D01*
X57275182Y-151213182D01*
X61949487Y-148779007D02*
X61712296Y-148609567D01*
X61498597Y-148445890D01*
X61293178Y-148275142D01*
X61080829Y-148084487D01*
X60887604Y-147901141D01*
X60760628Y-147777130D01*
X141733700Y-50336372D02*
X141903048Y-50396338D01*
X119053624Y-163249958D02*
X118800097Y-163242174D01*
X118547479Y-163214077D01*
X118305581Y-163149614D01*
X118070568Y-163025206D01*
X117903565Y-162890118D01*
X62916095Y-162957146D02*
X62817328Y-162890118D01*
X144044412Y-103679908D02*
X143911160Y-103896240D01*
X143868699Y-104159868D01*
X143864491Y-104346663D01*
X74928174Y-162854849D02*
X74709821Y-162985910D01*
X74518961Y-163024175D01*
D10*
X144824037Y-64168796D02*
X144816996Y-64616810D01*
D11*
X59991575Y-102515745D02*
X59903380Y-102321700D01*
D10*
X88086781Y-162819579D02*
X87998586Y-162734895D01*
D11*
X67481040Y-50004760D02*
X67724686Y-50072677D01*
X67976485Y-50145948D01*
X67999635Y-50152921D01*
X137609727Y-49831902D02*
X137855368Y-49739119D01*
X138143318Y-49679849D01*
X138423037Y-49677646D01*
X138693687Y-49732786D01*
X138954431Y-49845550D01*
X139080826Y-49923628D01*
X141356225Y-49532050D02*
X141483028Y-49771505D01*
X141574516Y-50010276D01*
X141617299Y-50167046D01*
X60383153Y-103387096D02*
X60271452Y-103156784D01*
X60256158Y-103136616D01*
D10*
X78971015Y-162759592D02*
X78854592Y-162861911D01*
X147455767Y-156578940D02*
X147469870Y-157139844D01*
D11*
X60612467Y-106410404D02*
X60578013Y-106147165D01*
X60577176Y-106001170D01*
D10*
X90362202Y-162904243D02*
X90108212Y-162734895D01*
X75012837Y-162784289D02*
X74928174Y-162854849D01*
D11*
X147311116Y-139790236D02*
X147287852Y-140101380D01*
X147257437Y-140407141D01*
X147219416Y-140709578D01*
X147173337Y-141010747D01*
X147118747Y-141312708D01*
X147055190Y-141617517D01*
X146982215Y-141927233D01*
X146899367Y-142243913D01*
X146806193Y-142569616D01*
X146702240Y-142906399D01*
X146626726Y-143138093D01*
D10*
X68207761Y-50219949D02*
X74670653Y-50241115D01*
D11*
X57313982Y-139790236D02*
X57297507Y-139514184D01*
X57281077Y-139245137D01*
X57264588Y-138992954D01*
X59843393Y-102004213D02*
X59822227Y-101923060D01*
X86682732Y-162890118D02*
X86459933Y-163063426D01*
X86217948Y-163173229D01*
X85962915Y-163226575D01*
X85693462Y-163246907D01*
X85536204Y-163249958D01*
D10*
X59769323Y-77944764D02*
X59758729Y-54012310D01*
X65382008Y-50008291D02*
X65509003Y-49923628D01*
D11*
X134540577Y-116944343D02*
X134282822Y-116969025D01*
X133968919Y-116977461D01*
X133690338Y-116973056D01*
X133398054Y-116959183D01*
X133101945Y-116936257D01*
X132811894Y-116904690D01*
X132537779Y-116864898D01*
X132409786Y-116842046D01*
X134395926Y-162893649D02*
X134176965Y-163029958D01*
X133924749Y-163141556D01*
X133700965Y-163214689D01*
X57264588Y-138992954D02*
X57243442Y-138657248D01*
X57229745Y-138335819D01*
X57223687Y-138024343D01*
X57225460Y-137718493D01*
X57235256Y-137413945D01*
X57253266Y-137106374D01*
X57279684Y-136791453D01*
X57314699Y-136464859D01*
X57358505Y-136122266D01*
X57411293Y-135759349D01*
X57451570Y-135503977D01*
X65971162Y-123393131D02*
X66186196Y-123239049D01*
X66399287Y-123084459D01*
X66610308Y-122929471D01*
X66819134Y-122774196D01*
X67025640Y-122618745D01*
X67229700Y-122463230D01*
X67431190Y-122307761D01*
X67629984Y-122152450D01*
X68018981Y-121842745D01*
X68395689Y-121535004D01*
X68759107Y-121230116D01*
X69108231Y-120928970D01*
X69442058Y-120632454D01*
X69759587Y-120341457D01*
X70059814Y-120056869D01*
X70341738Y-119779577D01*
X70604354Y-119510471D01*
X70846662Y-119250440D01*
X71067657Y-119000373D01*
X71266339Y-118761158D01*
X70084542Y-116944343D02*
X69818254Y-116893002D01*
X69543735Y-116822311D01*
X69261681Y-116732270D01*
X69021384Y-116642456D01*
X68776743Y-116539207D01*
X68578174Y-116446936D01*
D10*
X125615282Y-162759592D02*
X120690518Y-162759592D01*
D11*
X144809933Y-50703253D02*
X144849032Y-50956888D01*
X144855086Y-51232143D01*
X144855796Y-51306511D01*
X144816996Y-64616810D02*
X144550976Y-64696958D01*
X144239165Y-64777919D01*
X143938407Y-64846014D01*
X143586781Y-64914424D01*
X143326979Y-64957534D01*
X143048884Y-64996779D01*
X142754222Y-65030556D01*
X142444718Y-65057263D01*
X142122099Y-65075299D01*
X141788091Y-65083061D01*
X141444420Y-65078948D01*
D10*
X144090959Y-52912653D02*
G75*
G02*
X142090959Y-52912653I-1000000J0D01*
G01*
X142090959Y-52912653D02*
G75*
G02*
X144090959Y-52912653I1000000J0D01*
G01*
D11*
X109182909Y-162710198D02*
X108893509Y-162710321D01*
X108623230Y-162710687D01*
X108372009Y-162711291D01*
X108030776Y-162712632D01*
X107732076Y-162714479D01*
X107475699Y-162716814D01*
X107199337Y-162720658D01*
X106924089Y-162727901D01*
X106812231Y-162738426D01*
X144400699Y-102935552D02*
X144333670Y-103136616D01*
X133358759Y-118761158D02*
X133557443Y-119000373D01*
X133778442Y-119250440D01*
X134020753Y-119510471D01*
X134283372Y-119779577D01*
X134565297Y-120056869D01*
X134865526Y-120341457D01*
X135183056Y-120632454D01*
X135516885Y-120928970D01*
X135866009Y-121230116D01*
X136229428Y-121535004D01*
X136606137Y-121842745D01*
X136995134Y-122152450D01*
X137193928Y-122307761D01*
X137395417Y-122463230D01*
X137599478Y-122618745D01*
X137805984Y-122774196D01*
X138014810Y-122929471D01*
X138225831Y-123084459D01*
X138438922Y-123239049D01*
X138653957Y-123393131D01*
X57098793Y-158268737D02*
X57100555Y-158003048D01*
X57104311Y-157740005D01*
X57109207Y-157474430D01*
X57115065Y-157199650D01*
X57116427Y-157139844D01*
D12*
X67918443Y-54051363D02*
G75*
G02*
X64918443Y-54051363I-1500000J0D01*
G01*
X64918443Y-54051363D02*
G75*
G02*
X67918443Y-54051363I1500000J0D01*
G01*
D11*
X144774643Y-161471966D02*
X144557090Y-161647638D01*
X144357666Y-161835200D01*
X144156401Y-162044338D01*
X143967023Y-162260196D01*
X143803257Y-162467917D01*
X143659874Y-162685522D01*
X144989853Y-161292046D02*
X144794348Y-161458006D01*
X144774643Y-161471966D01*
X143864491Y-147777130D02*
X143657814Y-147977684D01*
X143471793Y-148151043D01*
X143263440Y-148333636D01*
X143056949Y-148500601D01*
X142837113Y-148664772D01*
X142675632Y-148779007D01*
X143864491Y-104346663D02*
X143854078Y-104600162D01*
X143815913Y-104865762D01*
X143748069Y-105073384D01*
X105305885Y-163235855D02*
X105034057Y-163234695D01*
X104775299Y-163208286D01*
X104720261Y-163193523D01*
X147469870Y-157139844D02*
X147477094Y-157401560D01*
X147482066Y-157663299D01*
X147485548Y-157929598D01*
X147487423Y-158207689D01*
X147487505Y-158268737D01*
X139398313Y-49817799D02*
X139619815Y-49635190D01*
X139869517Y-49494233D01*
X140108176Y-49405894D01*
X140371486Y-49346949D01*
X140661263Y-49316839D01*
D10*
X67001268Y-106657353D02*
X67001268Y-106406873D01*
X115642269Y-162805454D02*
X115582281Y-162734895D01*
D11*
X60086810Y-102737975D02*
X59991575Y-102515745D01*
X62326962Y-149205875D02*
X62186436Y-148998061D01*
X62007232Y-148820791D01*
X61949487Y-148779007D01*
X141444420Y-82844853D02*
X141578477Y-82841322D01*
D10*
X129573460Y-162784289D02*
X128335207Y-162784289D01*
D11*
X60577176Y-106001170D02*
X60582370Y-105749659D01*
X60598342Y-105584895D01*
X132695535Y-163264061D02*
X132448914Y-163179214D01*
X132223709Y-163056379D01*
X132053477Y-162921877D01*
X143169508Y-49941263D02*
X143420869Y-50021447D01*
X143579240Y-50237694D01*
X143592846Y-50332841D01*
D10*
X117737770Y-162734895D02*
X116591242Y-162734895D01*
D11*
X144682938Y-102321700D02*
X144598254Y-102515745D01*
X146626726Y-143138093D02*
X146518764Y-143455393D01*
X146406686Y-143761444D01*
X146289723Y-144057833D01*
X146167108Y-144346146D01*
X146038074Y-144627971D01*
X145901853Y-144904895D01*
X145757678Y-145178505D01*
X145604782Y-145450388D01*
X145442397Y-145722131D01*
X145269756Y-145995321D01*
X145148586Y-146179036D01*
D10*
X59758729Y-54012310D02*
X59670535Y-53952344D01*
D11*
X144009121Y-106001170D02*
X144005585Y-106255302D01*
X143977383Y-106410404D01*
D10*
X104152294Y-162854849D02*
X103979437Y-162685522D01*
X57275182Y-151213182D02*
X57331617Y-151156725D01*
X141444420Y-65078948D02*
X141444420Y-82844853D01*
D11*
X144816996Y-83578615D02*
X144816012Y-85134927D01*
X144815043Y-86600894D01*
X144814083Y-87979208D01*
X144813126Y-89272560D01*
X144812167Y-90483643D01*
X144811200Y-91615149D01*
X144810218Y-92669772D01*
X144809216Y-93650202D01*
X144808189Y-94559133D01*
X144807130Y-95399257D01*
X144806033Y-96173266D01*
X144804894Y-96883852D01*
X144803705Y-97533709D01*
X144802461Y-98125527D01*
X144801157Y-98662000D01*
X144799786Y-99145820D01*
X144798343Y-99579679D01*
X144796822Y-99966269D01*
X144795217Y-100308284D01*
X144793522Y-100608414D01*
X144791731Y-100869353D01*
X144787841Y-101284427D01*
X144783498Y-101575043D01*
X144773272Y-101869056D01*
X144764070Y-101923060D01*
D10*
X129915644Y-50241115D02*
X136382067Y-50219949D01*
D11*
X147431070Y-158871995D02*
X147171912Y-158895444D01*
X146920281Y-158898805D01*
X146626450Y-158899130D01*
X146328930Y-158897828D01*
X146157547Y-158896671D01*
D10*
X59585872Y-53895909D02*
X59589403Y-52904605D01*
D11*
X133700965Y-163214689D02*
X133443654Y-163266556D01*
X133166501Y-163293619D01*
X132905222Y-163293559D01*
X132695535Y-163264061D01*
X59716398Y-51803940D02*
X59732075Y-51543816D01*
X59734032Y-51306511D01*
X60735931Y-105542563D02*
X60877050Y-105514356D01*
X71153447Y-163274655D02*
X70884399Y-163213197D01*
X70620313Y-163124287D01*
X70382025Y-163016192D01*
X70190371Y-162897180D01*
X66443873Y-107292349D02*
X66601573Y-107092491D01*
X66775291Y-106892371D01*
X66962450Y-106695875D01*
X67001268Y-106657353D01*
X147314647Y-151213182D02*
X147378435Y-151477405D01*
X147393795Y-151744941D01*
X147406007Y-152009107D01*
X147416966Y-152260922D01*
D10*
X69548313Y-162808986D02*
X69396621Y-162932449D01*
D11*
X130515371Y-162868952D02*
X130291081Y-163006791D01*
X130067336Y-163024175D01*
X130067336Y-163024175D02*
X129818011Y-162960338D01*
X129661655Y-162854849D01*
X91695712Y-163242895D02*
X91425607Y-163247447D01*
X91156739Y-163231081D01*
X90889616Y-163174486D01*
X90637180Y-163068641D01*
X90404275Y-162931666D01*
X90362202Y-162904243D01*
D10*
X115582281Y-162734895D02*
X114478107Y-162734895D01*
D11*
X60097404Y-50361069D02*
X60342194Y-50280092D01*
X60474879Y-50276406D01*
X147487505Y-158268737D02*
X147487132Y-158532594D01*
X147479043Y-158784898D01*
X147431070Y-158871995D01*
D10*
X62497144Y-52912653D02*
G75*
G02*
X60497144Y-52912653I-1000000J0D01*
G01*
X60497144Y-52912653D02*
G75*
G02*
X62497144Y-52912653I1000000J0D01*
G01*
D11*
X77083662Y-163204095D02*
X76836991Y-163123241D01*
X76606853Y-163020300D01*
X76381617Y-162883077D01*
X142675632Y-148779007D02*
X142478523Y-148948021D01*
X142329021Y-149158215D01*
X142298157Y-149205875D01*
X62679740Y-149929066D02*
X62607327Y-149675777D01*
X62481112Y-149449647D01*
X62326962Y-149205875D01*
X63925034Y-49316839D02*
X64214810Y-49346949D01*
X64478120Y-49405894D01*
X64716779Y-49494233D01*
X64966481Y-49635190D01*
X65187985Y-49817799D01*
D10*
X57123490Y-153664992D02*
X57127021Y-153456843D01*
D11*
X65480796Y-162868952D02*
X65162186Y-162899768D01*
X64903459Y-162915045D01*
X64603264Y-162929420D01*
X64280209Y-162942283D01*
X63952905Y-162953024D01*
X63639961Y-162961032D01*
X63359986Y-162965696D01*
X63070136Y-162965659D01*
X62916095Y-162957146D01*
D10*
X111557097Y-162710198D02*
X109182909Y-162710198D01*
D11*
X144965156Y-158942533D02*
X144985870Y-159249337D01*
X144992905Y-159503522D01*
X144998556Y-159800414D01*
X145002632Y-160118613D01*
X145004941Y-160436719D01*
X145005292Y-160733332D01*
X145003492Y-160987051D01*
X144995193Y-161256475D01*
X144989853Y-161292046D01*
X106646436Y-162868952D02*
X106404923Y-163012855D01*
X106148502Y-163128738D01*
X105884138Y-163197901D01*
X105623171Y-163227389D01*
X105363665Y-163235643D01*
X105305885Y-163235855D01*
X141617299Y-50167046D02*
X141733700Y-50336372D01*
X126892336Y-163260552D02*
X126623042Y-163257795D01*
X126371986Y-163219110D01*
X126296162Y-163193523D01*
X65667757Y-162953615D02*
X65480796Y-162868952D01*
D10*
X125735236Y-162861911D02*
X125615282Y-162759592D01*
D11*
X145148586Y-146179036D02*
X144968828Y-146444344D01*
X144804574Y-146678274D01*
X144650821Y-146887152D01*
X144465775Y-147122654D01*
X144279551Y-147341248D01*
X144082380Y-147555288D01*
X143864491Y-147777130D01*
X142336958Y-151103822D02*
X142587680Y-151119212D01*
X142890923Y-151125931D01*
X143218753Y-151130764D01*
X143514292Y-151134045D01*
X143852363Y-151137013D01*
X144232931Y-151139650D01*
X144510235Y-151141216D01*
X144806402Y-151142622D01*
D10*
X147300544Y-156430757D02*
X147455767Y-156578940D01*
X147462829Y-153664992D02*
X147325241Y-153897816D01*
X62817328Y-162890118D02*
X62796162Y-162833683D01*
X90108212Y-162734895D02*
X89004016Y-162734895D01*
D11*
X74518961Y-163024175D02*
X74267159Y-162998167D01*
X74070926Y-162868952D01*
D10*
X144806402Y-151142622D02*
X147254681Y-151156725D01*
D11*
X65773586Y-163059466D02*
X65667757Y-162953615D01*
D10*
X57116427Y-157139844D02*
X57134062Y-156578940D01*
D11*
X137274605Y-163080631D02*
X136965200Y-163084748D01*
X136671299Y-163089115D01*
X136399804Y-163093649D01*
X136102464Y-163099423D01*
X135825095Y-163106295D01*
X135620076Y-163115901D01*
D10*
X57331617Y-151156725D02*
X59779895Y-151142622D01*
D11*
X143853898Y-105542563D02*
X143991486Y-105584895D01*
D10*
X131915910Y-162784289D02*
X130600034Y-162784289D01*
X144091361Y-159976333D02*
G75*
G02*
X142091361Y-159976333I-1000000J0D01*
G01*
X142091361Y-159976333D02*
G75*
G02*
X144091361Y-159976333I1000000J0D01*
G01*
D11*
X143712800Y-105514356D02*
X143853898Y-105542563D01*
X102293149Y-162883077D02*
X102099125Y-162784289D01*
X59476511Y-146179036D02*
X59296608Y-145903999D01*
X59127455Y-145631468D01*
X58968267Y-145359854D01*
X58818258Y-145087572D01*
X58676643Y-144813034D01*
X58542639Y-144534652D01*
X58415459Y-144250841D01*
X58294319Y-143960012D01*
X58178435Y-143660579D01*
X58067021Y-143350954D01*
X57994841Y-143138093D01*
X59734032Y-51306511D02*
X59735741Y-51049534D01*
X59752064Y-50799969D01*
X59779895Y-50703253D01*
X60817063Y-50339903D02*
X60993452Y-50332841D01*
X104720261Y-163193523D02*
X104485056Y-163101244D01*
X104268910Y-162960133D01*
X104152294Y-162854849D01*
X71904866Y-163264061D02*
X71650994Y-163293772D01*
X71384011Y-163295645D01*
X71153447Y-163274655D01*
D10*
X59670535Y-53952344D02*
X59585872Y-53895909D01*
X95403410Y-162710198D02*
X93029201Y-162710198D01*
D11*
X57451570Y-135503977D02*
X57520499Y-135118460D01*
X57602824Y-134729487D01*
X57698377Y-134337485D01*
X57806994Y-133942884D01*
X57928510Y-133546113D01*
X58062759Y-133147600D01*
X58209575Y-132747775D01*
X58368794Y-132347066D01*
X58540250Y-131945902D01*
X58723777Y-131544712D01*
X58919209Y-131143924D01*
X59126383Y-130743969D01*
X59345132Y-130345273D01*
X59575290Y-129948268D01*
X59816693Y-129553380D01*
X60069176Y-129161040D01*
X147325241Y-153897816D02*
X147179696Y-154147763D01*
X147059386Y-154383464D01*
X146978786Y-154620494D01*
X146944399Y-154877209D01*
X146937263Y-155161122D01*
X146937172Y-155217201D01*
X144869899Y-51803940D02*
X144940459Y-51856843D01*
X106812231Y-162738426D02*
X106646436Y-162868952D01*
D12*
X139669684Y-54051363D02*
G75*
G02*
X136669684Y-54051363I-1500000J0D01*
G01*
X136669684Y-54051363D02*
G75*
G02*
X139669684Y-54051363I1500000J0D01*
G01*
D11*
X60256158Y-103136616D02*
X60185598Y-102935552D01*
D10*
X145000426Y-53895909D02*
X144915762Y-53952344D01*
D11*
X59589403Y-52904605D02*
X59591252Y-52653517D01*
X59593651Y-52389634D01*
X59598533Y-52121557D01*
X59635835Y-51872348D01*
X59649369Y-51856843D01*
X138982038Y-108897483D02*
X139061130Y-109138870D01*
X139131450Y-109392396D01*
X139192594Y-109654574D01*
X139244163Y-109921915D01*
X139285755Y-110190930D01*
X139316970Y-110458132D01*
X139337407Y-110720033D01*
X139346664Y-110973143D01*
X139340925Y-111290923D01*
X139313649Y-111578607D01*
D10*
X140664794Y-106420976D02*
X137391006Y-106406873D01*
D11*
X67311714Y-163080631D02*
X67004706Y-163077837D01*
X66717666Y-163074838D01*
X66457001Y-163071756D01*
X66178022Y-163067977D01*
X65897337Y-163063260D01*
X65773586Y-163059466D01*
X60545438Y-103679908D02*
X60410283Y-103461552D01*
X60383153Y-103387096D01*
X144488893Y-50361069D02*
X144698207Y-50510460D01*
X144809933Y-50703253D01*
D10*
X62497144Y-159976333D02*
G75*
G02*
X60497144Y-159976333I-1000000J0D01*
G01*
X60497144Y-159976333D02*
G75*
G02*
X62497144Y-159976333I1000000J0D01*
G01*
X70190371Y-162897180D02*
X70077479Y-162808986D01*
D11*
X61967122Y-162833683D02*
X61663261Y-162833103D01*
X61381445Y-162829182D01*
X61108898Y-162808665D01*
X60926423Y-162685522D01*
X61162800Y-127735825D02*
X61442909Y-127408581D01*
X61714648Y-127098789D01*
X61980391Y-126804304D01*
X62242517Y-126522982D01*
X62503402Y-126252677D01*
X62765425Y-125991245D01*
X63030961Y-125736542D01*
X63302389Y-125486422D01*
X63582085Y-125238742D01*
X63872427Y-124991356D01*
X64175792Y-124742120D01*
X64494557Y-124488890D01*
X64831099Y-124229520D01*
X65187796Y-123961867D01*
X65567024Y-123683785D01*
X65971162Y-123393131D01*
X68578174Y-116446936D02*
X68273871Y-116277570D01*
X68064389Y-116137332D01*
X67851713Y-115977588D01*
X67637641Y-115800359D01*
X67423973Y-115607666D01*
X67212506Y-115401529D01*
X67005039Y-115183970D01*
X66803370Y-114957008D01*
X66609297Y-114722664D01*
X66424619Y-114482959D01*
X66251134Y-114239913D01*
X66090641Y-113995547D01*
X65944937Y-113751882D01*
X65815822Y-113510938D01*
X65705092Y-113274736D01*
X65657185Y-113159045D01*
X63491124Y-49359171D02*
X63749396Y-49313046D01*
X63925034Y-49316839D01*
X59811655Y-161471966D02*
X59614677Y-161311471D01*
X59599975Y-161292046D01*
X88520712Y-162999478D02*
X88262586Y-162946268D01*
X88086781Y-162819579D01*
X142273460Y-151086187D02*
X142336958Y-151103822D01*
D10*
X111733485Y-162858380D02*
X111557097Y-162710198D01*
D11*
X59599975Y-161292046D02*
X59586298Y-160987051D01*
X59584428Y-160733332D01*
X59584651Y-160436719D01*
X59586757Y-160118613D01*
X59590537Y-159800414D01*
X59595782Y-159503522D01*
X59602283Y-159249337D01*
X59615341Y-158978724D01*
X59621162Y-158942533D01*
D10*
X73986263Y-162784289D02*
X72673940Y-162784289D01*
X144831099Y-54012310D02*
X144824037Y-64168796D01*
D11*
X132409786Y-116842046D02*
X132163125Y-116793198D01*
X132159327Y-116792652D01*
X62252871Y-151103822D02*
X62355190Y-151082656D01*
X142298157Y-149205875D02*
X142162211Y-149420141D01*
X142035988Y-149638375D01*
X141951431Y-149892107D01*
X141945379Y-149929066D01*
X57285754Y-156430757D02*
X57460110Y-156221294D01*
X57571955Y-155972145D01*
X57626600Y-155694544D01*
X57646802Y-155393989D01*
X57649125Y-155217201D01*
D10*
X100606882Y-162685522D02*
X100434003Y-162854849D01*
D11*
X143592846Y-50332841D02*
X143772766Y-50339903D01*
X97774066Y-162738426D02*
X97498042Y-162722880D01*
X97188015Y-162717698D01*
X96855778Y-162714479D01*
X96557068Y-162712632D01*
X96215611Y-162711291D01*
X95964095Y-162710687D01*
X95693387Y-162710321D01*
X95403410Y-162710198D01*
D10*
X70077479Y-162808986D02*
X69548313Y-162808986D01*
D11*
X143748069Y-105073384D02*
X143698677Y-105320321D01*
X143712800Y-105514356D01*
X59621162Y-158942533D02*
X59348332Y-158896621D01*
X59065633Y-158895351D01*
X58740048Y-158895814D01*
X58428772Y-158896671D01*
X57994841Y-143138093D02*
X57884358Y-142792779D01*
X57784786Y-142459919D01*
X57695691Y-142137452D01*
X57616636Y-141823322D01*
X57547184Y-141515470D01*
X57486900Y-141211839D01*
X57435348Y-140910371D01*
X57392091Y-140609008D01*
X57356694Y-140305692D01*
X57328721Y-139998365D01*
X57313982Y-139790236D01*
X57127021Y-153456843D02*
X57133807Y-153204735D01*
X57143973Y-152935364D01*
X57155298Y-152660613D01*
X57168298Y-152362605D01*
X57172884Y-152260922D01*
X60069176Y-129161040D02*
X60213046Y-128945656D01*
X60375916Y-128713915D01*
X60548415Y-128484572D01*
X60715022Y-128274849D01*
X60915672Y-128030730D01*
X61109059Y-127799655D01*
X61162800Y-127735825D01*
X62683271Y-50396338D02*
X62852597Y-50336372D01*
D10*
X135037985Y-162808986D02*
X134508818Y-162808986D01*
D11*
X65643060Y-108897483D02*
X65744137Y-108631145D01*
X65864186Y-108350547D01*
X65996346Y-108069335D01*
X66133753Y-107801154D01*
X66269544Y-107559651D01*
X66420700Y-107324276D01*
X66443873Y-107292349D01*
D10*
X83969870Y-162823089D02*
X83895800Y-162759592D01*
D11*
X60838229Y-105073384D02*
X60763017Y-104822067D01*
X60733056Y-104573315D01*
X60725337Y-104346663D01*
D10*
X62796162Y-162833683D02*
X61967122Y-162833683D01*
D11*
X116503048Y-162819579D02*
X116286082Y-162963772D01*
X116069117Y-162999478D01*
X146157547Y-158896671D02*
X145847165Y-158895814D01*
X145594751Y-158895369D01*
X145338271Y-158895808D01*
X145070754Y-158900925D01*
X144965156Y-158942533D01*
D10*
X76251091Y-162784289D02*
X75012837Y-162784289D01*
D11*
X144114950Y-50276406D02*
X144366798Y-50305028D01*
X144488893Y-50361069D01*
X144598254Y-102515745D02*
X144499487Y-102737975D01*
D10*
X144816996Y-83306991D02*
X144816996Y-83578615D01*
X114478107Y-162734895D02*
X114224096Y-162904243D01*
D11*
X59779895Y-151142622D02*
X60076643Y-151141216D01*
X60354386Y-151139650D01*
X60613132Y-151137930D01*
X60965656Y-151135070D01*
X61275496Y-151131891D01*
X61542688Y-151128410D01*
X61832662Y-151123330D01*
X62088720Y-151116330D01*
X62252871Y-151103822D01*
D10*
X139204289Y-50008291D02*
X139398313Y-49817799D01*
D11*
X88947559Y-162805454D02*
X88721248Y-162945225D01*
X88520712Y-162999478D01*
X74670653Y-50241115D02*
X76590828Y-50246883D01*
X78473561Y-50252280D01*
X80321347Y-50257304D01*
X82136680Y-50261957D01*
X83922052Y-50266237D01*
X85679960Y-50270145D01*
X87412896Y-50273680D01*
X89123354Y-50276844D01*
X90813829Y-50279635D01*
X92486815Y-50282054D01*
X94144806Y-50284101D01*
X95790295Y-50285776D01*
X97425777Y-50287079D01*
X99053746Y-50288009D01*
X100676696Y-50288568D01*
X102297121Y-50288754D01*
X103917514Y-50288568D01*
X105540371Y-50288009D01*
X107168185Y-50287079D01*
X108803450Y-50285776D01*
X110448660Y-50284101D01*
X112106309Y-50282054D01*
X113778891Y-50279635D01*
X115468901Y-50276844D01*
X117178832Y-50273680D01*
X118911178Y-50270145D01*
X120668434Y-50266237D01*
X122453093Y-50261957D01*
X124267649Y-50257304D01*
X126114597Y-50252280D01*
X127996430Y-50246883D01*
X129915644Y-50241115D01*
X66980102Y-49831902D02*
X67223879Y-49925518D01*
X67465005Y-50000369D01*
X67481040Y-50004760D01*
X65307938Y-111578607D02*
X65281821Y-111290923D01*
X65276954Y-110973143D01*
X65286702Y-110720033D01*
X65307508Y-110458132D01*
X65338988Y-110190930D01*
X65380758Y-109921915D01*
X65432434Y-109654574D01*
X65493632Y-109392396D01*
X65563969Y-109138870D01*
X65643060Y-108897483D01*
X144555922Y-129161040D02*
X144808407Y-129553380D01*
X145049814Y-129948268D01*
X145279975Y-130345273D01*
X145498726Y-130743969D01*
X145705902Y-131143924D01*
X145901336Y-131544712D01*
X146084865Y-131945902D01*
X146256321Y-132347066D01*
X146415541Y-132747775D01*
X146562358Y-133147600D01*
X146696607Y-133546113D01*
X146818123Y-133942884D01*
X146926741Y-134337485D01*
X147022294Y-134729487D01*
X147104619Y-135118460D01*
X147173549Y-135503977D01*
X132261625Y-117021966D02*
X132393169Y-117287988D01*
X132512608Y-117507860D01*
X132642878Y-117731224D01*
X132782326Y-117955519D01*
X132929298Y-118178181D01*
X133082139Y-118396647D01*
X133239195Y-118608354D01*
X133358759Y-118761158D01*
X57649125Y-155217201D02*
X57647078Y-154963071D01*
X57622770Y-154689051D01*
X57542913Y-154418531D01*
X57430805Y-154190986D01*
X57293858Y-153952934D01*
X57261078Y-153897816D01*
X60185598Y-102935552D02*
X60086810Y-102737975D01*
X141768991Y-162890118D02*
X141670202Y-162957146D01*
D10*
X72673940Y-162784289D02*
X72532820Y-162921877D01*
D11*
X65509003Y-49923628D02*
X65725595Y-49798448D01*
X65973528Y-49711722D01*
X66243480Y-49675124D01*
X66330981Y-49673148D01*
D10*
X144996894Y-52904605D02*
X145000426Y-53895909D01*
D11*
X142749702Y-50188211D02*
X142943927Y-50010854D01*
X143169508Y-49941263D01*
D10*
X135193208Y-162932449D02*
X135037985Y-162808986D01*
X87998586Y-162734895D02*
X86848549Y-162734895D01*
D11*
X139313649Y-111578607D02*
X139278352Y-111832684D01*
X139237344Y-112113554D01*
X139191859Y-112389958D01*
X139138500Y-112645786D01*
X139065942Y-112895387D01*
X138967934Y-113159045D01*
X78854592Y-162861911D02*
X78652742Y-163017055D01*
X78423966Y-163140986D01*
X78290156Y-163193523D01*
X138653957Y-123393131D02*
X138859285Y-123540164D01*
X139250668Y-123824264D01*
X139618331Y-124096863D01*
X139964652Y-124360107D01*
X140292008Y-124616139D01*
X140602775Y-124867103D01*
X140899332Y-125115146D01*
X141184055Y-125362411D01*
X141459321Y-125611043D01*
X141727507Y-125863186D01*
X141990991Y-126120986D01*
X142252149Y-126386586D01*
X142513359Y-126662132D01*
X142776997Y-126949768D01*
X143045442Y-127251638D01*
X143321069Y-127569887D01*
X143462320Y-127735825D01*
X144855796Y-51306511D02*
X144858006Y-51564647D01*
X144869899Y-51803940D01*
X128204681Y-162883077D02*
X127979636Y-163020300D01*
X127750469Y-163123241D01*
X127506188Y-163204095D01*
X72215312Y-116842046D02*
X71952870Y-116885796D01*
X71669552Y-116921528D01*
X71375238Y-116948826D01*
X71079808Y-116967277D01*
X70793143Y-116976468D01*
X70525123Y-116975985D01*
X70231370Y-116961147D01*
X70084542Y-116944343D01*
D10*
X57134062Y-156578940D02*
X57285754Y-156430757D01*
D11*
X77693961Y-163260552D02*
X77435455Y-163257406D01*
X77177161Y-163227647D01*
X77083662Y-163204095D01*
X144764070Y-101923060D02*
X144746436Y-102004213D01*
X143772766Y-50339903D02*
X144023317Y-50277429D01*
X144114950Y-50276406D01*
X72532820Y-162921877D02*
X72328865Y-163080996D01*
X72101562Y-163197819D01*
X71904866Y-163264061D01*
X139109032Y-162868952D02*
X138918540Y-162953615D01*
X138967934Y-113159045D02*
X138867072Y-113392118D01*
X138746924Y-113630944D01*
X138609288Y-113873501D01*
X138455963Y-114117769D01*
X138288748Y-114361727D01*
X138109440Y-114603355D01*
X137919838Y-114840632D01*
X137721740Y-115071538D01*
X137516945Y-115294051D01*
X137307252Y-115506152D01*
X137094458Y-115705819D01*
X136880361Y-115891033D01*
X136666761Y-116059772D01*
X136455456Y-116210015D01*
X136146735Y-116396283D01*
X136046924Y-116446936D01*
X62446894Y-150941536D02*
X62570098Y-150711406D01*
X62651958Y-150455147D01*
X62689497Y-150188965D01*
X62679740Y-149929066D01*
X147360510Y-138992954D02*
X147344034Y-139245137D01*
X147327605Y-139514184D01*
X147312460Y-139767724D01*
X147311116Y-139790236D01*
X144499487Y-102737975D02*
X144400699Y-102935552D01*
X127506188Y-163204095D02*
X127244735Y-163252263D01*
X126983071Y-163260336D01*
X126892336Y-163260552D01*
D10*
X141793688Y-162833683D02*
X141768991Y-162890118D01*
X134508818Y-162808986D02*
X134395926Y-162893649D01*
D11*
X143977383Y-106410404D02*
X143693248Y-106425079D01*
X143414789Y-106428056D01*
X143134802Y-106429202D01*
X142789128Y-106429419D01*
X142520093Y-106429046D01*
X142218723Y-106428259D01*
X141883765Y-106427059D01*
X141513961Y-106425445D01*
X141108055Y-106423417D01*
X140664794Y-106420976D01*
X120616427Y-162823089D02*
X120376810Y-162972930D01*
X120103674Y-163081784D01*
X119843102Y-163154957D01*
X119564541Y-163209171D01*
X119279214Y-163241599D01*
X119053624Y-163249958D01*
D10*
X129661655Y-162854849D02*
X129573460Y-162784289D01*
D11*
X143462320Y-127735825D02*
X143664130Y-127976337D01*
X143834606Y-128182247D01*
X144013333Y-128403761D01*
X144193814Y-128638599D01*
X144357505Y-128866394D01*
X144525892Y-129115469D01*
X144555922Y-129161040D01*
X68969774Y-163115901D02*
X68681504Y-163104027D01*
X68430454Y-163098266D01*
X68122820Y-163092504D01*
X67844818Y-163088004D01*
X67545764Y-163083692D01*
X67311714Y-163080631D01*
X99869567Y-163193523D02*
X99612466Y-163232448D01*
X99345028Y-163236345D01*
X99280434Y-163235855D01*
X63233603Y-49532050D02*
X63435206Y-49377453D01*
X63491124Y-49359171D01*
X143659874Y-162685522D02*
X143427664Y-162815949D01*
X143157831Y-162830374D01*
X142854916Y-162833392D01*
X142619176Y-162833683D01*
X63925034Y-106420976D02*
X63481151Y-106423417D01*
X63074708Y-106425445D01*
X62704449Y-106427059D01*
X62369118Y-106428259D01*
X62067460Y-106429046D01*
X61798218Y-106429419D01*
X61452390Y-106429202D01*
X61172436Y-106428056D01*
X60894311Y-106425079D01*
X60641042Y-106415891D01*
X60612467Y-106410404D01*
D10*
X120690518Y-162759592D02*
X120616427Y-162823089D01*
X102593023Y-162685522D02*
X102487172Y-162784289D01*
D11*
X61840127Y-50188211D02*
X62031555Y-50351404D01*
X62283311Y-50432693D01*
X62425729Y-50438670D01*
X136590215Y-50152921D02*
X136844178Y-50077755D01*
X137089202Y-50009120D01*
X137105257Y-50004760D01*
D10*
X117903565Y-162890118D02*
X117737770Y-162734895D01*
D11*
X66330981Y-49673148D02*
X66585757Y-49698312D01*
X66828162Y-49768632D01*
X66980102Y-49831902D01*
D10*
X141578477Y-82841322D02*
X141589070Y-82841322D01*
X130600034Y-162784289D02*
X130515371Y-162868952D01*
X116591242Y-162734895D02*
X116503048Y-162819579D01*
D11*
X59649369Y-51856843D02*
X59716398Y-51803940D01*
D10*
X147462829Y-153456843D02*
X147462829Y-153664992D01*
D11*
X143991486Y-105584895D02*
X144007852Y-105849316D01*
X144009121Y-106001170D01*
X137391006Y-106435101D02*
X137580656Y-106613353D01*
X137763372Y-106799075D01*
X137936274Y-106989609D01*
X138096483Y-107182297D01*
X138181225Y-107292349D01*
D10*
X89004016Y-162734895D02*
X88947559Y-162805454D01*
X102099125Y-162784289D02*
X101993296Y-162685522D01*
X67001268Y-106406873D02*
X63925034Y-106420976D01*
D11*
X147416966Y-152260922D02*
X147427991Y-152513496D01*
X147439635Y-152801916D01*
X147449284Y-153058917D01*
X147458558Y-153324498D01*
X147462829Y-153456843D01*
X85536204Y-163249958D02*
X85252353Y-163236992D01*
X84967001Y-163199981D01*
X84691047Y-163141749D01*
X84435393Y-163065123D01*
X84170750Y-162952872D01*
X83969870Y-162823089D01*
D10*
X65187985Y-49817799D02*
X65382008Y-50008291D01*
X137391006Y-106406873D02*
X137391006Y-106435101D01*
X76381617Y-162883077D02*
X76251091Y-162784289D01*
X74070926Y-162868952D02*
X73986263Y-162784289D01*
D11*
X60598342Y-105584895D02*
X60735931Y-105542563D01*
X141903048Y-50396338D02*
X142160569Y-50438670D01*
X138181225Y-107292349D02*
X138329194Y-107515752D01*
X138463842Y-107750282D01*
X138601478Y-108014219D01*
X138735237Y-108293917D01*
X138858256Y-108575730D01*
X138963671Y-108846011D01*
X138982038Y-108897483D01*
D10*
X142619176Y-162833683D02*
X141793688Y-162833683D01*
D11*
X58428772Y-158896671D02*
X58177470Y-158898281D01*
X57894424Y-158899241D01*
X57616843Y-158898473D01*
X57352142Y-158893581D01*
X57155228Y-158871995D01*
X144206676Y-103387096D02*
X144095557Y-103615307D01*
X144044412Y-103679908D01*
D10*
X103979437Y-162685522D02*
X102593023Y-162685522D01*
D11*
X140661263Y-49316839D02*
X140912282Y-49318090D01*
X141095173Y-49359171D01*
X60760628Y-147777130D02*
X60584339Y-147598637D01*
X60383799Y-147384025D01*
X60196163Y-147167330D01*
X60011661Y-146936198D01*
X59859750Y-146732595D01*
X59698590Y-146505521D01*
X59523177Y-146248650D01*
X59476511Y-146179036D01*
D10*
X86848549Y-162734895D02*
X86682732Y-162890118D01*
D11*
X138918540Y-162953615D02*
X138812711Y-163059466D01*
X60877050Y-105514356D02*
X60882449Y-105247629D01*
X60838229Y-105073384D01*
X60725337Y-104346663D02*
X60715319Y-104082178D01*
X60651250Y-103829574D01*
X60545438Y-103679908D01*
X92856343Y-162858380D02*
X92642872Y-163016195D01*
X92397325Y-163137232D01*
X92151495Y-163201177D01*
X91896789Y-163231871D01*
X91695712Y-163242895D01*
X59903380Y-102321700D02*
X59818997Y-102078194D01*
X59843393Y-102004213D01*
X100434003Y-162854849D02*
X100237123Y-163021538D01*
X100012876Y-163142496D01*
X99869567Y-163193523D01*
D10*
X128335207Y-162784289D02*
X128204681Y-162883077D01*
D11*
X137105257Y-50004760D02*
X137345448Y-49931360D01*
X137587900Y-49841479D01*
X137609727Y-49831902D01*
X141095173Y-49359171D02*
X141320452Y-49481324D01*
X141356225Y-49532050D01*
X60474879Y-50276406D02*
X60725331Y-50300168D01*
X60817063Y-50339903D01*
X78290156Y-163193523D02*
X78036242Y-163253798D01*
X77760924Y-163260496D01*
X77693961Y-163260552D01*
M02*
