M48
; DRILL file {KiCad 7.99.0-3134-gf47cc39208} date 2023-12-05T20:49:37+0000
; FORMAT={-:-/ absolute / inch / decimal}
; #@! TF.CreationDate,2023-12-05T20:49:37+00:00
; #@! TF.GenerationSoftware,Kicad,Pcbnew,7.99.0-3134-gf47cc39208
; #@! TF.FileFunction,Plated,1,2,PTH
FMAT,2
INCH
; #@! TA.AperFunction,Plated,PTH,ViaDrill
T1C0.0118
; #@! TA.AperFunction,Plated,PTH,ComponentDrill
T2C0.0236
; #@! TA.AperFunction,Plated,PTH,ComponentDrill
T3C0.0394
; #@! TA.AperFunction,Plated,PTH,ComponentDrill
T4C0.0512
; #@! TA.AperFunction,Plated,PTH,ViaDrill
T5C0.1575
%
G90
G05
T1
X3.9688Y-3.5775
X3.9718Y-3.5276
X4.0118Y-3.5433
X4.0157Y-5.9252
X4.0311Y-2.161
X4.063Y-3.2677
X4.063Y-3.3307
X4.1366Y-3.8244
X4.1945Y-3.334
X4.2323Y-5.9843
X4.236Y-3.8959
X4.2913Y-2.27
X4.3044Y-2.1744
X4.3898Y-3.4134
X4.4485Y-3.9834
X4.46Y-2.27
X4.4945Y-3.8291
X4.5661Y-5.9252
X4.6297Y-2.7666
X4.6358Y-2.687
X4.6373Y-2.4039
X4.64Y-2.9
X4.6457Y-2.7165
X4.6662Y-2.4153
X4.6933Y-2.2134
X4.6998Y-2.4911
X4.7018Y-2.4026
X4.7126Y-3.0177
X4.74Y-2.84
X4.7551Y-3.3321
X4.7579Y-3.189
X4.7688Y-5.9838
X4.8091Y-3.4429
X4.83Y-2.93
X4.86Y-2.96
X4.8815Y-3.2709
X4.9065Y-2.3868
X4.9161Y-2.435
X4.9416Y-2.4561
X4.9918Y-5.146
X5.0Y-2.78
X5.0079Y-2.8621
X5.0079Y-2.7
X5.0157Y-5.5276
X5.025Y-3.25
X5.03Y-2.92
X5.0321Y-2.8179
X5.0524Y-5.4948
X5.0673Y-5.1531
X5.1181Y-5.9252
X5.1575Y-3.1644
X5.1623Y-4.3931
X5.1929Y-2.1457
X5.2388Y-4.4616
X5.2923Y-5.2057
X5.31Y-3.9596
X5.32Y-5.9838
X5.33Y-3.338
X5.3444Y-5.2499
X5.3912Y-3.9203
X5.4641Y-3.0595
X5.47Y-2.96
X5.519Y-3.0873
X5.528Y-3.218
X5.534Y-3.304
X5.54Y-2.876
X5.58Y-2.96
X5.5827Y-3.0689
X5.592Y-3.482
X5.6Y-2.3355
X5.65Y-2.81
X5.6693Y-5.9055
X5.6791Y-4.8012
X5.68Y-2.5355
X5.684Y-3.622
X5.6924Y-3.354
X5.702Y-3.182
X5.7124Y-4.4252
X5.7132Y-2.55
X5.7297Y-4.6878
X5.7323Y-4.7785
X5.734Y-3.154
X5.74Y-2.44
X5.7462Y-3.0451
X5.7616Y-2.5531
X5.7781Y-4.7559
X5.7894Y-2.9488
X5.7968Y-4.4321
X5.81Y-2.76
X5.8113Y-2.98
X5.838Y-3.298
X5.842Y-3.51
X5.8661Y-2.5787
X5.8719Y-5.9843
X5.876Y-3.188
X5.88Y-4.94
X5.8952Y-2.5605
X5.9079Y-2.4827
X5.91Y-2.79
X5.92Y-5.12
X5.9252Y-2.7362
X5.99Y-2.65
X6.0056Y-2.6231
X6.0275Y-4.9508
X6.0325Y-4.7844
X6.0486Y-4.9232
X6.07Y-3.08
X6.0807Y-3.3413
X6.1028Y-4.7386
X6.1138Y-3.3217
X6.1544Y-4.89
X6.1684Y-3.3126
X6.1713Y-4.5591
X6.18Y-4.6063
X6.1861Y-5.942
X6.1866Y-3.3441
X6.19Y-2.9
X6.2Y-2.7
X6.2277Y-3.3034
X6.23Y-3.34
X6.2324Y-3.9489
X6.2339Y-5.0535
X6.2561Y-4.8146
X6.2566Y-4.9921
X6.2566Y-5.0272
X6.2598Y-3.9173
X6.2795Y-4.0551
X6.2909Y-4.5484
X6.2913Y-4.7717
X6.3Y-2.36
X6.3Y-3.69
X6.3205Y-4.8783
X6.3258Y-4.5896
X6.3386Y-4.9685
X6.3408Y-2.3192
X6.3669Y-4.8285
X6.3685Y-5.1535
X6.3808Y-2.1592
X6.3848Y-5.0305
X6.3858Y-3.2295
X6.3941Y-4.6626
X6.4032Y-4.9268
X6.437Y-5.9843
X6.49Y-2.88
X6.58Y-2.83
T3
X6.3506Y-3.5198
X6.3506Y-3.6198
X6.4506Y-3.5198
X6.4506Y-3.6198
X6.5506Y-3.5198
X6.5506Y-3.6198
T4
X4.1161Y-3.4484
X4.1161Y-3.7484
X4.5161Y-3.4484
X4.5161Y-3.7484
X4.6161Y-3.4484
X4.6161Y-3.7484
T5
X3.7795Y-1.811
X6.6142Y-1.811
T2
G00X3.7299Y-3.3906
M15
G01X3.7063Y-3.3906
M16
G05
G00X3.7299Y-3.7307
M15
G01X3.7063Y-3.7307
M16
G05
G00X3.9043Y-3.3906
M15
G01X3.861Y-3.3906
M16
G05
G00X3.9043Y-3.7307
M15
G01X3.861Y-3.7307
M16
G05
T0
M30
