M48
; DRILL file {KiCad 7.99.0-3954-g9b2cde9571} date 2023-12-17T22:52:08+0100
; FORMAT={-:-/ absolute / inch / decimal}
; #@! TF.CreationDate,2023-12-17T22:52:08+01:00
; #@! TF.GenerationSoftware,Kicad,Pcbnew,7.99.0-3954-g9b2cde9571
; #@! TF.FileFunction,Plated,1,2,PTH
FMAT,2
INCH
; #@! TA.AperFunction,Plated,PTH,ViaDrill
T1C0.0118
; #@! TA.AperFunction,Plated,PTH,ComponentDrill
T2C0.0236
; #@! TA.AperFunction,Plated,PTH,ComponentDrill
T3C0.0394
; #@! TA.AperFunction,Plated,PTH,ComponentDrill
T4C0.0512
%
G90
G05
T1
X2.3228Y-5.6102
X2.4134Y-5.5866
X2.5Y-5.5709
X2.576Y-3.9298
X2.5898Y-3.5271
X2.6698Y-3.1671
X2.6698Y-3.5271
X2.7148Y-3.8673
X2.7178Y-3.8174
X2.726Y-4.0498
X2.7498Y-3.4271
X2.7578Y-3.8331
X2.7698Y-2.9871
X2.8012Y-4.078
X2.8386Y-4.8583
X2.8456Y-6.2123
X2.8465Y-3.878
X2.8583Y-2.1142
X2.8693Y-3.0199
X2.8929Y-3.6178
X2.9098Y-3.4271
X2.9698Y-3.5871
X2.9798Y-3.4771
X2.9961Y-4.1339
X3.0128Y-2.9991
X3.022Y-4.5189
X3.0621Y-6.2713
X3.1024Y-2.5354
X3.1391Y-2.5572
X3.1824Y-2.6241
X3.1898Y-3.1971
X3.1981Y-3.2895
X3.1981Y-3.4234
X3.21Y-3.6241
X3.2769Y-3.2974
X3.2835Y-2.2323
X3.2898Y-2.5571
X3.3098Y-3.1971
X3.3241Y-3.2856
X3.3399Y-2.5848
X3.3635Y-2.8407
X3.3871Y-2.6045
X3.395Y-2.9037
X3.4055Y-6.1953
X3.4213Y-4.126
X3.4265Y-2.6674
X3.4344Y-2.8131
X3.4422Y-2.8604
X3.4462Y-3.1005
X3.4698Y-2.5808
X3.4737Y-3.1438
X3.4755Y-3.0036
X3.5231Y-2.5005
X3.5367Y-2.5533
X3.5945Y-3.6457
X3.5997Y-2.8328
X3.5997Y-3.4391
X3.6091Y-6.2708
X3.6598Y-3.2171
X3.6898Y-3.2471
X3.71Y-3.4155
X3.746Y-2.7221
X3.7559Y-2.4291
X3.769Y-3.3092
X3.7714Y-2.7432
X3.8084Y-3.3367
X3.8216Y-5.4331
X3.8298Y-3.0671
X3.8377Y-3.1492
X3.8378Y-2.9871
X3.8456Y-5.8146
X3.8598Y-3.2071
X3.8619Y-3.105
X3.8635Y-3.3289
X3.8674Y-3.573
X3.8793Y-2.7029
X3.8823Y-5.7819
X3.8972Y-5.4402
X3.9331Y-3.1535
X3.948Y-6.2031
X3.9917Y-4.687
X4.0228Y-2.4327
X4.0686Y-4.7487
X4.1169Y-5.4953
X4.1399Y-4.2467
X4.1457Y-5.4725
X4.1498Y-6.2708
X4.1742Y-5.5369
X4.2211Y-4.2073
X4.2298Y-5.5514
X4.252Y-3.315
X4.2756Y-2.4606
X4.2874Y-3.1496
X4.2998Y-3.2471
X4.3504Y-3.3898
X4.3578Y-3.5051
X4.3698Y-3.163
X4.4098Y-3.2471
X4.4213Y-3.3583
X4.4218Y-3.7691
X4.4298Y-2.6226
X4.4488Y-2.378
X4.4798Y-3.0971
X4.4906Y-6.1926
X4.509Y-5.0882
X4.5098Y-2.8226
X4.5138Y-3.9091
X4.5222Y-3.6411
X4.5315Y-2.7402
X4.5318Y-3.4691
X4.5423Y-4.7123
X4.5431Y-2.8371
X4.5513Y-5.3585
X4.5596Y-4.9749
X4.5621Y-5.0656
X4.5638Y-3.4411
X4.5698Y-2.7271
X4.5748Y-3.2953
X4.5915Y-2.8402
X4.6063Y-2.7913
X4.608Y-5.043
X4.6102Y-2.6299
X4.622Y-2.9567
X4.626Y-2.6929
X4.6267Y-4.7192
X4.6398Y-3.0471
X4.6417Y-3.0
X4.6491Y-5.3971
X4.6678Y-3.5851
X4.6718Y-3.7971
X4.6811Y-2.6142
X4.6811Y-2.748
X4.696Y-2.8658
X4.6984Y-4.7385
X4.7017Y-6.2713
X4.7047Y-4.5315
X4.7058Y-2.4977
X4.7058Y-3.4751
X4.7087Y-3.5315
X4.7126Y-2.937
X4.7126Y-3.6693
X4.7176Y-3.1079
X4.725Y-2.8475
X4.7362Y-3.5984
X4.7362Y-4.2953
X4.7377Y-2.7697
X4.7396Y-4.6923
X4.7398Y-3.0771
X4.7402Y-2.5866
X4.7441Y-2.7165
X4.7441Y-3.4567
X4.7489Y-5.0262
X4.755Y-3.0233
X4.7677Y-2.7992
X4.7874Y-2.9921
X4.7937Y-5.2276
X4.7996Y-4.7773
X4.8031Y-2.4409
X4.8071Y-2.8465
X4.811Y-2.7402
X4.8198Y-2.9371
X4.8228Y-3.0472
X4.8354Y-2.9102
X4.8386Y-3.5315
X4.8501Y-4.9773
X4.8669Y-5.1049
X4.878Y-3.6024
X4.8798Y-4.9271
X4.8819Y-3.6614
X4.8976Y-2.2598
X4.8998Y-3.3671
X4.9094Y-2.7913
X4.9106Y-3.6284
X4.9213Y-3.6732
X4.9331Y-2.252
X4.9409Y-2.8622
X4.9436Y-3.6087
X4.9488Y-2.7323
X4.9685Y-4.1811
X4.9724Y-2.252
X4.9843Y-2.9961
X4.9843Y-5.2425
X4.9921Y-5.0827
X4.9982Y-3.5997
X5.0039Y-2.7638
X5.0114Y-5.3965
X5.0165Y-3.6312
X5.0198Y-3.1871
X5.0236Y-4.3976
X5.0298Y-2.9871
X5.0394Y-6.1925
X5.0472Y-2.2874
X5.0575Y-3.5905
X5.0591Y-4.6732
X5.0598Y-3.6271
X5.0699Y-3.9571
X5.0906Y-3.8898
X5.0945Y-3.7047
X5.122Y-3.437
X5.1298Y-2.6471
X5.1298Y-3.9771
X5.1299Y-5.8177
X5.1339Y-3.6575
X5.1398Y-5.3271
X5.1707Y-2.6063
X5.185Y-5.2283
X5.189Y-3.3071
X5.1921Y-3.9854
X5.2004Y-5.8547
X5.2107Y-2.4463
X5.211Y-4.8175
X5.2157Y-3.5166
X5.2198Y-5.4071
X5.2223Y-4.8465
X5.2598Y-4.0866
X5.2598Y-6.272
X5.2717Y-3.5787
X5.2998Y-3.6071
X5.317Y-4.8846
X5.3198Y-3.1671
X5.3228Y-2.626
X5.3295Y-4.9299
X5.3465Y-3.622
X5.3504Y-4.9606
X5.3622Y-5.4724
X5.374Y-5.2323
X5.3819Y-5.7205
X5.3858Y-5.3425
X5.3858Y-5.8976
X5.3977Y-6.1995
X5.4098Y-3.1171
X5.4252Y-3.7283
X5.4606Y-5.7835
X5.4646Y-5.6929
X5.4685Y-5.878
X5.4764Y-5.3583
T3
X2.5682Y-2.3635
X2.5682Y-2.4635
X2.5682Y-2.5635
X2.5682Y-2.6635
X4.6528Y-2.3496
X4.7528Y-2.3496
X4.8528Y-2.3496
X4.9528Y-2.3496
X5.1798Y-3.8071
X5.1798Y-3.9071
X5.2798Y-3.8071
X5.2798Y-3.9071
X5.2907Y-3.349
X5.2907Y-3.449
X5.3798Y-3.8071
X5.3798Y-3.9071
X5.3907Y-3.349
X5.3907Y-3.449
T4
X2.946Y-3.7355
X2.946Y-4.0355
X3.346Y-3.7355
X3.346Y-4.0355
X3.446Y-3.7355
X3.446Y-4.0355
T2
G00X2.4759Y-3.6804
M15
G01X2.4523Y-3.6804
M16
G05
G00X2.4759Y-4.0205
M15
G01X2.4523Y-4.0205
M16
G05
G00X2.6503Y-3.6804
M15
G01X2.607Y-3.6804
M16
G05
G00X2.6503Y-4.0205
M15
G01X2.607Y-4.0205
M16
G05
M30
