%TF.GenerationSoftware,KiCad,Pcbnew,7.99.0-3954-g9b2cde9571*%
%TF.CreationDate,2023-12-17T22:52:06+01:00*%
%TF.ProjectId,hh2024,68683230-3234-42e6-9b69-6361645f7063,1.4*%
%TF.SameCoordinates,Original*%
%TF.FileFunction,Paste,Bot*%
%TF.FilePolarity,Positive*%
%FSLAX46Y46*%
G04 Gerber Fmt 4.6, Leading zero omitted, Abs format (unit mm)*
G04 Created by KiCad (PCBNEW 7.99.0-3954-g9b2cde9571) date 2023-12-17 22:52:06*
%MOMM*%
%LPD*%
G01*
G04 APERTURE LIST*
G04 Aperture macros list*
%AMRoundRect*
0 Rectangle with rounded corners*
0 $1 Rounding radius*
0 $2 $3 $4 $5 $6 $7 $8 $9 X,Y pos of 4 corners*
0 Add a 4 corners polygon primitive as box body*
4,1,4,$2,$3,$4,$5,$6,$7,$8,$9,$2,$3,0*
0 Add four circle primitives for the rounded corners*
1,1,$1+$1,$2,$3*
1,1,$1+$1,$4,$5*
1,1,$1+$1,$6,$7*
1,1,$1+$1,$8,$9*
0 Add four rect primitives between the rounded corners*
20,1,$1+$1,$2,$3,$4,$5,0*
20,1,$1+$1,$4,$5,$6,$7,0*
20,1,$1+$1,$6,$7,$8,$9,0*
20,1,$1+$1,$8,$9,$2,$3,0*%
%AMRotRect*
0 Rectangle, with rotation*
0 The origin of the aperture is its center*
0 $1 length*
0 $2 width*
0 $3 Rotation angle, in degrees counterclockwise*
0 Add horizontal line*
21,1,$1,$2,0,0,$3*%
G04 Aperture macros list end*
%ADD10R,0.770000X0.950000*%
%ADD11RoundRect,0.250000X0.262500X0.450000X-0.262500X0.450000X-0.262500X-0.450000X0.262500X-0.450000X0*%
%ADD12R,0.900000X3.000000*%
%ADD13RotRect,1.200000X0.800000X315.000000*%
%ADD14RotRect,1.200000X0.800000X45.000000*%
%ADD15R,1.000000X1.300000*%
%ADD16RoundRect,0.112500X0.112500X-0.187500X0.112500X0.187500X-0.112500X0.187500X-0.112500X-0.187500X0*%
%ADD17RoundRect,0.250000X-0.262500X-0.450000X0.262500X-0.450000X0.262500X0.450000X-0.262500X0.450000X0*%
%ADD18RoundRect,0.250000X-0.475000X0.250000X-0.475000X-0.250000X0.475000X-0.250000X0.475000X0.250000X0*%
%ADD19RoundRect,0.250000X-0.250000X-0.475000X0.250000X-0.475000X0.250000X0.475000X-0.250000X0.475000X0*%
%ADD20RoundRect,0.250000X-0.450000X0.262500X-0.450000X-0.262500X0.450000X-0.262500X0.450000X0.262500X0*%
%ADD21R,1.348740X0.599440*%
%ADD22R,1.998980X1.198880*%
%ADD23R,1.500000X0.900000*%
%ADD24R,0.800000X0.800000*%
%ADD25RoundRect,0.150000X-0.587500X-0.150000X0.587500X-0.150000X0.587500X0.150000X-0.587500X0.150000X0*%
%ADD26RoundRect,0.150000X-0.150000X0.587500X-0.150000X-0.587500X0.150000X-0.587500X0.150000X0.587500X0*%
%ADD27R,0.700000X2.500000*%
%ADD28R,1.100000X1.900000*%
%ADD29RoundRect,0.250000X0.450000X-0.262500X0.450000X0.262500X-0.450000X0.262500X-0.450000X-0.262500X0*%
%ADD30RoundRect,0.250000X0.475000X-0.250000X0.475000X0.250000X-0.475000X0.250000X-0.475000X-0.250000X0*%
%ADD31R,0.650000X0.400000*%
%ADD32RoundRect,0.250000X0.250000X0.475000X-0.250000X0.475000X-0.250000X-0.475000X0.250000X-0.475000X0*%
%ADD33RoundRect,0.150000X-0.150000X0.512500X-0.150000X-0.512500X0.150000X-0.512500X0.150000X0.512500X0*%
%ADD34C,2.000000*%
%ADD35R,2.510000X1.000000*%
%ADD36RoundRect,0.112500X-0.112500X0.187500X-0.112500X-0.187500X0.112500X-0.187500X0.112500X0.187500X0*%
%ADD37R,1.450000X0.600000*%
%ADD38R,1.450000X0.300000*%
%ADD39RoundRect,0.137500X-0.137500X-0.662500X0.137500X-0.662500X0.137500X0.662500X-0.137500X0.662500X0*%
%ADD40R,1.300000X0.300000*%
%ADD41R,2.200000X1.800000*%
%ADD42RoundRect,0.150000X0.150000X-0.512500X0.150000X0.512500X-0.150000X0.512500X-0.150000X-0.512500X0*%
%ADD43R,0.700000X1.000000*%
%ADD44R,0.500000X0.500000*%
%ADD45RoundRect,0.250000X1.075000X-0.375000X1.075000X0.375000X-1.075000X0.375000X-1.075000X-0.375000X0*%
%ADD46RoundRect,0.112500X-0.187500X-0.112500X0.187500X-0.112500X0.187500X0.112500X-0.187500X0.112500X0*%
%ADD47R,0.800000X1.000000*%
%ADD48R,1.500000X0.700000*%
%ADD49RoundRect,0.200000X0.200000X0.550000X-0.200000X0.550000X-0.200000X-0.550000X0.200000X-0.550000X0*%
%ADD50RoundRect,0.375000X0.375000X0.625000X-0.375000X0.625000X-0.375000X-0.625000X0.375000X-0.625000X0*%
%ADD51RoundRect,0.243750X-0.456250X0.243750X-0.456250X-0.243750X0.456250X-0.243750X0.456250X0.243750X0*%
%ADD52RoundRect,0.167500X0.167500X0.167500X-0.167500X0.167500X-0.167500X-0.167500X0.167500X-0.167500X0*%
%ADD53RoundRect,0.050000X0.375000X0.050000X-0.375000X0.050000X-0.375000X-0.050000X0.375000X-0.050000X0*%
%ADD54RoundRect,0.050000X0.050000X0.375000X-0.050000X0.375000X-0.050000X-0.375000X0.050000X-0.375000X0*%
G04 APERTURE END LIST*
D10*
%TO.C,D13*%
X105638000Y-110016500D03*
X107268000Y-110016500D03*
%TD*%
D11*
%TO.C,R4*%
X119272500Y-131751500D03*
X117447500Y-131751500D03*
%TD*%
D12*
%TO.C,SW2*%
X83790000Y-158805500D03*
D13*
X84810000Y-161415500D03*
D14*
X92170000Y-161415500D03*
D12*
X93190000Y-158805500D03*
D15*
X85490000Y-157355500D03*
X91490000Y-157355500D03*
X87490000Y-157355500D03*
X89490000Y-157355500D03*
%TD*%
D16*
%TO.C,D25*%
X119315000Y-86446500D03*
X119315000Y-84346500D03*
%TD*%
D17*
%TO.C,R18*%
X113129500Y-73839500D03*
X114954500Y-73839500D03*
%TD*%
D10*
%TO.C,D3*%
X97343000Y-109996500D03*
X98973000Y-109996500D03*
%TD*%
D18*
%TO.C,C6*%
X93133000Y-86553129D03*
X93133000Y-88453129D03*
%TD*%
D19*
%TO.C,C20*%
X128078000Y-65711500D03*
X129978000Y-65711500D03*
%TD*%
%TO.C,C16*%
X128078000Y-63171500D03*
X129978000Y-63171500D03*
%TD*%
D20*
%TO.C,R31*%
X99719750Y-84540629D03*
X99719750Y-86365629D03*
%TD*%
D19*
%TO.C,C21*%
X128078000Y-60631500D03*
X129978000Y-60631500D03*
%TD*%
D10*
%TO.C,D12*%
X90663000Y-134056500D03*
X89033000Y-134056500D03*
%TD*%
D21*
%TO.C,J1*%
X139705715Y-89104900D03*
X139705715Y-90105660D03*
X139705715Y-91101340D03*
X139705715Y-92102100D03*
D22*
X143378555Y-87804420D03*
X143378555Y-93402580D03*
%TD*%
D11*
%TO.C,R8*%
X121558500Y-129211500D03*
X119733500Y-129211500D03*
%TD*%
D17*
%TO.C,R27*%
X72341100Y-73591400D03*
X74166100Y-73591400D03*
%TD*%
%TO.C,R24*%
X112011900Y-94372900D03*
X113836900Y-94372900D03*
%TD*%
D11*
%TO.C,R6*%
X115462500Y-137085500D03*
X113637500Y-137085500D03*
%TD*%
D10*
%TO.C,D2*%
X88988000Y-121086500D03*
X90618000Y-121086500D03*
%TD*%
D11*
%TO.C,R22*%
X88157500Y-62028500D03*
X86332500Y-62028500D03*
%TD*%
D23*
%TO.C,U3*%
X110783000Y-62148500D03*
X110783000Y-63418500D03*
X110783000Y-64688500D03*
X110783000Y-65958500D03*
X110783000Y-67228500D03*
X110783000Y-68498500D03*
X110783000Y-69768500D03*
X110783000Y-71038500D03*
X110783000Y-72308500D03*
X110783000Y-73578500D03*
X110783000Y-74848500D03*
X110783000Y-76118500D03*
X110783000Y-77388500D03*
X110783000Y-78658500D03*
X93283000Y-78658500D03*
X93283000Y-77388500D03*
X93283000Y-76118500D03*
X93283000Y-74848500D03*
X93283000Y-73578500D03*
X93283000Y-72308500D03*
X93283000Y-71038500D03*
X93283000Y-69768500D03*
X93283000Y-68498500D03*
X93283000Y-67228500D03*
X93283000Y-65958500D03*
X93283000Y-64688500D03*
X93283000Y-63418500D03*
X93283000Y-62148500D03*
D24*
X104788000Y-69118500D03*
X104788000Y-67868500D03*
X104788000Y-66618500D03*
X103538000Y-69118500D03*
X103538000Y-67868500D03*
X103538000Y-66618500D03*
X102288000Y-69118500D03*
X102288000Y-67868500D03*
X102288000Y-66618500D03*
%TD*%
D25*
%TO.C,Q2*%
X78719200Y-79773800D03*
X78719200Y-77873800D03*
X80594200Y-78823800D03*
%TD*%
D26*
%TO.C,Q1*%
X82783000Y-88115629D03*
X84683000Y-88115629D03*
X83733000Y-89990629D03*
%TD*%
D27*
%TO.C,J9*%
X102783000Y-89103129D03*
X101283000Y-89103129D03*
D28*
X104733000Y-92703129D03*
X99333000Y-92703129D03*
%TD*%
D29*
%TO.C,R19*%
X89658000Y-80236500D03*
X89658000Y-78411500D03*
%TD*%
D30*
%TO.C,C12*%
X103765000Y-86403129D03*
X103765000Y-84503129D03*
%TD*%
D12*
%TO.C,SW4*%
X111350000Y-158815500D03*
D13*
X112370000Y-161425500D03*
D14*
X119730000Y-161425500D03*
D12*
X120750000Y-158815500D03*
D15*
X113050000Y-157365500D03*
X119050000Y-157365500D03*
X115050000Y-157365500D03*
X117050000Y-157365500D03*
%TD*%
D17*
%TO.C,R33*%
X72290300Y-75648800D03*
X74115300Y-75648800D03*
%TD*%
D11*
%TO.C,R9*%
X88157500Y-64060500D03*
X86332500Y-64060500D03*
%TD*%
D29*
%TO.C,R17*%
X113534000Y-65100000D03*
X113534000Y-63275000D03*
%TD*%
D31*
%TO.C,U1*%
X122453000Y-63066500D03*
X122453000Y-63716500D03*
X122453000Y-64366500D03*
X120553000Y-64366500D03*
X120553000Y-63066500D03*
%TD*%
D32*
%TO.C,C4*%
X117326400Y-95559400D03*
X115426400Y-95559400D03*
%TD*%
D33*
%TO.C,U4*%
X115426400Y-91246900D03*
X116376400Y-91246900D03*
X117326400Y-91246900D03*
X117326400Y-93521900D03*
X115426400Y-93521900D03*
%TD*%
D32*
%TO.C,C9*%
X113874400Y-90181900D03*
X111974400Y-90181900D03*
%TD*%
D17*
%TO.C,R36*%
X126718500Y-71553500D03*
X128543500Y-71553500D03*
%TD*%
D10*
%TO.C,D18*%
X115428000Y-133961500D03*
X113798000Y-133961500D03*
%TD*%
D34*
%TO.C,K1*%
X74828000Y-94881500D03*
X84988000Y-94881500D03*
X87528000Y-94881500D03*
X87528000Y-102501500D03*
X84988000Y-102501500D03*
X74828000Y-102501500D03*
%TD*%
D20*
%TO.C,R28*%
X76657200Y-77911300D03*
X76657200Y-79736300D03*
%TD*%
%TO.C,R32*%
X101733000Y-84540629D03*
X101733000Y-86365629D03*
%TD*%
D16*
%TO.C,D26*%
X120458000Y-79461500D03*
X120458000Y-77361500D03*
%TD*%
D35*
%TO.C,J2*%
X90700000Y-101380000D03*
X94010000Y-98840000D03*
X90700000Y-96300000D03*
%TD*%
D11*
%TO.C,R1*%
X133668500Y-125029500D03*
X131843500Y-125029500D03*
%TD*%
D10*
%TO.C,D17*%
X103093000Y-150896500D03*
X101463000Y-150896500D03*
%TD*%
D11*
%TO.C,R2*%
X133668500Y-127061500D03*
X131843500Y-127061500D03*
%TD*%
D12*
%TO.C,SW1*%
X69810000Y-158805500D03*
D13*
X70830000Y-161415500D03*
D14*
X78190000Y-161415500D03*
D12*
X79210000Y-158805500D03*
D15*
X71510000Y-157355500D03*
X77510000Y-157355500D03*
X73510000Y-157355500D03*
X75510000Y-157355500D03*
%TD*%
D10*
%TO.C,D19*%
X107253000Y-134046500D03*
X105623000Y-134046500D03*
%TD*%
D11*
%TO.C,R3*%
X133668500Y-129093500D03*
X131843500Y-129093500D03*
%TD*%
%TO.C,R5*%
X120796500Y-124131500D03*
X118971500Y-124131500D03*
%TD*%
D10*
%TO.C,D1*%
X97363000Y-121086500D03*
X98993000Y-121086500D03*
%TD*%
D19*
%TO.C,C18*%
X129033000Y-77141500D03*
X130933000Y-77141500D03*
%TD*%
D25*
%TO.C,Q3*%
X129045500Y-83806500D03*
X129045500Y-81906500D03*
X130920500Y-82856500D03*
%TD*%
D12*
%TO.C,SW3*%
X97600000Y-158795500D03*
D13*
X98620000Y-161405500D03*
D14*
X105980000Y-161405500D03*
D12*
X107000000Y-158795500D03*
D15*
X99300000Y-157345500D03*
X105300000Y-157345500D03*
X101300000Y-157345500D03*
X103300000Y-157345500D03*
%TD*%
D16*
%TO.C,D24*%
X70252400Y-78851900D03*
X70252400Y-76751900D03*
%TD*%
D29*
%TO.C,R35*%
X127178000Y-87804000D03*
X127178000Y-85979000D03*
%TD*%
D36*
%TO.C,D27*%
X124268000Y-77361500D03*
X124268000Y-79461500D03*
%TD*%
D11*
%TO.C,R21*%
X114954500Y-79935500D03*
X113129500Y-79935500D03*
%TD*%
%TO.C,R7*%
X121558500Y-126671500D03*
X119733500Y-126671500D03*
%TD*%
D10*
%TO.C,D4*%
X101438000Y-115706500D03*
X103068000Y-115706500D03*
%TD*%
%TO.C,D7*%
X109713000Y-115741500D03*
X111343000Y-115741500D03*
%TD*%
D37*
%TO.C,J6*%
X67682700Y-101051000D03*
X67682700Y-100251000D03*
D38*
X67682700Y-99051000D03*
X67682700Y-98051000D03*
X67682700Y-97551000D03*
X67682700Y-96551000D03*
D37*
X67682700Y-95351000D03*
X67682700Y-94551000D03*
X67682700Y-94551000D03*
X67682700Y-95351000D03*
D38*
X67682700Y-96051000D03*
X67682700Y-97051000D03*
X67682700Y-98551000D03*
X67682700Y-99551000D03*
D37*
X67682700Y-100251000D03*
X67682700Y-101051000D03*
%TD*%
D29*
%TO.C,R15*%
X70047700Y-101253500D03*
X70047700Y-99428500D03*
%TD*%
D39*
%TO.C,L1*%
X115120400Y-89292900D03*
X116570400Y-89292900D03*
%TD*%
D40*
%TO.C,J10*%
X134078000Y-67541500D03*
X134078000Y-68041500D03*
X134078000Y-68541500D03*
X134078000Y-69041500D03*
X134078000Y-69541500D03*
X134078000Y-70041500D03*
X134078000Y-70541500D03*
X134078000Y-71041500D03*
X134078000Y-71541500D03*
X134078000Y-72041500D03*
X134078000Y-72541500D03*
X134078000Y-73041500D03*
X134078000Y-73541500D03*
X134078000Y-74041500D03*
X134078000Y-74541500D03*
X134078000Y-75041500D03*
X134078000Y-75541500D03*
X134078000Y-76041500D03*
X134078000Y-76541500D03*
X134078000Y-77041500D03*
X134078000Y-77541500D03*
X134078000Y-78041500D03*
X134078000Y-78541500D03*
X134078000Y-79041500D03*
D41*
X137328000Y-65641500D03*
X137328000Y-80941500D03*
%TD*%
D30*
%TO.C,C1*%
X125040000Y-126640000D03*
X125040000Y-124740000D03*
%TD*%
D17*
%TO.C,R25*%
X95108000Y-86803129D03*
X96933000Y-86803129D03*
%TD*%
D10*
%TO.C,D14*%
X111283000Y-139386500D03*
X109653000Y-139386500D03*
%TD*%
D42*
%TO.C,U5*%
X96970500Y-91364129D03*
X96020500Y-91364129D03*
X95070500Y-91364129D03*
X95070500Y-89089129D03*
X96970500Y-89089129D03*
%TD*%
D11*
%TO.C,R14*%
X133668500Y-131125500D03*
X131843500Y-131125500D03*
%TD*%
D43*
%TO.C,D22*%
X126778000Y-55291500D03*
D44*
X127858000Y-55541500D03*
D43*
X129788000Y-55291500D03*
D44*
X128708000Y-55541500D03*
%TD*%
D19*
%TO.C,C17*%
X129033000Y-79681500D03*
X130933000Y-79681500D03*
%TD*%
D10*
%TO.C,D6*%
X105613000Y-121086500D03*
X107243000Y-121086500D03*
%TD*%
D32*
%TO.C,C10*%
X113874400Y-88149900D03*
X111974400Y-88149900D03*
%TD*%
D30*
%TO.C,C3*%
X115616800Y-65137500D03*
X115616800Y-63237500D03*
%TD*%
D20*
%TO.C,R26*%
X85920500Y-75840629D03*
X85920500Y-77665629D03*
%TD*%
D10*
%TO.C,D20*%
X94923000Y-139426500D03*
X93293000Y-139426500D03*
%TD*%
D20*
%TO.C,R13*%
X117648800Y-63275000D03*
X117648800Y-65100000D03*
%TD*%
D10*
%TO.C,D16*%
X98993000Y-145056500D03*
X97363000Y-145056500D03*
%TD*%
D19*
%TO.C,C7*%
X111974400Y-92213900D03*
X113874400Y-92213900D03*
%TD*%
D45*
%TO.C,L2*%
X129983000Y-88701500D03*
X129983000Y-85901500D03*
%TD*%
D17*
%TO.C,R12*%
X129365500Y-102291500D03*
X131190500Y-102291500D03*
%TD*%
%TO.C,R34*%
X123985500Y-84253500D03*
X125810500Y-84253500D03*
%TD*%
D30*
%TO.C,C19*%
X128774000Y-69709500D03*
X128774000Y-67809500D03*
%TD*%
D10*
%TO.C,D8*%
X98993000Y-134026500D03*
X97363000Y-134026500D03*
%TD*%
D46*
%TO.C,D21*%
X82705500Y-91975629D03*
X84805500Y-91975629D03*
%TD*%
D11*
%TO.C,R20*%
X114954500Y-83491500D03*
X113129500Y-83491500D03*
%TD*%
D18*
%TO.C,C22*%
X137278000Y-60341500D03*
X137278000Y-62241500D03*
%TD*%
D32*
%TO.C,C2*%
X114992000Y-76379500D03*
X113092000Y-76379500D03*
%TD*%
D30*
%TO.C,C8*%
X93133000Y-92053129D03*
X93133000Y-90153129D03*
%TD*%
D10*
%TO.C,D11*%
X103093000Y-139426500D03*
X101463000Y-139426500D03*
%TD*%
D36*
%TO.C,D23*%
X91055500Y-88480629D03*
X91055500Y-86380629D03*
%TD*%
D12*
%TO.C,SW5*%
X125300000Y-158845500D03*
D13*
X126320000Y-161455500D03*
D14*
X133680000Y-161455500D03*
D12*
X134700000Y-158845500D03*
D15*
X127000000Y-157395500D03*
X133000000Y-157395500D03*
X129000000Y-157395500D03*
X131000000Y-157395500D03*
%TD*%
D10*
%TO.C,D5*%
X113813000Y-121111500D03*
X115443000Y-121111500D03*
%TD*%
D30*
%TO.C,C14*%
X135278000Y-62241500D03*
X135278000Y-60341500D03*
%TD*%
D17*
%TO.C,R30*%
X78753000Y-75956765D03*
X80578000Y-75956765D03*
%TD*%
D32*
%TO.C,C5*%
X117326400Y-97718400D03*
X115426400Y-97718400D03*
%TD*%
D17*
%TO.C,R11*%
X129365500Y-104323500D03*
X131190500Y-104323500D03*
%TD*%
D18*
%TO.C,C15*%
X123694000Y-67809500D03*
X123694000Y-69709500D03*
%TD*%
D19*
%TO.C,C11*%
X95070500Y-93407129D03*
X96970500Y-93407129D03*
%TD*%
D47*
%TO.C,SW6*%
X60705000Y-79780000D03*
X62915000Y-79780000D03*
X60705000Y-72480000D03*
X62915000Y-72480000D03*
D48*
X63565000Y-78380000D03*
X63565000Y-75380000D03*
X63565000Y-73880000D03*
%TD*%
D20*
%TO.C,R23*%
X113686400Y-96127400D03*
X113686400Y-97952400D03*
%TD*%
D29*
%TO.C,R10*%
X83933000Y-77665629D03*
X83933000Y-75840629D03*
%TD*%
D49*
%TO.C,J4*%
X80533000Y-56453129D03*
X79433000Y-56453129D03*
X78333000Y-56453129D03*
X77233000Y-56453129D03*
X76133000Y-56453129D03*
X75033000Y-56453129D03*
X73933000Y-56453129D03*
X72833000Y-56453129D03*
D50*
X70383000Y-53853129D03*
X70383000Y-62153129D03*
X83983000Y-53903129D03*
X83983000Y-62153129D03*
%TD*%
D11*
%TO.C,R29*%
X80580200Y-73824035D03*
X78755200Y-73824035D03*
%TD*%
D51*
%TO.C,F1*%
X69233000Y-80815629D03*
X69233000Y-82690629D03*
%TD*%
D10*
%TO.C,D9*%
X101473000Y-104276500D03*
X103103000Y-104276500D03*
%TD*%
D19*
%TO.C,C13*%
X124014000Y-82221500D03*
X125914000Y-82221500D03*
%TD*%
D10*
%TO.C,D10*%
X93283000Y-115676500D03*
X94913000Y-115676500D03*
%TD*%
D20*
%TO.C,R16*%
X70047700Y-94348500D03*
X70047700Y-96173500D03*
%TD*%
D52*
%TO.C,U2*%
X128184000Y-126807500D03*
X128184000Y-127627500D03*
X129004000Y-126807500D03*
X129004000Y-127627500D03*
D53*
X127144000Y-128017500D03*
X127144000Y-127617500D03*
X127144000Y-127217500D03*
X127144000Y-126817500D03*
X127144000Y-126417500D03*
D54*
X127794000Y-125767500D03*
X128194000Y-125767500D03*
X128594000Y-125767500D03*
X128994000Y-125767500D03*
X129394000Y-125767500D03*
D53*
X130044000Y-126417500D03*
X130044000Y-126817500D03*
X130044000Y-127217500D03*
X130044000Y-127617500D03*
X130044000Y-128017500D03*
D54*
X129394000Y-128667500D03*
X128994000Y-128667500D03*
X128594000Y-128667500D03*
X128194000Y-128667500D03*
X127794000Y-128667500D03*
%TD*%
D10*
%TO.C,D15*%
X107273000Y-145036500D03*
X105643000Y-145036500D03*
%TD*%
D33*
%TO.C,U6*%
X72125800Y-77813300D03*
X73075800Y-77813300D03*
X74025800Y-77813300D03*
X74025800Y-80088300D03*
X72125800Y-80088300D03*
%TD*%
M02*
