%TF.GenerationSoftware,KiCad,Pcbnew,7.99.0-3193-g96f9f2c658*%
%TF.CreationDate,2023-10-14T12:34:29+01:00*%
%TF.ProjectId,hh2024,68683230-3234-42e6-9b69-6361645f7063,rev?*%
%TF.SameCoordinates,Original*%
%TF.FileFunction,Paste,Bot*%
%TF.FilePolarity,Positive*%
%FSLAX46Y46*%
G04 Gerber Fmt 4.6, Leading zero omitted, Abs format (unit mm)*
G04 Created by KiCad (PCBNEW 7.99.0-3193-g96f9f2c658) date 2023-10-14 12:34:29*
%MOMM*%
%LPD*%
G01*
G04 APERTURE LIST*
G04 Aperture macros list*
%AMRoundRect*
0 Rectangle with rounded corners*
0 $1 Rounding radius*
0 $2 $3 $4 $5 $6 $7 $8 $9 X,Y pos of 4 corners*
0 Add a 4 corners polygon primitive as box body*
4,1,4,$2,$3,$4,$5,$6,$7,$8,$9,$2,$3,0*
0 Add four circle primitives for the rounded corners*
1,1,$1+$1,$2,$3*
1,1,$1+$1,$4,$5*
1,1,$1+$1,$6,$7*
1,1,$1+$1,$8,$9*
0 Add four rect primitives between the rounded corners*
20,1,$1+$1,$2,$3,$4,$5,0*
20,1,$1+$1,$4,$5,$6,$7,0*
20,1,$1+$1,$6,$7,$8,$9,0*
20,1,$1+$1,$8,$9,$2,$3,0*%
%AMRotRect*
0 Rectangle, with rotation*
0 The origin of the aperture is its center*
0 $1 length*
0 $2 width*
0 $3 Rotation angle, in degrees counterclockwise*
0 Add horizontal line*
21,1,$1,$2,0,0,$3*%
G04 Aperture macros list end*
%ADD10C,2.000000*%
%ADD11R,0.900000X3.000000*%
%ADD12RotRect,1.200000X0.800000X315.000000*%
%ADD13RotRect,1.200000X0.800000X45.000000*%
%ADD14R,1.000000X1.300000*%
%ADD15RoundRect,0.112500X-0.187500X-0.112500X0.187500X-0.112500X0.187500X0.112500X-0.187500X0.112500X0*%
%ADD16R,1.500000X0.900000*%
%ADD17R,0.800000X0.800000*%
%ADD18RoundRect,0.150000X0.587500X0.150000X-0.587500X0.150000X-0.587500X-0.150000X0.587500X-0.150000X0*%
%ADD19RoundRect,0.150000X-0.150000X0.587500X-0.150000X-0.587500X0.150000X-0.587500X0.150000X0.587500X0*%
%ADD20R,2.500000X0.700000*%
%ADD21R,1.900000X1.100000*%
%ADD22RoundRect,0.150000X-0.150000X0.512500X-0.150000X-0.512500X0.150000X-0.512500X0.150000X0.512500X0*%
%ADD23RoundRect,0.112500X0.187500X0.112500X-0.187500X0.112500X-0.187500X-0.112500X0.187500X-0.112500X0*%
%ADD24RoundRect,0.112500X-0.112500X0.187500X-0.112500X-0.187500X0.112500X-0.187500X0.112500X0.187500X0*%
%ADD25RoundRect,0.112500X0.112500X-0.187500X0.112500X0.187500X-0.112500X0.187500X-0.112500X-0.187500X0*%
%ADD26R,0.600000X1.450000*%
%ADD27R,0.300000X1.450000*%
%ADD28RoundRect,0.137500X0.662500X-0.137500X0.662500X0.137500X-0.662500X0.137500X-0.662500X-0.137500X0*%
%ADD29R,1.300000X0.300000*%
%ADD30R,2.200000X1.800000*%
%ADD31RoundRect,0.250000X-0.375000X-1.075000X0.375000X-1.075000X0.375000X1.075000X-0.375000X1.075000X0*%
%ADD32RoundRect,0.200000X-0.550000X0.200000X-0.550000X-0.200000X0.550000X-0.200000X0.550000X0.200000X0*%
%ADD33RoundRect,0.375000X-0.625000X0.375000X-0.625000X-0.375000X0.625000X-0.375000X0.625000X0.375000X0*%
%ADD34RoundRect,0.243750X0.243750X0.456250X-0.243750X0.456250X-0.243750X-0.456250X0.243750X-0.456250X0*%
%ADD35RoundRect,0.167500X-0.167500X-0.167500X0.167500X-0.167500X0.167500X0.167500X-0.167500X0.167500X0*%
%ADD36RoundRect,0.050000X-0.375000X-0.050000X0.375000X-0.050000X0.375000X0.050000X-0.375000X0.050000X0*%
%ADD37RoundRect,0.050000X-0.050000X-0.375000X0.050000X-0.375000X0.050000X0.375000X-0.050000X0.375000X0*%
%ADD38RoundRect,0.150000X0.512500X0.150000X-0.512500X0.150000X-0.512500X-0.150000X0.512500X-0.150000X0*%
G04 APERTURE END LIST*
D10*
%TO.C,K1*%
X106931000Y-65415000D03*
X106931000Y-55255000D03*
X106931000Y-52715000D03*
X99311000Y-52715000D03*
X99311000Y-55255000D03*
X99311000Y-65415000D03*
%TD*%
D11*
%TO.C,SW2*%
X113433000Y-151594000D03*
D12*
X114453000Y-154204000D03*
D13*
X121813000Y-154204000D03*
D11*
X122833000Y-151594000D03*
D14*
X115133000Y-150144000D03*
X121133000Y-150144000D03*
X117133000Y-150144000D03*
X119133000Y-150144000D03*
%TD*%
D15*
%TO.C,D2*%
X244522000Y-104971000D03*
X246622000Y-104971000D03*
%TD*%
D16*
%TO.C,U1*%
X140505000Y-54857000D03*
X140505000Y-56127000D03*
X140505000Y-57397000D03*
X140505000Y-58667000D03*
X140505000Y-59937000D03*
X140505000Y-61207000D03*
X140505000Y-62477000D03*
X140505000Y-63747000D03*
X140505000Y-65017000D03*
X140505000Y-66287000D03*
X140505000Y-67557000D03*
X140505000Y-68827000D03*
X140505000Y-70097000D03*
X140505000Y-71367000D03*
X123005000Y-71367000D03*
X123005000Y-70097000D03*
X123005000Y-68827000D03*
X123005000Y-67557000D03*
X123005000Y-66287000D03*
X123005000Y-65017000D03*
X123005000Y-63747000D03*
X123005000Y-62477000D03*
X123005000Y-61207000D03*
X123005000Y-59937000D03*
X123005000Y-58667000D03*
X123005000Y-57397000D03*
X123005000Y-56127000D03*
X123005000Y-54857000D03*
D17*
X134510000Y-61827000D03*
X134510000Y-60577000D03*
X134510000Y-59327000D03*
X133260000Y-61827000D03*
X133260000Y-60577000D03*
X133260000Y-59327000D03*
X132010000Y-61827000D03*
X132010000Y-60577000D03*
X132010000Y-59327000D03*
%TD*%
D18*
%TO.C,Q1*%
X231445000Y-131707000D03*
X231445000Y-133607000D03*
X229570000Y-132657000D03*
%TD*%
D19*
%TO.C,Q3*%
X230525000Y-115415000D03*
X232425000Y-115415000D03*
X231475000Y-117290000D03*
%TD*%
D20*
%TO.C,J5*%
X229434000Y-62033000D03*
X229434000Y-60533000D03*
D21*
X225834000Y-63983000D03*
X225834000Y-58583000D03*
%TD*%
D11*
%TO.C,SW4*%
X141445000Y-151160500D03*
D12*
X142465000Y-153770500D03*
D13*
X149825000Y-153770500D03*
D11*
X150845000Y-151160500D03*
D14*
X143145000Y-149710500D03*
X149145000Y-149710500D03*
X145145000Y-149710500D03*
X147145000Y-149710500D03*
%TD*%
D22*
%TO.C,U2*%
X244302000Y-130763000D03*
X245252000Y-130763000D03*
X246202000Y-130763000D03*
X246202000Y-133038000D03*
X244302000Y-133038000D03*
%TD*%
D23*
%TO.C,D3*%
X239925000Y-106241000D03*
X237825000Y-106241000D03*
%TD*%
D11*
%TO.C,SW1*%
X99433000Y-151594000D03*
D12*
X100453000Y-154204000D03*
D13*
X107813000Y-154204000D03*
D11*
X108833000Y-151594000D03*
D14*
X101133000Y-150144000D03*
X107133000Y-150144000D03*
X103133000Y-150144000D03*
X105133000Y-150144000D03*
%TD*%
D19*
%TO.C,Q2*%
X229128000Y-108557000D03*
X231028000Y-108557000D03*
X230078000Y-110432000D03*
%TD*%
D11*
%TO.C,SW3*%
X127433000Y-151594000D03*
D12*
X128453000Y-154204000D03*
D13*
X135813000Y-154204000D03*
D11*
X136833000Y-151594000D03*
D14*
X129133000Y-150144000D03*
X135133000Y-150144000D03*
X131133000Y-150144000D03*
X133133000Y-150144000D03*
%TD*%
D24*
%TO.C,D1*%
X223347000Y-137449000D03*
X223347000Y-139549000D03*
%TD*%
D25*
%TO.C,D4*%
X232872000Y-104878000D03*
X232872000Y-102778000D03*
%TD*%
D26*
%TO.C,J4*%
X234090000Y-83908000D03*
X233290000Y-83908000D03*
D27*
X232090000Y-83908000D03*
X231090000Y-83908000D03*
X230590000Y-83908000D03*
X229590000Y-83908000D03*
D26*
X228390000Y-83908000D03*
X227590000Y-83908000D03*
X227590000Y-83908000D03*
X228390000Y-83908000D03*
D27*
X229090000Y-83908000D03*
X230090000Y-83908000D03*
X231590000Y-83908000D03*
X232590000Y-83908000D03*
D26*
X233290000Y-83908000D03*
X234090000Y-83908000D03*
%TD*%
D28*
%TO.C,L1*%
X234650000Y-122079000D03*
X234650000Y-120629000D03*
%TD*%
D29*
%TO.C,J6*%
X163800000Y-60250000D03*
X163800000Y-60750000D03*
X163800000Y-61250000D03*
X163800000Y-61750000D03*
X163800000Y-62250000D03*
X163800000Y-62750000D03*
X163800000Y-63250000D03*
X163800000Y-63750000D03*
X163800000Y-64250000D03*
X163800000Y-64750000D03*
X163800000Y-65250000D03*
X163800000Y-65750000D03*
X163800000Y-66250000D03*
X163800000Y-66750000D03*
X163800000Y-67250000D03*
X163800000Y-67750000D03*
X163800000Y-68250000D03*
X163800000Y-68750000D03*
X163800000Y-69250000D03*
X163800000Y-69750000D03*
X163800000Y-70250000D03*
X163800000Y-70750000D03*
X163800000Y-71250000D03*
X163800000Y-71750000D03*
D30*
X167050000Y-58350000D03*
X167050000Y-73650000D03*
%TD*%
D22*
%TO.C,U3*%
X235351000Y-133297500D03*
X236301000Y-133297500D03*
X237251000Y-133297500D03*
X237251000Y-135572500D03*
X235351000Y-135572500D03*
%TD*%
D31*
%TO.C,L2*%
X221820000Y-109797000D03*
X224620000Y-109797000D03*
%TD*%
D15*
%TO.C,D25*%
X245919000Y-111829000D03*
X248019000Y-111829000D03*
%TD*%
D11*
%TO.C,SW5*%
X155445000Y-151160500D03*
D12*
X156465000Y-153770500D03*
D13*
X163825000Y-153770500D03*
D11*
X164845000Y-151160500D03*
D14*
X157145000Y-149710500D03*
X163145000Y-149710500D03*
X159145000Y-149710500D03*
X161145000Y-149710500D03*
%TD*%
D32*
%TO.C,J3*%
X194721000Y-54915000D03*
X194721000Y-56015000D03*
X194721000Y-57115000D03*
X194721000Y-58215000D03*
X194721000Y-59315000D03*
X194721000Y-60415000D03*
X194721000Y-61515000D03*
X194721000Y-62615000D03*
D33*
X192121000Y-65065000D03*
X200421000Y-65065000D03*
X192171000Y-51465000D03*
X200421000Y-51465000D03*
%TD*%
D34*
%TO.C,F1*%
X229491500Y-140658000D03*
X227616500Y-140658000D03*
%TD*%
D35*
%TO.C,U5*%
X224646000Y-123542000D03*
X224646000Y-122722000D03*
X223826000Y-123542000D03*
X223826000Y-122722000D03*
D36*
X225686000Y-122332000D03*
X225686000Y-122732000D03*
X225686000Y-123132000D03*
X225686000Y-123532000D03*
X225686000Y-123932000D03*
D37*
X225036000Y-124582000D03*
X224636000Y-124582000D03*
X224236000Y-124582000D03*
X223836000Y-124582000D03*
X223436000Y-124582000D03*
D36*
X222786000Y-123932000D03*
X222786000Y-123532000D03*
X222786000Y-123132000D03*
X222786000Y-122732000D03*
X222786000Y-122332000D03*
D37*
X223436000Y-121682000D03*
X223836000Y-121682000D03*
X224236000Y-121682000D03*
X224636000Y-121682000D03*
X225036000Y-121682000D03*
%TD*%
D38*
%TO.C,U4*%
X224225000Y-129614000D03*
X224225000Y-130564000D03*
X224225000Y-131514000D03*
X221950000Y-131514000D03*
X221950000Y-129614000D03*
%TD*%
M02*
